<svg width="360" height="341" viewBox="0 0 360 341" fill="none" xmlns="http://www.w3.org/2000/svg">
<g style="mix-blend-mode:soft-light">
<path opacity="0.25" d="M48.0208 282.236C49.1114 287.234 51.2986 291.566 54.5275 295.106C64.574 306.134 79.3447 305.674 90.1274 305.342C91.6603 305.293 95.2919 305.179 97.3642 305.296C107.336 311.443 117.142 311.77 123.766 311.99C126.087 312.066 128.483 312.144 129.737 312.474L133.008 313.345C142.789 315.98 151.241 318.257 164.576 313.268C166.152 313.092 170.07 313.249 172.235 313.334C183.9 313.796 203.411 314.57 211.61 296.65C214.278 290.824 214.844 284.259 213.291 277.141C212.035 271.386 209.587 266.086 207.425 261.407C206.408 259.205 205.077 256.319 204.538 254.647C205.278 250.641 207.095 246.275 209.009 241.676C209.698 240.02 210.394 238.344 211.056 236.646C212.935 236.801 215.029 236.908 217.323 236.906C228.258 236.894 236.019 230.055 242.254 224.56C242.819 224.064 243.867 223.14 244.895 222.277C247.262 222.763 249.598 223.173 251.886 223.577C256.037 224.303 260.74 225.129 262.925 226.09C271.914 230.048 276.679 230.857 280.507 231.505C282.809 231.896 283.858 232.072 287.329 233.633C288.696 234.247 289.166 234.813 290.741 236.878C293.025 239.868 296.844 244.87 304.022 247.06C311.562 249.356 319.207 247.594 326.748 241.821C340.915 230.991 346.211 216.828 342.479 199.726C342.208 198.485 341.884 197.202 341.496 195.871C341.451 195.719 341.39 195.439 341.389 195.435C341.102 194.121 340.838 191.957 340.581 189.864C340.177 186.567 339.673 182.464 338.721 178.103C337.453 172.291 335.648 167.185 333.201 162.497C326.915 150.456 313.795 148.029 304.214 146.256C303.455 146.116 301.939 145.834 300.427 145.519C300.341 144.777 300.258 143.986 300.176 143.177C299.884 140.351 299.554 137.154 298.82 133.79C297.69 128.611 295.855 124.249 293.206 120.444C287.627 112.449 279.599 108.694 273.739 105.953C272.162 105.217 269.856 104.136 268.883 103.494C267.989 102.135 266.969 99.4706 266.056 97.0937C264.073 91.9193 261.355 84.8381 255.767 78.8427C249.382 71.9928 241.703 68.9679 236.095 66.759C235.488 66.522 234.778 66.2397 234.072 65.9524C234.06 63.9103 234.145 61.4814 234.207 59.6086C234.41 53.6835 234.619 47.5594 233.37 41.8352C231.341 32.539 226.147 27.7237 222.145 25.318C208.231 16.9541 193.445 24.3722 184.611 28.8021C183.553 29.3326 181.455 30.3833 179.979 31.039C166.788 29.4504 159.798 31.8325 149.173 41.0125C138.949 49.8473 135.088 57.3474 131.167 68.9364C127.932 78.4968 126.034 87.1482 124.873 97.6895C124.164 98.9226 122.33 101.262 121.183 102.722C116.957 108.111 111.173 115.49 110.078 125.24C109.245 132.669 110.677 139.488 111.829 144.967C112.17 146.588 112.694 149.082 112.862 150.543C109.449 157.764 107.033 161.59 105.436 163.614C103.77 162.851 102.044 162.007 101.22 161.606C91.6339 156.919 78.5254 150.509 66.1498 158.851C57.1987 164.886 44.9445 175.953 38.8393 185.431C35.2168 191.058 34.1199 197.781 35.6681 204.876C37.1007 211.441 40.597 217.351 43.6852 222.562C44.6221 224.147 46.2068 226.825 46.9555 228.389C46.8941 229.279 46.7921 230.293 46.6825 231.338C46.227 235.738 45.6045 241.771 47.1148 248.692C47.6501 251.146 48.3941 253.493 49.3719 255.796C49.1847 257.309 48.8403 259.409 48.6463 260.597C47.6236 266.855 46.3539 274.617 48.0149 282.228L48.0169 282.237L48.0208 282.236Z" fill="#44A1CC"/>
<path d="M198.571 255.032L199.018 256.42C199.205 257.004 199.83 257.323 200.412 257.136C200.997 256.949 201.317 256.312 201.129 255.742L200.854 254.885L201.017 253.995C201.825 249.619 203.708 245.096 205.7 240.308C206.383 238.668 207.068 237.021 207.721 235.346L208.693 232.854L211.354 233.074C213.396 233.243 215.351 233.324 217.327 233.32C226.914 233.309 233.807 227.232 239.889 221.869C240.712 221.148 241.663 220.313 242.594 219.529L243.922 218.413L245.622 218.763C247.898 219.23 250.148 219.628 252.355 220.015C257.874 220.981 261.964 221.746 264.368 222.807C272.959 226.588 277.289 227.32 281.108 227.966C283.753 228.418 285.079 228.685 288.801 230.359C291.05 231.368 292.003 232.616 293.584 234.687C295.748 237.52 298.998 241.773 305.07 243.627C311.527 245.593 317.907 244.071 324.572 238.972C337.722 228.917 342.435 216.327 338.978 200.485C338.724 199.32 338.42 198.119 338.057 196.868C337.989 196.639 337.895 196.216 337.889 196.19C337.568 194.718 337.292 192.476 337.027 190.307C336.634 187.088 336.144 183.079 335.224 178.861C334.024 173.362 332.323 168.551 330.027 164.15C324.55 153.657 312.92 151.506 303.576 149.775C302.656 149.602 301.176 149.328 299.699 149.021C299.099 148.897 298.514 149.282 298.389 149.881C298.264 150.481 298.65 151.068 299.25 151.19C300.743 151.5 302.242 151.779 303.164 151.952C312.046 153.598 323.088 155.641 328.064 165.175C330.269 169.399 331.903 174.03 333.06 179.333C333.959 183.45 334.442 187.401 334.829 190.575C335.101 192.794 335.382 195.089 335.726 196.664C335.729 196.677 335.851 197.218 335.935 197.495C336.281 198.687 336.573 199.84 336.817 200.957C340.072 215.872 335.628 227.731 323.231 237.21C317.173 241.843 311.447 243.248 305.721 241.506C300.332 239.861 297.344 235.95 295.365 233.36C293.682 231.155 292.476 229.575 289.713 228.335C285.753 226.556 284.248 226.249 281.483 225.778C277.791 225.154 273.606 224.446 265.268 220.778C262.627 219.613 258.594 218.855 252.741 217.83C250.554 217.447 248.328 217.054 246.07 216.588L243.318 216.022L241.168 217.829C240.222 218.627 239.26 219.47 238.491 220.145C232.635 225.305 226.074 231.088 217.323 231.098C215.409 231.103 213.517 231.024 211.537 230.861L207.226 230.506L205.655 234.537C205.01 236.194 204.33 237.828 203.654 239.451C201.614 244.351 199.689 248.979 198.837 253.588L198.571 255.032Z" fill="#B3D9EB"/>
<path d="M51.5203 281.467L51.5219 281.475C52.477 285.851 54.3794 289.627 57.1752 292.694C66.1067 302.5 79.3544 302.09 90.0002 301.761C92.4889 301.681 95.5839 301.607 97.5631 301.718L98.469 301.77L99.2443 302.248C108.41 307.896 117.352 308.193 123.879 308.411C126.522 308.497 129.014 308.58 130.643 309.009L133.927 309.882C143.498 312.46 151.059 314.499 163.318 309.914L163.734 309.76L164.174 309.71C165.838 309.52 169.101 309.627 172.301 309.751C183.789 310.206 201.152 310.892 208.348 295.162C210.688 290.054 211.171 284.25 209.787 277.908C209.657 277.309 209.067 276.931 208.468 277.061C207.87 277.192 207.492 277.784 207.622 278.38C208.901 284.242 208.468 289.578 206.334 294.241C199.755 308.619 183.288 307.967 172.389 307.538C168.967 307.404 165.745 307.3 163.927 307.507L163.216 307.588L162.546 307.838C150.953 312.173 143.694 310.219 134.503 307.744L131.215 306.87C129.339 306.374 126.727 306.289 123.961 306.196C117.677 305.988 109.075 305.7 100.412 300.362L99.1596 299.591L97.6898 299.508C95.6259 299.393 92.4675 299.47 89.9466 299.548C79.7434 299.864 67.0605 300.255 58.8173 291.205C56.2864 288.428 54.5629 284.996 53.6919 281.005C53.5617 280.408 52.9688 280.025 52.3722 280.155C51.7705 280.28 51.3896 280.868 51.5203 281.467Z" fill="#B3D9EB"/>
<path d="M39.168 204.111C40.4791 210.119 43.8181 215.757 46.7604 220.73C48.0817 222.96 49.4311 225.263 50.1869 226.842L50.594 227.691L50.5281 228.634C50.4675 229.564 50.3581 230.618 50.2462 231.707C49.7913 236.12 49.2287 241.576 50.6155 247.931C51.1068 250.182 51.7778 252.296 52.6694 254.396L53.0465 255.283L52.9304 256.242C52.8621 256.844 53.2893 257.402 53.8968 257.477C54.5039 257.55 55.0566 257.118 55.1317 256.511L55.3228 254.962L54.7126 253.529C53.875 251.557 53.2441 249.572 52.7828 247.458C51.4721 241.452 52.0151 236.19 52.4488 231.963C52.5662 230.817 52.6774 229.735 52.7407 228.78L52.8438 227.258L52.1842 225.883C51.3891 224.225 50.0152 221.873 48.6722 219.608C45.8099 214.773 42.5688 209.3 41.3334 203.639C40.1208 198.082 40.943 192.873 43.7151 188.573C49.338 179.842 61.1404 169.221 69.3888 163.663C78.9841 157.194 89.9353 162.548 98.734 166.85C99.6148 167.281 101.347 168.125 103.021 168.888L107.165 170.783L109.986 167.204C112.328 164.237 115.059 159.466 118.103 153.02L118.811 151.522L118.62 149.88C118.437 148.279 117.986 146.075 117.501 143.77C116.435 138.697 115.108 132.385 115.838 125.883C116.751 117.768 121.738 111.41 125.744 106.299C127.447 104.13 129.048 102.055 129.899 100.575L130.528 99.294L130.634 98.3182C131.749 88.2102 133.551 79.9771 136.659 70.7921C136.857 70.2096 136.545 69.5829 135.965 69.386C135.387 69.1906 134.756 69.502 134.561 70.0798C131.398 79.4265 129.565 87.7983 128.433 98.0757L128.352 98.8203L127.98 99.4686C127.203 100.822 125.655 102.825 124.004 104.929C119.823 110.261 114.621 116.893 113.638 125.632C112.87 132.49 114.236 138.995 115.335 144.221C115.791 146.386 116.251 148.622 116.422 150.128L116.54 151.143L116.102 152.067C113.128 158.361 110.486 162.99 108.249 165.826L106.505 168.036L103.946 166.867C102.293 166.11 100.581 165.277 99.7164 164.855C90.3989 160.298 78.8108 154.633 68.1512 161.816C59.7205 167.5 47.6384 178.386 41.8521 187.366C38.755 192.18 37.8274 197.968 39.168 204.111Z" fill="#B3D9EB"/>
<path d="M178.341 35.9348C178.439 36.3827 178.811 36.7409 179.293 36.7995L180.88 36.9903L182.34 36.3422C183.897 35.6511 186.106 34.5478 187.228 33.9875C195.494 29.8392 207.99 23.574 219.168 30.2904C222.191 32.107 226.126 35.7993 227.713 43.075C228.804 48.0748 228.609 53.8766 228.418 59.4896C228.343 61.6006 228.268 63.9734 228.281 65.9934L228.304 69.8683L231.896 71.3291C232.626 71.6271 233.363 71.9196 233.986 72.1609C239.361 74.2809 246.049 76.9171 251.535 82.803C256.356 87.9734 258.739 94.189 260.655 99.1824C261.715 101.946 262.808 104.803 264.045 106.684L264.888 107.802L265.694 108.337C266.929 109.154 268.959 110.121 271.291 111.211C276.849 113.808 283.766 117.038 288.456 123.76C290.66 126.927 292.2 130.615 293.163 135.028C293.825 138.063 294.137 141.084 294.413 143.749C294.513 144.708 294.592 145.474 294.675 146.192C294.749 146.789 295.294 147.237 295.904 147.166C296.511 147.095 296.947 146.547 296.877 145.937C296.796 145.226 296.717 144.471 296.636 143.696C296.337 140.799 296.019 137.71 295.33 134.555C294.304 129.851 292.65 125.904 290.276 122.492C285.245 115.281 278.03 111.909 272.233 109.201C269.982 108.15 268.028 107.219 266.92 106.488L266.306 106.081L265.9 105.464C264.794 103.785 263.745 101.044 262.727 98.3928C260.741 93.215 258.271 86.7747 253.158 81.2906C247.329 75.0384 240.383 72.3007 234.803 70.0997C234.175 69.8573 233.449 69.5685 232.732 69.2756L230.514 68.3737L230.499 65.9806C230.487 64.0024 230.562 61.6557 230.633 59.6113C230.828 53.8176 231.031 47.8725 229.88 42.6021C228.124 34.5544 223.707 30.4343 220.31 28.3919C208.085 21.0451 194.935 27.6429 186.234 32.0058C185.136 32.5569 182.969 33.641 181.443 34.3174L180.54 34.72L179.56 34.6006C178.953 34.5293 178.4 34.9614 178.328 35.5703C178.308 35.6923 178.315 35.8166 178.341 35.9348Z" fill="#B3D9EB"/>
<path d="M59.4776 279.73C60.124 282.693 61.3756 285.207 63.1976 287.206C69.6056 294.242 80.3145 293.91 89.7634 293.616C93.7839 293.491 100.518 293.284 102.12 294.392C109.904 299.79 117.805 300.055 124.156 300.267C127.257 300.369 130.186 300.464 132.706 301.125C133.907 301.44 135.025 301.739 136.069 302.02C145.28 304.501 150.841 305.997 160.947 302.097C163.185 301.233 168.241 301.434 172.701 301.613C183.088 302.024 196.013 302.538 200.939 291.768C202.55 288.251 202.842 284.282 201.83 279.642C200.847 275.14 198.777 270.657 196.774 266.322C195.16 262.824 193.489 259.211 192.895 256.487C192.646 255.345 192.669 254.719 192.702 254.448C193.452 248.525 195.854 242.751 198.18 237.166C199.857 233.137 201.441 229.333 202.413 225.507C202.595 224.792 202.762 224.296 202.893 223.962C203.858 223.991 205.426 224.194 206.746 224.363C209.549 224.726 213.041 225.178 217.311 225.173C223.823 225.166 229.254 220.384 234.505 215.758C236.931 213.619 240.951 210.078 242.677 209.713C246.343 210.692 250.192 211.364 253.917 212.019C259.189 212.943 264.172 213.817 267.659 215.352C275.317 218.721 279.121 219.369 282.476 219.937C285.173 220.393 287.306 220.758 292.143 222.929C296.278 224.787 298.207 227.313 300.073 229.758C301.857 232.094 303.881 234.746 307.45 235.836C313.041 237.537 317.824 233.879 319.624 232.502C323.845 229.277 335.055 220.702 331.023 202.224C330.807 201.233 330.547 200.207 330.237 199.144C330.124 198.76 330.025 198.352 329.933 197.931C329.532 196.097 329.246 193.759 328.942 191.286C328.547 188.067 328.099 184.414 327.267 180.6C326.224 175.82 324.766 171.675 322.807 167.921C319.167 160.949 310.484 159.339 302.086 157.787C298.546 157.132 291.958 155.912 290.685 154.528C290.197 153.708 289.757 152.488 289.409 150.894C288.984 148.948 288.756 146.728 288.514 144.376C288.242 141.738 287.96 139.011 287.366 136.288C286.571 132.647 285.336 129.658 283.586 127.148C279.814 121.739 273.95 118.997 268.775 116.577C265.099 114.858 261.628 113.237 259.982 111.176C257.901 108.566 256.545 105.034 255.109 101.292C253.289 96.547 251.227 91.17 247.194 86.8442C242.618 81.9339 236.868 79.6701 231.797 77.6734C228.447 76.3558 225.283 75.1092 223.249 73.3583C223.256 73.3628 223.257 73.3548 223.254 73.3414C223.234 73.2518 223.036 72.8179 222.843 71.9353C222.16 68.8054 222.327 63.9245 222.49 59.2063C222.675 53.7621 222.849 48.6201 221.915 44.337C221.003 40.1587 219.05 37.1402 216.109 35.3739C207.728 30.3352 197.831 35.2988 189.877 39.2889C186.916 40.7718 182.447 43.0151 180.917 43.0035C169.391 41.2833 165.545 42.376 156.843 49.8903C148.515 57.0874 145.73 62.5058 142.284 72.6951C139.243 81.6818 137.495 89.8132 136.438 99.8885C136.149 102.652 133.236 106.369 130.418 109.963C126.689 114.72 122.462 120.112 121.738 126.548C121.115 132.106 122.284 137.663 123.314 142.567C124.261 147.071 125.242 151.731 124.204 153.983C121.438 159.974 114.962 174.013 107.592 176.612C105.761 176.88 99.448 173.793 96.0573 172.136C87.9001 168.147 79.4643 164.025 72.7118 168.578C64.9494 173.811 53.8984 183.72 48.7065 191.783C46.781 194.773 46.2524 198.335 47.1342 202.376C48.1637 207.094 51.0228 211.923 53.7873 216.594C55.8327 220.055 58.1555 223.974 58.6696 226.33C58.7379 226.642 58.7402 226.8 58.7422 226.827C58.7607 228.632 58.5662 230.532 58.3583 232.544C57.9443 236.558 57.4716 241.109 58.5809 246.192C59.1196 248.661 59.965 250.988 61.1657 253.306C61.474 254.893 60.7842 259.117 60.2289 262.511C59.3182 268.037 58.2933 274.304 59.4776 279.73Z" fill="#D9D29E"/>
<path d="M295.02 216.511C308.36 222.502 305.785 234.225 315.344 226.917C320.499 222.976 327.958 216.508 323.474 201.12C321.367 193.891 322.203 181.993 316.559 171.181C312.478 163.359 289.495 166.1 284.739 158.292C280.079 150.642 282.96 138.573 277.806 131.177C272.611 123.726 260.019 122.516 254.475 115.571C248.72 108.36 248.002 98.0405 242.039 91.6455C235.621 84.7611 225.041 84.25 218.59 78.6428C211.26 72.2686 219.554 45.6631 212.478 41.4103C203.742 36.1598 187.808 51.139 179.999 49.9796C170.503 48.5691 168.595 49.0394 161.438 55.2222C154.111 61.5537 151.988 65.9567 148.944 74.9562C146.043 83.5329 144.436 91.0645 143.433 100.627C142.445 110.052 129.739 118.31 128.727 127.342C127.598 137.405 134.188 149.136 130.587 156.939C126.677 165.413 119.911 179.735 109.927 183.258C101.438 186.251 83.2715 169.95 76.637 174.421C69.0906 179.509 58.9504 188.871 54.6139 195.6C49.9593 202.83 65.6859 217.979 65.7735 226.763C65.8496 234.414 62.9666 241.499 67.4066 250.078C70.8616 256.75 61.9239 275.365 68.3969 282.471C76.051 290.871 98.2931 283.178 106.127 288.613C115.68 295.237 125.459 291.961 134.482 294.319C145.788 297.28 149.482 298.983 158.405 295.537C167.851 291.89 189.75 299.302 194.535 288.848C198.933 279.24 184.462 263.404 185.712 253.567C187.148 242.259 193.433 232.249 195.583 223.782C198.313 213.03 203.875 218.161 217.295 218.144C225.566 218.134 235.999 200.625 244.257 202.861C252.878 205.197 263.396 205.799 270.486 208.919C283.85 214.795 283.397 211.293 295.02 216.511Z" fill="#9CA856"/>
<path d="M73.2359 276.728C73.3686 277.336 73.5327 277.639 73.6069 277.723C75.6505 279.969 83.8821 279.714 89.3304 279.544C97.2488 279.299 104.73 279.067 110.145 282.823C114.52 285.859 119.202 286.015 124.626 286.195C128.363 286.322 132.227 286.448 136.27 287.506C137.509 287.831 138.657 288.14 139.731 288.431C148.079 290.677 150.063 291.212 155.877 288.967C160.831 287.055 166.868 287.293 173.262 287.547C178.112 287.739 187.142 288.097 188.142 285.914C188.424 285.295 188.402 284.134 188.077 282.643C187.423 279.645 185.681 275.871 183.996 272.225C182.063 268.04 180.065 263.717 179.143 259.493L179.142 259.49C178.602 257.012 178.47 254.782 178.737 252.675C179.73 244.872 182.627 237.905 185.184 231.758C186.658 228.219 188.051 224.874 188.769 222.042C192.259 208.296 202.063 209.565 208.551 210.406C211.076 210.732 213.937 211.102 217.293 211.098C218.773 210.855 222.795 207.314 225.199 205.196C231.22 199.892 238.045 193.878 246.103 196.059C249.23 196.906 252.848 197.539 256.347 198.155C262.215 199.185 268.283 200.249 273.33 202.47C279.39 205.138 282.032 205.586 284.827 206.062C287.924 206.588 291.432 207.181 297.907 210.087C305.279 213.399 309.01 218.27 311.242 221.195C315.869 217.636 319.213 214.136 317.269 205.227C317.119 204.539 316.937 203.826 316.72 203.086C316.522 202.401 316.342 201.683 316.178 200.934C315.639 198.462 315.313 195.809 314.968 193.001C314.593 189.944 314.204 186.779 313.511 183.604C312.756 180.146 311.745 177.208 310.421 174.625C308.982 173.384 303.078 172.288 299.522 171.632C291.269 170.104 282.734 168.522 278.732 161.952C277.348 159.679 276.339 157.043 275.653 153.9C275.06 151.182 274.779 148.457 274.508 145.823C274.265 143.467 274.035 141.243 273.61 139.293C273.218 137.498 272.703 136.16 272.034 135.202C270.426 132.893 266.726 131.166 262.812 129.334C258.062 127.114 252.678 124.597 248.979 119.962C245.535 115.646 243.639 110.702 241.966 106.336C240.474 102.444 239.064 98.7681 236.895 96.4418C234.492 93.8651 230.678 92.3631 226.638 90.7724C222.31 89.067 217.834 87.3059 213.977 83.9502C211.55 81.8438 209.954 78.8933 209.09 74.9362C208.032 70.085 208.227 64.3093 208.42 58.7238C208.568 54.3862 208.721 49.9016 208.162 47.3398C208.156 47.3131 208.151 47.2902 208.146 47.2654C205.589 47.1585 199.12 50.4033 196.186 51.8743C190.154 54.896 184.457 57.7527 178.972 56.9407C171.505 55.8304 171.505 55.8304 166.044 60.5485C159.831 65.9161 158.327 69.1979 155.616 77.208C152.891 85.2589 151.391 92.256 150.437 101.356C149.725 108.148 145.351 113.729 141.495 118.65C138.92 121.932 136.002 125.654 135.726 128.122C135.357 131.428 136.238 135.619 137.089 139.676C138.507 146.422 139.974 153.4 136.984 159.884C132.884 168.77 125.252 185.313 112.274 189.89C105.331 192.342 97.4732 188.499 89.8734 184.786C86.8802 183.322 82.0058 180.943 79.938 180.692C72.8657 185.6 64.3825 193.715 60.8161 198.987C60.8301 199.087 60.85 199.215 60.8857 199.379C61.4306 201.876 63.8037 205.887 65.8997 209.425C68.6146 214.015 71.4225 218.756 72.4208 223.331C72.6728 224.486 72.8063 225.619 72.8181 226.689C72.8435 229.285 72.5975 231.681 72.357 233.992C72.0067 237.383 71.7035 240.313 72.332 243.193C72.6041 244.44 73.0382 245.633 73.6646 246.838C74.1871 247.851 74.5918 248.982 74.8572 250.198C75.7997 254.518 74.9829 259.505 74.1188 264.787C73.4175 269.068 72.6244 273.926 73.2359 276.728Z" fill="#3F8000"/>
<path d="M98.7124 256.047C106.149 256.361 114.405 257.764 122.083 262.601C123 262.668 124.342 262.713 125.404 262.749C129.737 262.893 135.636 263.09 142.208 264.811C143.525 265.154 144.732 265.478 145.864 265.786C146.854 266.051 147.92 266.34 148.821 266.571C151.317 265.712 153.811 265.116 156.269 264.712C156.254 264.641 156.238 264.569 156.222 264.498C155.101 259.361 154.853 254.525 155.465 249.719C156.856 238.778 160.71 229.516 163.525 222.751C164.456 220.511 165.729 217.457 166.028 216.278C168.587 206.198 184.408 182.175 215.475 172.405C224.969 169.418 246.479 169.769 249.038 170.223C248.898 170.002 252.141 173.216 255.511 158.462C257.729 148.75 253.926 157.466 252.676 151.738C251.956 148.437 251.625 152.511 251.341 149.867C245.38 147.046 237.185 142.794 230.646 134.604C224.933 127.443 222.119 120.108 220.065 114.749C219.882 114.271 222.888 120.036 222.673 119.482C222.192 119.289 219.166 113.661 218.731 113.488C213.427 111.401 205.482 107.653 198.584 101.654C192.356 96.2395 193.665 85.3344 186.222 80.173C184.398 78.9076 181.372 79.2405 179.367 80.5108C178.674 80.9515 178.532 82.688 177.841 84.7297C175.684 91.0992 174.545 96.446 173.773 103.799C172.357 117.304 164.9 126.821 159.966 133.116C159.897 133.202 159.824 133.296 159.748 133.391C159.854 133.905 159.958 134.395 160.05 134.837C161.838 143.341 164.536 156.173 158.292 169.709C153.134 180.889 167.985 216.114 145.661 223.987C135.944 227.418 101.218 214.252 93.3682 211.727C94.1637 213.826 94.8454 216.026 95.3479 218.328C95.9406 221.045 96.2551 223.776 96.283 226.447C96.3206 230.399 95.9758 233.733 95.6977 236.412C95.6399 236.962 95.5748 237.615 95.5205 238.19C96.4935 240.416 97.2513 242.763 97.7824 245.197C98.5979 248.943 98.8142 252.588 98.7124 256.047Z" fill="#1D732D"/>
<path d="M87.0605 244.482C87.0605 244.482 68.3377 221.651 77.7973 199.891C87.2549 178.132 80.8521 211.484 80.8711 214.673C80.9239 222.895 87.0605 244.482 87.0605 244.482Z" fill="#528221"/>
<path d="M277.186 167.672C276.65 167.789 276.359 168.357 275.883 168.583C275.393 168.816 275.376 169.445 274.962 169.779C274.542 170.114 273.509 169.674 273.177 170.094C272.846 170.516 272.277 170.83 272.046 171.315C271.818 171.797 273.683 172.833 273.565 173.36C273.448 173.879 272.667 174.014 272.666 174.559C272.665 175.084 272.336 175.47 272.453 176.007C272.57 176.545 273.206 176.676 273.426 177.153C273.654 177.648 274.229 177.539 274.552 177.959C274.88 178.389 274.771 178.732 275.179 179.075C275.592 179.422 275.325 180.395 275.802 180.638C276.279 180.885 276.447 181.919 276.969 182.053C277.485 182.182 278.087 183.488 278.63 183.496C279.157 183.506 279.69 181.717 280.225 181.6C280.761 181.483 280.545 179.861 281.02 179.631C281.51 179.397 281.862 179.621 282.275 179.288C282.695 178.952 284.894 180.391 285.224 179.966C285.554 179.546 285.21 178.493 285.441 178.005C285.669 177.522 284.775 176.689 284.893 176.16C285.01 175.643 286.862 175.275 286.864 174.732C286.864 174.204 284.434 173.956 284.317 173.42C284.2 172.883 285.44 172.043 285.22 171.564C284.992 171.07 285.693 169.835 285.372 169.414C285.044 168.982 283.653 169.344 283.245 169.001C282.834 168.654 281.511 170.013 281.035 169.771C280.557 169.522 280.528 169.099 280.006 168.967C279.491 168.836 279.317 166.432 278.774 166.423C278.245 166.414 277.721 167.555 277.186 167.672Z" fill="#26541B"/>
<path d="M219.883 108.102C219.875 108.521 220.245 108.837 220.332 109.234C220.419 109.64 220.883 109.763 221.057 110.132C221.235 110.507 220.72 111.198 220.976 111.519C221.23 111.841 221.363 112.32 221.684 112.577C222.003 112.837 223.107 111.628 223.478 111.81C223.842 111.988 223.806 112.597 224.209 112.691C224.602 112.789 224.832 113.1 225.251 113.111C225.672 113.117 225.886 112.669 226.279 112.587C226.689 112.507 226.709 112.056 227.08 111.891C227.459 111.724 227.698 111.868 228.026 111.624C228.358 111.378 229.035 111.752 229.302 111.44C229.569 111.128 230.371 111.187 230.563 110.821C230.752 110.461 231.833 110.245 231.934 109.837C232.036 109.446 230.797 108.729 230.806 108.31C230.814 107.891 229.564 107.762 229.478 107.37C229.393 106.959 229.62 106.74 229.444 106.371C229.268 105.996 230.732 104.612 230.476 104.292C230.22 103.971 229.372 104.038 229.05 103.781C228.731 103.525 227.95 104.043 227.576 103.861C227.212 103.683 227.267 102.235 226.863 102.139C226.471 102.043 225.853 103.814 225.433 103.805C225.012 103.797 224.608 102.723 224.21 102.8C223.802 102.881 223.005 102.139 222.634 102.304C222.255 102.472 222.278 103.573 221.95 103.819C221.618 104.065 222.394 105.287 222.127 105.603C221.858 105.914 221.538 105.859 221.347 106.225C221.155 106.584 219.333 106.287 219.23 106.691C219.133 107.089 219.892 107.684 219.883 108.102Z" fill="#26541B"/>
<path d="M223.604 193.827C224.024 193.841 224.348 193.477 224.745 193.4C225.153 193.321 225.285 192.857 225.658 192.69C226.034 192.518 226.716 193.044 227.041 192.795C227.368 192.548 227.85 192.423 228.117 192.107C228.38 191.794 227.192 190.668 227.383 190.301C227.568 189.939 228.174 189.99 228.278 189.586C228.379 189.192 228.698 188.969 228.715 188.55C228.73 188.126 228.283 187.908 228.211 187.514C228.137 187.101 227.688 187.075 227.53 186.698C227.368 186.316 227.515 186.08 227.276 185.749C227.038 185.414 227.423 184.746 227.117 184.47C226.81 184.197 226.883 183.397 226.522 183.198C226.164 183.004 225.967 181.919 225.564 181.809C225.175 181.699 224.438 182.926 224.017 182.91C223.598 182.893 223.447 184.142 223.053 184.218C222.643 184.298 222.424 184.064 222.055 184.232C221.679 184.402 220.32 182.914 219.994 183.162C219.667 183.412 219.722 184.264 219.457 184.578C219.196 184.894 219.7 185.683 219.511 186.054C219.326 186.412 217.88 186.332 217.775 186.736C217.672 187.126 219.43 187.777 219.413 188.196C219.397 188.616 218.315 189 218.386 189.4C218.459 189.808 217.704 190.592 217.861 190.967C218.023 191.349 219.125 191.348 219.363 191.679C219.602 192.016 220.84 191.257 221.15 191.533C221.458 191.809 221.397 192.126 221.758 192.325C222.115 192.524 221.782 194.338 222.186 194.448C222.575 194.557 223.185 193.811 223.604 193.827Z" fill="#A27F00"/>
<path d="M157.887 282.676C158.307 282.69 158.631 282.326 159.028 282.249C159.436 282.17 159.568 281.706 159.941 281.539C160.315 281.367 160.999 281.893 161.324 281.644C161.652 281.397 162.133 281.272 162.398 280.956C162.663 280.643 161.473 279.517 161.664 279.15C161.849 278.788 162.455 278.839 162.559 278.435C162.661 278.042 162.979 277.818 162.996 277.399C163.011 276.975 162.562 276.757 162.492 276.363C162.418 275.95 161.969 275.924 161.811 275.547C161.649 275.165 161.796 274.929 161.558 274.598C161.319 274.263 161.704 273.595 161.398 273.319C161.091 273.046 161.164 272.246 160.803 272.047C160.446 271.853 160.249 270.768 159.845 270.658C159.456 270.548 158.719 271.775 158.298 271.759C157.877 271.743 157.728 272.991 157.334 273.067C156.924 273.147 156.705 272.913 156.336 273.081C155.96 273.251 154.601 271.763 154.276 272.011C153.949 272.261 154.003 273.113 153.738 273.427C153.477 273.743 153.981 274.532 153.792 274.903C153.607 275.261 152.162 275.181 152.056 275.585C151.955 275.973 153.711 276.626 153.695 277.045C153.679 277.466 152.598 277.849 152.669 278.249C152.742 278.656 151.987 279.44 152.145 279.815C152.306 280.197 153.408 280.196 153.646 280.528C153.885 280.865 155.123 280.106 155.433 280.381C155.739 280.658 155.68 280.975 156.041 281.173C156.398 281.373 156.065 283.187 156.467 283.297C156.858 283.407 157.468 282.659 157.887 282.676Z" fill="#A27F00"/>
<path d="M182.037 110.154C182.458 110.168 182.781 109.802 183.18 109.725C183.588 109.646 183.721 109.184 184.093 109.015C184.467 108.843 185.151 109.371 185.476 109.12C185.804 108.873 186.285 108.748 186.552 108.43C186.815 108.117 185.626 106.991 185.818 106.623C186.003 106.262 186.609 106.313 186.714 105.909C186.816 105.515 187.135 105.292 187.151 104.873C187.167 104.45 186.719 104.23 186.647 103.836C186.573 103.423 186.124 103.397 185.967 103.022C185.805 102.64 185.951 102.403 185.713 102.071C185.474 101.736 185.862 101.068 185.554 100.792C185.247 100.52 185.32 99.719 184.959 99.5202C184.601 99.3266 184.404 98.2414 184.001 98.1317C183.612 98.0229 182.873 99.2485 182.452 99.2325C182.033 99.2161 181.882 100.465 181.487 100.541C181.077 100.621 180.861 100.388 180.489 100.56C180.112 100.728 178.753 99.2389 178.43 99.4872C178.103 99.7382 178.157 100.587 177.892 100.904C177.631 101.219 178.135 102.01 177.946 102.378C177.761 102.738 176.316 102.656 176.21 103.061C176.108 103.451 177.865 104.101 177.849 104.52C177.833 104.941 176.75 105.325 176.823 105.725C176.897 106.134 176.141 106.916 176.299 107.291C176.46 107.673 177.562 107.672 177.8 108.004C178.039 108.341 179.278 107.583 179.587 107.857C179.895 108.134 179.834 108.45 180.195 108.649C180.552 108.849 180.219 110.663 180.621 110.775C181.009 110.884 181.618 110.136 182.037 110.154Z" fill="#A27F00"/>
<path d="M294.426 212.025C294.846 212.039 295.17 211.675 295.566 211.597C295.974 211.518 296.107 211.055 296.48 210.886C296.856 210.714 297.538 211.242 297.863 210.992C298.19 210.745 298.672 210.621 298.936 210.302C299.199 209.989 298.011 208.863 298.201 208.496C298.385 208.134 298.993 208.185 299.097 207.781C299.199 207.387 299.517 207.164 299.534 206.745C299.549 206.322 299.103 206.104 299.03 205.709C298.954 205.296 298.507 205.27 298.349 204.895C298.188 204.513 298.334 204.275 298.096 203.944C297.857 203.61 298.243 202.941 297.935 202.667C297.629 202.392 297.703 201.593 297.342 201.395C296.984 201.199 296.787 200.116 296.384 200.006C295.994 199.895 295.255 201.121 294.834 201.105C294.416 201.089 294.265 202.338 293.87 202.414C293.46 202.493 293.241 202.259 292.873 202.432C292.495 202.6 291.138 201.111 290.813 201.362C290.486 201.611 290.539 202.46 290.275 202.777C290.014 203.091 290.516 203.882 290.329 204.251C290.144 204.611 288.699 204.531 288.593 204.935C288.492 205.323 290.248 205.976 290.231 206.393C290.216 206.816 289.133 207.198 289.206 207.597C289.279 208.006 288.524 208.788 288.681 209.163C288.843 209.547 289.945 209.545 290.181 209.877C290.42 210.214 291.659 209.456 291.968 209.732C292.276 210.006 292.215 210.323 292.578 210.522C292.935 210.721 292.603 212.537 293.004 212.647C293.399 212.757 294.006 212.007 294.426 212.025Z" fill="#A27F00"/>
<path d="M168.906 179.019C169.245 178.558 169.084 177.912 169.301 177.407C169.527 176.887 169.108 176.385 169.206 175.835C169.301 175.281 170.418 174.919 170.386 174.361C170.36 173.802 170.59 173.166 170.438 172.624C170.29 172.09 168.11 172.559 167.843 172.062C167.58 171.579 168.102 170.934 167.73 170.508C167.367 170.09 167.359 169.558 166.902 169.222C166.44 168.878 165.85 169.214 165.35 168.99C164.829 168.756 164.452 169.242 163.91 169.129C163.357 169.018 163.203 168.67 162.649 168.683C162.088 168.693 161.634 167.748 161.088 167.881C160.547 168.017 159.705 167.317 159.201 167.572C158.708 167.826 157.34 167.214 156.905 167.582C156.483 167.936 157.293 169.708 156.954 170.169C156.613 170.625 157.897 171.753 157.682 172.259C157.455 172.782 157.025 172.846 156.932 173.389C156.832 173.944 154.116 174.327 154.145 174.884C154.175 175.442 155.174 176.037 155.326 176.579C155.478 177.113 156.753 177.152 157.025 177.65C157.287 178.136 156.084 179.697 156.459 180.126C156.817 180.539 158.902 179.066 159.36 179.407C159.82 179.748 159.421 181.261 159.925 181.484C160.44 181.713 160.742 183.169 161.281 183.277C161.834 183.388 162.678 182.152 163.237 182.14C163.8 182.13 163.898 180.156 164.446 180.021C164.991 179.884 165.304 180.199 165.802 179.94C166.3 179.694 168.084 181.463 168.517 181.095C168.937 180.734 168.565 179.479 168.906 179.019Z" fill="#A27F00"/>
<path d="M132.435 240.577C132.099 240.114 131.435 240.073 131.02 239.712C130.592 239.34 129.988 239.586 129.494 239.326C128.997 239.069 128.986 237.895 128.445 237.758C127.904 237.612 127.367 237.2 126.804 237.181C126.251 237.162 126.036 239.384 125.481 239.485C124.939 239.589 124.485 238.898 123.966 239.122C123.458 239.343 122.951 239.19 122.488 239.523C122.022 239.858 122.162 240.527 121.798 240.934C121.419 241.358 121.766 241.861 121.495 242.346C121.221 242.841 120.845 242.881 120.688 243.414C120.529 243.952 119.489 244.099 119.452 244.661C119.415 245.216 118.496 245.808 118.585 246.363C118.679 246.91 117.679 248.029 117.899 248.554C118.106 249.064 120.044 248.827 120.378 249.291C120.711 249.754 122.176 248.871 122.592 249.229C123.021 249.603 122.951 250.034 123.443 250.286C123.94 250.549 123.484 253.254 124.024 253.394C124.563 253.534 125.431 252.763 125.994 252.78C126.549 252.797 126.976 251.595 127.531 251.486C128.072 251.386 129.196 253.004 129.72 252.776C130.22 252.561 129.448 250.129 129.912 249.795C130.374 249.46 131.697 250.296 132.064 249.882C132.439 249.461 133.916 249.614 134.184 249.13C134.456 248.639 133.534 247.459 133.689 246.925C133.849 246.385 131.998 245.693 132.035 245.13C132.073 244.57 132.464 244.369 132.371 243.814C132.287 243.266 134.512 242.103 134.293 241.576C134.082 241.067 132.772 241.041 132.435 240.577Z" fill="#A27F00"/>
<path d="M171.101 227.66C170.814 227.589 170.537 227.795 170.251 227.792C169.957 227.788 169.798 228.088 169.519 228.151C169.234 228.218 168.837 227.755 168.575 227.88C168.313 228.005 167.963 228.022 167.735 228.203C167.508 228.382 168.169 229.331 167.983 229.559C167.804 229.784 167.389 229.658 167.26 229.924C167.134 230.179 166.882 230.288 166.811 230.577C166.738 230.865 167.015 231.08 167.009 231.367C167.001 231.66 167.309 231.745 167.363 232.028C167.42 232.316 167.287 232.454 167.402 232.719C167.52 232.985 167.159 233.397 167.331 233.627C167.505 233.859 167.339 234.404 167.562 234.593C167.78 234.779 167.762 235.558 168.024 235.694C168.277 235.823 168.964 235.08 169.253 235.153C169.54 235.224 169.824 234.383 170.108 234.385C170.403 234.39 170.52 234.58 170.8 234.519C171.084 234.457 171.81 235.679 172.071 235.556C172.333 235.429 172.419 234.833 172.647 234.652C172.873 234.471 172.638 233.851 172.821 233.623C173 233.4 173.99 233.663 174.119 233.4C174.245 233.145 173.123 232.441 173.195 232.152C173.266 231.864 174.071 231.753 174.078 231.468C174.086 231.172 174.72 230.74 174.665 230.459C174.608 230.172 173.848 230.018 173.73 229.752C173.614 229.486 172.645 229.83 172.472 229.596C172.299 229.36 172.387 229.151 172.163 228.96C171.945 228.772 172.436 227.563 172.171 227.429C171.917 227.3 171.389 227.729 171.101 227.66Z" fill="#26541B"/>
<path d="M158.044 123.913C157.757 123.842 157.48 124.048 157.196 124.044C156.902 124.04 156.743 124.34 156.462 124.404C156.178 124.468 155.782 124.007 155.52 124.132C155.258 124.257 154.905 124.272 154.678 124.456C154.451 124.633 155.111 125.581 154.928 125.811C154.749 126.036 154.334 125.911 154.205 126.178C154.079 126.432 153.827 126.542 153.756 126.831C153.683 127.119 153.962 127.334 153.955 127.621C153.947 127.916 154.253 127.999 154.308 128.281C154.365 128.568 154.23 128.709 154.346 128.973C154.464 129.239 154.102 129.651 154.274 129.881C154.449 130.113 154.282 130.659 154.503 130.848C154.721 131.034 154.704 131.813 154.965 131.947C155.219 132.078 155.905 131.335 156.195 131.407C156.481 131.477 156.766 130.638 157.052 130.639C157.346 130.645 157.464 130.835 157.746 130.773C158.03 130.711 158.753 131.931 159.016 131.81C159.278 131.683 159.362 131.088 159.59 130.904C159.816 130.725 159.581 130.105 159.765 129.877C159.946 129.654 160.933 129.916 161.064 129.654C161.19 129.397 160.068 128.695 160.139 128.406C160.212 128.118 161.014 128.007 161.022 127.722C161.029 127.427 161.666 126.994 161.61 126.711C161.553 126.424 160.793 126.27 160.675 126.006C160.559 125.74 159.592 126.083 159.419 125.849C159.246 125.614 159.334 125.403 159.111 125.214C158.892 125.026 159.38 123.815 159.118 123.682C158.862 123.553 158.333 123.982 158.044 123.913Z" fill="#26541B"/>
<path d="M83.8798 241.292C83.5927 241.22 83.3162 241.427 83.0318 241.423C82.7398 241.421 82.5797 241.721 82.2999 241.784C82.0163 241.848 81.6179 241.386 81.3576 241.51C81.0953 241.636 80.7436 241.652 80.516 241.836C80.2891 242.013 80.9493 242.961 80.7654 243.189C80.5849 243.414 80.1725 243.291 80.0428 243.557C79.9168 243.812 79.6635 243.923 79.5943 244.21C79.5216 244.499 79.8001 244.714 79.7925 244.999C79.785 245.294 80.0907 245.377 80.1465 245.661C80.2032 245.948 80.0679 246.087 80.1835 246.352C80.3018 246.619 79.9401 247.03 80.1121 247.26C80.2868 247.493 80.1203 248.039 80.341 248.226C80.5612 248.412 80.5415 249.191 80.8029 249.328C81.057 249.458 81.7436 248.715 82.0326 248.786C82.3197 248.857 82.6039 248.018 82.8894 248.018C83.1823 248.024 83.3 248.216 83.5821 248.154C83.8661 248.092 84.5916 249.312 84.8523 249.189C85.1142 249.062 85.1979 248.466 85.4259 248.285C85.6542 248.105 85.4173 247.486 85.6012 247.258C85.7802 247.035 86.7679 247.297 86.9003 247.034C87.0259 246.777 85.902 246.074 85.975 245.787C86.0458 245.498 86.8505 245.388 86.8578 245.101C86.8656 244.808 87.5021 244.375 87.4463 244.092C87.3896 243.805 86.6292 243.651 86.5094 243.386C86.3934 243.119 85.4263 243.464 85.253 243.228C85.0802 242.995 85.168 242.784 84.9469 242.594C84.7259 242.405 85.2168 241.195 84.9542 241.063C84.6983 240.933 84.1688 241.362 83.8798 241.292Z" fill="#26541B"/>
<path d="M120.111 253.767C119.824 253.696 119.547 253.902 119.261 253.899C118.966 253.895 118.808 254.195 118.528 254.258C118.243 254.323 117.847 253.862 117.585 253.987C117.322 254.112 116.972 254.127 116.743 254.311C116.518 254.487 117.176 255.436 116.992 255.666C116.814 255.89 116.399 255.765 116.269 256.031C116.143 256.285 115.892 256.395 115.821 256.684C115.748 256.972 116.024 257.187 116.019 257.474C116.011 257.767 116.317 257.852 116.373 258.133C116.429 258.421 116.296 258.561 116.412 258.826C116.53 259.094 116.169 259.504 116.341 259.734C116.515 259.966 116.348 260.511 116.569 260.7C116.788 260.886 116.77 261.665 117.031 261.8C117.285 261.93 117.972 261.187 118.259 261.26C118.546 261.33 118.83 260.491 119.116 260.492C119.411 260.498 119.526 260.688 119.808 260.627C120.092 260.565 120.818 261.786 121.079 261.663C121.341 261.536 121.426 260.941 121.654 260.757C121.88 260.578 121.645 259.958 121.829 259.73C122.008 259.508 122.998 259.769 123.126 259.507C123.252 259.25 122.13 258.548 122.203 258.259C122.274 257.972 123.079 257.86 123.086 257.575C123.094 257.28 123.728 256.848 123.672 256.564C123.616 256.277 122.855 256.124 122.738 255.86C122.622 255.594 121.654 255.936 121.482 255.703C121.308 255.467 121.396 255.256 121.173 255.067C120.954 254.879 121.445 253.668 121.18 253.536C120.927 253.407 120.397 253.836 120.111 253.767Z" fill="#26541B"/>
<path d="M304.593 177.28C304.306 177.209 304.029 177.415 303.743 177.412C303.449 177.408 303.291 177.708 303.011 177.772C302.725 177.836 302.329 177.375 302.067 177.5C301.805 177.625 301.455 177.642 301.227 177.823C301 178.003 301.661 178.951 301.475 179.179C301.294 179.404 300.882 179.279 300.752 179.544C300.625 179.798 300.374 179.909 300.303 180.198C300.23 180.485 300.507 180.7 300.502 180.987C300.494 181.28 300.802 181.365 300.855 181.647C300.912 181.934 300.777 182.075 300.894 182.339C301.012 182.605 300.651 183.017 300.823 183.247C300.997 183.479 300.831 184.024 301.054 184.213C301.272 184.399 301.254 185.178 301.515 185.313C301.769 185.443 302.456 184.7 302.745 184.773C303.032 184.842 303.316 184.003 303.6 184.005C303.895 184.011 304.011 184.201 304.293 184.14C304.577 184.078 305.302 185.297 305.563 185.176C305.825 185.049 305.911 184.453 306.137 184.272C306.363 184.091 306.128 183.471 306.312 183.244C306.491 183.021 307.481 183.284 307.609 183.02C307.735 182.763 306.613 182.062 306.686 181.772C306.757 181.485 307.561 181.373 307.569 181.088C307.576 180.793 308.213 180.361 308.157 180.077C308.101 179.792 307.34 179.637 307.222 179.373C307.104 179.107 306.137 179.45 305.964 179.216C305.791 178.98 305.879 178.771 305.656 178.582C305.437 178.394 305.928 177.183 305.663 177.051C305.409 176.921 304.882 177.349 304.593 177.28Z" fill="#26541B"/>
<path d="M192.695 63.0594C192.408 62.9882 192.131 63.1943 191.847 63.1905C191.553 63.1868 191.394 63.487 191.115 63.5519C190.83 63.6162 190.433 63.1536 190.171 63.2787C189.909 63.4039 189.559 63.4222 189.329 63.6022C189.104 63.781 189.763 64.7297 189.579 64.9576C189.4 65.1822 188.986 65.0608 188.856 65.323C188.73 65.5781 188.478 65.687 188.407 65.9741C188.334 66.2654 188.613 66.4802 188.605 66.7654C188.598 67.0606 188.904 67.1437 188.959 67.4252C189.016 67.7123 188.883 67.8532 188.999 68.1194C189.117 68.3871 188.755 68.7957 188.927 69.0257C189.102 69.2611 188.935 69.8047 189.156 69.9922C189.374 70.1782 189.356 70.9569 189.617 71.0916C189.872 71.2238 190.559 70.4828 190.845 70.552C191.133 70.6232 191.417 69.7843 191.703 69.7858C191.997 69.7876 192.115 69.9834 192.397 69.918C192.681 69.856 193.405 71.0798 193.667 70.9528C193.929 70.8276 194.013 70.2323 194.241 70.0507C194.468 69.8734 194.232 69.2538 194.416 69.024C194.596 68.797 195.585 69.0645 195.715 68.7985C195.841 68.5453 194.719 67.8416 194.79 67.5545C194.862 67.2613 195.665 67.1538 195.673 66.8667C195.68 66.5734 196.315 66.1395 196.26 65.8599C196.203 65.5728 195.441 65.4135 195.324 65.1515C195.208 64.8833 194.241 65.2301 194.068 64.9962C193.895 64.7624 193.983 64.5496 193.76 64.3606C193.541 64.1727 194.03 62.9637 193.767 62.8275C193.513 62.6992 192.985 63.1339 192.695 63.0594Z" fill="#D9AE00"/>
<path d="M183.784 210.338C183.497 210.269 183.22 210.473 182.934 210.47C182.642 210.467 182.481 210.766 182.201 210.829C181.918 210.893 181.521 210.43 181.257 210.556C180.997 210.681 180.646 210.699 180.415 210.879C180.189 211.059 180.849 212.007 180.665 212.235C180.485 212.46 180.073 212.338 179.942 212.6C179.816 212.855 179.564 212.964 179.493 213.251C179.421 213.543 179.697 213.758 179.692 214.043C179.684 214.336 179.99 214.421 180.045 214.702C180.102 214.99 179.967 215.131 180.083 215.397C180.201 215.663 179.839 216.071 180.011 216.303C180.185 216.539 180.02 217.082 180.24 217.27C180.458 217.456 180.441 218.235 180.701 218.367C180.956 218.5 181.643 217.759 181.931 217.827C182.218 217.899 182.503 217.06 182.789 217.061C183.081 217.063 183.199 217.259 183.481 217.194C183.765 217.132 184.491 218.355 184.751 218.229C185.013 218.103 185.099 217.508 185.325 217.327C185.552 217.149 185.317 216.53 185.5 216.3C185.678 216.073 186.669 216.34 186.799 216.074C186.925 215.821 185.803 215.117 185.874 214.83C185.944 214.537 186.749 214.43 186.757 214.143C186.764 213.847 187.401 213.415 187.346 213.135C187.289 212.848 186.527 212.689 186.41 212.427C186.294 212.159 185.327 212.505 185.154 212.272C184.981 212.038 185.069 211.825 184.848 211.636C184.629 211.448 185.118 210.239 184.855 210.102C184.602 209.98 184.074 210.413 183.784 210.338Z" fill="#D9AE00"/>
<path d="M157.834 267.187C157.547 267.116 157.27 267.323 156.986 267.319C156.692 267.315 156.534 267.615 156.252 267.679C155.968 267.742 155.572 267.282 155.31 267.407C155.048 267.532 154.698 267.55 154.468 267.73C154.241 267.908 154.901 268.856 154.718 269.086C154.539 269.31 154.125 269.187 153.995 269.451C153.868 269.704 153.617 269.815 153.545 270.1C153.473 270.392 153.752 270.606 153.744 270.894C153.737 271.187 154.043 271.272 154.098 271.551C154.154 271.839 154.02 271.982 154.138 272.248C154.255 272.511 153.894 272.922 154.066 273.154C154.239 273.388 154.074 273.931 154.295 274.12C154.513 274.306 154.495 275.085 154.756 275.218C155.012 275.35 155.697 274.609 155.986 274.68C156.273 274.749 156.557 273.91 156.844 273.914C157.137 273.913 157.256 274.109 157.537 274.044C157.821 273.982 158.546 275.208 158.807 275.079C159.07 274.955 159.154 274.36 159.381 274.177C159.608 273.997 159.373 273.38 159.557 273.15C159.737 272.925 160.726 273.192 160.855 272.924C160.982 272.673 159.86 271.969 159.931 271.68C160.003 271.387 160.806 271.28 160.814 270.994C160.821 270.697 161.456 270.267 161.4 269.986C161.344 269.699 160.582 269.539 160.465 269.277C160.348 269.009 159.381 269.354 159.209 269.122C159.036 268.886 159.123 268.674 158.9 268.485C158.682 268.299 159.17 267.088 158.907 266.953C158.652 266.827 158.124 267.26 157.834 267.187Z" fill="#D9AE00"/>
<path d="M121.562 233.067C121.275 232.996 120.998 233.202 120.714 233.198C120.42 233.197 120.262 233.497 119.982 233.56C119.696 233.624 119.3 233.161 119.038 233.287C118.775 233.412 118.426 233.43 118.196 233.612C117.971 233.789 118.629 234.738 118.445 234.965C118.267 235.19 117.853 235.069 117.723 235.333C117.597 235.588 117.345 235.699 117.274 235.984C117.202 236.275 117.48 236.49 117.473 236.775C117.465 237.07 117.771 237.153 117.826 237.435C117.883 237.722 117.75 237.863 117.866 238.131C117.984 238.397 117.622 238.805 117.794 239.035C117.969 239.271 117.802 239.814 118.023 240.002C118.241 240.188 118.223 240.967 118.484 241.101C118.739 241.234 119.426 240.493 119.713 240.562C120 240.633 120.284 239.794 120.57 239.796C120.864 239.797 120.982 239.993 121.264 239.928C121.548 239.866 122.272 241.09 122.534 240.963C122.796 240.837 122.88 240.242 123.11 240.06C123.337 239.883 123.1 239.263 123.283 239.034C123.464 238.809 124.452 239.074 124.582 238.808C124.708 238.555 123.586 237.851 123.657 237.564C123.729 237.271 124.532 237.164 124.54 236.876C124.548 236.583 125.182 236.151 125.127 235.87C125.07 235.583 124.308 235.423 124.191 235.161C124.075 234.893 123.108 235.24 122.935 235.006C122.763 234.772 122.85 234.559 122.627 234.37C122.408 234.183 122.897 232.973 122.634 232.839C122.38 232.709 121.851 233.14 121.562 233.067Z" fill="#D9AE00"/>
<path d="M274.276 185.689C274.581 185.507 274.642 185.1 274.886 184.861C275.139 184.612 275.02 184.225 275.206 183.931C275.392 183.639 276.119 183.696 276.237 183.368C276.354 183.041 276.637 182.73 276.677 182.382C276.72 182.041 275.356 181.791 275.321 181.439C275.285 181.1 275.739 180.855 275.626 180.52C275.515 180.197 275.636 179.891 275.456 179.585C275.271 179.28 274.853 179.331 274.617 179.083C274.376 178.826 274.043 179.013 273.757 178.821C273.468 178.623 273.464 178.39 273.142 178.261C272.815 178.134 272.776 177.482 272.434 177.433C272.089 177.378 271.772 176.778 271.423 176.807C271.077 176.834 270.439 176.153 270.102 176.264C269.776 176.369 269.819 177.576 269.514 177.758C269.21 177.942 269.679 178.899 269.437 179.137C269.185 179.384 268.922 179.319 268.735 179.608C268.548 179.902 266.899 179.475 266.781 179.804C266.667 180.131 267.096 180.708 267.056 181.055C267.015 181.399 267.739 181.724 267.776 182.074C267.813 182.417 266.75 183.028 266.863 183.365C266.973 183.686 268.518 183.333 268.701 183.641C268.884 183.949 268.295 184.718 268.529 184.967C268.772 185.223 268.597 186.13 268.885 186.325C269.177 186.518 269.952 186.008 270.275 186.135C270.6 186.262 271.131 185.15 271.474 185.203C271.819 185.255 271.926 185.509 272.274 185.483C272.617 185.456 273.226 186.899 273.561 186.79C273.885 186.689 273.969 185.874 274.276 185.689Z" fill="#D9AE00"/>
<path d="M168.818 133.583C168.886 133.075 168.484 132.638 168.435 132.149C168.384 131.641 167.842 131.426 167.676 130.953C167.515 130.479 168.236 129.712 167.974 129.286C167.709 128.861 167.611 128.255 167.257 127.903C166.909 127.546 165.402 128.855 164.972 128.58C164.559 128.316 164.691 127.583 164.213 127.409C163.749 127.241 163.516 126.83 163.005 126.756C162.497 126.691 162.179 127.208 161.686 127.248C161.181 127.292 161.091 127.833 160.62 127.983C160.137 128.131 159.868 127.928 159.434 128.174C158.998 128.425 158.228 127.883 157.865 128.223C157.492 128.562 156.531 128.379 156.249 128.796C155.967 129.209 154.629 129.317 154.45 129.795C154.273 130.255 155.67 131.296 155.601 131.803C155.534 132.31 157.031 132.645 157.079 133.132C157.132 133.641 156.822 133.876 156.979 134.347C157.143 134.825 155.178 136.296 155.441 136.726C155.706 137.151 156.743 137.183 157.097 137.543C157.449 137.899 158.465 137.376 158.892 137.65C159.312 137.918 159.042 139.664 159.524 139.841C159.983 140.006 160.976 137.948 161.489 138.02C161.997 138.089 162.337 139.447 162.83 139.407C163.336 139.364 164.201 140.376 164.677 140.23C165.161 140.078 165.281 138.742 165.715 138.49C166.153 138.238 165.379 136.64 165.746 136.3C166.117 135.96 166.501 136.07 166.781 135.653C167.061 135.243 169.232 135.857 169.411 135.379C169.591 134.922 168.749 134.093 168.818 133.583Z" fill="#D9AE00"/>
<path d="M202.7 83.8705C202.164 83.9874 201.874 84.552 201.399 84.7795C200.909 85.0142 200.891 85.6391 200.477 85.9731C200.058 86.3122 199.024 85.8669 198.693 86.2924C198.362 86.7123 197.791 87.0264 197.562 87.5137C197.334 87.9949 199.199 89.0297 199.08 89.5568C198.965 90.0732 198.182 90.2081 198.181 90.7516C198.18 91.2808 197.851 91.6662 197.968 92.1999C198.085 92.7374 198.721 92.8702 198.941 93.3493C199.169 93.8428 199.746 93.7309 200.068 94.1539C200.395 94.5837 200.287 94.9308 200.695 95.273C201.106 95.6206 200.839 96.5915 201.316 96.8369C201.792 97.0804 201.961 98.1161 202.483 98.2478C202.998 98.3788 203.601 99.6851 204.144 99.6925C204.671 99.7013 205.204 97.9155 205.739 97.7986C206.275 97.6817 206.058 96.0557 206.534 95.8301C207.024 95.5973 207.374 95.8204 207.791 95.4859C208.21 95.1487 210.409 96.584 210.74 96.1641C211.069 95.7409 210.725 94.6858 210.957 94.1999C211.187 93.7164 210.29 92.8836 210.408 92.3546C210.526 91.8398 212.378 91.4695 212.379 90.9261C212.38 90.3988 209.95 90.1523 209.832 89.6128C209.715 89.0772 210.956 88.2393 210.736 87.7602C210.508 87.2667 211.209 86.0314 210.887 85.6065C210.559 85.1768 209.169 85.5401 208.761 85.1997C208.35 84.8522 207.027 86.2112 206.549 85.9639C206.073 85.7205 206.044 85.2954 205.522 85.1637C205.006 85.0326 204.833 82.6282 204.29 82.6208C203.76 82.6087 203.237 83.7532 202.7 83.8705Z" fill="#54BA3C"/>
<path d="M81.4132 188.836C80.8776 188.953 80.5875 189.517 80.11 189.745C79.6201 189.98 79.6022 190.603 79.1879 190.937C78.7691 191.278 77.7353 190.832 77.4044 191.256C77.0727 191.676 76.5046 191.992 76.2731 192.477C76.0451 192.961 77.9099 193.993 77.7913 194.52C77.6748 195.039 76.893 195.172 76.8903 195.718C76.8896 196.245 76.5603 196.63 76.6772 197.166C76.7941 197.701 77.4324 197.836 77.6505 198.313C77.878 198.807 78.4528 198.695 78.7766 199.118C79.104 199.548 78.9961 199.895 79.4047 200.239C79.8175 200.584 79.5501 201.555 80.027 201.801C80.5034 202.044 80.672 203.082 81.1935 203.211C81.7094 203.342 82.3119 204.649 82.8547 204.656C83.3841 204.666 83.917 202.881 84.4526 202.764C84.9883 202.647 84.7708 201.019 85.2471 200.795C85.7375 200.562 86.0896 200.785 86.5021 200.451C86.9213 200.112 89.12 201.55 89.4517 201.13C89.7822 200.704 89.4366 199.651 89.6677 199.164C89.8962 198.682 89.0015 197.849 89.1192 197.318C89.2365 196.803 91.0888 196.433 91.09 195.89C91.0892 195.365 88.6606 195.116 88.5433 194.578C88.426 194.041 89.665 193.203 89.447 192.726C89.2195 192.232 89.92 190.995 89.5981 190.572C89.2702 190.14 87.8802 190.506 87.472 190.163C87.0611 189.818 85.7378 191.175 85.2628 190.929C84.7863 190.686 84.757 190.259 84.2351 190.127C83.7192 189.996 83.546 187.591 83.0013 187.585C82.4742 187.576 81.9489 188.719 81.4132 188.836Z" fill="#54BA3C"/>
<path d="M93.8515 260.515C93.8988 260.969 94.3387 261.265 94.4834 261.681C94.6328 262.109 95.148 262.183 95.3853 262.556C95.6281 262.937 95.1632 263.753 95.4856 264.068C95.8014 264.38 96.0106 264.882 96.394 265.12C96.7723 265.353 97.8036 263.902 98.2295 264.05C98.6487 264.196 98.6866 264.855 99.138 264.91C99.5759 264.959 99.8648 265.267 100.322 265.221C100.777 265.172 100.948 264.657 101.365 264.52C101.798 264.378 101.761 263.889 102.14 263.66C102.526 263.426 102.805 263.549 103.127 263.241C103.453 262.93 104.232 263.244 104.484 262.871C104.728 262.498 105.606 262.457 105.761 262.035C105.918 261.62 107.058 261.241 107.115 260.789C107.174 260.355 105.74 259.743 105.693 259.288C105.646 258.835 104.276 258.863 104.132 258.447C103.984 258.018 104.202 257.745 103.963 257.371C103.724 256.99 105.121 255.302 104.802 254.984C104.48 254.673 103.574 254.858 103.191 254.622C102.812 254.388 102.039 255.053 101.608 254.906C101.193 254.763 101.058 253.191 100.605 253.14C100.169 253.089 99.7371 255.083 99.2807 255.132C98.8234 255.178 98.2443 254.07 97.8273 254.209C97.395 254.352 96.4323 253.655 96.0528 253.884C95.6643 254.116 95.8377 255.304 95.5151 255.611C95.1914 255.921 96.1951 257.144 95.9452 257.518C95.6987 257.889 95.3418 257.873 95.1847 258.297C95.0277 258.712 93.0154 258.632 92.9597 259.082C92.9011 259.518 93.8041 260.06 93.8515 260.515Z" fill="#54BA3C"/>
<path d="M161.114 69.6766C160.981 70.2109 161.362 70.7189 161.357 71.2471C161.35 71.7899 161.903 72.0825 162.02 72.6021C162.141 73.1269 161.285 73.861 161.52 74.3429C161.749 74.826 161.779 75.4764 162.116 75.8961C162.447 76.3151 164.197 75.0986 164.618 75.438C165.032 75.769 164.805 76.5315 165.293 76.7725C165.767 77.0064 165.967 77.472 166.499 77.6036C167.033 77.7366 167.434 77.2237 167.958 77.2372C168.503 77.2521 168.659 76.6869 169.178 76.5856C169.708 76.4818 169.972 76.7297 170.461 76.5153C170.952 76.2982 171.703 76.967 172.135 76.6491C172.564 76.3278 173.568 76.636 173.918 76.2243C174.262 75.8176 175.701 75.8571 175.947 75.3741C176.188 74.9042 174.82 73.635 174.954 73.1045C175.085 72.5707 173.529 72.0476 173.536 71.5209C173.544 70.9781 173.9 70.7626 173.783 70.245C173.664 69.7178 175.924 68.3799 175.693 67.8971C175.459 67.4129 174.358 67.2538 174.025 66.8353C173.694 66.4144 172.552 66.8533 172.128 66.5125C171.717 66.1786 172.204 64.3551 171.716 64.1122C171.244 63.8817 169.949 65.9535 169.415 65.8205C168.881 65.6893 168.677 64.2043 168.153 64.1909C167.609 64.1778 166.809 63.0043 166.286 63.1064C165.756 63.2102 165.47 64.6166 164.982 64.8329C164.488 65.0505 165.123 66.8349 164.689 67.1532C164.262 67.4741 163.867 67.3107 163.518 67.7224C163.173 68.1272 160.94 67.2206 160.692 67.704C160.452 68.1678 161.247 69.1424 161.114 69.6766Z" fill="#54BA3C"/>
<path d="M192.618 164.944C192.683 165.487 193.216 165.834 193.396 166.327C193.583 166.838 194.201 166.917 194.494 167.362C194.792 167.814 194.248 168.797 194.637 169.17C195.021 169.541 195.279 170.138 195.743 170.414C196.201 170.69 197.409 168.932 197.925 169.103C198.429 169.269 198.484 170.064 199.027 170.115C199.551 170.168 199.903 170.535 200.448 170.47C200.995 170.406 201.189 169.785 201.685 169.613C202.199 169.435 202.144 168.852 202.596 168.571C203.055 168.285 203.39 168.43 203.771 168.055C204.156 167.68 205.096 168.042 205.387 167.589C205.674 167.141 206.724 167.073 206.904 166.565C207.087 166.065 208.446 165.595 208.506 165.053C208.565 164.529 206.842 163.825 206.777 163.28C206.714 162.734 205.073 162.791 204.895 162.296C204.709 161.786 204.967 161.458 204.677 161.014C204.38 160.562 206.027 158.517 205.64 158.144C205.252 157.774 204.167 158.012 203.706 157.737C203.251 157.461 202.331 158.271 201.817 158.104C201.315 157.936 201.129 156.057 200.588 156.003C200.066 155.952 199.582 158.346 199.035 158.411C198.489 158.474 197.776 157.156 197.279 157.329C196.766 157.506 195.603 156.688 195.153 156.968C194.692 157.252 194.918 158.673 194.538 159.043C194.153 159.423 195.376 160.869 195.082 161.319C194.795 161.769 194.367 161.758 194.186 162.263C194.004 162.766 191.596 162.702 191.533 163.239C191.466 163.763 192.555 164.398 192.618 164.944Z" fill="#54BA3C"/>
<path d="M155.57 158.214C155.328 158.63 155.373 159.065 155.201 159.486C155.024 159.918 155.236 160.196 155.133 160.621C155.029 161.048 154.322 161.559 154.296 161.964C154.268 162.368 154.076 162.887 154.128 163.251C154.176 163.612 155.539 162.789 155.663 163.096C155.786 163.394 155.417 163.982 155.61 164.216C155.797 164.44 155.76 164.828 156.012 164.979C156.264 165.127 156.652 164.751 156.937 164.807C157.236 164.865 157.503 164.426 157.825 164.389C158.154 164.351 158.218 164.571 158.556 164.439C158.899 164.309 159.101 164.902 159.442 164.683C159.783 164.467 160.242 164.796 160.566 164.496C160.887 164.204 161.67 164.351 161.964 163.985C162.248 163.632 161.897 162.506 162.138 162.094C162.383 161.679 161.69 161.136 161.861 160.715C162.04 160.282 162.307 160.14 162.409 159.719C162.513 159.289 164.196 158.41 164.221 158.005C164.248 157.604 163.689 157.386 163.637 157.02C163.588 156.66 162.813 156.915 162.689 156.608C162.569 156.307 163.425 154.896 163.23 154.663C163.044 154.438 161.66 155.978 161.409 155.831C161.156 155.681 161.517 154.482 161.23 154.427C160.933 154.367 160.867 153.369 160.544 153.408C160.217 153.444 159.606 154.541 159.266 154.671C158.924 154.802 158.702 156.278 158.361 156.496C158.019 156.715 157.854 156.555 157.528 156.852C157.206 157.146 156.26 156.238 155.966 156.604C155.69 156.959 155.816 157.801 155.57 158.214Z" fill="#54BA3C"/>
<path d="M169.771 216.188C169.632 216.422 169.757 216.726 169.683 216.984C169.606 217.244 169.848 217.473 169.839 217.743C169.826 218.013 169.293 218.227 169.348 218.495C169.401 218.767 169.326 219.083 169.442 219.341C169.554 219.596 170.608 219.292 170.776 219.523C170.942 219.751 170.724 220.08 170.94 220.276C171.147 220.463 171.189 220.721 171.442 220.872C171.696 221.022 171.968 220.839 172.233 220.929C172.51 221.024 172.663 220.777 172.942 220.812C173.227 220.845 173.325 221.01 173.603 220.983C173.884 220.962 174.174 221.404 174.437 221.318C174.699 221.231 175.167 221.542 175.4 221.402C175.629 221.264 176.354 221.513 176.544 221.32C176.729 221.132 176.206 220.303 176.344 220.067C176.485 219.835 175.766 219.329 175.839 219.077C175.916 218.819 176.126 218.771 176.137 218.503C176.147 218.231 177.477 217.953 177.423 217.681C177.37 217.411 176.832 217.159 176.72 216.902C176.606 216.644 175.965 216.673 175.797 216.443C175.633 216.213 176.126 215.414 175.91 215.22C175.701 215.032 174.762 215.818 174.51 215.669C174.258 215.519 174.354 214.771 174.086 214.679C173.812 214.585 173.565 213.892 173.286 213.857C173.003 213.821 172.665 214.45 172.391 214.478C172.109 214.504 172.193 215.464 171.93 215.549C171.667 215.633 171.489 215.49 171.257 215.63C171.028 215.77 170.015 214.975 169.823 215.166C169.637 215.357 169.911 215.952 169.771 216.188Z" fill="#54BA3C"/>
<path d="M217.417 177.264C217.279 177.5 217.403 177.806 217.329 178.06C217.252 178.32 217.494 178.551 217.485 178.82C217.472 179.091 216.94 179.305 216.995 179.574C217.048 179.844 216.973 180.16 217.089 180.419C217.201 180.676 218.254 180.37 218.423 180.601C218.588 180.828 218.371 181.159 218.587 181.354C218.793 181.54 218.836 181.8 219.088 181.949C219.343 182.099 219.614 181.916 219.88 182.006C220.155 182.104 220.31 181.854 220.589 181.889C220.874 181.925 220.972 182.089 221.25 182.063C221.53 182.039 221.82 182.481 222.083 182.396C222.344 182.311 222.813 182.62 223.047 182.481C223.276 182.341 224.001 182.591 224.192 182.397C224.377 182.209 223.855 181.38 223.993 181.144C224.134 180.912 223.413 180.406 223.485 180.155C223.563 179.896 223.774 179.848 223.783 179.581C223.796 179.308 225.125 179.03 225.072 178.76C225.019 178.488 224.481 178.236 224.369 177.979C224.255 177.723 223.616 177.75 223.446 177.52C223.282 177.29 223.774 176.49 223.558 176.297C223.349 176.109 222.412 176.894 222.158 176.746C221.906 176.596 222 175.848 221.735 175.758C221.461 175.662 221.214 174.971 220.932 174.935C220.649 174.899 220.313 175.527 220.038 175.556C219.757 175.579 219.842 176.543 219.578 176.626C219.315 176.71 219.138 176.569 218.905 176.707C218.678 176.847 217.664 176.052 217.472 176.243C217.283 176.432 217.556 177.03 217.417 177.264Z" fill="#54BA3C"/>
<path d="M305.265 199.732C305.128 199.965 305.251 200.274 305.177 200.528C305.1 200.79 305.342 201.019 305.333 201.286C305.32 201.557 304.788 201.773 304.842 202.04C304.895 202.31 304.82 202.626 304.937 202.886C305.049 203.142 306.102 202.836 306.27 203.067C306.436 203.294 306.218 203.625 306.435 203.82C306.643 204.008 306.684 204.266 306.936 204.415C307.19 204.565 307.462 204.382 307.727 204.472C308.002 204.57 308.157 204.32 308.435 204.356C308.72 204.391 308.818 204.556 309.095 204.529C309.376 204.506 309.666 204.948 309.929 204.862C310.192 204.777 310.659 205.086 310.894 204.947C311.123 204.807 311.849 205.056 312.04 204.863C312.225 204.675 311.702 203.846 311.838 203.609C311.98 203.378 311.258 202.873 311.331 202.619C311.408 202.361 311.617 202.313 311.629 202.045C311.639 201.773 312.968 201.495 312.915 201.225C312.862 200.953 312.324 200.701 312.212 200.444C312.098 200.187 311.459 200.215 311.289 199.985C311.125 199.755 311.617 198.954 311.402 198.764C311.193 198.574 310.254 199.362 310.002 199.211C309.749 199.061 309.846 198.314 309.579 198.223C309.306 198.127 309.057 197.436 308.778 197.401C308.494 197.363 308.159 197.994 307.883 198.02C307.602 198.043 307.687 199.007 307.422 199.091C307.16 199.174 306.982 199.033 306.748 199.172C306.519 199.312 305.507 198.517 305.315 198.708C305.134 198.902 305.404 199.5 305.265 199.732Z" fill="#54BA3C"/>
</g>
</svg>
