<svg width="265" height="237" viewBox="0 0 265 237" fill="none" xmlns="http://www.w3.org/2000/svg">
<g style="mix-blend-mode:soft-light">
<path opacity="0.25" d="M12.1058 194.094C11.2603 193.077 10.4932 191.985 9.82377 190.857C6.75067 185.657 4.68817 179.914 3.02991 175.299C2.57786 174.04 2.1432 172.826 1.71071 171.702C-2.9098 159.767 2.8517 149.806 6.93104 143.772C5.9074 140.392 4.82727 136.153 4.64688 131.215C4.40129 124.356 6.26818 118.787 7.50263 115.101C7.79386 114.23 8.19594 113.031 8.27853 112.609C9.10222 106.286 11.5929 101.439 13.4902 98.0466C12.1036 93.1463 10.404 84.9531 14.3508 76.3132C14.4812 75.7444 14.6508 74.7888 14.7529 74.2292C15.5092 70.052 16.6263 63.8507 20.7187 57.7047C20.9512 57.0668 21.2772 56.0812 21.438 55.5977C22.9311 51.0704 25.1871 44.2313 31.042 38.3362C35.2344 34.1153 40.1157 30.9168 44.0385 28.3469C45.499 27.3867 46.8356 26.5185 47.9375 25.7079C53.9098 21.3166 60.4907 19.3846 64.8439 18.1043C65.3894 17.9431 66.124 17.7266 66.7477 17.5355C67.1628 17.1279 67.604 16.6834 67.8583 16.4278C71.3335 12.923 76.5886 7.62216 84.7755 4.8128C92.2583 2.24754 99.4759 2.58368 104.251 2.80935C105.02 2.8462 106.337 2.90612 107.046 2.90612C107.911 2.74723 108.795 2.57454 109.688 2.40183C114.711 1.42777 120.953 0.221101 127.36 0.0161557C137.527 -0.310835 144.781 4.38215 149.686 8.98535C154.411 7.47014 160.271 6.54443 166.78 7.97213C167.43 7.96522 168.192 7.9261 168.79 7.90537C173.867 7.70964 181.526 7.41491 189.541 10.9266C196.589 14.0123 201.347 18.8365 204.491 22.0258C205.08 22.6199 206.004 23.5571 206.478 23.9809C208.986 25.6273 211.242 27.6492 213.183 29.9842C215.03 32.2086 216.399 34.4952 217.458 36.6184C224.597 37.1756 233.751 39.2205 240.467 47.3101C246.861 55.0105 247.019 63.229 245.607 69.9853C248.399 71.6248 251.181 73.7779 253.611 76.7047C255.434 78.8992 256.867 81.3286 257.873 83.9215L258.201 84.7804C260.305 90.2034 262.685 96.3472 264.036 102.917C265.521 110.12 264.184 116.501 263.302 120.719C263.145 121.472 262.9 122.649 262.817 123.218C263 132.047 259.044 138.57 256.336 142.702C256.977 146.718 257.899 153.177 255.704 160.405C254.187 165.397 251.598 169.289 249.121 172.255C252.066 179.476 254.835 190.037 247.456 200.323C239.902 210.863 227.703 212.399 220.909 213.163C217.727 215.892 214.567 218.204 211.696 220.309L210.292 221.338C204.168 225.842 197.78 227.371 193.225 228.159C190.243 232.414 185.216 238.461 176.314 241.515C168.401 244.228 161.14 243.61 156.798 243.242C156.202 243.194 155.572 243.127 155.029 243.101C149.749 244 145.016 244.262 140.73 244.409C135.962 247.516 127.395 252.867 115.806 251.53C108.054 250.634 101.13 246.754 95.7791 240.308C94.1209 238.31 92.8016 236.311 91.7106 234.609C88.944 233.439 86.662 232.207 84.7038 231.15C83.6084 230.556 82.6565 230.047 81.8089 229.647C81.3503 229.548 80.8157 229.465 80.2463 229.361C77.5861 228.884 73.535 228.157 69.084 226.333C62.8444 226.948 50.4999 227.961 40.6351 219.277C39.5702 218.338 38.5857 217.325 37.7011 216.258C34.4476 212.339 32.8024 208.134 31.994 204.231C25.2392 203.308 17.7195 200.855 12.1058 194.094Z" fill="#44A1CC"/>
<path d="M42.0058 194.442L42.0188 193.289L41.9993 194.442C35.0011 194.35 26.2947 194.235 20.9266 187.769C20.4289 187.166 19.979 186.53 19.59 185.876C16.9929 181.48 15.189 176.453 13.596 172.021C13.1178 170.685 12.6527 169.393 12.192 168.203C8.98415 159.908 14.0676 152.581 17.4319 147.729C17.9796 146.934 18.5598 146.094 19.0228 145.375C18.8032 144.629 18.562 143.862 18.3099 143.07C17.2015 139.575 15.954 135.632 15.7802 130.866C15.5976 125.761 17.0059 121.558 18.1382 118.18C18.6989 116.501 19.1771 115.071 19.3183 113.98C19.9964 108.794 22.1545 104.974 23.8888 101.904C24.4909 100.838 24.9994 99.9352 25.3494 99.1546C25.1885 98.5098 24.9321 97.6578 24.7386 97.0223C23.4738 92.8313 21.5634 86.4987 24.8321 79.8806C25.132 79.2727 25.4906 77.3015 25.7297 75.9935C26.449 72.0051 27.3336 67.1095 30.6327 62.5063C30.9609 62.0342 31.7411 59.667 32.0736 58.6561C33.4211 54.5756 35.088 49.5234 39.2239 45.36C42.6121 41.9497 46.774 39.2209 50.447 36.8145C52.077 35.7461 53.5875 34.7535 54.8393 33.8324C59.2055 30.6224 64.1868 29.1601 68.1901 27.9834C69.957 27.463 71.9565 26.8781 72.8801 26.3945L73.8451 28.4624C72.7367 29.0427 70.722 29.6345 68.7747 30.2079C64.9279 31.3386 60.1422 32.7456 56.0824 35.7299C54.8023 36.6694 53.2593 37.6849 51.6249 38.7557C48.0085 41.1253 43.9465 43.7872 40.7235 47.0318C36.9701 50.8129 35.401 55.5704 34.1383 59.3907C33.4624 61.4447 32.8691 63.1787 32.3757 63.888C29.3743 68.0744 28.5441 72.6729 27.8769 76.3688C27.4792 78.5449 27.1749 80.1062 26.7598 80.949C23.9106 86.7128 25.6558 92.4928 26.8098 96.3176C27.0598 97.142 27.4075 98.3072 27.5574 99.021L27.6335 99.3826L27.4944 99.7234C27.0902 100.72 26.4882 101.789 25.7905 103.028C24.1236 105.98 22.0915 109.577 21.4743 114.295C21.3026 115.622 20.7918 117.151 20.1985 118.924C19.1184 122.145 17.7883 126.118 17.9557 130.778C18.1187 135.211 19.3118 138.988 20.3659 142.315C20.6897 143.337 20.9962 144.302 21.2548 145.235L21.3982 145.746L21.1222 146.193C20.6115 147.024 19.8704 148.097 19.2901 148.938C15.9214 153.794 11.4574 160.228 14.2023 167.323C14.6696 168.532 15.1412 169.842 15.628 171.196C17.1841 175.532 18.9489 180.446 21.4308 184.649C21.7568 185.197 22.1371 185.736 22.5588 186.242C27.2858 191.939 35.4553 192.048 42.021 192.135L42.0058 194.442Z" fill="#B3D9EB"/>
<path d="M119.394 241.372C118.67 241.372 117.934 241.331 117.177 241.243C112.372 240.689 108.138 238.241 104.596 233.974C103.118 232.196 101.912 230.299 100.847 228.629C100.297 227.763 99.7884 226.96 99.3385 226.319C95.6525 225.085 92.8011 223.545 90.2801 222.179C88.8109 221.387 87.4699 220.666 86.0768 220.058C85.2792 219.708 83.8492 219.45 82.3343 219.181C79.3721 218.651 75.3405 217.926 71.1938 215.736C70.3506 215.782 69.227 215.893 68.3707 215.975C62.87 216.53 54.6482 217.346 48.2869 211.748C47.6501 211.183 47.0546 210.569 46.5156 209.921L48.1522 208.397C48.6151 208.957 49.1301 209.486 49.6822 209.974C55.3437 214.953 63.0264 214.193 68.1077 213.684C69.1618 213.578 70.5027 213.447 71.3981 213.417L71.6785 213.408L71.9306 213.544C75.8708 215.681 79.8176 216.388 82.7016 216.906C84.4121 217.212 85.8899 217.475 86.9135 217.924C88.3849 218.566 89.7628 219.307 91.2211 220.093C93.7943 221.481 96.6522 223.026 100.323 224.222L100.651 224.33L100.862 224.618C101.384 225.327 101.996 226.294 102.599 227.24C103.687 228.951 104.852 230.78 106.239 232.449C109.41 236.272 113.172 238.457 117.418 238.95C124.321 239.747 129.885 236.118 133.569 233.714C134.455 233.136 135.659 232.353 136.387 231.968L136.839 231.848L137.822 231.816C142.707 231.671 147.76 231.526 153.457 230.487C154.343 230.326 155.893 230.441 157.982 230.619C161.639 230.934 166.647 231.353 171.795 229.594C177.898 227.498 181.151 222.64 183.305 219.425C183.936 218.479 184.581 217.528 185.042 216.975L185.261 216.712L185.581 216.623C186.387 216.395 187.802 216.176 188.836 216.015C192.535 215.441 197.597 214.658 202.155 211.305L203.572 210.267C207.221 207.598 210.989 204.839 214.58 201.413L214.812 201.189L215.121 201.132C216.164 200.938 217.807 200.75 218.991 200.621C224.562 199.994 232.184 199.138 236.45 193.183C241.198 186.558 237.849 179.221 235.159 173.331C234.772 172.483 234.283 171.401 233.887 170.457L233.583 169.729L234.12 169.17C234.542 168.73 234.991 168.276 235.387 167.883L236.882 169.563C236.663 169.78 236.43 170.015 236.193 170.257C236.504 170.975 236.843 171.717 237.121 172.327C239.758 178.102 243.741 186.827 238.186 194.578C233.348 201.33 225.188 202.246 219.226 202.917C218.185 203.029 216.796 203.184 215.801 203.354C212.178 206.774 208.431 209.514 204.808 212.164L203.393 213.203C198.419 216.864 193.061 217.693 189.152 218.299C188.354 218.423 187.204 218.601 186.463 218.771C186.013 219.363 185.403 220.279 185.085 220.756C182.762 224.224 179.254 229.458 172.465 231.788C166.905 233.695 161.646 233.246 157.808 232.921C156.412 232.799 154.506 232.636 153.824 232.765C147.976 233.831 142.846 233.981 137.885 234.126L137.152 234.151C136.463 234.536 135.468 235.187 134.742 235.659C131.16 237.99 125.975 241.372 119.394 241.372Z" fill="#B3D9EB"/>
<path d="M243.101 144.208C242.856 142.688 242.603 141.115 242.662 140.095L242.758 139.683C243.032 139.052 243.703 138.014 244.483 136.823C246.733 133.42 249.697 128.934 249.493 123.198C249.449 122.023 249.828 120.2 250.232 118.268C250.997 114.62 251.944 110.109 250.964 105.347C249.821 99.788 247.641 94.1623 245.718 89.1953L245.374 88.3042C244.851 86.9571 244.103 85.6928 243.153 84.5507C239.778 80.484 234.647 78.7731 230.524 77.396L229.411 77.0253L230.046 75.2936C232.428 69.0394 235.29 61.5232 230.007 55.1561C225.102 49.2472 217.173 49.1344 211.384 49.0515C210.66 49.0423 209.76 49.0308 208.941 49.0008L208.25 48.9732L207.978 48.2962C207.756 47.7435 207.532 47.1471 207.352 46.6635C206.357 44.0153 205.118 40.7132 202.727 37.8325C201.545 36.4117 200.184 35.2073 198.683 34.2539C197.648 33.5977 196.207 32.1378 194.814 30.7262C192.047 27.9214 188.65 24.4788 183.967 22.427C178.857 20.1934 173.583 20.3983 169.338 20.5595C167.069 20.6401 165.374 20.6885 164.605 20.5135C157.602 18.6344 151.486 21.7569 147.44 23.8248L146.131 24.4903L144.675 22.7701C141.239 18.6413 136.049 12.4331 127.808 12.6772C122.514 12.8453 117.115 13.8908 112.353 14.8165L112.138 14.8579C111.062 15.0652 110.002 15.2701 108.967 15.4589C107.857 15.6639 105.62 15.5602 103.645 15.4681C99.4438 15.2678 94.2735 15.026 89.2965 16.7324L88.625 14.5378C93.9779 12.6979 99.3656 12.9581 103.699 13.1585C105.418 13.2391 107.713 13.3473 108.596 13.1838C109.624 12.9973 110.678 12.7946 111.747 12.5874L111.962 12.546C116.8 11.6088 122.286 10.5449 127.743 10.3722C137.053 10.059 142.602 16.7945 146.305 21.2388L146.662 21.6648C151.167 19.3644 157.574 16.2465 165.105 18.2683C165.631 18.3926 167.993 18.3028 169.13 18.2614C173.713 18.0887 179.255 17.8699 184.802 20.2993C189.863 22.5145 193.423 26.1229 196.285 29.0244C197.509 30.261 198.98 31.7578 199.806 32.2805C201.501 33.3559 203.036 34.7122 204.366 36.3126C207.009 39.495 208.323 42.9999 209.382 45.8161C209.484 46.0901 209.601 46.401 209.723 46.721C210.312 46.7372 210.908 46.7441 211.41 46.751C217.614 46.8385 226.106 46.9606 231.65 53.6386C237.69 60.9153 234.549 69.6518 232.298 75.5745C236.466 76.9838 241.334 78.8629 244.794 83.0308C245.903 84.3641 246.776 85.8448 247.394 87.4291L247.724 88.2881C249.693 93.3749 251.912 99.0995 253.099 104.859C254.179 110.116 253.175 114.903 252.366 118.747C252.025 120.391 251.642 122.233 251.675 123.113C251.908 129.625 248.7 134.479 246.357 138.023C245.848 138.799 245.138 139.881 244.838 140.459C244.842 141.263 245.062 142.617 245.255 143.821L243.101 144.208Z" fill="#B3D9EB"/>
<path d="M199.429 208.194C194.706 211.667 187.841 210.467 182.766 213.125C177.554 215.856 175.829 224.081 170.347 225.96C164.766 227.874 158.396 225.419 152.646 226.467C146.836 227.526 141.733 227.561 135.861 227.747C129.96 227.936 123.849 235.979 118.005 235.305C112.161 234.628 109.29 222.168 103.615 220.641C97.9667 219.121 94.4438 216.309 89.08 213.961C83.7727 211.632 78.1742 212.383 73.2538 209.258C68.4181 206.186 56.9364 211.22 52.581 207.386C48.3387 203.651 52.9918 192.451 49.3037 188.006C45.6155 183.562 27.6138 187.893 24.7928 183.113C21.8958 178.208 19.8528 171.41 17.8577 166.252C15.8235 161.002 27.3943 151.885 26.2815 146.474C25.1558 141.005 22.6716 136.238 22.476 130.709C22.2761 125.157 25.4079 120.354 26.1229 114.85C26.8423 109.349 30.8217 105.529 32.443 100.189C34.0577 94.8715 28.2919 87.6708 30.7869 82.6185C33.2558 77.6216 32.5494 70.6235 35.8681 65.9903C39.1325 61.4378 39.5584 53.5164 43.6313 49.4175C47.5976 45.4245 53.8959 42.0187 58.6164 38.5438C63.3391 35.0713 70.8936 34.4127 75.9683 31.7576C81.1799 29.0289 85.231 21.9065 90.7144 20.0251C96.2933 18.1115 104.072 20.1702 109.824 19.1224C115.632 18.0632 122.141 16.5549 128.013 16.3661C133.914 16.1772 138.978 29.0404 144.822 29.7151C150.666 30.3921 157.775 22.7239 163.451 24.2506C169.1 25.7682 176.976 23.3618 182.342 25.7106C187.649 28.0364 191.461 34.2884 196.384 37.4132C201.22 40.4851 201.194 49.1342 205.547 52.966C209.791 56.6987 223.32 52.8716 227.008 57.3159C230.694 61.7602 220.806 74.5888 223.625 79.367C226.526 84.2696 239.614 84.4262 241.609 89.589C243.643 94.8393 245.96 100.658 247.07 106.07C248.194 111.539 245.123 117.853 245.323 123.38C245.525 128.931 238.918 133.862 238.199 139.361C237.482 144.862 240.387 150.547 238.766 155.89C237.151 161.207 230.936 164.339 228.443 169.389C225.972 174.385 236.697 186.756 233.374 191.389C230.114 195.939 216.574 193.551 212.504 197.652C208.537 201.643 204.151 204.722 199.429 208.194Z" fill="#D9D29E"/>
<path d="M30.4928 178.463C28.9693 175.515 27.6109 171.739 26.3982 168.354C25.9461 167.101 25.5072 165.881 25.0703 164.725C25.568 163.513 27.1611 161.218 28.1543 159.781C31.1687 155.431 34.5808 150.507 33.4833 145.158C32.9834 142.715 32.288 140.523 31.6142 138.404C30.6927 135.494 29.8951 132.981 29.8038 130.474C29.7321 128.463 30.4754 126.243 31.336 123.673C32.1228 121.322 33.016 118.658 33.4029 115.69C33.6463 113.843 34.6591 112.047 35.9413 109.772C37.178 107.582 38.5819 105.097 39.4947 102.083C40.8335 97.6824 39.5382 93.3854 38.4972 89.9313C38.0668 88.5082 37.3475 86.1271 37.4974 85.3718C38.9449 82.4796 39.536 79.2212 40.0555 76.3451C40.5119 73.8144 40.9856 71.2054 41.9506 69.856C44.0087 66.9844 45.0845 63.7283 46.1234 60.5804C46.9449 58.0819 47.8816 55.2542 48.9879 54.1396C51.0699 52.0441 54.3712 49.8749 57.566 47.7817C59.4307 46.5589 61.3585 45.2948 63.1319 43.9891C64.7793 42.7802 67.785 41.8959 70.6951 41.0416C73.6487 40.1735 76.7022 39.2754 79.5319 37.7947C82.9114 36.0262 85.5933 33.3227 87.9557 30.9394C89.7052 29.1732 91.8851 26.9764 93.2217 26.5181C94.9625 25.9217 98.0769 26.0691 101.091 26.2073C104.399 26.3638 107.824 26.525 111.21 25.9102C112.449 25.6822 113.718 25.4382 115.007 25.1895C119.182 24.3812 123.488 23.5476 127.289 23.3173C128.282 24.1325 129.912 26.0852 130.938 27.3195C134.291 31.3401 138.09 35.9019 143.921 36.572C149.037 37.1638 153.586 34.8357 157.242 32.9681C158.587 32.2796 160.791 31.1512 161.749 30.9785C165.337 31.8789 169.045 31.7362 172.327 31.6095C174.948 31.5082 177.912 31.3953 179.24 31.9733C180.916 32.7079 182.965 34.7873 184.945 36.7953C187.144 39.022 189.416 41.3271 192.274 43.1417C193.043 44.0743 193.773 46.0225 194.421 47.7403C195.453 50.4852 196.622 53.5985 198.833 56.2651C199.359 56.8983 199.93 57.4856 200.528 58.0129C204.625 61.6167 210.551 61.7042 215.78 61.7756C217.006 61.794 218.74 61.8147 220.114 61.9275C219.694 63.3391 219.016 65.1214 218.543 66.3649C216.419 71.9307 214.229 77.6807 217.204 82.7237C217.515 83.2487 217.871 83.7507 218.269 84.2343C221.233 87.8036 225.949 89.3763 230.111 90.7649C231.596 91.26 233.965 92.0498 234.967 92.6324L235.058 92.8719C236.955 97.7653 238.915 102.822 239.854 107.386C240.219 109.148 239.646 111.872 239.098 114.509C238.518 117.276 237.864 120.415 237.979 123.616C238.007 124.493 236.494 126.785 235.495 128.3C233.591 131.185 231.435 134.457 230.905 138.524C230.461 141.914 230.963 145.048 231.404 147.816C231.809 150.316 232.156 152.479 231.693 153.996C231.302 155.283 229.701 156.886 228.003 158.583C225.849 160.736 223.409 163.175 221.777 166.479C219.195 171.695 221.779 177.351 224.272 182.822C224.847 184.084 225.676 185.896 226.193 187.315C224.847 187.559 223.126 187.75 221.911 187.886C216.763 188.461 210.923 189.118 207.126 192.938C203.988 196.102 200.482 198.665 196.427 201.633L194.897 202.757C193.788 203.57 191.55 203.918 189.181 204.284C186.095 204.765 182.598 205.306 179.186 207.093C175.082 209.239 172.668 212.845 170.729 215.744C169.884 217.011 168.463 219.129 167.763 219.498C166.265 220.009 163.809 219.8 161.214 219.579C158.215 219.325 154.816 219.037 151.237 219.689C146.679 220.52 142.489 220.642 137.638 220.787L135.597 220.847C130.64 221.004 126.674 223.594 123.175 225.879C122.103 226.579 120.477 227.638 119.386 228.154C119.373 228.14 119.363 228.126 119.35 228.112C118.563 227.164 117.706 225.817 116.802 224.391C115.703 222.664 114.568 220.877 113.212 219.242C110.915 216.474 108.431 214.759 105.614 214.006C102.941 213.285 100.835 212.148 98.1682 210.711C96.423 209.771 94.4475 208.705 92.1589 207.699C89.0033 206.317 86.0041 205.78 83.3613 205.306C80.8424 204.852 78.8516 204.496 77.3411 203.533C72.8184 200.659 67.3351 201.205 62.5016 201.684C61.2194 201.813 59.309 202.004 58.005 201.999C57.9355 200.8 58.0137 199.07 58.0659 197.9C58.281 193.219 58.5201 187.913 55.071 183.755C51.096 178.967 43.987 178.875 37.1106 178.788C35.1763 178.755 32.1467 178.714 30.4928 178.463Z" fill="#9CA856"/>
<path d="M45.0474 140.981C49.3766 139.516 54.0211 138.372 58.9611 137.628C63.0708 137.006 65.6853 133.994 68.452 130.803C70.1602 128.836 71.9989 126.713 74.3004 125.283C74.2374 125.235 74.1701 125.186 74.1049 125.138C72.301 123.841 69.5669 121.87 70.4558 118.633C71.0991 116.318 73.1703 115.36 75.361 114.347C78.3428 112.972 80.0576 111.471 80.9313 109.479C81.5029 108.174 81.8897 106.951 82.2331 105.878C82.3852 105.394 82.5352 104.931 82.6808 104.512C83.1916 103.027 84.2565 101.493 85.3888 100.604L86.1342 100.026C86.7841 99.5267 87.4969 98.981 88.238 98.3316L89.0226 97.6247C90.0789 96.6667 90.7156 96.0887 91.5132 95.6673L92.1783 95.3219C93.4301 94.6772 94.9449 93.8965 96.3859 92.729C98.6592 90.8868 99.5176 88.3216 100.146 86.4494L100.194 86.3066C100.602 85.1184 101.365 84.4714 101.984 83.9463C102.282 83.6953 102.725 83.32 103.195 82.8871C103.734 82.3897 104.214 81.9015 104.64 81.4755L105.253 80.8583C105.914 80.202 106.709 79.753 107.915 79.0714L108.915 78.5003C110.05 77.8302 111.045 77.0611 112.008 76.3196L112.692 75.7922C114.477 74.4359 117.25 74.2149 118.056 74.1827C118.73 74.1527 119.428 74.1366 120.064 74.1251L121.84 74.0721C122.172 74.0606 122.509 74.0537 122.846 74.0537C125.017 74.0537 125.963 74.2932 126.274 74.3738L127.441 74.6823C129.118 75.1314 130.792 75.5827 132.617 75.7094C132.92 75.7301 133.211 75.7393 133.5 75.7393C135.456 75.7393 137.366 75.3018 138.903 74.9541L139.944 74.7192L140.648 74.7054C141.922 74.7054 143.256 75.1153 144.314 75.8291L144.803 76.1653C146.296 77.1924 147.887 78.2885 149.726 78.9977C150.308 79.2257 152.853 80.1836 152.853 80.1836C156.244 81.4663 157.141 85.3257 157.335 86.477C157.793 89.2058 158.747 91.0204 160.423 92.3606C162.864 94.311 165.978 94.5597 168.249 94.7393L168.471 94.76C169.821 94.9005 170.638 95.4831 171.238 95.9091C171.557 96.1371 172.09 96.5171 172.709 96.9108C173.337 97.3092 173.948 97.6523 174.489 97.9609L175.063 98.2879C176.428 99.057 177.464 100.528 177.766 102.182L177.84 102.589C177.981 103.393 178.105 104.077 178.268 104.802L178.538 105.963C178.864 107.326 179.059 108.148 178.768 109.283L178.697 109.558C178.279 111.156 177.803 112.968 177.977 114.976C178.021 115.466 178.103 115.955 178.223 116.422C178.451 117.318 178.838 118.133 179.405 118.923C179.618 119.22 179.809 119.526 179.972 119.839C181.563 119.625 183.308 119.517 185.21 119.517C195.668 119.517 209.414 122.734 222.194 127.012C223.198 125.152 224.247 123.544 225.123 122.22C225.293 121.965 225.545 121.58 225.793 121.196C225.964 117.769 226.61 114.677 227.112 112.284C227.316 111.31 227.636 109.769 227.727 108.959C227.203 106.679 226.325 104.072 225.328 101.38C220.47 99.7501 213.557 97.2401 208.645 91.3244C207.858 90.3756 207.148 89.3624 206.526 88.3192C203.264 82.7972 203.11 77.2177 204.038 72.2461C200.01 71.3526 195.859 69.66 192.18 66.4247C191.119 65.4921 190.12 64.4604 189.205 63.3574C185.764 59.2124 184.11 54.805 182.893 51.5765C182.795 51.3117 182.672 50.9824 182.541 50.6508C179.916 48.6152 177.795 46.4622 175.989 44.6338C175.552 44.1916 174.965 43.5952 174.419 43.0633C173.857 43.0794 173.281 43.1024 172.831 43.1185C170.221 43.2175 166.941 43.3442 163.366 42.9481C163.257 43.0034 163.162 43.0541 163.085 43.0932C158.73 45.32 151.443 49.0481 142.443 48.0073C132.405 46.849 126.367 40.4128 122.281 35.5724C120.716 35.8442 119.088 36.1619 117.48 36.4728C116.148 36.7307 114.835 36.984 113.542 37.2189C108.698 38.1009 104.145 37.8867 100.491 37.714C99.8175 37.6818 98.9113 37.6403 98.0898 37.6173C97.6573 38.0433 97.2226 38.4808 96.9096 38.7986C94.2256 41.5089 90.5483 45.2141 85.4823 47.8691C81.555 49.9255 77.7278 51.0469 74.3396 52.044C73.1182 52.4032 71.1317 52.9881 70.2993 53.3451C68.3911 54.7313 66.4591 55.9955 64.5683 57.2367C62.5884 58.5332 60.2129 60.0921 58.7546 61.2781C58.4482 62.0771 58.07 63.2285 57.8135 64.0045C56.7117 67.3412 55.3598 71.4424 52.6888 75.4561C52.5063 76.1722 52.2802 77.4134 52.1238 78.2838C51.7108 80.5659 51.1914 83.4397 50.1677 86.4494C50.209 86.5876 50.2481 86.7073 50.2742 86.7994C51.5043 90.8776 53.5625 97.7053 51.2696 105.256C50.0004 109.44 48.1248 112.763 46.7556 115.188C46.3166 115.966 45.7298 117.005 45.4994 117.516C44.9583 121.348 43.8846 124.551 43.0153 127.151C42.6567 128.221 42.172 129.661 42.0547 130.292C42.1547 131.355 42.7349 133.186 43.3522 135.132C43.8998 136.873 44.5127 138.814 45.0474 140.981Z" fill="#3F8000"/>
<path d="M126.673 128.155H126.672V128.156H126.673V128.155Z" fill="#8CB2BF"/>
<path d="M126.672 128.156V128.158L126.674 128.155L126.672 128.156Z" fill="#8CB2BF"/>
<path d="M99.9307 126.065C99.9198 126.131 99.9112 126.198 99.9003 126.26C99.7286 127.412 99.4961 128.987 98.731 130.684C98.2681 131.715 97.7791 132.567 97.3857 133.254C96.8902 134.122 96.6468 134.555 96.5338 135.011C96.0274 137.026 94.7908 138.727 92.8565 140.072C92.8239 140.097 92.7848 140.121 92.75 140.148C93.5063 141.514 94.1518 143.13 94.3105 144.982L94.3778 145.788C94.5278 147.542 94.643 148.924 94.9973 150.342C95.0972 150.755 95.1059 151.102 95.1668 151.487L130.562 145.799L99.9307 126.065Z" fill="#8BA7B5"/>
<path d="M130.562 145.806L118.195 177.245C119.399 178.104 120.371 179 121.127 179.718C121.175 179.765 121.227 179.813 121.281 179.863C121.401 179.854 121.518 179.847 121.627 179.841C122.968 179.758 124.8 179.645 126.932 180.075C129.775 180.646 131.981 182.113 133.448 183.083C133.561 183.156 133.73 183.269 133.9 183.38C135.369 183.569 136.71 183.93 137.744 184.211C138.166 184.326 138.831 184.508 139.183 184.57C140.152 184.451 141.248 184.204 142.382 183.912C142.865 182.44 143.612 180.49 145.136 178.892L130.562 145.806Z" fill="#ADCBCD"/>
<path d="M130.565 145.798L130.562 145.805L164.612 167.739C164.995 167.389 165.373 167.064 165.718 166.772C165.899 166.615 166.142 166.41 166.357 166.219C166.34 165.998 166.32 165.772 166.303 165.597C166.207 164.58 166.086 163.299 166.186 161.92C166.16 161.874 166.138 161.839 166.116 161.807C165.077 160.032 163.332 157.059 163.597 153.6C163.893 149.738 166.531 147.624 168.526 146.208C168.376 145.589 168.207 144.946 168.044 144.311C167.909 143.783 167.774 143.263 167.646 142.75C167.398 141.75 167.283 140.797 167.229 139.908L130.565 145.798Z" fill="#8BA7B5"/>
<path d="M145.135 178.892C145.504 178.505 145.88 178.116 146.356 177.787C146.749 177.515 147.169 177.275 147.604 177.071C149.907 176 152.294 176.145 154.445 176.681C154.747 175.15 155.388 173.591 156.701 172.279C157.079 171.901 157.503 171.549 157.957 171.233C159.663 170.045 161.522 169.561 162.88 169.207C162.991 169.174 163.13 169.14 163.269 169.101C163.71 168.592 164.167 168.147 164.612 167.737L130.562 145.804L145.135 178.892Z" fill="#8CB2BF"/>
<path d="M130.559 145.799L95.1641 151.486C95.3857 152.907 95.4314 154.211 95.3923 155.228C96.9245 156.283 98.9043 157.807 100.345 160.216C101.632 162.362 102.067 164.343 102.388 165.789C102.425 165.968 102.475 166.203 102.521 166.401L102.582 166.475C103.847 168.045 104.846 169.294 105.97 170.351C107.509 171.801 108.441 173.436 109.036 175.009C111.182 174.645 113.666 174.696 116.269 176.052C116.984 176.423 117.604 176.833 118.193 177.247L130.559 145.806V145.799Z" fill="#A9C4CF"/>
<path d="M130.565 145.799L115.48 111.543C113.7 110.79 112.166 109.749 110.953 108.911C110.77 108.955 110.586 109.003 110.403 109.049C110.503 112.091 110.412 116.296 106.904 118.741C105.137 119.969 103.181 120.344 101.373 120.388C101.377 122.023 101.084 123.801 100.03 125.449C99.9992 125.604 99.9623 125.843 99.9297 126.064L130.563 145.799H130.565Z" fill="#7FA2AD"/>
<path d="M167.23 139.907C167.18 139.096 167.176 138.329 167.174 137.657C167.176 137.397 167.176 137.046 167.167 136.726C166.976 136.544 166.778 136.36 166.637 136.227C165.422 135.085 163.761 133.521 162.52 131.453C161.562 129.857 161.006 128.326 160.512 126.974C160.332 126.486 160.041 125.692 159.871 125.355C159.241 124.563 158.661 123.767 158.089 122.984C157.494 122.168 156.781 121.19 156.242 120.577C155.894 120.43 155.392 120.241 155.057 120.114C153.603 119.566 151.821 118.892 150.046 117.708C149.735 117.609 149.198 117.478 148.822 117.388C147.837 117.144 146.596 116.838 145.286 116.331C145.227 116.34 145.177 116.352 145.138 116.361C144.325 116.515 143.239 116.709 141.993 116.762L130.57 145.802L167.23 139.907Z" fill="#8CB2BF"/>
<path d="M130.56 145.799L141.983 116.759C140.581 116.819 138.972 116.694 137.236 116.08C135.419 115.435 133.956 114.587 132.891 113.966C132.548 113.768 132.092 113.5 131.868 113.392C130.216 113.045 128.823 112.508 127.689 112.082C127.223 111.902 126.598 111.658 126.326 111.592C125.872 111.594 125.098 111.75 124.279 111.925C123.318 112.123 122.229 112.349 120.953 112.478C118.952 112.685 117.111 112.236 115.477 111.545L130.56 145.799Z" fill="#7899A3"/>
<path d="M85.1276 187.009C85.1276 186.975 85.1254 186.942 85.1233 186.91C85.095 186.334 85.058 185.538 85.2623 184.715C85.3884 184.211 85.5384 183.806 85.6622 183.479C85.8165 183.062 85.8904 182.855 85.9013 182.632C85.9535 181.628 86.3838 180.831 87.1814 180.262C87.1944 180.25 87.2096 180.239 87.2249 180.227C86.7337 179.481 86.2729 178.611 86.0208 177.648L85.9122 177.232C85.6753 176.327 85.4884 175.606 85.1841 174.855C85.0972 174.639 85.0602 174.461 84.995 174.256L68.6016 174.977L85.1276 187.009Z" fill="#8BA7B5"/>
<path d="M68.6047 174.97L71.5387 159.602C70.8823 159.086 70.3325 158.568 69.9022 158.148C69.8761 158.123 69.8457 158.096 69.8131 158.066C69.7566 158.063 69.7022 158.059 69.6501 158.059C69.0176 158.017 68.1505 157.96 67.0877 157.607C65.675 157.14 64.4797 156.246 63.6886 155.657C63.6256 155.613 63.5343 155.542 63.443 155.477C62.7215 155.288 62.0456 155.021 61.5262 154.812C61.3132 154.727 60.9763 154.588 60.8024 154.538C60.3525 154.54 59.8505 154.595 59.3333 154.681C59.242 155.404 59.0703 156.359 58.4922 157.082L68.6047 174.97Z" fill="#ADCBCD"/>
<path d="M68.6014 174.975V174.97L50.2302 161.596C50.0802 161.75 49.9281 161.895 49.7934 162.024C49.7216 162.093 49.6238 162.185 49.5391 162.266C49.5695 162.381 49.5977 162.501 49.6238 162.59C49.7673 163.115 49.9455 163.786 50.0302 164.486C50.0454 164.509 50.0607 164.529 50.0737 164.545C50.7387 165.522 51.8559 167.154 52.058 168.914C52.2818 170.878 51.2234 171.799 50.4019 172.4C50.5301 172.729 50.6714 173.07 50.8126 173.406C50.9278 173.685 51.0408 173.961 51.1517 174.233C51.3647 174.76 51.5081 175.255 51.6189 175.718L68.6014 174.975Z" fill="#8BA7B5"/>
<path d="M58.4887 157.08C58.3496 157.257 58.2062 157.432 58.0084 157.575C57.8476 157.688 57.6693 157.785 57.4803 157.863C56.4805 158.271 55.3265 158.047 54.2464 157.637C54.2464 158.404 54.0877 159.162 53.5835 159.756C53.4379 159.926 53.2684 160.083 53.0836 160.214C52.3816 160.718 51.5384 160.852 50.9212 160.949C50.8712 160.958 50.8082 160.967 50.7473 160.979C50.5821 161.214 50.4082 161.412 50.2344 161.596L68.6056 174.97L58.4887 157.08Z" fill="#8CB2BF"/>
<path d="M68.6016 174.975L84.995 174.254C84.7538 173.513 84.6082 172.842 84.5321 172.32C83.6975 171.686 82.6043 170.777 81.6872 169.453C80.87 168.272 80.4745 167.228 80.1832 166.464C80.1485 166.369 80.1007 166.247 80.0615 166.144L80.0246 166.102C79.2704 165.216 78.6728 164.516 78.036 163.901C77.1623 163.063 76.5603 162.162 76.1278 161.322C75.1346 161.375 73.9414 161.193 72.5679 160.332C72.1897 160.097 71.8551 159.85 71.5356 159.602L68.6016 174.975Z" fill="#A9C4CF"/>
<path d="M68.6016 174.974L79.0661 193.495C79.9876 193.995 80.8222 194.622 81.4807 195.128C81.5655 195.117 81.6481 195.103 81.7328 195.091C81.396 193.523 81.0395 191.37 82.487 190.336C83.215 189.813 84.117 189.742 84.9776 189.832C84.819 188.996 84.7929 188.1 85.1384 187.317C85.1406 187.239 85.1341 187.119 85.1298 187.006L68.6016 174.974Z" fill="#7FA2AD"/>
<path d="M51.625 175.718C51.7271 176.139 51.801 176.531 51.8641 176.879C51.8901 177.01 51.9206 177.189 51.9553 177.358C52.064 177.461 52.177 177.569 52.2553 177.645C52.9442 178.306 53.8874 179.214 54.6785 180.349C55.2892 181.231 55.7 182.051 56.0651 182.776C56.1977 183.038 56.4128 183.464 56.5237 183.649C56.9018 184.093 57.2539 184.54 57.6038 184.975C57.9668 185.433 58.3993 185.979 58.7166 186.327C58.8948 186.423 59.1534 186.55 59.3273 186.638C60.0749 187.008 60.9921 187.464 61.9527 188.185C62.1113 188.252 62.3808 188.355 62.5699 188.427C63.0654 188.611 63.687 188.848 64.3629 189.187C64.3911 189.187 64.4129 189.184 64.4303 189.184C64.8041 189.152 65.304 189.122 65.8973 189.171L68.6074 174.977L51.625 175.718Z" fill="#8CB2BF"/>
<path d="M68.6008 174.974L65.8906 189.169C66.5557 189.226 67.3381 189.392 68.2248 189.813C69.155 190.255 69.9352 190.783 70.5046 191.167C70.6893 191.294 70.9306 191.457 71.0501 191.527C71.8738 191.808 72.5932 192.169 73.1756 192.459C73.4147 192.581 73.7364 192.745 73.8711 192.795C74.0906 192.818 74.4449 192.788 74.8209 192.749C75.2621 192.708 75.7619 192.66 76.3596 192.671C77.2985 192.692 78.2178 193.035 79.0676 193.491L68.6008 174.974Z" fill="#7899A3"/>
<path d="M193.49 75.9329C193.088 76.2622 192.514 76.1287 192.068 76.3475C191.614 76.5685 191.158 76.1909 190.673 76.2922C190.184 76.3981 189.889 77.4573 189.393 77.4412C188.897 77.4274 188.337 77.6624 187.852 77.5288C187.374 77.3998 187.741 75.3434 187.294 75.1017C186.857 74.8622 186.296 75.3711 185.907 75.0326C185.531 74.7033 185.062 74.7079 184.749 74.2865C184.436 73.8605 184.718 73.294 184.507 72.8312C184.288 72.3476 184.709 71.9837 184.599 71.4748C184.488 70.9567 184.177 70.8231 184.175 70.2981C184.173 69.7708 183.321 69.3632 183.429 68.8497C183.536 68.3362 182.897 67.5601 183.112 67.0812C183.325 66.6114 182.749 65.338 183.066 64.9212C183.373 64.5159 184.959 65.2366 185.359 64.905C185.761 64.5712 186.789 65.7548 187.233 65.5384C187.691 65.3104 187.737 64.9097 188.222 64.806C188.711 64.7001 188.987 62.1395 189.484 62.1533C189.98 62.1671 190.527 63.0882 191.012 63.2194C191.49 63.3507 191.558 64.5482 192.005 64.7923C192.444 65.0271 193.801 63.8596 194.187 64.2004C194.563 64.5297 193.301 66.5216 193.614 66.9453C193.927 67.369 195.261 66.9569 195.472 67.4243C195.691 67.9056 196.984 68.1496 197.095 68.6585C197.21 69.1744 196.128 69.9964 196.128 70.5238C196.133 71.0488 194.383 71.1985 194.276 71.712C194.17 72.2279 194.457 72.5134 194.24 72.9924C194.029 73.4621 195.641 75.1017 195.324 75.5185C195.015 75.9214 193.887 75.6013 193.49 75.9329Z" fill="#26541B"/>
<path d="M214.175 188.151C213.775 188.482 213.199 188.346 212.756 188.565C212.299 188.786 211.845 188.409 211.361 188.512C210.872 188.618 210.576 189.677 210.078 189.661C209.581 189.647 209.022 189.882 208.537 189.749C208.059 189.62 208.427 187.563 207.979 187.322C207.542 187.082 206.984 187.591 206.592 187.253C206.214 186.923 205.747 186.928 205.434 186.507C205.119 186.078 205.403 185.514 205.193 185.051C204.975 184.568 205.397 184.204 205.286 183.695C205.173 183.177 204.865 183.043 204.862 182.518C204.858 181.991 204.006 181.583 204.115 181.07C204.221 180.556 203.584 179.78 203.8 179.301C204.013 178.831 203.437 177.558 203.754 177.141C204.06 176.736 205.647 177.457 206.049 177.125C206.449 176.791 207.479 177.975 207.92 177.758C208.379 177.53 208.424 177.13 208.909 177.026C209.398 176.92 209.674 174.36 210.172 174.373C210.665 174.387 211.213 175.308 211.697 175.439C212.178 175.571 212.243 176.768 212.691 177.012C213.128 177.247 214.486 176.08 214.873 176.42C215.251 176.75 213.988 178.742 214.299 179.165C214.614 179.591 215.946 179.177 216.157 179.644C216.377 180.126 217.668 180.37 217.778 180.879C217.894 181.394 216.811 182.216 216.813 182.744C216.818 183.271 215.066 183.418 214.962 183.932C214.855 184.448 215.14 184.733 214.925 185.212C214.714 185.682 216.325 187.322 216.009 187.738C215.705 188.139 214.577 187.817 214.175 188.151Z" fill="#26541B"/>
<path d="M180.677 141.534C180.407 141.757 180.022 141.665 179.725 141.81C179.42 141.958 179.114 141.704 178.788 141.773C178.462 141.843 178.264 142.554 177.93 142.545C177.599 142.533 177.223 142.69 176.897 142.602C176.578 142.515 176.821 141.136 176.526 140.974C176.23 140.818 175.856 141.156 175.595 140.928C175.341 140.707 175.028 140.712 174.817 140.429C174.607 140.143 174.798 139.765 174.659 139.452C174.511 139.128 174.793 138.883 174.72 138.543C174.643 138.197 174.435 138.107 174.435 137.755C174.433 137.401 173.861 137.129 173.935 136.783C174.007 136.44 173.579 135.92 173.722 135.6C173.865 135.282 173.479 134.43 173.689 134.151C173.894 133.88 174.956 134.363 175.226 134.14C175.495 133.914 176.184 134.709 176.482 134.566C176.789 134.416 176.821 134.142 177.145 134.073C177.471 134.004 177.658 132.286 177.99 132.298C178.323 132.307 178.69 132.924 179.014 133.012C179.336 133.097 179.379 133.903 179.679 134.064C179.97 134.22 180.883 133.44 181.142 133.665C181.394 133.889 180.548 135.222 180.759 135.508C180.97 135.791 181.861 135.515 182.002 135.828C182.148 136.152 183.017 136.316 183.091 136.654C183.169 137 182.444 137.553 182.446 137.905C182.448 138.257 181.274 138.356 181.203 138.704C181.133 139.045 181.322 139.238 181.179 139.558C181.037 139.876 182.118 140.972 181.905 141.251C181.7 141.527 180.946 141.311 180.677 141.534Z" fill="#26541B"/>
<path d="M132.761 76.3226C132.491 76.5436 132.107 76.4538 131.811 76.5966C131.503 76.7485 131.196 76.4953 130.875 76.5621C130.546 76.6334 130.346 77.3427 130.016 77.3335C129.681 77.3243 129.305 77.4785 128.982 77.391C128.66 77.3058 128.908 75.9242 128.608 75.7653C128.314 75.6064 127.941 75.9449 127.68 75.7146C127.428 75.4936 127.112 75.4982 126.904 75.215C126.693 74.9294 126.882 74.5518 126.741 74.2409C126.595 73.9162 126.878 73.6721 126.804 73.329C126.728 72.9836 126.519 72.8938 126.519 72.5415C126.517 72.1891 125.945 71.9151 126.019 71.5697C126.091 71.2266 125.663 70.7061 125.806 70.3861C125.948 70.0706 125.565 69.2163 125.776 68.9376C125.98 68.6682 127.045 69.1472 127.312 68.9261C127.582 68.7027 128.271 69.4949 128.569 69.3521C128.875 69.2024 128.908 68.9285 129.229 68.8617C129.557 68.7903 129.742 67.0747 130.077 67.0816C130.407 67.0931 130.777 67.708 131.101 67.7955C131.42 67.8853 131.463 68.689 131.766 68.8502C132.059 69.0067 132.97 68.2261 133.228 68.4541C133.48 68.6751 132.635 70.0084 132.846 70.2939C133.054 70.5772 133.945 70.3032 134.089 70.6164C134.234 70.9387 135.104 71.1046 135.176 71.4431C135.252 71.7885 134.526 72.3411 134.528 72.6911C134.53 73.0435 133.356 73.1448 133.287 73.4879C133.213 73.8333 133.404 74.0244 133.261 74.3468C133.117 74.6623 134.198 75.7584 133.987 76.037C133.785 76.3134 133.03 76.1015 132.761 76.3226Z" fill="#D9AE00"/>
<path d="M153.696 61.9275C153.392 61.6696 153.385 61.193 153.155 60.8775C152.916 60.5574 153.103 60.1291 152.944 59.7676C152.781 59.4014 151.986 59.353 151.907 58.9593C151.827 58.5655 151.564 58.1625 151.57 57.7572C151.575 57.3542 153.087 57.2806 153.177 56.8822C153.266 56.4954 152.809 56.1453 152.981 55.7769C153.144 55.4223 153.057 55.0516 153.3 54.7292C153.542 54.4068 153.989 54.5288 154.278 54.2801C154.581 54.0222 154.911 54.2893 155.25 54.112C155.593 53.9324 155.632 53.6629 156.002 53.5685C156.374 53.4695 156.506 52.7281 156.889 52.7212C157.271 52.7119 157.701 52.0695 158.075 52.1547C158.443 52.2376 159.238 51.5559 159.586 51.7332C159.925 51.9013 159.703 53.2876 160.007 53.5432C160.312 53.7988 159.662 54.8259 159.894 55.1344C160.133 55.4568 160.427 55.4223 160.585 55.7838C160.748 56.1499 162.6 55.915 162.676 56.3088C162.754 56.7049 162.205 57.3037 162.198 57.7066C162.192 58.1096 161.359 58.3744 161.268 58.7704C161.181 59.1573 162.244 60.0232 162.074 60.3916C161.909 60.7439 160.283 60.1038 160.042 60.4262C159.796 60.7532 160.325 61.7295 160.033 61.9782C159.733 62.2361 159.792 63.3023 159.455 63.4796C159.11 63.6615 158.34 62.9546 157.971 63.0513C157.599 63.148 157.186 61.7917 156.804 61.7963C156.421 61.8055 156.271 62.0795 155.898 61.9966C155.528 61.916 154.663 63.4796 154.313 63.3023C153.974 63.1319 154 62.1854 153.696 61.9275Z" fill="#26541B"/>
<path d="M47.0006 140.942C46.6964 140.686 46.6899 140.207 46.4595 139.894C46.2204 139.572 46.4095 139.143 46.2487 138.782C46.0857 138.416 45.2902 138.367 45.212 137.974C45.1316 137.58 44.8686 137.179 44.8751 136.772C44.8795 136.369 46.3921 136.295 46.4834 135.897C46.5725 135.51 46.1161 135.16 46.2878 134.793C46.4508 134.439 46.3638 134.068 46.6073 133.743C46.8507 133.421 47.2984 133.543 47.5874 133.297C47.8895 133.036 48.2221 133.304 48.5567 133.126C48.9001 132.947 48.9392 132.677 49.3087 132.583C49.6803 132.484 49.8151 131.742 50.1954 131.735C50.5779 131.726 51.0083 131.086 51.3821 131.169C51.7516 131.252 52.5448 130.573 52.8925 130.748C53.2316 130.916 53.0099 132.302 53.3142 132.557C53.6206 132.813 52.9686 133.84 53.2011 134.149C53.4424 134.471 53.7336 134.437 53.8923 134.798C54.0553 135.164 55.907 134.929 55.983 135.323C56.0613 135.719 55.5114 136.318 55.5049 136.721C55.4984 137.124 54.666 137.386 54.5747 137.782C54.4856 138.169 55.5505 139.035 55.3789 139.404C55.2137 139.756 53.588 139.116 53.3468 139.44C53.1012 139.765 53.6293 140.742 53.3381 140.993C53.0382 141.25 53.0969 142.314 52.76 142.494C52.4144 142.673 51.6451 141.967 51.2756 142.061C50.904 142.158 50.491 140.801 50.1085 140.808C49.726 140.815 49.576 141.092 49.2022 141.006C48.8328 140.926 47.9678 142.489 47.6179 142.314C47.2788 142.144 47.3071 141.197 47.0006 140.942Z" fill="#A27F00"/>
<path d="M86.9445 89.4877C87.2206 89.1975 87.6683 89.2459 87.9899 89.0386C88.3181 88.8222 88.6984 89.0685 89.057 88.9442C89.42 88.8175 89.5547 87.984 89.9351 87.9448C90.3132 87.9057 90.7196 87.6777 91.0978 87.7284C91.4738 87.779 91.3716 89.3817 91.7324 89.5199C92.0867 89.6603 92.467 89.2205 92.793 89.4416C93.1081 89.6558 93.4646 89.6051 93.7384 89.8975C94.0144 90.1923 93.8471 90.6483 94.047 90.9822C94.2556 91.3276 93.9666 91.6477 94.0948 92.0207C94.2252 92.4053 94.4708 92.4766 94.5186 92.875C94.5664 93.2757 95.2467 93.5037 95.2076 93.9044C95.1706 94.3074 95.7248 94.8323 95.6031 95.2192C95.4814 95.5992 96.0291 96.5134 95.8248 96.8588C95.627 97.195 94.3556 96.8035 94.0796 97.0936C93.8014 97.3861 92.9169 96.5848 92.5996 96.792C92.2714 97.0062 92.2692 97.3193 91.9085 97.4437C91.5455 97.5726 91.5542 99.5484 91.176 99.5852C90.7957 99.6244 90.3002 98.975 89.922 98.922C89.546 98.8691 89.3917 97.9618 89.0331 97.819C88.6789 97.6831 87.7465 98.7033 87.4205 98.4799C87.1054 98.2658 87.8965 96.6285 87.6226 96.3338C87.3466 96.0413 86.3686 96.4835 86.1665 96.1496C85.96 95.8042 84.9559 95.7396 84.8277 95.3666C84.6973 94.982 85.4493 94.2544 85.4036 93.856C85.3537 93.453 86.6729 93.1744 86.712 92.7714C86.749 92.3684 86.5077 92.175 86.6294 91.7928C86.749 91.4151 85.3841 90.3213 85.5862 89.9759C85.7818 89.642 86.6664 89.7801 86.9445 89.4877Z" fill="#A27F00"/>
<path d="M219.557 108.653C219.794 108.323 220.244 108.307 220.537 108.056C220.835 107.798 221.241 107.99 221.58 107.81C221.924 107.635 221.952 106.79 222.323 106.7C222.695 106.608 223.069 106.322 223.454 106.32C223.832 106.318 223.932 107.92 224.306 108.008C224.675 108.095 224.997 107.605 225.347 107.778C225.686 107.946 226.033 107.844 226.344 108.098C226.655 108.349 226.546 108.825 226.785 109.127C227.033 109.443 226.787 109.797 226.964 110.152C227.14 110.511 227.394 110.55 227.492 110.937C227.587 111.329 228.294 111.458 228.307 111.861C228.32 112.266 228.933 112.71 228.861 113.106C228.789 113.5 229.448 114.327 229.285 114.7C229.133 115.061 227.824 114.849 227.587 115.179C227.35 115.508 226.37 114.838 226.081 115.087C225.783 115.347 225.82 115.66 225.481 115.833C225.138 116.01 225.397 117.97 225.025 118.059C224.655 118.149 224.08 117.576 223.699 117.578C223.319 117.578 223.054 116.701 222.68 116.611C222.313 116.526 221.517 117.668 221.165 117.495C220.828 117.327 221.402 115.593 221.096 115.342C220.785 115.091 219.87 115.667 219.629 115.365C219.381 115.05 218.375 115.13 218.203 114.776C218.025 114.417 218.679 113.585 218.581 113.198C218.485 112.805 219.757 112.342 219.744 111.939C219.728 111.534 219.466 111.379 219.537 110.983C219.609 110.587 218.118 109.701 218.275 109.327C218.425 108.971 219.32 108.98 219.557 108.653Z" fill="#A27F00"/>
<path d="M170.905 81.9683C171.129 81.6298 171.579 81.593 171.86 81.3259C172.146 81.0564 172.562 81.2268 172.894 81.0334C173.229 80.8399 173.222 79.9926 173.587 79.8866C173.955 79.7784 174.318 79.4721 174.698 79.456C175.076 79.433 175.243 81.0311 175.624 81.0979C175.993 81.167 176.297 80.665 176.654 80.8216C176.999 80.9735 177.343 80.8561 177.662 81.091C177.98 81.3305 177.895 81.8118 178.147 82.1019C178.408 82.4059 178.177 82.772 178.369 83.1151C178.56 83.4697 178.816 83.495 178.929 83.875C179.042 84.2642 179.753 84.3586 179.784 84.7593C179.814 85.1622 180.446 85.5767 180.39 85.9797C180.338 86.3758 181.027 87.1726 180.883 87.5525C180.746 87.921 179.427 87.7735 179.203 88.112C178.982 88.4505 177.977 87.8288 177.697 88.0913C177.41 88.3653 177.46 88.674 177.13 88.8628C176.795 89.0585 177.134 91.002 176.769 91.1102C176.402 91.2185 175.804 90.675 175.422 90.6911C175.043 90.7095 174.741 89.8461 174.363 89.777C173.992 89.7079 173.246 90.8868 172.888 90.7303C172.544 90.5783 173.046 88.8167 172.727 88.5818C172.405 88.3446 171.516 88.9618 171.264 88.6716C171.001 88.37 170.001 88.4989 169.812 88.1535C169.621 87.8012 170.238 86.9423 170.127 86.5577C170.012 86.1686 171.264 85.6458 171.234 85.2451C171.203 84.8421 170.934 84.7017 170.988 84.301C171.04 83.9049 169.515 83.0898 169.658 82.7098C169.788 82.3391 170.682 82.3068 170.905 81.9683Z" fill="#A27F00"/>
<path d="M144.533 97.5418C144.756 97.2033 145.206 97.1665 145.487 96.8993C145.774 96.6299 146.189 96.8003 146.521 96.6069C146.856 96.4134 146.849 95.5661 147.214 95.4601C147.58 95.3519 147.943 95.0456 148.325 95.0295C148.703 95.0065 148.871 96.6046 149.251 96.6714C149.62 96.7405 149.925 96.2385 150.281 96.3951C150.627 96.547 150.97 96.4296 151.289 96.6645C151.607 96.904 151.522 97.3852 151.774 97.6754C152.035 97.9793 151.805 98.3455 151.996 98.6886C152.187 99.0432 152.444 99.0685 152.557 99.4485C152.67 99.8376 153.38 99.9321 153.411 100.333C153.441 100.736 154.074 101.15 154.017 101.553C153.965 101.949 154.654 102.746 154.51 103.126C154.373 103.494 153.054 103.347 152.83 103.686C152.609 104.024 151.605 103.402 151.324 103.665C151.037 103.939 151.087 104.247 150.757 104.436C150.422 104.632 150.761 106.575 150.396 106.684C150.029 106.792 149.431 106.246 149.049 106.265C148.671 106.283 148.369 105.419 147.99 105.35C147.619 105.281 146.873 106.46 146.515 106.304C146.171 106.152 146.673 104.39 146.354 104.155C146.034 103.918 145.143 104.535 144.891 104.245C144.628 103.943 143.629 104.072 143.437 103.727C143.246 103.375 143.863 102.516 143.752 102.131C143.637 101.742 144.887 101.222 144.859 100.819C144.828 100.416 144.559 100.275 144.613 99.8745C144.665 99.4784 143.14 98.6633 143.283 98.2833C143.416 97.9126 144.309 97.8803 144.533 97.5418Z" fill="#A27F00"/>
<path d="M180.318 179.599C180.54 179.263 180.992 179.224 181.27 178.959C181.559 178.687 181.974 178.857 182.304 178.666C182.641 178.473 182.635 177.623 183 177.52C183.367 177.409 183.728 177.103 184.113 177.087C184.489 177.064 184.656 178.662 185.036 178.731C185.406 178.8 185.71 178.296 186.066 178.452C186.412 178.604 186.753 178.489 187.075 178.724C187.397 178.961 187.307 179.442 187.559 179.732C187.822 180.036 187.592 180.405 187.781 180.748C187.972 181.1 188.229 181.126 188.34 181.506C188.457 181.895 189.163 181.989 189.196 182.39C189.224 182.795 189.859 183.207 189.802 183.61C189.746 184.006 190.439 184.803 190.296 185.181C190.159 185.551 188.837 185.404 188.616 185.743C188.394 186.079 187.388 185.459 187.11 185.722C186.823 185.996 186.875 186.304 186.54 186.496C186.203 186.689 186.542 188.633 186.179 188.741C185.812 188.847 185.212 188.303 184.832 188.322C184.454 188.342 184.152 187.479 183.774 187.407C183.4 187.341 182.654 188.517 182.296 188.361C181.952 188.211 182.452 186.45 182.135 186.215C181.815 185.978 180.922 186.595 180.67 186.302C180.411 186.003 179.407 186.132 179.22 185.784C179.027 185.432 179.644 184.571 179.533 184.191C179.42 183.801 180.67 183.276 180.64 182.878C180.609 182.473 180.34 182.332 180.394 181.932C180.448 181.535 178.923 180.718 179.064 180.34C179.201 179.97 180.094 179.933 180.318 179.599Z" fill="#A27F00"/>
<path d="M100.342 65.1981C99.8439 65.0968 99.5614 64.551 99.1158 64.3391C98.6573 64.1204 98.6246 63.5078 98.2334 63.1901C97.8357 62.87 96.8903 63.3329 96.573 62.9276C96.2579 62.52 95.7211 62.2252 95.4972 61.7532C95.2712 61.288 96.9751 60.2265 96.8534 59.7106C96.7339 59.2063 96.0036 59.0935 95.9928 58.5593C95.9775 58.0411 95.6646 57.6727 95.7624 57.143C95.8558 56.6134 96.4426 56.466 96.636 55.994C96.836 55.5012 97.3706 55.5979 97.6597 55.1765C97.9531 54.7436 97.8466 54.4097 98.2161 54.0643C98.5877 53.7143 98.3182 52.7678 98.7529 52.5145C99.1875 52.2658 99.318 51.2411 99.8004 51.1006C100.274 50.9602 100.8 49.6614 101.304 49.6407C101.793 49.6176 102.328 51.3585 102.828 51.4599C103.326 51.5612 103.163 53.1616 103.61 53.3711C104.071 53.5899 104.388 53.3619 104.782 53.6797C105.179 53.9998 107.181 52.533 107.496 52.9405C107.811 53.3458 107.518 54.3867 107.744 54.8588C107.968 55.3285 107.157 56.1667 107.279 56.6848C107.398 57.1914 109.124 57.5023 109.137 58.0365C109.15 58.5546 106.905 58.8609 106.809 59.3859C106.714 59.9155 107.883 60.71 107.69 61.1844C107.49 61.6772 108.17 62.87 107.881 63.2914C107.587 63.7243 106.292 63.4019 105.923 63.7473C105.549 64.0951 104.293 62.7963 103.856 63.0519C103.421 63.3006 103.406 63.7197 102.924 63.8624C102.45 64.0075 102.345 66.3678 101.841 66.3932C101.354 66.4093 100.841 65.2994 100.342 65.1981Z" fill="#26541B"/>
<path d="M68.3901 60.9307C68.2706 61.1909 67.962 61.2692 67.7946 61.4879C67.6229 61.7136 67.3165 61.6445 67.1057 61.8172C66.8905 61.9922 66.984 62.5817 66.7427 62.7014C66.4993 62.8212 66.2776 63.0768 66.0146 63.1344C65.7538 63.1943 65.467 62.1027 65.1953 62.0981C64.928 62.0935 64.7715 62.4827 64.5085 62.4159C64.2499 62.3514 64.0239 62.4735 63.7783 62.3445C63.5284 62.2179 63.5392 61.8748 63.3306 61.7021C63.1176 61.5225 63.2393 61.2392 63.0698 61.0205C62.8981 60.7948 62.7177 60.8109 62.5982 60.5576C62.4787 60.302 61.9723 60.3158 61.9092 60.0418C61.8484 59.7631 61.3616 59.549 61.3572 59.2635C61.3529 58.9802 60.7856 58.5081 60.8486 58.2249C60.9051 57.9509 61.8397 57.8956 61.9592 57.6354C62.0787 57.3729 62.8459 57.686 63.0111 57.4696C63.185 57.2439 63.1154 57.0367 63.3284 56.8617C63.5392 56.689 63.098 55.3741 63.3415 55.2544C63.5849 55.1346 64.0608 55.4455 64.3238 55.3879C64.5868 55.328 64.8867 55.8969 65.1606 55.8992C65.4257 55.9038 65.8212 54.9918 66.0864 55.0609C66.345 55.1231 66.182 56.4126 66.4276 56.5393C66.6775 56.6682 67.2317 56.1294 67.4382 56.3021C67.6533 56.4817 68.3379 56.2722 68.5053 56.4909C68.6791 56.7143 68.3379 57.3867 68.4553 57.64C68.577 57.8933 67.7577 58.4115 67.8207 58.6878C67.8859 58.9641 68.0902 59.0309 68.0924 59.3164C68.0967 59.5996 69.2486 59.9865 69.1877 60.2697C69.1291 60.5369 68.5096 60.6658 68.3901 60.9307Z" fill="#26541B"/>
<path d="M202.605 140.61C202.483 140.87 202.175 140.951 202.01 141.17C201.84 141.393 201.529 141.324 201.318 141.499C201.105 141.672 201.199 142.261 200.958 142.381C200.712 142.503 200.49 142.754 200.227 142.816C199.969 142.874 199.68 141.782 199.408 141.78C199.143 141.773 198.984 142.162 198.721 142.095C198.463 142.033 198.237 142.153 197.991 142.026C197.741 141.9 197.75 141.554 197.543 141.382C197.328 141.204 197.452 140.919 197.283 140.702C197.113 140.477 196.933 140.488 196.811 140.237C196.691 139.982 196.187 139.998 196.124 139.721C196.061 139.443 195.572 139.228 195.572 138.941C195.568 138.66 194.998 138.188 195.059 137.907C195.118 137.633 196.052 137.577 196.172 137.315C196.292 137.055 197.059 137.363 197.224 137.149C197.398 136.923 197.33 136.714 197.541 136.544C197.756 136.366 197.311 135.054 197.556 134.934C197.8 134.814 198.274 135.125 198.537 135.067C198.8 135.008 199.102 135.574 199.373 135.581C199.641 135.586 200.036 134.669 200.304 134.74C200.558 134.803 200.397 136.09 200.643 136.219C200.892 136.35 201.449 135.809 201.655 135.984C201.87 136.161 202.553 135.954 202.722 136.17C202.892 136.396 202.553 137.069 202.672 137.322C202.796 137.577 201.977 138.093 202.04 138.367C202.103 138.646 202.307 138.713 202.312 138.998C202.316 139.282 203.466 139.668 203.407 139.952C203.346 140.216 202.727 140.345 202.605 140.61Z" fill="#D9AE00"/>
<path d="M98.392 54.8765C98.2724 55.139 97.9617 55.2173 97.7965 55.436C97.6226 55.6617 97.3162 55.5926 97.1075 55.7653C96.8924 55.9404 96.988 56.5299 96.7424 56.6496C96.5012 56.7671 96.2795 57.0226 96.0143 57.0825C95.7514 57.1424 95.4688 56.0486 95.1972 56.0463C94.9298 56.0417 94.7734 56.4286 94.5082 56.3641C94.2518 56.2996 94.0257 56.4193 93.7758 56.2927C93.5259 56.166 93.5389 55.8206 93.3303 55.6479C93.1173 55.4683 93.2368 55.1874 93.0695 54.9663C92.8978 54.743 92.7174 54.759 92.6 54.5034C92.4783 54.2501 91.972 54.264 91.9089 53.9899C91.8481 53.7113 91.3612 53.4948 91.3569 53.2116C91.3525 52.9283 90.7875 52.454 90.8483 52.1731C90.907 51.899 91.8394 51.8438 91.9611 51.5813C92.0806 51.3211 92.8456 51.6342 93.013 51.4178C93.1847 51.1921 93.1151 50.9848 93.3281 50.8098C93.5411 50.6348 93.0999 49.3199 93.3412 49.2025C93.5867 49.0828 94.0627 49.3913 94.3257 49.3338C94.5865 49.2762 94.8886 49.8427 95.1624 49.8473C95.4275 49.8519 95.8231 48.9377 96.0882 49.0068C96.3447 49.0713 96.1795 50.3608 96.4294 50.4875C96.6794 50.6141 97.2336 50.0776 97.4401 50.2503C97.6531 50.4299 98.3398 50.218 98.5072 50.4391C98.6789 50.6625 98.3398 51.3348 98.4593 51.5858C98.5789 51.8415 97.7617 52.3573 97.8247 52.6336C97.8899 52.9123 98.0921 52.979 98.0964 53.2646C98.1008 53.5478 99.2526 53.9347 99.1918 54.2156C99.1331 54.485 98.5115 54.6163 98.392 54.8765Z" fill="#D9AE00"/>
<path d="M42.4254 166.593C42.3058 166.853 41.995 166.933 41.8277 167.152C41.6582 167.376 41.3496 167.306 41.1388 167.481C40.9258 167.654 41.0192 168.244 40.778 168.363C40.5324 168.485 40.3129 168.739 40.0477 168.799C39.7891 168.856 39.5022 167.765 39.2306 167.762C38.9654 167.756 38.8068 168.145 38.5416 168.078C38.2852 168.016 38.0592 168.135 37.8114 168.009C37.5615 167.882 37.5723 167.537 37.3637 167.364C37.1485 167.187 37.2724 166.901 37.1007 166.682C36.929 166.459 36.7508 166.471 36.6291 166.22C36.5096 165.964 36.0054 165.98 35.9423 165.704C35.8793 165.427 35.3925 165.211 35.3903 164.923C35.386 164.642 34.8187 164.17 34.8796 163.889C34.9361 163.615 35.8728 163.56 35.9901 163.297C36.1097 163.037 36.8769 163.348 37.0442 163.132C37.2159 162.906 37.1463 162.696 37.3593 162.526C37.5723 162.349 37.129 161.036 37.3745 160.916C37.618 160.797 38.0917 161.107 38.3569 161.05C38.6199 160.99 38.922 161.556 39.1914 161.563C39.4588 161.566 39.8543 160.654 40.1195 160.723C40.3759 160.787 40.2129 162.075 40.4607 162.201C40.7084 162.33 41.2648 161.791 41.4713 161.964C41.6865 162.141 42.3711 161.934 42.5384 162.153C42.7101 162.376 42.3689 163.049 42.4884 163.302C42.6123 163.555 41.7929 164.073 41.8581 164.35C41.9233 164.626 42.1276 164.693 42.1298 164.978C42.1342 165.262 43.2838 165.651 43.2252 165.932C43.1643 166.201 42.5449 166.328 42.4254 166.593Z" fill="#26541B"/>
<path d="M75.3885 126.642C75.2689 126.902 74.9582 126.983 74.7908 127.202C74.6213 127.425 74.3127 127.356 74.1019 127.531C73.8889 127.704 73.9824 128.293 73.7389 128.413C73.4934 128.535 73.2739 128.788 73.0087 128.848C72.7501 128.906 72.4632 127.814 72.1915 127.812C71.9264 127.805 71.7677 128.194 71.5026 128.128C71.2461 128.065 71.0201 128.185 70.7723 128.058C70.5224 127.932 70.5333 127.589 70.3246 127.414C70.1095 127.236 70.2334 126.951 70.0617 126.732C69.8921 126.509 69.7117 126.523 69.5922 126.269C69.4727 126.014 68.9663 126.027 68.9033 125.753C68.8402 125.477 68.3534 125.261 68.3512 124.975C68.3469 124.692 67.7797 124.22 67.8405 123.939C67.897 123.665 68.8315 123.61 68.9511 123.347C69.0706 123.087 69.84 123.395 70.0051 123.181C70.1768 122.956 70.1095 122.748 70.3203 122.576C70.5333 122.398 70.0899 121.086 70.3355 120.966C70.5789 120.846 71.0527 121.157 71.3179 121.1C71.5808 121.042 71.8829 121.608 72.1524 121.613C72.4197 121.618 72.8153 120.704 73.0804 120.773C73.3369 120.837 73.176 122.124 73.4216 122.251C73.6694 122.38 74.2258 121.841 74.4322 122.016C74.6474 122.196 75.3298 121.986 75.4993 122.205C75.6689 122.428 75.3298 123.101 75.4493 123.356C75.571 123.607 74.7539 124.125 74.8169 124.402C74.8821 124.678 75.0864 124.745 75.0886 125.03C75.0929 125.314 76.2426 125.703 76.1839 125.984C76.1274 126.249 75.508 126.377 75.3885 126.642Z" fill="#26541B"/>
<path d="M200.501 163.684C200.323 164.186 199.764 164.387 199.493 164.817C199.21 165.257 198.634 165.183 198.271 165.54C197.904 165.897 198.169 166.968 197.741 167.226C197.308 167.486 196.943 167.995 196.467 168.147C195.991 168.299 195.3 166.342 194.798 166.376C194.307 166.418 194.077 167.159 193.579 167.081C193.096 167.007 192.701 167.27 192.221 167.079C191.745 166.89 191.71 166.252 191.303 165.969C190.882 165.676 191.06 165.135 190.719 164.762C190.367 164.382 190.036 164.435 189.78 163.993C189.517 163.542 188.593 163.659 188.43 163.164C188.274 162.664 187.348 162.353 187.296 161.828C187.246 161.308 186.131 160.534 186.198 160.007C186.261 159.491 187.972 159.233 188.152 158.731C188.33 158.229 189.791 158.671 190.062 158.241C190.345 157.799 190.188 157.426 190.547 157.071C190.912 156.712 189.895 154.37 190.328 154.107C190.756 153.852 191.679 154.338 192.153 154.181C192.627 154.029 193.27 155.017 193.77 154.98C194.261 154.941 194.848 153.198 195.348 153.276C195.833 153.35 195.73 155.744 196.206 155.933C196.682 156.127 197.619 155.042 198.028 155.323C198.449 155.616 199.677 155.114 200.018 155.487C200.371 155.867 199.849 157.163 200.108 157.61C200.366 158.056 198.943 159.148 199.106 159.645C199.264 160.145 199.649 160.233 199.697 160.758C199.749 161.278 201.927 161.794 201.864 162.321C201.805 162.835 200.683 163.178 200.501 163.684Z" fill="#26541B"/>
<path d="M200.501 91.8918C200.323 92.3938 199.766 92.594 199.495 93.0246C199.21 93.4645 198.636 93.3908 198.271 93.7455C197.906 94.1024 198.169 95.1731 197.741 95.4311C197.308 95.6913 196.943 96.2002 196.467 96.3521C195.991 96.5041 195.3 94.5468 194.798 94.5836C194.309 94.6251 194.076 95.3666 193.579 95.2883C193.098 95.2146 192.701 95.4771 192.22 95.286C191.744 95.0972 191.71 94.4593 191.303 94.176C190.882 93.8836 191.062 93.3425 190.719 92.9694C190.369 92.5895 190.038 92.6424 189.778 92.2003C189.517 91.7489 188.591 91.8664 188.428 91.3713C188.271 90.8716 187.346 90.5608 187.296 90.0357C187.246 89.5153 186.133 88.7416 186.198 88.2142C186.259 87.6984 187.972 87.4405 188.152 86.9385C188.33 86.4365 189.791 86.8786 190.062 86.448C190.347 86.0059 190.19 85.6352 190.547 85.2782C190.912 84.919 189.897 82.5771 190.33 82.3145C190.758 82.0589 191.679 82.5449 192.155 82.3883C192.631 82.2363 193.272 83.2241 193.774 83.1873C194.263 83.1481 194.852 81.405 195.35 81.4833C195.835 81.557 195.732 83.9518 196.208 84.1406C196.684 84.3341 197.621 83.2495 198.03 83.5304C198.453 83.8229 199.681 83.3208 200.02 83.6939C200.373 84.0738 199.851 85.3681 200.11 85.8171C200.368 86.2638 198.947 87.3553 199.108 87.8527C199.269 88.3524 199.651 88.4399 199.701 88.9649C199.751 89.4853 201.929 90.0012 201.866 90.5285C201.805 91.042 200.683 91.3852 200.501 91.8918Z" fill="#26541B"/>
<path d="M64.4353 94.9244C63.9355 94.8254 63.6551 94.2774 63.2096 94.0655C62.7488 93.849 62.7184 93.2365 62.325 92.9187C61.9295 92.5963 60.9841 93.0592 60.6668 92.6516C60.3495 92.2463 59.8148 91.9539 59.591 91.4818C59.3649 91.0166 61.071 89.9528 60.9471 89.437C60.8276 88.9327 60.0995 88.8198 60.0865 88.2856C60.0713 87.7698 59.7605 87.399 59.8539 86.8694C59.9496 86.3421 60.5364 86.1947 60.7298 85.7203C60.9276 85.2298 61.4622 85.3243 61.7513 84.9029C62.0447 84.4745 61.936 84.136 62.3055 83.7929C62.6771 83.4428 62.4098 82.4919 62.8445 82.2432C63.2813 81.9899 63.4095 80.9697 63.8898 80.8269C64.3658 80.6865 64.8939 79.3877 65.3938 79.367C65.8828 79.344 66.4174 81.0849 66.9173 81.1862C67.415 81.2875 67.2541 82.8879 67.6975 83.0998C68.1582 83.3162 68.4777 83.0882 68.8689 83.406C69.2666 83.7261 71.2683 82.2593 71.5834 82.6669C71.9007 83.0721 71.6051 84.1153 71.829 84.5873C72.055 85.0548 71.2422 85.8953 71.3661 86.4112C71.4878 86.9178 73.2134 87.2286 73.2243 87.7651C73.2374 88.2809 70.9923 88.5849 70.8966 89.1145C70.8032 89.6442 71.9703 90.4386 71.779 90.9107C71.5791 91.4035 72.2572 92.594 71.9703 93.0177C71.6747 93.4506 70.3816 93.1282 70.0121 93.4737C69.6383 93.8214 68.3799 92.5249 67.9453 92.7782C67.5084 93.0292 67.4932 93.446 67.0107 93.5911C66.5391 93.7339 66.4326 96.0965 65.9306 96.1196C65.4481 96.138 64.9374 95.0257 64.4353 94.9244Z" fill="#26541B"/>
<path d="M73.1849 79.0374C72.6851 78.9361 72.4047 78.3879 71.9592 78.1761C71.5006 77.9573 71.468 77.3448 71.0768 77.0294C70.6813 76.707 69.7337 77.1675 69.4186 76.7622C69.0991 76.3593 68.5645 76.0645 68.3406 75.5925C68.1168 75.125 69.8207 74.0634 69.6989 73.5476C69.5794 73.041 68.8492 72.9304 68.8361 72.3985C68.8231 71.8781 68.5101 71.5096 68.6057 70.9823C68.7014 70.4527 69.2882 70.3053 69.4816 69.8309C69.6794 69.3405 70.2162 69.4325 70.5031 69.0134C70.7965 68.5805 70.6878 68.2489 71.0573 67.9035C71.4311 67.5535 71.1616 66.6048 71.5963 66.3538C72.0353 66.1005 72.1635 65.0804 72.6416 64.9399C73.1197 64.7948 73.6435 63.5007 74.1456 63.48C74.6346 63.4569 75.1692 65.1978 75.6691 65.2968C76.1689 65.3982 76.0059 66.9963 76.4515 67.2104C76.9122 67.4292 77.2317 67.1989 77.6229 67.5167C78.0206 67.8367 80.0223 66.3722 80.3396 66.7775C80.6569 67.1828 80.3613 68.2259 80.5873 68.698C80.8112 69.1654 80.0005 70.0059 80.1222 70.5217C80.2439 71.026 81.9674 71.3392 81.9805 71.8758C81.9935 72.3916 79.7506 72.6956 79.655 73.2252C79.5593 73.7548 80.7286 74.547 80.5374 75.0213C80.3396 75.5118 81.0155 76.707 80.7286 77.1284C80.4352 77.5613 79.1399 77.2389 78.7704 77.5843C78.3988 77.932 77.1383 76.6356 76.7058 76.8866C76.2689 77.1399 76.2537 77.559 75.7734 77.6994C75.2996 77.8399 75.1931 80.2049 74.6932 80.2256C74.1955 80.2463 73.6848 79.1387 73.1849 79.0374Z" fill="#D9AE00"/>
<path d="M179.055 206.177C178.955 205.795 179.202 205.422 179.192 205.04C179.176 204.648 179.548 204.425 179.618 204.049C179.689 203.667 179.092 203.156 179.242 202.804C179.389 202.451 179.4 201.982 179.62 201.671C179.837 201.362 181.052 202.205 181.332 201.952C181.606 201.705 181.439 201.157 181.765 200.975C182.082 200.798 182.212 200.457 182.571 200.354C182.934 200.245 183.214 200.607 183.571 200.591C183.94 200.57 184.056 200.975 184.414 201.035C184.775 201.102 184.951 200.915 185.283 201.063C185.622 201.208 186.125 200.713 186.422 200.934C186.722 201.155 187.398 200.913 187.644 201.203C187.887 201.489 188.865 201.434 189.041 201.777C189.215 202.111 188.307 203.052 188.406 203.432C188.504 203.815 187.457 204.224 187.472 204.604C187.485 204.996 187.731 205.143 187.661 205.519C187.594 205.901 189.156 206.822 189.006 207.174C188.859 207.529 188.111 207.665 187.891 207.973C187.672 208.284 186.887 207.992 186.605 208.245C186.331 208.494 186.696 209.799 186.368 209.984C186.053 210.159 185.129 208.692 184.773 208.798C184.41 208.904 184.299 209.979 183.94 209.997C183.573 210.018 183.051 210.882 182.693 210.82C182.33 210.755 182.108 209.744 181.771 209.599C181.432 209.454 181.83 208.153 181.532 207.93C181.232 207.706 180.967 207.833 180.722 207.545C180.476 207.259 178.976 207.957 178.798 207.612C178.633 207.276 179.155 206.559 179.055 206.177Z" fill="#D9AE00"/>
<path d="M59.6196 111.451C59.2784 111.612 58.8915 111.407 58.5394 111.478C58.1743 111.554 57.9113 111.2 57.5506 111.183C57.1833 111.167 56.7964 111.867 56.4444 111.766C56.0923 111.662 55.6533 111.722 55.3294 111.54C55.01 111.358 55.612 109.958 55.3359 109.703C55.0621 109.452 54.5775 109.71 54.358 109.394C54.145 109.088 53.8081 109.005 53.6538 108.644C53.5017 108.282 53.7972 107.932 53.7255 107.561C53.6494 107.177 54.0102 106.992 54.0146 106.61C54.0211 106.219 53.8233 106.067 53.9081 105.694C53.9928 105.316 53.4538 104.867 53.6168 104.519C53.7777 104.174 53.4495 103.501 53.6842 103.197C53.9124 102.903 53.7146 101.887 54.0059 101.65C54.2927 101.415 55.3099 102.226 55.6489 102.065C55.9901 101.903 56.5291 102.937 56.8812 102.868C57.2463 102.792 57.3463 102.516 57.7093 102.53C58.0765 102.546 58.6981 100.766 59.0502 100.869C59.4023 100.973 59.6391 101.735 59.963 101.917C60.2846 102.099 60.1325 102.967 60.4085 103.223C60.6845 103.472 61.8451 102.891 62.0668 103.207C62.2797 103.511 61.0497 104.699 61.2018 105.06C61.3561 105.422 62.3754 105.378 62.4493 105.749C62.5232 106.133 63.4055 106.553 63.4012 106.933C63.3947 107.326 62.4884 107.711 62.4036 108.084C62.3145 108.462 61.0431 108.24 60.8823 108.588C60.7193 108.934 60.8758 109.194 60.6432 109.493C60.415 109.793 61.2909 111.259 60.9975 111.497C60.7106 111.727 59.9608 111.289 59.6196 111.451Z" fill="#D9AE00"/>
<path d="M142.36 202.41C142.64 202.702 142.573 203.154 142.764 203.49C142.968 203.833 142.699 204.208 142.812 204.577C142.922 204.952 143.766 205.125 143.785 205.509C143.803 205.896 144.02 206.32 143.946 206.702C143.879 207.082 142.253 206.907 142.09 207.266C141.929 207.621 142.362 208.029 142.121 208.349C141.888 208.657 141.923 209.021 141.612 209.288C141.299 209.555 140.843 209.366 140.493 209.553C140.132 209.749 139.819 209.445 139.43 209.56C139.034 209.67 138.95 209.919 138.543 209.951C138.132 209.984 137.867 210.665 137.461 210.608C137.054 210.555 136.487 211.091 136.103 210.948C135.722 210.81 134.768 211.326 134.425 211.103C134.09 210.889 134.553 209.611 134.268 209.32C133.99 209.026 134.844 208.162 134.649 207.828C134.446 207.487 134.127 207.471 134.02 207.103C133.905 206.727 131.895 206.654 131.875 206.269C131.856 205.882 132.54 205.406 132.614 205.023C132.686 204.644 133.616 204.526 133.777 204.169C133.934 203.815 132.943 202.824 133.184 202.504C133.418 202.196 135.044 203.066 135.357 202.799C135.668 202.534 135.268 201.519 135.618 201.33C135.976 201.136 136.092 200.116 136.479 200.001C136.874 199.886 137.583 200.68 137.987 200.65C138.398 200.621 138.621 201.97 139.028 202.028C139.436 202.083 139.641 201.846 140.028 201.984C140.408 202.122 141.584 200.784 141.925 201.005C142.257 201.222 142.075 202.117 142.36 202.41Z" fill="#D9AE00"/>
<path d="M122.486 92.3129C122.605 91.9859 122.968 91.8615 123.149 91.5875C123.336 91.2997 123.707 91.3527 123.946 91.127C124.185 90.8967 124.02 90.2036 124.303 90.0355C124.581 89.8697 124.824 89.5427 125.135 89.4483C125.444 89.3493 125.878 90.6296 126.204 90.6065C126.522 90.5858 126.678 90.1045 127 90.1598C127.313 90.2128 127.571 90.0447 127.88 90.1713C128.189 90.3003 128.204 90.7125 128.467 90.899C128.741 91.0901 128.619 91.4401 128.841 91.6865C129.062 91.9352 129.28 91.903 129.443 92.1954C129.608 92.4902 130.212 92.4188 130.312 92.7412C130.412 93.0682 131.012 93.2731 131.04 93.6162C131.068 93.9548 131.788 94.4637 131.742 94.8068C131.697 95.1407 130.586 95.2949 130.466 95.6196C130.347 95.9466 129.404 95.6473 129.223 95.9213C129.036 96.2092 129.136 96.4486 128.897 96.6789C128.66 96.9092 129.306 98.4359 129.023 98.6017C128.743 98.7675 128.147 98.4451 127.837 98.5418C127.53 98.6386 127.119 97.9915 126.796 98.0145C126.476 98.0352 126.085 99.1612 125.759 99.1106C125.448 99.0576 125.531 97.5056 125.224 97.3743C124.916 97.2477 124.301 97.9454 124.038 97.7589C123.766 97.5654 122.966 97.8856 122.747 97.6369C122.521 97.3905 122.868 96.5522 122.703 96.2598C122.536 95.965 123.468 95.2673 123.368 94.9472C123.266 94.6226 123.018 94.5604 122.99 94.2196C122.958 93.8857 121.549 93.5311 121.595 93.1902C121.636 92.854 122.366 92.6399 122.486 92.3129Z" fill="#D9AE00"/>
<path d="M82.9651 154.478C82.6565 154.352 82.537 153.967 82.2783 153.778C82.0089 153.583 82.0567 153.186 81.8415 152.935C81.6242 152.682 80.97 152.859 80.8135 152.56C80.6527 152.263 80.3462 152.01 80.2549 151.678C80.1637 151.353 81.3677 150.888 81.346 150.543C81.3264 150.207 80.8722 150.043 80.9244 149.702C80.9722 149.371 80.8135 149.097 80.933 148.772C81.0526 148.445 81.4438 148.427 81.6198 148.148C81.8002 147.858 82.1305 147.987 82.3631 147.752C82.5956 147.515 82.563 147.287 82.8391 147.112C83.1172 146.934 83.0499 146.297 83.3563 146.191C83.6627 146.082 83.8584 145.447 84.18 145.417C84.4995 145.385 84.9754 144.623 85.3014 144.673C85.6166 144.722 85.7644 145.896 86.0708 146.025C86.3794 146.149 86.0991 147.151 86.3577 147.342C86.6272 147.538 86.8575 147.432 87.0727 147.681C87.29 147.932 88.7288 147.248 88.8874 147.545C89.0439 147.842 88.7418 148.47 88.8331 148.8C88.9244 149.127 88.3137 149.562 88.3354 149.905C88.355 150.244 89.4221 150.658 89.3699 151.001C89.3221 151.33 87.8551 151.248 87.7334 151.575C87.616 151.902 88.2724 152.551 88.1007 152.83C87.9181 153.117 88.2202 153.962 87.9898 154.2C87.7551 154.439 86.9641 154.071 86.6902 154.248C86.412 154.425 85.7535 153.44 85.4492 153.548C85.1428 153.654 85.0841 153.919 84.7624 153.951C84.4473 153.983 84.117 155.478 83.7931 155.427C83.478 155.376 83.2737 154.603 82.9651 154.478Z" fill="#D9AE00"/>
<path d="M168.872 46.6105C168.563 46.4838 168.443 46.0993 168.185 45.9104C167.915 45.7147 167.963 45.3186 167.748 45.0676C167.531 44.8143 166.876 44.9916 166.72 44.6923C166.559 44.3952 166.253 44.1419 166.161 43.8103C166.068 43.4857 167.274 43.0205 167.252 42.6751C167.233 42.3389 166.779 42.1754 166.831 41.8346C166.879 41.503 166.72 41.2289 166.839 40.9042C166.959 40.5749 167.35 40.5589 167.526 40.2779C167.707 39.9878 168.037 40.1167 168.27 39.8818C168.502 39.6446 168.469 39.4167 168.745 39.2417C169.024 39.0644 168.956 38.4265 169.263 38.3206C169.569 38.2124 169.765 37.5768 170.086 37.5469C170.404 37.5146 170.882 36.7524 171.208 36.8031C171.523 36.8514 171.671 38.0258 171.977 38.1547C172.286 38.2791 172.006 39.2808 172.264 39.472C172.534 39.6677 172.764 39.5618 172.979 39.8105C173.196 40.0615 174.635 39.3752 174.794 39.6746C174.95 39.9716 174.648 40.6003 174.74 40.9296C174.833 41.2566 174.22 41.6918 174.242 42.0349C174.261 42.3734 175.329 42.7879 175.276 43.1287C175.229 43.458 173.762 43.3774 173.642 43.7021C173.525 44.0291 174.181 44.6785 174.007 44.9571C173.827 45.2449 174.127 46.09 173.896 46.3272C173.662 46.5667 172.87 46.1983 172.597 46.3756C172.318 46.5529 171.66 45.5673 171.356 45.6756C171.049 45.7815 170.991 46.0463 170.669 46.0785C170.354 46.1108 170.023 47.6052 169.7 47.5546C169.384 47.5085 169.18 46.7372 168.872 46.6105Z" fill="#D9AE00"/>
<path d="M39.5439 156.721C39.5331 156.371 39.8178 156.101 39.8808 155.775C39.9438 155.436 40.3068 155.326 40.4393 155.017C40.5719 154.706 40.1612 154.14 40.3589 153.866C40.5524 153.598 40.6502 153.195 40.9023 152.974C41.1457 152.758 42.0259 153.748 42.3171 153.591C42.5996 153.44 42.5605 152.933 42.88 152.845C43.1864 152.765 43.3625 152.502 43.6928 152.486C44.0232 152.475 44.1927 152.848 44.5035 152.91C44.8251 152.972 44.8469 153.345 45.1403 153.476C45.4402 153.61 45.6249 153.49 45.8857 153.686C46.1487 153.889 46.6746 153.569 46.8876 153.826C47.1028 154.082 47.7309 154.02 47.883 154.324C48.0373 154.621 48.8849 154.784 48.9697 155.121C49.0544 155.445 48.0917 156.055 48.1047 156.405C48.1156 156.753 47.1375 156.88 47.0745 157.207C47.0115 157.545 47.1941 157.73 47.0615 158.036C46.9267 158.349 48.0917 159.477 47.8939 159.749C47.7005 160.019 47.0333 159.972 46.7833 160.191C46.5377 160.41 45.9183 159.986 45.6293 160.143C45.3446 160.295 45.4054 161.497 45.0881 161.582C44.7817 161.665 44.2774 160.205 43.9471 160.217C43.6189 160.23 43.3125 161.128 43.0017 161.066C42.6801 161.004 42.065 161.63 41.7694 161.501C41.4695 161.366 41.476 160.454 41.2152 160.253C40.9522 160.053 41.5456 159.026 41.3326 158.768C41.1174 158.515 40.8675 158.561 40.711 158.262C40.5567 157.964 39.131 158.234 39.0462 157.9C38.968 157.575 39.557 157.073 39.5439 156.721Z" fill="#D9AE00"/>
<path d="M129.909 42.3712C130.22 42.256 130.546 42.4656 130.861 42.4287C131.189 42.3919 131.393 42.7258 131.711 42.7672C132.032 42.811 132.419 42.226 132.724 42.3435C133.026 42.4632 133.417 42.4402 133.686 42.6313C133.956 42.8132 133.328 43.9992 133.556 44.2433C133.778 44.4851 134.221 44.2985 134.393 44.591C134.558 44.8765 134.847 44.9756 134.958 45.3072C135.066 45.6365 134.779 45.922 134.821 46.2536C134.86 46.5967 134.532 46.7303 134.499 47.0665C134.467 47.4096 134.632 47.5593 134.532 47.8817C134.43 48.2087 134.873 48.6438 134.706 48.9363C134.54 49.2287 134.782 49.8459 134.556 50.09C134.332 50.3341 134.436 51.2436 134.16 51.4278C133.891 51.6098 133.056 50.82 132.743 50.9374C132.434 51.0525 132.03 50.0992 131.717 50.1314C131.391 50.1706 131.283 50.4054 130.965 50.3663C130.644 50.3248 129.972 51.8378 129.668 51.718C129.368 51.6006 129.211 50.912 128.942 50.7255C128.672 50.5413 128.866 49.7929 128.64 49.5419C128.416 49.3024 127.351 49.7192 127.179 49.4245C127.014 49.1389 128.179 48.1948 128.07 47.8632C127.962 47.5316 127.064 47.4924 127.023 47.1585C126.984 46.8154 126.236 46.3779 126.267 46.0417C126.299 45.7009 127.125 45.4315 127.225 45.1114C127.327 44.7868 128.431 45.0792 128.596 44.7867C128.764 44.4943 128.644 44.2571 128.87 44.0107C129.092 43.7666 128.422 42.4057 128.701 42.2192C128.966 42.0395 129.596 42.4863 129.909 42.3712Z" fill="#D9AE00"/>
<path d="M193.768 114.981C193.368 115.313 192.792 115.177 192.351 115.396C191.892 115.619 191.436 115.241 190.953 115.341C190.462 115.446 190.169 116.503 189.671 116.492C189.178 116.476 188.615 116.711 188.132 116.579C187.654 116.448 188.021 114.392 187.576 114.15C187.137 113.913 186.578 114.419 186.189 114.081C185.813 113.749 185.344 113.756 185.031 113.332C184.716 112.906 184.998 112.345 184.79 111.877C184.57 111.396 184.99 111.032 184.879 110.523C184.766 110.005 184.457 109.872 184.455 109.349C184.451 108.819 183.601 108.412 183.709 107.898C183.816 107.385 183.179 106.608 183.394 106.132C183.607 105.66 183.031 104.386 183.347 103.97C183.653 103.567 185.244 104.283 185.642 103.951C186.041 103.62 187.072 104.803 187.515 104.587C187.971 104.361 188.019 103.958 188.504 103.854C188.993 103.746 189.269 101.186 189.767 101.199C190.262 101.215 190.81 102.137 191.292 102.268C191.773 102.399 191.836 103.597 192.283 103.841C192.72 104.075 194.078 102.908 194.465 103.249C194.843 103.578 193.583 105.57 193.894 105.994C194.207 106.417 195.539 106.01 195.75 106.475C195.967 106.956 197.262 107.2 197.373 107.709C197.486 108.227 196.406 109.047 196.408 109.572C196.413 110.099 194.661 110.247 194.552 110.763C194.444 111.278 194.73 111.564 194.517 112.041C194.304 112.513 195.915 114.15 195.6 114.569C195.293 114.97 194.168 114.652 193.768 114.981Z" fill="#54BA3C"/>
<path d="M58.4077 152.398C57.9687 152.322 57.684 152.014 57.2819 151.88C56.869 151.742 56.7951 151.408 56.4343 151.219C56.067 151.028 55.2846 151.242 54.9803 151.007C54.6761 150.775 54.1936 150.595 53.9654 150.328C53.7372 150.066 55.1281 149.552 54.9825 149.269C54.8434 148.988 54.2067 148.898 54.1545 148.603C54.1045 148.325 53.8046 148.108 53.848 147.825C53.8915 147.539 54.387 147.482 54.5196 147.231C54.6544 146.973 55.126 147.042 55.3411 146.823C55.565 146.6 55.4433 146.416 55.7388 146.238C56.0344 146.063 55.7302 145.538 56.0888 145.416C56.4452 145.297 56.4821 144.746 56.8885 144.686C57.2884 144.629 57.6449 143.945 58.0773 143.952C58.4968 143.959 59.0901 144.928 59.5291 145.004C59.9681 145.078 59.9464 145.944 60.3463 146.077C60.7593 146.215 61.02 146.1 61.3808 146.291C61.7481 146.48 63.3716 145.762 63.6737 145.994C63.9779 146.227 63.8019 146.784 64.0323 147.049C64.2605 147.314 63.6215 147.742 63.7628 148.028C63.9062 148.306 65.4189 148.546 65.471 148.838C65.5189 149.121 63.6041 149.2 63.5607 149.483C63.5172 149.768 64.5865 150.245 64.4561 150.496C64.3192 150.756 64.9951 151.433 64.7756 151.654C64.5561 151.875 63.4107 151.652 63.1173 151.823C62.8217 152 61.6394 151.242 61.2808 151.364C60.9244 151.486 60.9396 151.71 60.5354 151.77C60.1355 151.829 60.2224 153.114 59.79 153.105C59.3727 153.098 58.8467 152.472 58.4077 152.398Z" fill="#54BA3C"/>
<path d="M62.4008 198.997C62.0292 198.933 61.7945 198.633 61.4554 198.511C61.1055 198.385 61.0534 198.053 60.7491 197.876C60.4427 197.694 59.7711 197.926 59.519 197.703C59.2669 197.477 58.8605 197.312 58.6714 197.051C58.4823 196.796 59.6777 196.25 59.5603 195.971C59.4473 195.695 58.9083 195.621 58.8714 195.329C58.8344 195.053 58.5866 194.845 58.6301 194.562C58.6736 194.277 59.0952 194.205 59.2147 193.952C59.3343 193.692 59.7342 193.749 59.9232 193.526C60.1188 193.298 60.0189 193.116 60.2753 192.932C60.5318 192.75 60.2818 192.236 60.5926 192.105C60.8969 191.976 60.9425 191.426 61.2881 191.357C61.6293 191.288 61.9466 190.599 62.3161 190.594C62.6725 190.59 63.155 191.539 63.5266 191.603C63.8983 191.665 63.8592 192.529 64.1982 192.651C64.5459 192.778 64.7698 192.655 65.0719 192.837C65.3805 193.015 66.7758 192.257 67.0257 192.483C67.2778 192.708 67.117 193.268 67.3061 193.526C67.493 193.784 66.9409 194.226 67.0561 194.507C67.1713 194.781 68.4536 194.979 68.4884 195.269C68.5231 195.55 66.8931 195.679 66.8496 195.962C66.8062 196.248 67.7038 196.695 67.5886 196.95C67.4669 197.213 68.0276 197.869 67.8342 198.095C67.6429 198.32 66.6736 198.129 66.4215 198.306C66.1672 198.491 65.1784 197.768 64.8697 197.894C64.5633 198.026 64.572 198.249 64.2286 198.318C63.8874 198.389 63.9309 199.665 63.5636 199.667C63.2071 199.67 62.7725 199.059 62.4008 198.997Z" fill="#54BA3C"/>
<path d="M44.8999 123.727C44.4609 123.651 44.1762 123.343 43.7741 123.209C43.359 123.071 43.2873 122.737 42.9265 122.548C42.5614 122.357 41.7768 122.571 41.4725 122.336C41.1683 122.104 40.6858 121.924 40.4576 121.657C40.2294 121.395 41.6203 120.881 41.4747 120.598C41.3356 120.317 40.6988 120.227 40.6466 119.932C40.5967 119.654 40.2968 119.437 40.3402 119.154C40.3837 118.868 40.8792 118.811 41.0118 118.56C41.1443 118.302 41.6181 118.371 41.8333 118.152C42.0572 117.929 41.9354 117.745 42.231 117.567C42.5266 117.392 42.2223 116.867 42.5809 116.745C42.9373 116.626 42.9743 116.075 43.3807 116.015C43.7806 115.958 44.137 115.274 44.5695 115.281C44.989 115.288 45.5823 116.257 46.0213 116.333C46.4603 116.407 46.4386 117.273 46.8385 117.406C47.2514 117.544 47.5122 117.429 47.873 117.62C48.2403 117.809 49.8638 117.091 50.1659 117.323C50.4701 117.556 50.2941 118.113 50.5245 118.378C50.7505 118.643 50.1137 119.071 50.255 119.357C50.3984 119.635 51.911 119.875 51.9632 120.167C52.0132 120.45 50.0963 120.529 50.0528 120.812C50.0094 121.098 51.0787 121.574 50.9483 121.828C50.8113 122.088 51.4894 122.765 51.2699 122.986C51.0504 123.207 49.9051 122.983 49.6117 123.154C49.3161 123.331 48.1338 122.574 47.7752 122.696C47.4166 122.818 47.434 123.041 47.0298 123.101C46.6299 123.161 46.7168 124.446 46.2843 124.437C45.8648 124.427 45.3389 123.801 44.8999 123.727Z" fill="#54BA3C"/>
<path d="M216.76 158.402C216.462 158.351 216.279 158.063 216.014 157.953C215.736 157.836 215.701 157.509 215.464 157.34C215.223 157.172 214.675 157.426 214.478 157.207C214.28 156.993 213.958 156.843 213.81 156.587C213.671 156.341 214.649 155.758 214.562 155.482C214.48 155.215 214.047 155.157 214.026 154.87C214.004 154.593 213.81 154.397 213.854 154.112C213.897 153.826 214.239 153.744 214.343 153.49C214.445 153.225 214.765 153.271 214.925 153.044C215.088 152.811 215.014 152.631 215.223 152.442C215.436 152.249 215.254 151.742 215.503 151.607C215.753 151.466 215.808 150.918 216.086 150.837C216.362 150.759 216.64 150.059 216.938 150.045C217.227 150.027 217.586 150.957 217.881 151.01C218.179 151.058 218.125 151.92 218.39 152.03C218.668 152.141 218.853 152.016 219.089 152.185C219.331 152.353 220.478 151.551 220.674 151.765C220.874 151.982 220.724 152.544 220.869 152.795C221.013 153.041 220.554 153.502 220.641 153.778C220.726 154.048 221.75 154.202 221.771 154.49C221.793 154.766 220.476 154.948 220.433 155.233C220.387 155.517 221.102 155.933 221 156.189C220.893 156.456 221.321 157.092 221.165 157.32C221.002 157.555 220.23 157.389 220.02 157.578C219.807 157.766 219.035 157.08 218.785 157.221C218.533 157.359 218.535 157.582 218.255 157.663C217.979 157.741 217.975 159.012 217.679 159.028C217.388 159.044 217.057 158.453 216.76 158.402Z" fill="#54BA3C"/>
<path d="M222.711 145.824C222.415 145.771 222.235 145.483 221.967 145.375C221.691 145.257 221.654 144.931 221.415 144.762C221.174 144.594 220.631 144.848 220.431 144.629C220.235 144.415 219.911 144.265 219.764 144.009C219.625 143.763 220.6 143.18 220.516 142.904C220.435 142.637 220.003 142.579 219.979 142.292C219.957 142.015 219.764 141.819 219.807 141.534C219.851 141.248 220.194 141.166 220.296 140.912C220.4 140.647 220.72 140.693 220.879 140.465C221.042 140.233 220.97 140.053 221.178 139.864C221.391 139.671 221.209 139.164 221.459 139.029C221.709 138.888 221.761 138.34 222.041 138.259C222.317 138.181 222.593 137.481 222.891 137.467C223.18 137.449 223.541 138.379 223.839 138.432C224.136 138.481 224.08 139.342 224.345 139.452C224.623 139.563 224.808 139.438 225.047 139.607C225.286 139.775 226.431 138.973 226.631 139.187C226.827 139.404 226.679 139.966 226.823 140.217C226.968 140.463 226.507 140.924 226.597 141.2C226.681 141.469 227.707 141.624 227.727 141.912C227.748 142.188 226.427 142.37 226.386 142.655C226.342 142.939 227.053 143.355 226.951 143.611C226.847 143.878 227.277 144.514 227.116 144.742C226.955 144.977 226.181 144.811 225.973 145C225.762 145.188 224.986 144.502 224.736 144.643C224.486 144.781 224.486 145.004 224.206 145.085C223.932 145.163 223.93 146.434 223.632 146.45C223.343 146.466 223.008 145.875 222.711 145.824Z" fill="#54BA3C"/>
<path d="M71.4606 56.4683C71.1651 56.4176 70.9825 56.1298 70.7174 56.0193C70.4392 55.9018 70.4044 55.5748 70.1675 55.4067C69.9263 55.2386 69.3808 55.4919 69.1808 55.2732C68.9852 55.059 68.6614 54.9093 68.5136 54.6537C68.3745 54.4073 69.3503 53.8248 69.2656 53.5484C69.183 53.2813 68.7505 53.2237 68.7288 52.9359C68.7071 52.6595 68.5136 52.4638 68.5571 52.1783C68.6005 51.8928 68.9418 51.8098 69.0461 51.5542C69.1482 51.2894 69.4699 51.3354 69.6285 51.1075C69.7915 50.8749 69.7176 50.6953 69.9263 50.5065C70.1393 50.313 69.9567 49.8064 70.2066 49.6706C70.4566 49.5301 70.5087 48.9821 70.7891 48.9015C71.0651 48.8232 71.3411 48.1232 71.6389 48.1093C71.9279 48.0909 72.2865 49.0212 72.5843 49.0741C72.882 49.1202 72.8277 49.9838 73.0928 50.0943C73.371 50.2048 73.5557 50.0805 73.7948 50.2486C74.0361 50.4167 75.1814 49.6153 75.3792 49.8294C75.577 50.0459 75.4291 50.6078 75.5726 50.8588C75.7182 51.1075 75.2575 51.5657 75.3444 51.842C75.4292 52.1115 76.4528 52.2658 76.4745 52.5536C76.4963 52.83 75.177 53.0119 75.1336 53.2974C75.0901 53.5807 75.8008 53.9975 75.6987 54.2531C75.5944 54.5202 76.0225 55.1558 75.8638 55.3837C75.7008 55.6186 74.9293 55.4528 74.7185 55.6416C74.5077 55.8305 73.7318 55.1442 73.4819 55.2847C73.2298 55.4229 73.2319 55.6462 72.9516 55.7268C72.6777 55.8051 72.6734 57.0763 72.3778 57.0924C72.0909 57.1108 71.7584 56.5212 71.4606 56.4683Z" fill="#54BA3C"/>
<path d="M91.8209 176.001C91.5731 175.955 91.4275 175.672 91.2036 175.568C90.9733 175.46 90.9515 175.136 90.7538 174.974C90.5538 174.813 90.0865 175.08 89.9257 174.871C89.7649 174.661 89.4954 174.518 89.378 174.27C89.2629 174.028 90.1039 173.42 90.0387 173.148C89.9757 172.881 89.6106 172.84 89.5997 172.554C89.591 172.278 89.4302 172.087 89.4715 171.803C89.5171 171.518 89.8062 171.426 89.8975 171.17C89.9931 170.903 90.2604 170.94 90.4017 170.707C90.5451 170.472 90.4864 170.295 90.669 170.102C90.8494 169.906 90.7103 169.406 90.9254 169.261C91.1406 169.116 91.1971 168.57 91.4318 168.483C91.6687 168.395 91.9208 167.691 92.1686 167.668C92.412 167.645 92.6945 168.561 92.9423 168.603C93.1922 168.646 93.1249 169.505 93.3487 169.607C93.5791 169.713 93.7356 169.584 93.9355 169.743C94.1355 169.904 95.12 169.075 95.283 169.284C95.4438 169.494 95.3047 170.058 95.4221 170.304C95.5372 170.546 95.1395 171.016 95.2047 171.288C95.2699 171.555 96.1306 171.684 96.1415 171.967C96.1501 172.243 95.0352 172.46 94.9917 172.743C94.9483 173.029 95.5394 173.425 95.4438 173.683C95.3504 173.95 95.7003 174.571 95.559 174.802C95.4177 175.041 94.7679 174.898 94.5853 175.089C94.4028 175.288 93.766 174.622 93.5508 174.767C93.3357 174.912 93.3313 175.133 93.0944 175.221C92.8597 175.306 92.8271 176.57 92.5772 176.596C92.3338 176.623 92.0708 176.043 91.8209 176.001Z" fill="#54BA3C"/>
<path d="M96.8456 205.308C95.9111 204.18 95.2657 202.904 94.9375 201.518C93.8247 196.873 95.6569 192.519 99.7253 190.152C104.887 187.144 112.066 188.157 118.018 192.724C127.148 199.733 146.911 194.529 147.111 194.478L147.563 194.354L148.036 194.4C148.356 194.432 156.034 195.211 165.795 198.745C167.07 199.208 168.068 199.862 168.757 200.696C169.646 201.767 170.793 204.09 168.483 207.611C167.025 209.842 164.704 211.788 163.013 213.032C161.924 213.833 152.25 220.746 148.623 216.375C146.991 214.409 146.991 214.409 140.204 214.001C138.222 213.881 135.744 213.732 132.614 213.501C131.069 213.389 129.502 213.285 127.933 213.179C114.567 212.288 101.942 211.45 96.8456 205.308V205.308Z" fill="#149DC2"/>
<path d="M147.784 196.692C147.784 196.692 126.722 202.38 116.473 194.512C106.223 186.643 95.2111 192.19 97.3258 201.015C99.4404 209.839 117.223 210.064 132.808 211.207C148.39 212.351 147.669 211.483 150.555 214.96C153.443 218.44 174.492 204.36 164.919 200.897C155.347 197.429 147.784 196.692 147.784 196.692Z" fill="#18BFEC"/>
<path d="M163.983 205.053L163.451 202.674C167.063 201.765 176.689 198.394 177.86 193.772C178.275 192.135 177.521 190.336 175.617 188.425C171.149 183.946 167.682 184.354 163.659 184.824C158.935 185.39 153.577 186.012 146.742 177.883L148.463 176.26C154.505 183.444 158.83 182.931 163.405 182.396C167.611 181.906 171.955 181.392 177.201 186.65C179.768 189.224 180.737 191.835 180.085 194.408C178.349 201.256 165.448 204.682 163.983 205.053Z" fill="#18BFEC"/>
<path d="M141.708 194.788C141.402 194.53 141.395 194.051 141.163 193.738C140.924 193.418 141.11 192.992 140.952 192.626C140.791 192.257 139.993 192.211 139.915 191.82C139.835 191.423 139.572 191.023 139.578 190.62C139.58 190.217 141.097 190.141 141.184 189.745C141.273 189.358 140.819 189.006 140.989 188.639C141.154 188.285 141.065 187.914 141.306 187.592C141.552 187.267 141.997 187.391 142.288 187.143C142.588 186.885 142.921 187.152 143.258 186.975C143.603 186.793 143.642 186.523 144.01 186.431C144.381 186.332 144.514 185.591 144.896 185.584C145.277 185.577 145.707 184.934 146.081 185.017C146.45 185.1 147.246 184.419 147.594 184.596C147.933 184.764 147.713 186.148 148.015 186.406C148.319 186.661 147.672 187.686 147.902 187.997C148.141 188.319 148.435 188.285 148.591 188.646C148.754 189.015 150.608 188.778 150.684 189.171C150.762 189.565 150.21 190.164 150.206 190.567C150.201 190.97 149.367 191.235 149.276 191.631C149.187 192.018 150.254 192.881 150.082 193.247C149.917 193.604 148.289 192.962 148.048 193.289C147.804 193.611 148.33 194.59 148.039 194.841C147.739 195.096 147.798 196.165 147.461 196.342C147.118 196.522 146.346 195.815 145.979 195.909C145.607 196.004 145.194 194.65 144.812 194.654C144.429 194.663 144.279 194.94 143.905 194.855C143.536 194.774 142.671 196.335 142.321 196.16C141.986 195.99 142.01 195.046 141.708 194.788Z" fill="#A27F00"/>
<path d="M107.174 44.5586C106.961 44.2408 107.07 43.8056 106.935 43.4602C106.796 43.1056 107.068 42.7648 107.009 42.3918C106.953 42.0164 106.24 41.7585 106.264 41.3808C106.288 41.0009 106.144 40.5634 106.251 40.1972C106.353 39.8357 107.744 40.1765 107.92 39.8426C108.094 39.5133 107.766 39.0735 108.009 38.7856C108.244 38.507 108.252 38.1501 108.555 37.9198C108.852 37.6941 109.226 37.9267 109.55 37.7793C109.887 37.625 110.124 37.9566 110.471 37.8875C110.828 37.8162 110.93 37.5813 111.286 37.5974C111.647 37.609 111.949 36.9711 112.297 37.0701C112.643 37.1645 113.19 36.7016 113.508 36.8766C113.823 37.0563 114.707 36.651 114.983 36.9066C115.248 37.153 114.714 38.3458 114.927 38.6636C115.144 38.9791 114.303 39.7344 114.44 40.0775C114.577 40.4321 114.853 40.4828 114.909 40.8535C114.966 41.2312 116.704 41.519 116.681 41.8989C116.655 42.2766 116.011 42.6704 115.909 43.0342C115.807 43.3981 114.99 43.4119 114.809 43.7458C114.633 44.075 115.392 45.1458 115.148 45.4337C114.916 45.7123 113.594 44.6876 113.295 44.9155C112.997 45.1435 113.238 46.1752 112.914 46.3203C112.58 46.4722 112.373 47.4578 112.025 47.5245C111.669 47.5959 111.139 46.7462 110.784 46.7324C110.426 46.7186 110.374 45.3761 110.028 45.2794C109.678 45.1804 109.478 45.3922 109.157 45.2126C108.841 45.0399 107.679 46.2235 107.403 45.9679C107.137 45.7261 107.39 44.8741 107.174 44.5586Z" fill="#54BA3C"/>
<path d="M103.575 120.39C101.148 115.091 93.6411 101.157 88.1295 100.305C85.4216 99.8817 83.6025 100.273 81.6769 100.685C78.5017 101.36 75.2178 102.065 68.1957 99.6238C57.5486 95.9278 50.2875 96.819 45.4822 97.4108L45.1171 97.4569C40.251 98.0533 33.016 99.58 32.9443 99.5961L32.4922 97.199C32.5661 97.1829 39.8924 95.6377 44.8541 95.0298L45.2171 94.9861C50.2266 94.3666 57.7876 93.4409 68.9129 97.3049C75.3569 99.5432 78.2039 98.9353 81.2205 98.2928C83.2569 97.8576 85.3585 97.4131 88.462 97.8875C96.173 99.0803 104.703 117.256 105.649 119.326L103.575 120.39Z" fill="#18BFEC"/>
<path d="M105.683 183.918C105.563 184.178 105.253 184.259 105.087 184.478C104.918 184.701 104.609 184.632 104.398 184.807C104.183 184.98 104.279 185.569 104.035 185.689C103.79 185.811 103.57 186.064 103.305 186.124C103.044 186.182 102.758 185.09 102.486 185.088C102.221 185.081 102.062 185.47 101.797 185.403C101.54 185.341 101.314 185.459 101.067 185.334C100.817 185.208 100.828 184.862 100.621 184.69C100.406 184.512 100.53 184.227 100.358 184.008C100.187 183.785 100.008 183.796 99.8866 183.545C99.7671 183.289 99.2607 183.306 99.1998 183.029C99.1346 182.753 98.65 182.536 98.6478 182.249C98.6456 181.968 98.0784 181.496 98.1371 181.215C98.1936 180.941 99.1303 180.885 99.2476 180.623C99.3672 180.363 100.137 180.671 100.302 180.457C100.473 180.231 100.404 180.024 100.617 179.852C100.83 179.674 100.386 178.362 100.63 178.242C100.873 178.122 101.349 178.433 101.612 178.375C101.875 178.316 102.177 178.882 102.449 178.889C102.716 178.891 103.112 177.977 103.377 178.048C103.631 178.113 103.47 179.4 103.718 179.527C103.966 179.656 104.522 179.117 104.729 179.29C104.944 179.467 105.629 179.26 105.796 179.478C105.968 179.702 105.626 180.374 105.746 180.627C105.868 180.881 105.05 181.399 105.116 181.675C105.181 181.952 105.383 182.018 105.385 182.304C105.389 182.587 106.541 182.976 106.48 183.257C106.422 183.524 105.805 183.653 105.683 183.918Z" fill="#26541B"/>
</g>
</svg>
