<svg width="230" height="220" viewBox="0 0 230 220" fill="none" xmlns="http://www.w3.org/2000/svg">
<g style="mix-blend-mode:soft-light">
<path d="M110.427 32.2308C100.376 31.3028 78.3531 31.7509 78.3531 31.7509C71.2431 31.3032 74.5888 31.5867 66.9076 31.5622C58.8133 31.5364 53.7477 30.2059 48.0472 37.4996C31.0343 59.2674 18.0375 87.6982 34.0456 114.505C45.2161 133.21 60.2259 148.977 74.8858 164.868C84.43 175.213 90.2932 187.947 102.207 195.924C128.64 213.623 162.567 191.693 172.986 165.378C180.386 146.691 177.872 124.968 181.906 105.341C183.47 97.7362 186.812 88.8044 186.091 80.9152C184.977 68.7113 170.65 61.5798 162.305 54.8715C145.965 41.7371 131.122 34.1413 110.427 32.2308Z" fill="#D9D29E" stroke="#467084" stroke-width="3" stroke-linecap="round"/>
<path d="M108.879 39.8862C99.9292 38.8358 80.3736 38.759 80.3736 38.759C74.0472 38.2031 77.0257 38.53 70.2011 38.3411C63.0094 38.142 58.4801 36.8392 53.5742 43.2541C38.9327 62.3995 28.004 87.6057 42.8084 111.986C53.139 128.998 66.8167 143.46 80.1862 158.024C88.8902 167.507 94.3759 179.051 105.134 186.461C129.002 202.902 158.666 183.979 167.352 160.614C173.519 144.021 170.814 124.492 173.972 106.984C175.195 100.2 177.97 92.2653 177.159 85.1768C175.904 74.2117 163.02 67.5068 155.46 61.3113C140.658 49.1811 127.306 42.0488 108.879 39.8862Z" fill="#B0CE65"/>
<path d="M107.901 44.151C99.7041 43.0738 81.8219 42.7589 81.8219 42.7589C76.0302 42.169 78.7578 42.5066 72.5152 42.2478C65.9367 41.9751 61.7789 40.7211 57.3733 46.5553C44.2244 63.9677 34.5463 86.9965 48.3878 109.587C58.0463 125.352 70.7336 138.813 83.1403 152.365C91.2175 161.188 96.3777 171.866 106.307 178.811C128.337 194.219 155.225 177.199 162.875 155.834C168.307 140.662 165.59 122.68 168.258 106.629C169.292 100.41 171.73 93.152 170.9 86.6274C169.615 76.5344 157.752 70.2115 150.761 64.4232C137.075 53.0902 124.777 46.3686 107.901 44.151Z" fill="#3F8000"/>
<path d="M106.744 58.6892C100.505 57.8589 86.8981 57.5969 86.8981 57.5969C82.4904 57.1406 86.8038 63.5013 78.2793 68.105C73.2733 67.8892 70.0423 69.9428 66.6972 74.3794C56.7137 87.6205 66.8514 87.2961 77.4117 104.514C84.7806 116.528 78.5801 130.717 88.0374 141.051C94.1945 147.778 111.018 133.897 118.582 139.197C135.364 150.955 143.816 147.018 149.61 130.761C153.725 119.216 150.738 118.551 152.748 106.334C153.527 101.6 155.374 96.0768 154.734 91.108C153.744 83.4219 137.128 85.5428 131.802 81.127C121.374 72.4813 119.588 60.3986 106.744 58.6892Z" fill="#1D732D"/>
<path d="M131.195 144.41C131.195 144.41 156.946 123.948 151.756 98.031C146.569 72.1153 145.707 109.937 144.937 113.405C142.948 122.345 131.195 144.41 131.195 144.41Z" fill="#528221"/>
<path d="M58.363 106.28C57.9001 106.353 57.4923 105.994 57.0433 105.964C56.5814 105.932 56.3717 105.437 55.9367 105.303C55.4998 105.164 54.8155 105.839 54.4221 105.608C54.0264 105.38 53.4765 105.307 53.1409 104.995C52.805 104.684 53.9674 103.277 53.7056 102.897C53.4521 102.522 52.7888 102.662 52.6192 102.229C52.4529 101.808 52.0701 101.604 51.9948 101.143C51.9201 100.676 52.3867 100.374 52.4103 99.929C52.4359 99.4621 52.9288 99.3723 53.0522 98.9341C53.1783 98.4896 52.9845 98.2491 53.2025 97.8502C53.4208 97.4469 52.9035 96.7619 53.204 96.4142C53.5064 96.0711 53.3166 95.1957 53.6884 94.9267C54.0575 94.6639 54.1271 93.4372 54.5581 93.2609C54.9737 93.0854 55.9556 94.3415 56.4187 94.2664C56.8817 94.1913 57.2167 95.5515 57.6635 95.5818C58.1276 95.6138 58.3376 95.3254 58.7681 95.4612C59.2073 95.5978 60.507 93.7665 60.9004 93.9971C61.2959 94.2278 61.3522 95.1781 61.6881 95.4885C62.0192 95.8028 61.57 96.7434 61.8292 97.1275C62.0831 97.498 63.67 97.2123 63.8418 97.6451C64.0065 98.0597 62.1542 99.0214 62.2295 99.4824C62.3046 99.9455 63.5515 100.222 63.5272 100.674C63.5022 101.134 64.4444 101.898 64.3212 102.334C64.1951 102.778 62.9765 102.928 62.7585 103.327C62.5399 103.732 61.0675 103.061 60.7626 103.409C60.4621 103.756 60.5702 104.098 60.1983 104.367C59.8308 104.637 60.4465 106.597 60.0177 106.773C59.5999 106.948 58.8239 106.205 58.363 106.28Z" fill="#A27F00"/>
<path d="M80.7622 56.2646C81.0713 55.7061 81.7997 55.5703 82.2085 55.1148C82.6316 54.6453 83.3322 54.8344 83.8429 54.48C84.3577 54.1281 84.2092 52.8288 84.7888 52.6029C85.3671 52.3682 85.9048 51.8395 86.5249 51.7418C87.134 51.6452 87.6739 54.0719 88.3013 54.108C88.9152 54.1494 89.3232 53.3227 89.9267 53.5007C90.5195 53.6754 91.0587 53.4371 91.6155 53.7417C92.1765 54.0489 92.113 54.8069 92.5715 55.2072C93.0481 55.6244 92.7326 56.2283 93.0991 56.727C93.4689 57.2369 93.8908 57.23 94.1373 57.7984C94.3856 58.3714 95.5557 58.3921 95.6735 59.0076C95.7897 59.6163 96.8868 60.1454 96.8639 60.7718C96.8352 61.3891 98.0934 62.4896 97.9213 63.1001C97.7619 63.6921 95.5879 63.6943 95.2809 64.2531C94.9763 64.8099 93.2364 64.0338 92.8257 64.487C92.4024 64.9586 92.5384 65.4252 92.0284 65.771C91.5152 66.1295 92.3884 69.0584 91.8108 69.2866C91.2332 69.5148 90.1681 68.7814 89.5482 68.8769C88.9371 68.9711 88.3014 67.7011 87.6726 67.6562C87.0605 67.6193 86.0387 69.5613 85.429 69.3806C84.8466 69.2111 85.3686 66.4176 84.8098 66.1107C84.2532 65.8039 82.905 66.9082 82.4428 66.5011C81.9704 66.0864 80.3582 66.4571 79.996 65.9587C79.628 65.4533 80.4869 64.0222 80.2425 63.454C79.9923 62.8787 81.9436 61.8607 81.826 61.2431C81.708 60.6298 81.2479 60.4607 81.2751 59.8346C81.2929 59.2164 78.6749 58.2349 78.845 57.622C79.0088 57.0303 80.4531 56.8232 80.7622 56.2646Z" fill="#A27F00"/>
<path d="M135.414 141.681C135.744 141.671 135.996 141.961 136.307 142.023C136.625 142.09 136.729 142.454 137.019 142.589C137.313 142.725 137.855 142.315 138.109 142.512C138.366 142.71 138.745 142.811 138.949 143.064C139.155 143.311 138.213 144.188 138.36 144.479C138.503 144.767 138.982 144.729 139.06 145.049C139.138 145.357 139.387 145.537 139.395 145.866C139.406 146.198 139.053 146.366 138.994 146.679C138.933 147.002 138.581 147.02 138.453 147.316C138.324 147.615 138.439 147.799 138.251 148.06C138.059 148.323 138.356 148.855 138.115 149.065C137.87 149.278 137.923 149.912 137.639 150.064C137.355 150.214 137.194 151.067 136.877 151.155C136.57 151.237 135.997 150.267 135.665 150.276C135.336 150.286 135.224 149.306 134.913 149.238C134.592 149.176 134.419 149.357 134.126 149.224C133.832 149.09 132.755 150.247 132.5 150.052C132.245 149.852 132.294 149.184 132.088 148.933C131.882 148.684 132.285 148.065 132.138 147.774C131.996 147.489 130.859 147.542 130.776 147.225C130.7 146.916 132.089 146.414 132.077 146.084C132.068 145.753 131.217 145.444 131.277 145.13C131.337 144.809 130.746 144.188 130.873 143.893C131.002 143.593 131.866 143.605 132.059 143.344C132.248 143.081 133.22 143.684 133.464 143.468C133.707 143.254 133.661 143.004 133.946 142.849C134.231 142.695 133.981 141.263 134.298 141.18C134.607 141.099 135.083 141.69 135.414 141.681Z" fill="#26541B"/>
<path d="M56.3109 89.1445C56.6186 89.0267 56.9524 89.2169 57.2663 89.1738C57.5913 89.1296 57.8071 89.4398 58.1272 89.4715C58.4494 89.5034 58.8244 88.9401 59.1314 89.0426C59.4385 89.1452 59.8273 89.1178 60.1065 89.2854C60.3815 89.4505 59.781 90.5889 60.0152 90.8179C60.2433 91.0419 60.6845 90.8491 60.8644 91.1233C61.0388 91.386 61.3318 91.4742 61.4498 91.7797C61.5694 92.092 61.2908 92.3674 61.338 92.6838C61.3867 93.007 61.0599 93.1427 61.0372 93.4593C61.0137 93.7845 61.182 93.9244 61.0879 94.2344C60.994 94.5422 61.4499 94.9466 61.2909 95.2266C61.1317 95.5087 61.3883 96.0868 61.1698 96.3264C60.9538 96.5618 61.0797 97.4202 60.8097 97.6026C60.5442 97.7833 59.6857 97.058 59.3758 97.1756C59.0683 97.2913 58.6396 96.4027 58.3236 96.4455C57.9991 96.4854 57.8947 96.718 57.5748 96.6841C57.2523 96.6543 56.6183 98.1084 56.3117 98.0015C56.0045 97.9011 55.8306 97.2543 55.554 97.0825C55.2792 96.9153 55.4543 96.2003 55.2201 95.9713C54.9898 95.7471 53.933 96.1777 53.7535 95.8992C53.579 95.6386 54.7235 94.7076 54.6058 94.3977C54.4865 94.0833 53.5837 94.0741 53.5363 93.7598C53.488 93.4324 52.7272 93.0435 52.7501 92.7248C52.7736 92.3996 53.5939 92.1195 53.6876 91.8139C53.7797 91.5016 54.896 91.7509 55.055 91.4709C55.2144 91.1866 55.0888 90.9633 55.3095 90.7239C55.5255 90.4885 54.8201 89.2164 55.0925 89.032C55.3574 88.8578 56.0008 89.2643 56.3109 89.1445Z" fill="#D9AE00"/>
<path d="M115.509 133.463C116.064 133.716 116.248 134.399 116.714 134.76C117.192 135.13 117.066 135.813 117.438 136.274C117.814 136.744 119.045 136.501 119.305 137.041C119.568 137.576 120.112 138.053 120.25 138.636C120.385 139.216 118.112 139.902 118.117 140.504C118.122 141.096 118.942 141.425 118.817 142.019C118.694 142.594 118.962 143.091 118.709 143.647C118.456 144.202 117.729 144.199 117.38 144.668C117.016 145.151 116.416 144.895 115.964 145.279C115.507 145.67 115.543 146.074 115.017 146.352C114.487 146.631 114.55 147.751 113.973 147.907C113.397 148.06 112.969 149.15 112.371 149.169C111.779 149.19 110.816 150.471 110.223 150.352C109.644 150.239 109.483 148.169 108.927 147.916C108.371 147.663 108.991 145.941 108.525 145.586C108.045 145.217 107.61 145.377 107.239 144.916C106.862 144.449 104.13 145.497 103.868 144.962C103.608 144.421 104.231 143.356 104.094 142.77C103.958 142.193 105.128 141.496 105.125 140.89C105.118 140.302 103.188 139.464 103.314 138.872C103.439 138.3 106.142 138.6 106.396 138.042C106.65 137.484 105.497 136.281 105.847 135.812C106.21 135.328 105.738 133.816 106.188 133.431C106.647 133.038 108.074 133.763 108.599 133.486C109.128 133.206 110.25 134.995 110.825 134.839C111.401 134.685 111.533 134.227 112.133 134.206C112.725 134.185 113.479 131.607 114.073 131.728C114.649 131.842 114.953 133.21 115.509 133.463Z" fill="#54BA3C"/>
<path d="M126.139 73.04C126.148 73.5494 125.702 73.936 125.599 74.4154C125.492 74.9097 124.933 75.0611 124.721 75.5064C124.505 75.9601 125.13 76.7992 124.817 77.1915C124.51 77.5801 124.347 78.163 123.956 78.4782C123.569 78.7874 122.231 77.3238 121.781 77.5463C121.337 77.7651 121.385 78.4985 120.894 78.6212C120.416 78.7342 120.139 79.1146 119.627 79.1263C119.118 79.1338 118.858 78.5882 118.378 78.4937C117.881 78.3954 117.855 77.8495 117.404 77.6486C116.945 77.4425 116.654 77.6164 116.256 77.32C115.853 77.0209 115.035 77.4735 114.705 77.096C114.384 76.7172 113.408 76.7908 113.179 76.3462C112.949 75.908 111.637 75.6451 111.512 75.1534C111.388 74.6814 112.889 73.8095 112.879 73.3C112.87 72.7928 114.388 72.6361 114.491 72.1567C114.596 71.6622 114.317 71.3899 114.531 70.9447C114.743 70.4907 112.968 68.8143 113.278 68.4195C113.591 68.0315 114.618 68.1132 115.009 67.8001C115.396 67.4888 116.341 68.1196 116.798 67.8977C117.237 67.6828 117.172 65.9264 117.666 65.8082C118.141 65.6928 118.89 67.8376 119.402 67.8302C119.914 67.8186 120.403 66.515 120.883 66.6116C121.38 66.7099 122.349 65.8085 122.8 66.0094C123.261 66.2135 123.232 67.5509 123.63 67.8452C124.03 68.1441 123.088 69.6329 123.415 70.0123C123.738 70.3892 124.131 70.3228 124.362 70.7698C124.592 71.2079 126.806 70.8449 126.929 71.3342C127.053 71.8084 126.129 72.5306 126.139 73.04Z" fill="#54BA3C"/>
</g>
</svg>
