<svg width="360" height="293" viewBox="0 0 360 293" fill="none" xmlns="http://www.w3.org/2000/svg">
<g style="mix-blend-mode:soft-light">
<path opacity="0.25" d="M47.1819 233.481C48.2725 238.479 50.4597 242.81 53.6886 246.351C63.7351 257.378 78.5057 256.918 89.2885 256.586C90.8214 256.537 94.453 256.424 96.5253 256.541C106.497 262.688 116.303 263.014 122.927 263.234C125.248 263.311 127.644 263.389 128.898 263.718L132.169 264.59C141.95 267.224 150.402 269.501 163.737 264.513C165.313 264.337 169.231 264.494 171.396 264.579C183.061 265.04 202.572 265.815 210.771 247.895C213.439 242.069 214.005 235.503 212.452 228.386C211.196 222.631 208.748 217.33 206.587 212.652C205.569 210.45 204.238 207.563 203.699 205.891C204.439 201.886 206.256 197.52 208.17 192.921C208.859 191.264 209.555 189.589 210.217 187.891C212.096 188.046 214.19 188.152 216.484 188.151C227.419 188.139 235.18 181.299 241.415 175.805C241.98 175.308 243.028 174.385 244.056 173.521C246.423 174.007 248.759 174.418 251.047 174.821C255.198 175.547 259.901 176.374 262.086 177.335C271.075 181.292 275.84 182.101 279.668 182.75C281.97 183.14 283.019 183.317 286.49 184.877C287.857 185.492 288.328 186.058 289.902 188.123C292.186 191.113 296.006 196.114 303.183 198.304C310.723 200.601 318.368 198.838 325.909 193.065C340.076 182.236 345.372 168.072 341.64 150.97C341.37 149.729 341.046 148.446 340.657 147.115C340.612 146.963 340.551 146.683 340.55 146.679C340.264 145.366 339.999 143.201 339.742 141.109C339.338 137.812 338.834 133.708 337.882 129.347C336.614 123.535 334.809 118.43 332.362 113.742C326.076 101.7 312.956 99.2736 303.375 97.5003C302.616 97.3605 301.101 97.0782 299.588 96.7632C299.502 96.0212 299.419 95.2304 299.337 94.4218C299.045 91.5958 298.715 88.3989 297.981 85.0346C296.851 79.8556 295.016 75.4933 292.367 71.6883C286.788 63.6939 278.76 59.9384 272.9 57.1974C271.323 56.4611 269.017 55.3809 268.044 54.7385C267.15 53.3799 266.13 50.7151 265.218 48.3382C263.234 43.1638 260.516 36.0826 254.929 30.0872C248.543 23.2373 240.864 20.2124 235.256 18.0035C234.649 17.7665 233.939 17.4842 233.233 17.1969C233.221 15.1548 233.306 12.7259 233.368 10.8531C233.571 4.92803 233.78 -1.19614 232.531 -6.92026C230.502 -16.2165 225.308 -21.0318 221.306 -23.4375C207.392 -31.8014 192.606 -24.3833 183.772 -19.9534C182.714 -19.4229 180.616 -18.3722 179.14 -17.7165C165.949 -19.3051 158.959 -16.923 148.334 -7.74296C138.11 1.09176 134.25 8.59192 130.328 20.1809C127.093 29.7413 125.195 38.3927 124.034 48.934C123.325 50.1671 121.491 52.5063 120.344 53.9668C116.119 59.356 110.334 66.7347 109.239 76.485C108.406 83.9136 109.838 90.732 110.99 96.2118C111.331 97.8326 111.856 100.326 112.023 101.787C108.61 109.008 106.194 112.834 104.597 114.858C102.931 114.095 101.205 113.252 100.381 112.851C90.795 108.163 77.6865 101.754 65.3109 110.096C56.3597 116.131 44.1055 127.198 38.0004 136.676C34.3779 142.303 33.281 149.026 34.8292 156.121C36.2617 162.685 39.7581 168.596 42.8463 173.807C43.7832 175.392 45.3679 178.069 46.1166 179.633C46.0552 180.523 45.9532 181.538 45.8436 182.582C45.3881 186.983 44.7655 193.016 46.2759 199.937C46.8112 202.39 47.5552 204.738 48.5329 207.041C48.3458 208.553 48.0013 210.653 47.8074 211.842C46.7847 218.1 45.515 225.861 47.1759 233.472L47.178 233.482L47.1819 233.481Z" fill="#44A1CC"/>
<path d="M197.732 206.276L198.179 207.664C198.366 208.249 198.991 208.567 199.573 208.381C200.158 208.193 200.478 207.556 200.29 206.986L200.015 206.13L200.178 205.239C200.986 200.863 202.869 196.341 204.861 191.553C205.544 189.912 206.229 188.265 206.882 186.591L207.854 184.098L210.516 184.318C212.557 184.488 214.512 184.568 216.488 184.565C226.075 184.553 232.968 178.476 239.05 173.113C239.874 172.392 240.824 171.558 241.755 170.774L243.083 169.657L244.783 170.007C247.059 170.475 249.309 170.873 251.516 171.26C257.035 172.226 261.125 172.991 263.53 174.052C272.12 177.832 276.45 178.565 280.269 179.211C282.914 179.662 284.24 179.93 287.962 181.604C290.211 182.613 291.165 183.861 292.745 185.932C294.909 188.765 298.159 193.018 304.231 194.872C310.688 196.837 317.068 195.315 323.733 190.216C336.883 180.162 341.596 167.571 338.139 151.73C337.885 150.565 337.581 149.363 337.218 148.112C337.15 147.884 337.056 147.461 337.05 147.434C336.729 145.963 336.453 143.72 336.188 141.552C335.795 138.333 335.306 134.324 334.385 130.106C333.185 124.606 331.484 119.796 329.188 115.394C323.711 104.902 312.081 102.751 302.737 101.02C301.817 100.847 300.337 100.573 298.86 100.266C298.26 100.141 297.675 100.527 297.55 101.125C297.426 101.725 297.811 102.312 298.411 102.435C299.904 102.744 301.403 103.024 302.325 103.196C311.207 104.842 322.249 106.886 327.225 116.42C329.431 120.643 331.064 125.275 332.222 130.578C333.12 134.695 333.603 138.645 333.99 141.82C334.262 144.039 334.544 146.334 334.887 147.908C334.89 147.922 335.012 148.462 335.096 148.739C335.443 149.932 335.734 151.084 335.978 152.201C339.233 167.117 334.789 178.976 322.392 188.454C316.334 193.087 310.608 194.492 304.882 192.751C299.493 191.105 296.505 187.194 294.526 184.605C292.843 182.4 291.637 180.82 288.874 179.58C284.914 177.8 283.409 177.493 280.644 177.022C276.952 176.398 272.767 175.69 264.429 172.022C261.788 170.857 257.755 170.1 251.902 169.075C249.715 168.691 247.489 168.298 245.231 167.833L242.479 167.267L240.33 169.074C239.383 169.871 238.421 170.714 237.652 171.389C231.797 176.549 225.235 182.332 216.485 182.343C214.57 182.347 212.678 182.269 210.698 182.106L206.387 181.751L204.816 185.782C204.171 187.438 203.491 189.072 202.815 190.695C200.775 195.596 198.85 200.223 197.998 204.832L197.732 206.276Z" fill="#B3D9EB"/>
<path d="M50.6813 232.711L50.683 232.719C51.638 237.096 53.5404 240.872 56.3362 243.938C65.2678 253.745 78.5155 253.334 89.1612 253.006C91.6499 252.926 94.7449 252.852 96.7242 252.963L97.6301 253.015L98.4053 253.493C107.572 259.141 116.513 259.438 123.04 259.655C125.683 259.741 128.175 259.824 129.804 260.254L133.088 261.127C142.659 263.705 150.22 265.743 162.48 261.159L162.895 261.004L163.335 260.954C165 260.765 168.262 260.872 171.462 260.996C182.95 261.45 200.313 262.137 207.509 246.406C209.85 241.299 210.332 235.494 208.948 229.152C208.818 228.554 208.228 228.175 207.629 228.306C207.031 228.436 206.653 229.028 206.783 229.625C208.062 235.486 207.629 240.823 205.495 245.486C198.916 259.863 182.449 259.211 171.55 258.782C168.128 258.648 164.906 258.544 163.088 258.751L162.377 258.833L161.707 259.083C150.114 263.418 142.855 261.464 133.664 258.988L130.376 258.114C128.5 257.619 125.888 257.534 123.122 257.441C116.838 257.232 108.237 256.945 99.5733 251.606L98.3207 250.835L96.8509 250.753C94.787 250.638 91.6285 250.714 89.1077 250.793C78.9044 251.108 66.2216 251.5 57.9784 242.449C55.4474 239.673 53.724 236.241 52.853 232.249C52.7228 231.653 52.1299 231.269 51.5332 231.399C50.9316 231.525 50.5507 232.113 50.6813 232.711Z" fill="#B3D9EB"/>
<path d="M38.3291 155.356C39.6402 161.364 42.9791 167.001 45.9215 171.974C47.2428 174.204 48.5922 176.508 49.348 178.086L49.755 178.936L49.6892 179.879C49.6285 180.809 49.5191 181.863 49.4073 182.952C48.9524 187.364 48.3898 192.821 49.7766 199.176C50.2679 201.427 50.9389 203.541 51.8304 205.641L52.2075 206.527L52.0915 207.487C52.0232 208.089 52.4504 208.647 53.0579 208.722C53.665 208.795 54.2176 208.363 54.2928 207.755L54.4838 206.206L53.8737 204.774C53.036 202.802 52.4052 200.817 51.9439 198.703C50.6332 192.697 51.1762 187.434 51.6098 183.208C51.7272 182.062 51.8384 180.979 51.9018 180.025L52.0049 178.503L51.3452 177.127C50.5502 175.469 49.1762 173.117 47.8333 170.852C44.971 166.017 41.7298 160.544 40.4944 154.883C39.2819 149.327 40.104 144.117 42.8761 139.818C48.4991 131.086 60.3015 120.465 68.5499 114.907C78.1452 108.438 89.0964 113.792 97.8951 118.095C98.7759 118.525 100.508 119.37 102.182 120.133L106.326 122.028L109.147 118.449C111.489 115.482 114.22 110.71 117.264 104.265L117.972 102.766L117.781 101.125C117.598 99.5232 117.147 97.3192 116.662 95.0148C115.597 89.9414 114.269 83.6294 114.999 77.1279C115.912 69.013 120.899 62.6549 124.905 57.5432C126.609 55.3742 128.209 53.2997 129.06 51.8199L129.689 50.5385L129.795 49.5627C130.911 39.4547 132.712 31.2216 135.82 22.0366C136.018 21.4541 135.706 20.8274 135.126 20.6305C134.548 20.4351 133.917 20.7465 133.722 21.3243C130.559 30.671 128.726 39.0428 127.594 49.3203L127.513 50.0648L127.141 50.7131C126.364 52.0668 124.816 54.07 123.165 56.1737C118.984 61.5051 113.782 68.1378 112.8 76.877C112.031 83.7342 113.397 90.2397 114.496 95.4655C114.952 97.6304 115.412 99.8664 115.583 101.373L115.701 102.387L115.263 103.312C112.289 109.606 109.647 114.234 107.411 117.071L105.666 119.28L103.107 118.112C101.454 117.354 99.7424 116.521 98.8774 116.099C89.56 111.543 77.9719 105.878 67.3122 113.061C58.8815 118.744 46.7994 129.63 41.0132 138.611C37.916 143.424 36.9884 149.212 38.3291 155.356Z" fill="#B3D9EB"/>
<path d="M177.502 -12.8207C177.6 -12.3728 177.972 -12.0146 178.454 -11.956L180.041 -11.7652L181.501 -12.4133C183.058 -13.1044 185.267 -14.2077 186.389 -14.768C194.655 -18.9163 207.151 -25.1815 218.329 -18.4651C221.352 -16.6485 225.287 -12.9562 226.874 -5.68047C227.965 -0.680674 227.77 5.12111 227.579 10.7341C227.504 12.8451 227.429 15.2179 227.442 17.2379L227.465 21.1129L231.057 22.5736C231.787 22.8716 232.524 23.1641 233.148 23.4054C238.523 25.5254 245.21 28.1616 250.696 34.0475C255.517 39.2179 257.9 45.4335 259.816 50.4269C260.876 53.1908 261.969 56.0476 263.206 57.9283L264.049 59.0464L264.855 59.5814C266.09 60.3983 268.12 61.3651 270.453 62.4556C276.01 65.053 282.927 68.2822 287.617 75.0048C289.821 78.172 291.361 81.8598 292.324 86.2725C292.986 89.3071 293.298 92.3282 293.574 94.9938C293.674 95.9526 293.753 96.718 293.836 97.4368C293.91 98.0336 294.455 98.4818 295.065 98.4107C295.672 98.34 296.108 97.7917 296.039 97.1817C295.957 96.4706 295.878 95.7151 295.797 94.94C295.498 92.0438 295.18 88.9542 294.491 85.7996C293.465 81.0952 291.811 77.1488 289.437 73.7369C284.406 66.5255 277.191 63.1538 271.394 60.445C269.143 59.3944 267.189 58.4631 266.081 57.7324L265.467 57.3252L265.061 56.7089C263.955 55.0291 262.906 52.2887 261.888 49.6373C259.902 44.4595 257.432 38.0192 252.319 32.5351C246.49 26.2829 239.544 23.5452 233.964 21.3442C233.336 21.1019 232.61 20.813 231.893 20.5201L229.675 19.6182L229.66 17.2252C229.648 15.2469 229.723 12.9002 229.794 10.8558C229.989 5.06208 230.192 -0.882946 229.042 -6.15341C227.285 -14.2011 222.868 -18.3212 219.471 -20.3636C207.246 -27.7104 194.096 -21.1126 185.395 -16.7497C184.297 -16.1986 182.13 -15.1145 180.604 -14.4381L179.701 -14.0355L178.721 -14.1549C178.114 -14.2262 177.561 -13.7941 177.489 -13.1852C177.469 -13.0631 177.476 -12.9389 177.502 -12.8207Z" fill="#B3D9EB"/>
<path d="M58.6386 230.975C59.285 233.937 60.5367 236.452 62.3587 238.45C68.7667 245.487 79.4755 245.155 88.9245 244.86C92.945 244.736 99.6792 244.528 101.281 245.636C109.065 251.035 116.966 251.299 123.317 251.511C126.418 251.613 129.347 251.709 131.867 252.369C133.068 252.684 134.186 252.983 135.23 253.265C144.442 255.746 150.002 257.242 160.108 253.341C162.346 252.478 167.402 252.678 171.862 252.857C182.25 253.268 195.174 253.783 200.1 243.013C201.711 239.496 202.003 235.526 200.991 230.887C200.008 226.384 197.938 221.902 195.935 217.566C194.321 214.068 192.65 210.455 192.056 207.731C191.807 206.59 191.83 205.964 191.863 205.693C192.613 199.77 195.015 193.996 197.341 188.41C199.018 184.382 200.602 180.578 201.574 176.751C201.756 176.037 201.923 175.541 202.054 175.207C203.019 175.236 204.587 175.439 205.908 175.608C208.71 175.971 212.202 176.423 216.472 176.418C222.984 176.41 228.415 171.629 233.666 167.002C236.092 164.863 240.112 161.322 241.838 160.958C245.504 161.937 249.353 162.609 253.078 163.263C258.35 164.188 263.334 165.061 266.82 166.597C274.478 169.966 278.282 170.613 281.637 171.181C284.334 171.637 286.467 172.002 291.304 174.174C295.439 176.031 297.369 178.558 299.234 181.002C301.018 183.339 303.042 185.99 306.611 187.08C312.202 188.782 316.985 185.124 318.786 183.747C323.006 180.521 334.217 171.946 330.184 153.468C329.968 152.477 329.708 151.452 329.398 150.389C329.285 150.004 329.186 149.597 329.094 149.175C328.694 147.342 328.407 145.004 328.103 142.53C327.708 139.311 327.26 135.659 326.428 131.845C325.385 127.064 323.927 122.919 321.968 119.165C318.328 112.194 309.645 110.584 301.247 109.032C297.707 108.376 291.119 107.156 289.846 105.772C289.358 104.952 288.918 103.732 288.57 102.139C288.146 100.193 287.917 97.9722 287.675 95.6207C287.403 92.9823 287.121 90.256 286.527 87.5321C285.732 83.8914 284.497 80.9021 282.747 78.3924C278.975 72.9833 273.111 70.2411 267.936 67.8219C264.26 66.102 260.789 64.4811 259.143 62.4201C257.062 59.8109 255.706 56.2788 254.27 52.5363C252.45 47.7915 250.388 42.4145 246.355 38.0887C241.779 33.1784 236.029 30.9146 230.958 28.918C227.608 27.6003 224.444 26.3537 222.411 24.6028C222.418 24.6073 222.418 24.5993 222.415 24.5859C222.395 24.4963 222.197 24.0624 222.004 23.1798C221.321 20.0499 221.488 15.169 221.651 10.4508C221.837 5.00663 222.01 -0.135421 221.076 -4.41851C220.164 -8.59675 218.211 -11.6153 215.27 -13.3816C206.89 -18.4203 196.992 -13.4567 189.038 -9.46656C186.077 -7.98364 181.608 -5.7404 180.078 -5.75195C168.552 -7.47216 164.707 -6.37945 156.004 1.13484C147.676 8.33188 144.891 13.7503 141.445 23.9396C138.404 32.9263 136.656 41.0577 135.599 51.133C135.31 53.896 132.397 57.613 129.579 61.2074C125.85 65.9649 121.623 71.3564 120.899 77.7927C120.276 83.3501 121.445 88.908 122.475 93.8113C123.422 98.3153 124.403 102.976 123.365 105.227C120.599 111.218 114.123 125.258 106.753 127.857C104.922 128.125 98.6091 125.037 95.2184 123.381C87.0612 119.392 78.6254 115.27 71.8729 119.823C64.1105 125.055 53.0595 134.965 47.8676 143.027C45.9421 146.017 45.4134 149.579 46.2953 153.62C47.3248 158.338 50.1839 163.168 52.9484 167.838C54.9938 171.3 57.3166 175.218 57.8307 177.574C57.8989 177.887 57.9013 178.044 57.9033 178.072C57.9218 179.877 57.7273 181.776 57.5194 183.789C57.1054 187.803 56.6326 192.353 57.742 197.437C58.2807 199.905 59.1261 202.233 60.3268 204.551C60.635 206.137 59.9453 210.361 59.39 213.755C58.4792 219.282 57.4544 225.548 58.6386 230.975Z" fill="#D9D29E"/>
<path d="M294.181 167.755C307.521 173.746 304.946 185.469 314.506 178.161C319.66 174.221 327.119 167.752 322.635 152.364C320.528 145.136 321.364 133.238 315.72 122.426C311.639 114.604 288.656 117.345 283.9 109.536C279.24 101.887 282.122 89.8177 276.967 82.4217C271.773 74.9705 259.18 73.7607 253.636 66.815C247.881 59.604 247.163 49.285 241.2 42.89C234.782 36.0056 224.202 35.4945 217.751 29.8873C210.421 23.5131 218.715 -3.09242 211.639 -7.3452C202.903 -12.5957 186.969 2.38348 179.16 1.22406C169.665 -0.186414 167.756 0.283887 160.599 6.46667C153.272 12.7982 151.149 17.2012 148.105 26.2007C145.204 34.7774 143.597 42.309 142.594 51.8713C141.606 61.2968 128.9 69.5549 127.888 78.5862C126.759 88.6494 133.349 100.381 129.748 108.184C125.838 116.657 119.072 130.98 109.088 134.502C100.599 137.495 82.4326 121.195 75.7981 125.666C68.2517 130.753 58.1115 140.115 53.7749 146.844C49.1204 154.075 64.847 169.224 64.9345 178.007C65.0107 185.659 62.1277 192.744 66.5677 201.322C70.0227 207.995 61.0849 226.609 67.558 233.715C75.2121 242.116 97.4542 234.422 105.288 239.858C114.841 246.482 124.62 243.205 133.643 245.564C144.949 248.524 148.643 250.228 157.566 246.781C167.012 243.134 188.911 250.547 193.696 240.093C198.094 230.485 183.623 214.648 184.873 204.812C186.309 193.504 192.594 183.494 194.744 175.027C197.474 164.275 203.037 169.405 216.456 169.388C224.727 169.378 235.16 151.869 243.418 154.105C252.039 156.441 262.557 157.044 269.647 160.163C283.011 166.039 282.558 162.538 294.181 167.755Z" fill="#9CA856"/>
<path d="M72.397 227.972C72.5296 228.58 72.6938 228.884 72.7679 228.968C74.8116 231.213 83.0432 230.959 88.4915 230.788C96.4098 230.544 103.891 230.311 109.306 234.068C113.681 237.103 118.364 237.259 123.787 237.44C127.525 237.567 131.388 237.692 135.431 238.751C136.67 239.076 137.818 239.384 138.892 239.675C147.24 241.921 149.224 242.457 155.038 240.211C159.992 238.3 166.029 238.538 172.423 238.792C177.273 238.984 186.303 239.341 187.303 237.158C187.585 236.54 187.563 235.378 187.238 233.888C186.584 230.889 184.842 227.116 183.157 223.47C181.224 219.285 179.226 214.962 178.304 210.738L178.303 210.734C177.763 208.256 177.631 206.026 177.899 203.919C178.892 196.116 181.789 189.15 184.345 183.003C185.819 179.464 187.212 176.119 187.93 173.286C191.42 159.541 201.224 160.81 207.712 161.651C210.237 161.976 213.098 162.346 216.454 162.343C217.934 162.1 221.956 158.558 224.36 156.44C230.381 151.136 237.206 145.122 245.264 147.304C248.391 148.151 252.009 148.783 255.508 149.399C261.377 150.429 267.444 151.494 272.491 153.715C278.551 156.382 281.193 156.83 283.989 157.307C287.085 157.833 290.593 158.425 297.068 161.332C304.44 164.643 308.171 169.514 310.403 172.44C315.03 168.88 318.374 165.381 316.43 156.472C316.28 155.783 316.098 155.07 315.881 154.331C315.683 153.645 315.503 152.928 315.339 152.179C314.8 149.706 314.474 147.053 314.129 144.245C313.754 141.188 313.365 138.024 312.672 134.848C311.917 131.391 310.906 128.452 309.582 125.87C308.143 124.628 302.239 123.532 298.683 122.876C290.43 121.349 281.895 119.766 277.893 113.197C276.509 110.923 275.5 108.288 274.814 105.144C274.221 102.426 273.94 99.7019 273.669 97.0673C273.426 94.7119 273.197 92.4876 272.771 90.5377C272.379 88.7421 271.864 87.4048 271.195 86.4464C269.587 84.1374 265.887 82.4107 261.973 80.579C257.223 78.3586 251.839 75.8412 248.14 71.2069C244.696 66.8903 242.801 61.9462 241.127 57.5808C239.635 53.689 238.225 50.0127 236.056 47.6863C233.653 45.1096 229.839 43.6076 225.799 42.0169C221.471 40.3115 216.995 38.5505 213.138 35.1947C210.711 33.0883 209.115 30.1378 208.251 26.1807C207.193 21.3295 207.388 15.5538 207.581 9.96832C207.729 5.63074 207.882 1.14611 207.323 -1.41573C207.317 -1.44242 207.312 -1.4653 207.307 -1.49008C204.75 -1.59697 198.281 1.64782 195.347 3.11879C189.315 6.14051 183.618 8.99718 178.133 8.18522C170.666 7.07494 170.666 7.07491 165.205 11.793C158.992 17.1606 157.488 20.4424 154.777 28.4525C152.052 36.5034 150.552 43.5005 149.598 52.6008C148.886 59.3921 144.512 64.9733 140.656 69.8945C138.081 73.1762 135.163 76.8981 134.887 79.3666C134.518 82.6722 135.399 86.8632 136.25 90.9208C137.668 97.6664 139.135 104.645 136.145 111.128C132.046 120.015 124.413 136.557 111.435 141.135C104.492 143.586 96.6343 139.744 89.0345 136.03C86.0413 134.567 81.1669 132.188 79.0991 131.936C72.0267 136.844 63.5436 144.96 59.9772 150.231C59.9912 150.332 60.011 150.459 60.0468 150.623C60.5917 153.12 62.9647 157.131 65.0608 160.67C67.7757 165.259 70.5835 170 71.5818 174.575C71.8339 175.73 71.9673 176.863 71.9791 177.933C72.0046 180.529 71.7586 182.926 71.5181 185.236C71.1678 188.628 70.8646 191.558 71.4931 194.438C71.7651 195.684 72.1993 196.878 72.8257 198.083C73.3481 199.095 73.7529 200.227 74.0183 201.443C74.9608 205.762 74.144 210.749 73.2799 216.032C72.5786 220.312 71.7855 225.17 72.397 227.972Z" fill="#3F8000"/>
<path d="M97.8734 207.291C105.311 207.605 113.566 209.009 121.244 213.845C122.161 213.913 123.503 213.957 124.565 213.993C128.898 214.138 134.798 214.334 141.37 216.055C142.687 216.399 143.893 216.722 145.025 217.031C146.015 217.296 147.081 217.584 147.982 217.815C150.478 216.957 152.972 216.361 155.43 215.956C155.415 215.886 155.399 215.813 155.383 215.743C154.262 210.606 154.014 205.769 154.626 200.963C156.017 190.022 159.871 180.76 162.686 173.995C163.617 171.755 164.89 168.702 165.189 167.522C167.748 157.443 183.569 133.42 214.636 123.649C224.13 120.663 245.64 121.013 248.199 121.467C248.059 121.246 251.302 124.46 254.673 109.706C256.891 99.9948 253.087 108.71 251.837 102.983C251.117 99.6811 250.786 103.755 250.502 101.111C244.541 98.2905 236.346 94.0381 229.807 85.8481C224.094 78.6876 221.28 71.3522 219.226 65.9934C219.044 65.516 222.049 71.2802 221.834 70.726C221.353 70.5335 218.327 64.9055 217.892 64.7328C212.588 62.6453 204.643 58.8975 197.745 52.8985C191.517 47.484 192.826 36.5789 185.383 31.4176C183.559 30.1521 180.533 30.485 178.528 31.7553C177.835 32.196 177.693 33.9325 177.002 35.9743C174.846 42.3437 173.706 47.6905 172.934 55.0438C171.518 68.5484 164.061 78.0653 159.127 84.3601C159.058 84.447 158.985 84.5409 158.909 84.6352C159.016 85.1492 159.119 85.6399 159.211 86.0811C160.999 94.5851 163.697 107.417 157.453 120.953C152.295 132.133 167.147 167.359 144.822 175.232C135.105 178.662 100.379 165.496 92.5293 162.972C93.3248 165.071 94.0065 167.27 94.509 169.573C95.1017 172.289 95.4161 175.02 95.444 177.692C95.4816 181.644 95.1369 184.978 94.8588 187.656C94.801 188.206 94.7359 188.859 94.6816 189.434C95.6546 191.66 96.4123 194.007 96.9435 196.441C97.759 200.187 97.9753 203.832 97.8734 207.291Z" fill="#1D732D"/>
<path d="M86.2215 195.726C86.2215 195.726 67.4987 172.896 76.9583 151.136C86.4159 129.377 80.0132 162.728 80.0321 165.917C80.0849 174.139 86.2215 195.726 86.2215 195.726Z" fill="#528221"/>
<path d="M276.347 118.916C275.811 119.033 275.52 119.602 275.044 119.828C274.554 120.06 274.537 120.689 274.123 121.023C273.703 121.358 272.67 120.919 272.338 121.339C272.007 121.76 271.439 122.074 271.207 122.56C270.979 123.041 272.844 124.078 272.726 124.605C272.609 125.124 271.828 125.258 271.827 125.803C271.826 126.329 271.497 126.714 271.614 127.252C271.731 127.789 272.367 127.92 272.587 128.397C272.815 128.893 273.39 128.783 273.713 129.204C274.041 129.634 273.932 129.977 274.34 130.319C274.753 130.666 274.486 131.639 274.963 131.883C275.44 132.13 275.608 133.164 276.13 133.297C276.646 133.426 277.248 134.733 277.791 134.74C278.318 134.751 278.851 132.961 279.386 132.844C279.922 132.728 279.706 131.105 280.181 130.876C280.671 130.641 281.023 130.866 281.436 130.532C281.856 130.197 284.055 131.636 284.385 131.21C284.715 130.791 284.371 129.738 284.603 129.25C284.831 128.767 283.936 127.934 284.054 127.405C284.171 126.888 286.024 126.52 286.025 125.976C286.026 125.449 283.595 125.2 283.478 124.665C283.361 124.127 284.601 123.287 284.381 122.808C284.153 122.315 284.854 121.079 284.533 120.658C284.205 120.227 282.814 120.588 282.406 120.246C281.995 119.898 280.672 121.257 280.196 121.016C279.718 120.767 279.69 120.343 279.168 120.212C278.652 120.081 278.478 117.676 277.935 117.667C277.406 117.659 276.882 118.799 276.347 118.916Z" fill="#26541B"/>
<path d="M219.044 59.3463C219.036 59.7654 219.406 60.0819 219.493 60.4784C219.58 60.8848 220.044 61.0072 220.218 61.3765C220.396 61.7511 219.882 62.4424 220.137 62.764C220.391 63.086 220.524 63.5643 220.845 63.8216C221.164 64.0816 222.268 62.8722 222.639 63.0548C223.003 63.2329 222.967 63.842 223.37 63.9356C223.763 64.0336 223.993 64.3449 224.413 64.3552C224.833 64.3612 225.047 63.9132 225.44 63.8313C225.85 63.7518 225.87 63.3003 226.241 63.1354C226.62 62.9688 226.859 63.1124 227.187 62.869C227.519 62.6229 228.196 62.9964 228.463 62.6845C228.731 62.3725 229.532 62.4312 229.724 62.0659C229.913 61.7051 230.994 61.4891 231.095 61.0817C231.197 60.69 229.958 59.9739 229.967 59.5547C229.975 59.1355 228.725 59.0069 228.639 58.6142C228.554 58.2036 228.781 57.9842 228.605 57.6153C228.429 57.2403 229.893 55.8566 229.637 55.537C229.381 55.2154 228.533 55.2826 228.212 55.0253C227.892 54.7695 227.111 55.2875 226.737 55.1054C226.373 54.9273 226.428 53.4794 226.024 53.3839C225.632 53.2878 225.014 55.0582 224.595 55.0498C224.173 55.0418 223.769 53.9678 223.371 54.0448C222.963 54.1258 222.166 53.3832 221.795 53.5481C221.416 53.7166 221.439 54.8179 221.111 55.0632C220.779 55.3093 221.555 56.5318 221.289 56.8476C221.019 57.158 220.699 57.1039 220.508 57.4693C220.316 57.8285 218.494 57.5312 218.391 57.9352C218.294 58.3337 219.053 58.929 219.044 59.3463Z" fill="#26541B"/>
<path d="M222.765 145.072C223.185 145.086 223.509 144.721 223.906 144.645C224.314 144.566 224.446 144.102 224.819 143.934C225.195 143.762 225.877 144.289 226.202 144.04C226.529 143.793 227.011 143.668 227.278 143.352C227.541 143.039 226.353 141.912 226.544 141.545C226.729 141.183 227.335 141.235 227.439 140.831C227.54 140.437 227.859 140.214 227.876 139.795C227.891 139.37 227.444 139.152 227.372 138.758C227.298 138.345 226.849 138.319 226.691 137.943C226.529 137.56 226.676 137.325 226.438 136.993C226.199 136.658 226.584 135.991 226.278 135.714C225.971 135.442 226.044 134.641 225.683 134.442C225.325 134.249 225.129 133.163 224.725 133.054C224.336 132.943 223.599 134.17 223.178 134.154C222.759 134.138 222.608 135.387 222.214 135.463C221.804 135.542 221.585 135.309 221.216 135.477C220.84 135.647 219.481 134.158 219.156 134.407C218.828 134.656 218.883 135.509 218.618 135.822C218.357 136.139 218.861 136.927 218.672 137.298C218.487 137.656 217.041 137.576 216.936 137.981C216.833 138.37 218.591 139.021 218.574 139.44C218.558 139.861 217.476 140.245 217.547 140.645C217.62 141.052 216.865 141.836 217.023 142.211C217.184 142.593 218.286 142.592 218.524 142.924C218.763 143.261 220.001 142.502 220.311 142.777C220.619 143.054 220.558 143.37 220.919 143.569C221.276 143.769 220.943 145.583 221.347 145.693C221.736 145.801 222.346 145.055 222.765 145.072Z" fill="#A27F00"/>
<path d="M157.048 233.92C157.468 233.934 157.792 233.57 158.189 233.493C158.597 233.414 158.729 232.95 159.102 232.783C159.476 232.612 160.16 233.137 160.485 232.889C160.813 232.641 161.295 232.516 161.559 232.201C161.824 231.887 160.634 230.761 160.825 230.394C161.01 230.032 161.616 230.084 161.72 229.68C161.822 229.286 162.14 229.063 162.157 228.644C162.172 228.219 161.723 228.002 161.653 227.607C161.579 227.194 161.13 227.168 160.972 226.792C160.811 226.409 160.957 226.174 160.719 225.842C160.48 225.507 160.865 224.84 160.559 224.563C160.252 224.291 160.325 223.49 159.964 223.291C159.607 223.098 159.41 222.012 159.006 221.903C158.617 221.792 157.88 223.019 157.459 223.003C157.038 222.987 156.89 224.236 156.495 224.312C156.085 224.391 155.866 224.158 155.497 224.326C155.121 224.496 153.762 223.007 153.437 223.256C153.11 223.505 153.164 224.358 152.899 224.671C152.638 224.988 153.142 225.776 152.953 226.147C152.768 226.505 151.323 226.425 151.217 226.83C151.116 227.217 152.872 227.87 152.856 228.289C152.84 228.71 151.759 229.094 151.83 229.493C151.903 229.901 151.148 230.685 151.306 231.06C151.467 231.442 152.569 231.441 152.807 231.772C153.046 232.11 154.285 231.35 154.594 231.626C154.9 231.903 154.842 232.219 155.202 232.418C155.56 232.618 155.226 234.431 155.628 234.542C156.019 234.652 156.629 233.904 157.048 233.92Z" fill="#A27F00"/>
<path d="M181.199 61.3987C181.619 61.4128 181.942 61.0467 182.341 60.9697C182.749 60.8906 182.882 60.4283 183.254 60.2591C183.628 60.0877 184.312 60.6153 184.637 60.3647C184.965 60.1176 185.447 59.9924 185.713 59.6748C185.976 59.3617 184.788 58.2352 184.979 57.8679C185.164 57.5061 185.77 57.5575 185.875 57.1531C185.977 56.7594 186.296 56.5362 186.312 56.1172C186.328 55.6945 185.88 55.4746 185.809 55.0809C185.734 54.6678 185.285 54.6419 185.128 54.267C184.966 53.8848 185.112 53.6473 184.874 53.3159C184.635 52.9806 185.023 52.3129 184.715 52.0366C184.408 51.7642 184.481 50.9635 184.12 50.7647C183.762 50.5711 183.565 49.4859 183.162 49.3762C182.773 49.2674 182.034 50.493 181.613 50.477C181.194 50.4606 181.043 51.7096 180.648 51.7858C180.238 51.8653 180.022 51.633 179.65 51.804C179.273 51.9721 177.914 50.4834 177.591 50.7317C177.264 50.9827 177.318 51.8317 177.053 52.1489C176.792 52.4635 177.296 53.2541 177.107 53.6229C176.922 53.9828 175.477 53.9009 175.371 54.3053C175.269 54.6951 177.026 55.3459 177.01 55.7649C176.994 56.1857 175.911 56.5697 175.984 56.9691C176.058 57.3785 175.302 58.1605 175.46 58.5354C175.621 58.9176 176.723 58.9167 176.961 59.2481C177.2 59.5853 178.439 58.8278 178.748 59.1018C179.056 59.378 178.996 59.6948 179.356 59.8936C179.713 60.0932 179.38 61.9073 179.782 62.0193C180.17 62.1285 180.779 61.3804 181.199 61.3987Z" fill="#A27F00"/>
<path d="M293.587 163.27C294.007 163.284 294.331 162.92 294.727 162.841C295.136 162.762 295.268 162.3 295.641 162.131C296.017 161.959 296.699 162.487 297.024 162.236C297.351 161.989 297.833 161.866 298.097 161.547C298.361 161.234 297.172 160.107 297.362 159.74C297.546 159.379 298.155 159.43 298.258 159.026C298.36 158.632 298.679 158.409 298.695 157.99C298.711 157.567 298.264 157.349 298.191 156.953C298.115 156.541 297.668 156.514 297.51 156.139C297.349 155.757 297.495 155.52 297.257 155.188C297.018 154.855 297.404 154.186 297.096 153.911C296.791 153.637 296.864 152.838 296.503 152.639C296.145 152.444 295.948 151.36 295.545 151.251C295.155 151.14 294.416 152.365 293.996 152.349C293.577 152.333 293.426 153.582 293.031 153.658C292.621 153.738 292.402 153.504 292.035 153.676C291.656 153.845 290.299 152.356 289.974 152.606C289.647 152.855 289.7 153.704 289.436 154.021C289.175 154.336 289.677 155.127 289.49 155.495C289.305 155.855 287.86 155.775 287.754 156.18C287.653 156.567 289.409 157.22 289.392 157.637C289.377 158.06 288.294 158.442 288.367 158.842C288.441 159.251 287.685 160.033 287.842 160.408C288.004 160.792 289.106 160.789 289.342 161.121C289.581 161.458 290.82 160.701 291.129 160.977C291.437 161.251 291.376 161.568 291.739 161.766C292.096 161.966 291.764 163.782 292.165 163.892C292.56 164.001 293.168 163.252 293.587 163.27Z" fill="#A27F00"/>
<path d="M168.067 130.264C168.406 129.803 168.245 129.157 168.462 128.652C168.688 128.131 168.269 127.63 168.367 127.079C168.462 126.525 169.579 126.164 169.547 125.606C169.521 125.046 169.751 124.411 169.599 123.869C169.451 123.334 167.271 123.804 167.004 123.307C166.741 122.823 167.263 122.178 166.891 121.752C166.528 121.334 166.52 120.803 166.063 120.467C165.601 120.123 165.011 120.459 164.511 120.235C163.991 120.001 163.613 120.486 163.071 120.373C162.518 120.262 162.364 119.914 161.81 119.927C161.249 119.938 160.795 118.993 160.249 119.126C159.708 119.262 158.866 118.561 158.362 118.817C157.869 119.07 156.501 118.458 156.066 118.826C155.644 119.18 156.454 120.952 156.116 121.414C155.774 121.87 157.058 122.997 156.843 123.503C156.616 124.026 156.186 124.09 156.093 124.634C155.993 125.189 153.277 125.572 153.306 126.128C153.336 126.687 154.335 127.282 154.487 127.824C154.639 128.358 155.914 128.397 156.186 128.895C156.448 129.381 155.245 130.941 155.62 131.37C155.978 131.784 158.063 130.31 158.521 130.652C158.981 130.993 158.582 132.505 159.086 132.729C159.601 132.958 159.903 134.414 160.442 134.522C160.995 134.633 161.84 133.396 162.398 133.384C162.961 133.375 163.059 131.401 163.607 131.265C164.152 131.128 164.465 131.443 164.963 131.185C165.461 130.938 167.245 132.708 167.678 132.34C168.098 131.978 167.726 130.724 168.067 130.264Z" fill="#A27F00"/>
<path d="M131.596 191.822C131.26 191.358 130.596 191.317 130.181 190.956C129.753 190.585 129.149 190.83 128.655 190.571C128.158 190.314 128.147 189.14 127.606 189.002C127.065 188.857 126.528 188.445 125.965 188.426C125.412 188.407 125.197 190.628 124.642 190.729C124.1 190.834 123.646 190.142 123.127 190.367C122.619 190.588 122.112 190.435 121.649 190.767C121.183 191.103 121.323 191.771 120.959 192.178C120.58 192.602 120.927 193.106 120.656 193.59C120.382 194.085 120.006 194.125 119.849 194.659C119.69 195.197 118.65 195.344 118.613 195.905C118.576 196.46 117.657 197.052 117.746 197.608C117.84 198.155 116.84 199.273 117.06 199.798C117.267 200.308 119.205 200.071 119.539 200.535C119.872 200.998 121.337 200.115 121.753 200.474C122.182 200.847 122.112 201.278 122.604 201.53C123.101 201.793 122.645 204.499 123.185 204.638C123.724 204.778 124.592 204.008 125.155 204.025C125.71 204.041 126.137 202.84 126.692 202.731C127.233 202.631 128.357 204.248 128.881 204.02C129.381 203.805 128.609 201.374 129.073 201.039C129.535 200.705 130.858 201.54 131.225 201.127C131.6 200.705 133.077 200.858 133.345 200.374C133.617 199.884 132.695 198.703 132.85 198.17C133.01 197.63 131.159 196.937 131.196 196.374C131.234 195.815 131.625 195.614 131.532 195.059C131.448 194.51 133.673 193.348 133.454 192.82C133.243 192.311 131.933 192.285 131.596 191.822Z" fill="#A27F00"/>
<path d="M170.262 178.905C169.975 178.834 169.698 179.04 169.412 179.036C169.118 179.033 168.96 179.333 168.68 179.396C168.395 179.462 167.998 178.999 167.736 179.125C167.474 179.25 167.124 179.266 166.896 179.448C166.669 179.627 167.33 180.575 167.144 180.803C166.965 181.028 166.55 180.903 166.421 181.169C166.295 181.424 166.043 181.533 165.972 181.822C165.899 182.109 166.176 182.325 166.17 182.611C166.163 182.905 166.471 182.989 166.524 183.273C166.581 183.56 166.448 183.699 166.563 183.963C166.681 184.229 166.32 184.641 166.492 184.871C166.666 185.103 166.5 185.649 166.723 185.838C166.941 186.024 166.923 186.802 167.185 186.939C167.438 187.067 168.125 186.324 168.414 186.397C168.701 186.468 168.985 185.627 169.269 185.629C169.564 185.635 169.681 185.825 169.962 185.764C170.246 185.702 170.971 186.923 171.232 186.8C171.494 186.673 171.58 186.078 171.808 185.896C172.034 185.715 171.799 185.095 171.983 184.868C172.162 184.645 173.152 184.908 173.28 184.644C173.406 184.389 172.284 183.685 172.356 183.396C172.427 183.109 173.232 182.997 173.239 182.712C173.247 182.417 173.882 181.985 173.826 181.703C173.769 181.416 173.009 181.263 172.891 180.997C172.775 180.731 171.806 181.074 171.633 180.84C171.46 180.604 171.548 180.395 171.324 180.205C171.106 180.017 171.597 178.807 171.332 178.673C171.078 178.545 170.551 178.974 170.262 178.905Z" fill="#26541B"/>
<path d="M157.205 75.1573C156.918 75.0862 156.641 75.2923 156.357 75.2885C156.063 75.2848 155.904 75.5849 155.623 75.6484C155.339 75.7123 154.943 75.2515 154.681 75.3767C154.419 75.5018 154.066 75.5167 153.839 75.7002C153.612 75.8775 154.272 76.8257 154.089 77.0555C153.91 77.2802 153.495 77.155 153.366 77.4229C153.24 77.6761 152.988 77.7868 152.918 78.0759C152.844 78.3634 153.123 78.5782 153.116 78.8653C153.108 79.1605 153.414 79.2436 153.469 79.525C153.526 79.8122 153.391 79.9534 153.507 80.2177C153.625 80.4836 153.263 80.8959 153.435 81.126C153.61 81.3575 153.443 81.9031 153.664 82.0925C153.883 82.2785 153.865 83.0571 154.126 83.1919C154.38 83.3221 155.066 82.5792 155.356 82.6519C155.643 82.7211 155.927 81.8823 156.213 81.8838C156.507 81.8893 156.625 82.0794 156.907 82.0178C157.191 81.9559 157.914 83.1758 158.177 83.0545C158.439 82.9275 158.523 82.3321 158.751 82.1487C158.977 81.9695 158.742 81.3498 158.926 81.122C159.107 80.8988 160.095 81.1605 160.225 80.8984C160.351 80.6413 159.229 79.9395 159.3 79.6505C159.373 79.363 160.175 79.2518 160.183 78.9665C160.19 78.6714 160.827 78.2389 160.771 77.9556C160.714 77.6684 159.954 77.5149 159.836 77.251C159.72 76.9847 158.753 77.3277 158.58 77.0938C158.407 76.858 158.495 76.6471 158.272 76.4582C158.053 76.2702 158.541 75.0594 158.279 74.9269C158.023 74.7971 157.494 75.2262 157.205 75.1573Z" fill="#26541B"/>
<path d="M83.0408 192.536C82.7537 192.465 82.4772 192.671 82.1928 192.667C81.9008 192.665 81.7407 192.966 81.4609 193.029C81.1773 193.092 80.7789 192.63 80.5186 192.755C80.2563 192.88 79.9046 192.897 79.677 193.08C79.4501 193.258 80.1104 194.206 79.9264 194.434C79.7459 194.659 79.3335 194.535 79.2038 194.801C79.0778 195.056 78.8245 195.168 78.7553 195.454C78.6826 195.744 78.9612 195.958 78.9535 196.244C78.946 196.539 79.2517 196.622 79.3075 196.905C79.3642 197.192 79.2289 197.332 79.3445 197.596C79.4628 197.864 79.1011 198.274 79.2731 198.504C79.4478 198.738 79.2813 199.283 79.502 199.471C79.7222 199.656 79.7025 200.435 79.9639 200.572C80.218 200.702 80.9046 199.959 81.1936 200.03C81.4807 200.101 81.7649 199.263 82.0504 199.262C82.3433 199.268 82.461 199.46 82.7431 199.398C83.0272 199.337 83.7526 200.556 84.0134 200.433C84.2752 200.306 84.3589 199.711 84.5869 199.529C84.8153 199.35 84.5783 198.73 84.7622 198.503C84.9413 198.28 85.9289 198.542 86.0613 198.279C86.1869 198.022 85.063 197.319 85.136 197.031C85.2068 196.742 86.0115 196.632 86.0188 196.345C86.0267 196.052 86.6632 195.62 86.6073 195.336C86.5506 195.049 85.7903 194.895 85.6704 194.63C85.5544 194.364 84.5873 194.709 84.414 194.473C84.2412 194.239 84.329 194.028 84.1079 193.839C83.8869 193.649 84.3778 192.44 84.1152 192.308C83.8593 192.178 83.3299 192.607 83.0408 192.536Z" fill="#26541B"/>
<path d="M119.272 205.012C118.985 204.941 118.708 205.147 118.422 205.143C118.127 205.14 117.969 205.44 117.689 205.503C117.404 205.567 117.008 205.106 116.746 205.231C116.483 205.357 116.133 205.371 115.904 205.555C115.679 205.732 116.337 206.681 116.153 206.91C115.975 207.135 115.56 207.01 115.43 207.276C115.304 207.529 115.053 207.64 114.982 207.929C114.909 208.216 115.185 208.432 115.18 208.718C115.172 209.012 115.478 209.096 115.534 209.378C115.59 209.665 115.457 209.806 115.573 210.07C115.691 210.338 115.33 210.748 115.502 210.978C115.676 211.21 115.509 211.756 115.73 211.945C115.949 212.131 115.931 212.91 116.192 213.044C116.446 213.175 117.133 212.432 117.42 212.505C117.707 212.574 117.991 211.735 118.277 211.737C118.572 211.742 118.687 211.933 118.969 211.871C119.253 211.809 119.979 213.031 120.24 212.908C120.502 212.781 120.587 212.185 120.815 212.002C121.041 211.822 120.806 211.203 120.99 210.975C121.169 210.752 122.159 211.013 122.287 210.752C122.413 210.495 121.291 209.793 121.364 209.503C121.435 209.216 122.24 209.105 122.247 208.82C122.255 208.524 122.889 208.092 122.833 207.809C122.777 207.522 122.016 207.368 121.899 207.104C121.783 206.838 120.815 207.181 120.643 206.947C120.469 206.711 120.557 206.501 120.334 206.312C120.115 206.124 120.606 204.912 120.341 204.78C120.088 204.652 119.558 205.081 119.272 205.012Z" fill="#26541B"/>
<path d="M303.754 128.525C303.467 128.454 303.191 128.66 302.904 128.657C302.61 128.653 302.452 128.953 302.172 129.016C301.886 129.08 301.49 128.62 301.228 128.745C300.966 128.87 300.616 128.886 300.388 129.068C300.162 129.247 300.822 130.195 300.636 130.424C300.455 130.649 300.043 130.523 299.913 130.789C299.787 131.042 299.535 131.153 299.464 131.442C299.391 131.73 299.668 131.945 299.663 132.232C299.655 132.525 299.963 132.609 300.016 132.891C300.073 133.178 299.938 133.32 300.056 133.584C300.173 133.849 299.812 134.262 299.984 134.492C300.158 134.723 299.992 135.269 300.215 135.458C300.433 135.644 300.415 136.422 300.676 136.557C300.931 136.687 301.617 135.945 301.907 136.017C302.193 136.086 302.477 135.248 302.761 135.25C303.056 135.255 303.172 135.446 303.454 135.384C303.738 135.322 304.463 136.542 304.724 136.421C304.986 136.294 305.072 135.698 305.298 135.517C305.524 135.336 305.289 134.716 305.473 134.488C305.652 134.265 306.642 134.529 306.77 134.265C306.896 134.008 305.774 133.306 305.847 133.017C305.918 132.73 306.722 132.618 306.73 132.333C306.737 132.038 307.374 131.605 307.318 131.322C307.262 131.037 306.501 130.881 306.383 130.617C306.265 130.351 305.298 130.694 305.125 130.46C304.952 130.225 305.04 130.016 304.817 129.827C304.598 129.639 305.089 128.427 304.824 128.295C304.57 128.165 304.043 128.594 303.754 128.525Z" fill="#26541B"/>
<path d="M191.856 14.3039C191.569 14.2327 191.292 14.4388 191.008 14.435C190.714 14.4313 190.556 14.7315 190.276 14.7964C189.991 14.8607 189.594 14.3981 189.332 14.5232C189.07 14.6484 188.72 14.6667 188.49 14.8467C188.265 15.0255 188.924 15.9742 188.74 16.2021C188.561 16.4267 188.147 16.3053 188.017 16.5675C187.891 16.8226 187.639 16.9315 187.568 17.2186C187.496 17.5099 187.774 17.7247 187.766 18.01C187.759 18.3051 188.065 18.3882 188.12 18.6697C188.177 18.9568 188.044 19.0977 188.16 19.3639C188.278 19.6316 187.916 20.0402 188.088 20.2702C188.263 20.5056 188.096 21.0492 188.317 21.2367C188.535 21.4227 188.517 22.2014 188.778 22.3361C189.033 22.4683 189.72 21.7273 190.007 21.7965C190.294 21.8677 190.578 21.0288 190.864 21.0304C191.158 21.0321 191.276 21.2279 191.558 21.1625C191.842 21.1005 192.566 22.3243 192.828 22.1973C193.09 22.0721 193.174 21.4768 193.402 21.2953C193.629 21.1179 193.394 20.4983 193.577 20.2685C193.757 20.0415 194.746 20.309 194.876 20.043C195.002 19.7898 193.88 19.0861 193.951 18.799C194.023 18.5058 194.826 18.3983 194.834 18.1112C194.842 17.8179 195.476 17.384 195.421 17.1045C195.364 16.8173 194.602 16.658 194.485 16.396C194.369 16.1278 193.402 16.4746 193.229 16.2407C193.056 16.0069 193.144 15.7941 192.921 15.6052C192.702 15.4173 193.191 14.2083 192.928 14.072C192.674 13.9437 192.146 14.3784 191.856 14.3039Z" fill="#D9AE00"/>
<path d="M182.945 161.583C182.658 161.513 182.381 161.718 182.095 161.714C181.803 161.712 181.642 162.011 181.363 162.074C181.079 162.138 180.682 161.675 180.418 161.8C180.158 161.925 179.807 161.944 179.576 162.124C179.35 162.303 180.01 163.251 179.826 163.479C179.646 163.704 179.234 163.583 179.103 163.845C178.977 164.1 178.725 164.209 178.654 164.496C178.582 164.787 178.859 165.002 178.853 165.287C178.845 165.58 179.151 165.665 179.206 165.947C179.263 166.234 179.128 166.375 179.244 166.642C179.362 166.907 179 167.316 179.172 167.548C179.346 167.784 179.181 168.327 179.401 168.514C179.62 168.7 179.602 169.479 179.862 169.612C180.117 169.744 180.804 169.003 181.092 169.072C181.38 169.143 181.664 168.304 181.95 168.306C182.242 168.308 182.36 168.504 182.642 168.438C182.926 168.376 183.652 169.6 183.912 169.473C184.174 169.348 184.26 168.752 184.486 168.571C184.713 168.394 184.478 167.774 184.661 167.544C184.839 167.318 185.83 167.585 185.96 167.319C186.086 167.066 184.964 166.362 185.035 166.075C185.105 165.782 185.91 165.674 185.918 165.387C185.925 165.092 186.562 164.659 186.507 164.38C186.45 164.093 185.688 163.933 185.571 163.671C185.455 163.403 184.488 163.75 184.315 163.516C184.142 163.282 184.23 163.069 184.009 162.88C183.79 162.692 184.279 161.483 184.016 161.347C183.763 161.224 183.235 161.657 182.945 161.583Z" fill="#D9AE00"/>
<path d="M156.995 218.432C156.708 218.361 156.432 218.567 156.147 218.563C155.853 218.56 155.695 218.86 155.413 218.923C155.129 218.987 154.733 218.526 154.471 218.651C154.209 218.776 153.859 218.795 153.629 218.975C153.402 219.152 154.062 220.1 153.879 220.33C153.7 220.555 153.286 220.432 153.156 220.696C153.029 220.949 152.778 221.06 152.706 221.345C152.634 221.636 152.913 221.851 152.906 222.138C152.898 222.431 153.204 222.516 153.259 222.796C153.315 223.083 153.181 223.226 153.299 223.492C153.416 223.756 153.055 224.166 153.227 224.398C153.4 224.632 153.235 225.175 153.456 225.365C153.674 225.551 153.656 226.329 153.917 226.462C154.173 226.594 154.859 225.854 155.148 225.924C155.434 225.993 155.718 225.155 156.005 225.158C156.298 225.158 156.417 225.354 156.698 225.288C156.982 225.226 157.707 226.452 157.968 226.323C158.231 226.2 158.315 225.604 158.542 225.421C158.769 225.242 158.534 224.624 158.718 224.394C158.898 224.169 159.887 224.437 160.016 224.169C160.143 223.917 159.021 223.214 159.092 222.925C159.164 222.632 159.967 222.524 159.975 222.239C159.982 221.942 160.617 221.512 160.561 221.23C160.505 220.943 159.743 220.784 159.626 220.522C159.509 220.254 158.542 220.599 158.37 220.367C158.197 220.131 158.284 219.918 158.061 219.729C157.843 219.543 158.331 218.332 158.068 218.198C157.813 218.072 157.285 218.505 156.995 218.432Z" fill="#D9AE00"/>
<path d="M120.723 184.312C120.436 184.241 120.159 184.447 119.875 184.443C119.581 184.441 119.423 184.741 119.143 184.804C118.857 184.869 118.461 184.406 118.199 184.531C117.936 184.656 117.587 184.675 117.357 184.856C117.132 185.033 117.79 185.982 117.607 186.21C117.428 186.435 117.014 186.313 116.884 186.577C116.758 186.832 116.507 186.943 116.435 187.228C116.363 187.52 116.641 187.734 116.634 188.02C116.626 188.315 116.932 188.398 116.987 188.679C117.044 188.967 116.911 189.107 117.027 189.376C117.145 189.641 116.783 190.05 116.955 190.28C117.13 190.515 116.963 191.059 117.184 191.246C117.402 191.432 117.385 192.211 117.646 192.346C117.9 192.478 118.587 191.737 118.874 191.806C119.161 191.877 119.445 191.039 119.731 191.04C120.025 191.042 120.144 191.238 120.425 191.172C120.709 191.11 121.433 192.334 121.695 192.207C121.957 192.082 122.041 191.487 122.271 191.305C122.498 191.127 122.261 190.508 122.444 190.278C122.625 190.053 123.613 190.319 123.743 190.053C123.869 189.799 122.747 189.096 122.819 188.809C122.89 188.515 123.694 188.408 123.701 188.121C123.709 187.828 124.343 187.396 124.288 187.114C124.231 186.827 123.47 186.668 123.352 186.406C123.236 186.138 122.269 186.484 122.097 186.251C121.924 186.017 122.011 185.804 121.788 185.615C121.569 185.427 122.058 184.218 121.795 184.084C121.541 183.953 121.012 184.384 120.723 184.312Z" fill="#D9AE00"/>
<path d="M273.437 136.934C273.742 136.751 273.803 136.345 274.047 136.106C274.3 135.857 274.182 135.469 274.367 135.175C274.553 134.883 275.28 134.94 275.398 134.613C275.515 134.286 275.798 133.974 275.838 133.626C275.882 133.285 274.517 133.036 274.482 132.684C274.446 132.344 274.9 132.1 274.787 131.765C274.676 131.441 274.797 131.136 274.617 130.829C274.432 130.524 274.014 130.576 273.778 130.327C273.537 130.071 273.204 130.257 272.919 130.066C272.63 129.867 272.625 129.635 272.303 129.505C271.976 129.379 271.937 128.726 271.595 128.677C271.25 128.623 270.933 128.023 270.584 128.051C270.238 128.079 269.6 127.397 269.263 127.509C268.937 127.614 268.98 128.82 268.675 129.003C268.371 129.187 268.84 130.143 268.598 130.382C268.346 130.628 268.083 130.564 267.896 130.852C267.709 131.147 266.06 130.72 265.942 131.049C265.828 131.376 266.257 131.953 266.217 132.299C266.176 132.643 266.9 132.969 266.937 133.318C266.974 133.662 265.911 134.273 266.024 134.61C266.134 134.931 267.679 134.578 267.862 134.886C268.045 135.193 267.456 135.963 267.69 136.211C267.933 136.467 267.758 137.374 268.046 137.569C268.338 137.763 269.113 137.252 269.436 137.38C269.762 137.506 270.292 136.394 270.635 136.447C270.98 136.5 271.087 136.754 271.435 136.728C271.778 136.701 272.387 138.144 272.722 138.034C273.046 137.934 273.13 137.119 273.437 136.934Z" fill="#D9AE00"/>
<path d="M167.979 84.8278C168.048 84.3195 167.645 83.8822 167.596 83.3936C167.545 82.8856 167.003 82.6704 166.838 82.1972C166.676 81.7232 167.398 80.9567 167.135 80.5308C166.87 80.1053 166.772 79.4997 166.418 79.1477C166.07 78.7902 164.563 80.0997 164.133 79.824C163.72 79.5607 163.852 78.8271 163.374 78.6536C162.91 78.4853 162.677 78.0749 162.166 78.0008C161.658 77.9358 161.34 78.4527 160.847 78.4923C160.342 78.5367 160.252 79.0774 159.782 79.228C159.298 79.3753 159.029 79.1726 158.595 79.419C158.159 79.67 157.389 79.127 157.026 79.4678C156.653 79.8069 155.692 79.6232 155.41 80.0402C155.129 80.4531 153.79 80.5614 153.611 81.0398C153.434 81.4998 154.831 82.5408 154.762 83.0471C154.695 83.555 156.192 83.8893 156.24 84.376C156.293 84.8856 155.983 85.121 156.14 85.592C156.304 86.0694 154.339 87.5407 154.602 87.9704C154.867 88.3959 155.904 88.4272 156.258 88.7872C156.61 89.1439 157.626 88.6206 158.053 88.8948C158.473 89.1626 158.203 90.9089 158.685 91.0854C159.144 91.2507 160.137 89.1929 160.65 89.2647C161.158 89.3335 161.498 90.691 161.991 90.6514C162.497 90.6089 163.362 91.6202 163.838 91.4745C164.322 91.3229 164.442 89.9868 164.876 89.7343C165.314 89.4829 164.54 87.8845 164.907 87.5448C165.278 87.2043 165.662 87.3143 165.942 86.8976C166.222 86.4871 168.393 87.1017 168.572 86.6232C168.752 86.1666 167.91 85.3379 167.979 84.8278Z" fill="#D9AE00"/>
<path d="M201.861 35.115C201.325 35.2319 201.035 35.7965 200.56 36.024C200.07 36.2588 200.052 36.8836 199.638 37.2176C199.219 37.5567 198.185 37.1114 197.854 37.5369C197.523 37.9568 196.952 38.2709 196.723 38.7583C196.495 39.2394 198.36 40.2742 198.241 40.8013C198.126 41.3177 197.343 41.4526 197.342 41.9961C197.342 42.5253 197.012 42.9107 197.129 43.4444C197.246 43.9819 197.882 44.1147 198.102 44.5938C198.33 45.0873 198.907 44.9754 199.229 45.3984C199.556 45.8282 199.448 46.1753 199.856 46.5175C200.268 46.8651 200 47.836 200.477 48.0814C200.954 48.3249 201.122 49.3606 201.644 49.4923C202.159 49.6233 202.762 50.9296 203.305 50.937C203.832 50.9458 204.365 49.16 204.9 49.0431C205.436 48.9263 205.219 47.3002 205.695 47.0746C206.185 46.8418 206.535 47.0649 206.952 46.7304C207.371 46.3932 209.57 47.8285 209.901 47.4087C210.23 46.9854 209.886 45.9303 210.118 45.4444C210.348 44.9609 209.451 44.1281 209.569 43.5991C209.687 43.0843 211.539 42.7141 211.54 42.1706C211.541 41.6433 209.111 41.3968 208.993 40.8573C208.876 40.3217 210.117 39.4838 209.897 39.0047C209.669 38.5112 210.37 37.2759 210.048 36.851C209.72 36.4213 208.33 36.7846 207.922 36.4442C207.511 36.0967 206.188 37.4557 205.711 37.2084C205.234 36.965 205.205 36.5399 204.683 36.4082C204.167 36.2772 203.994 33.8727 203.451 33.8653C202.922 33.8532 202.399 34.9977 201.861 35.115Z" fill="#54BA3C"/>
<path d="M80.5743 140.08C80.0386 140.197 79.7485 140.762 79.271 140.99C78.7811 141.224 78.7632 141.847 78.3489 142.181C77.9301 142.522 76.8963 142.077 76.5655 142.501C76.2337 142.92 75.6656 143.236 75.4342 143.722C75.2061 144.205 77.0709 145.238 76.9523 145.765C76.8358 146.284 76.054 146.416 76.0513 146.962C76.0506 147.489 75.7213 147.875 75.8382 148.41C75.9551 148.946 76.5934 149.08 76.8115 149.558C77.039 150.051 77.6138 149.94 77.9376 150.363C78.2651 150.792 78.1571 151.139 78.5657 151.484C78.9785 151.829 78.7111 152.8 79.188 153.045C79.6644 153.289 79.833 154.326 80.3545 154.456C80.8704 154.587 81.4729 155.893 82.0157 155.901C82.5451 155.911 83.078 154.125 83.6137 154.008C84.1493 153.891 83.9318 152.263 84.4082 152.04C84.8985 151.807 85.2506 152.03 85.6631 151.696C86.0823 151.357 88.281 152.794 88.6128 152.374C88.9432 151.949 88.5977 150.896 88.8287 150.408C89.0572 149.927 88.1625 149.094 88.2803 148.563C88.3976 148.048 90.2498 147.678 90.251 147.134C90.2503 146.609 87.8216 146.36 87.7043 145.823C87.587 145.285 88.8261 144.448 88.608 143.97C88.3805 143.477 89.081 142.24 88.7591 141.817C88.4312 141.385 87.0412 141.75 86.633 141.408C86.2221 141.062 84.8988 142.419 84.4238 142.174C83.9473 141.93 83.9181 141.503 83.3961 141.371C82.8802 141.24 82.707 138.836 82.1623 138.829C81.6352 138.82 81.1099 139.963 80.5743 140.08Z" fill="#54BA3C"/>
<path d="M93.0126 211.759C93.06 212.214 93.4998 212.509 93.6445 212.925C93.7939 213.354 94.3092 213.427 94.5465 213.801C94.7892 214.181 94.3243 214.997 94.6467 215.312C94.9625 215.625 95.1718 216.126 95.5552 216.364C95.9335 216.597 96.9648 215.146 97.3906 215.295C97.8099 215.441 97.8478 216.1 98.2991 216.155C98.737 216.203 99.026 216.511 99.4832 216.466C99.9378 216.416 100.109 215.902 100.526 215.765C100.959 215.622 100.922 215.133 101.301 214.905C101.687 214.671 101.966 214.794 102.288 214.486C102.614 214.175 103.393 214.488 103.645 214.116C103.889 213.743 104.767 213.701 104.922 213.28C105.079 212.864 106.219 212.486 106.276 212.034C106.335 211.6 104.902 210.988 104.854 210.533C104.807 210.08 103.437 210.107 103.293 209.691C103.145 209.262 103.363 208.989 103.124 208.616C102.885 208.235 104.282 206.546 103.963 206.228C103.641 205.917 102.735 206.103 102.352 205.867C101.974 205.632 101.2 206.298 100.769 206.151C100.354 206.007 100.219 204.435 99.7663 204.384C99.33 204.334 98.8983 206.327 98.4418 206.377C97.9846 206.423 97.4054 205.315 96.9884 205.454C96.5562 205.596 95.5934 204.9 95.214 205.128C94.8254 205.361 94.9988 206.549 94.6762 206.855C94.3525 207.165 95.3562 208.388 95.1063 208.762C94.8599 209.133 94.5029 209.117 94.3458 209.541C94.1889 209.957 92.1765 209.877 92.1208 210.326C92.0622 210.762 92.9653 211.304 93.0126 211.759Z" fill="#54BA3C"/>
<path d="M160.275 20.9212C160.142 21.4554 160.523 21.9634 160.518 22.4916C160.511 23.0344 161.064 23.3271 161.181 23.8466C161.302 24.3714 160.446 25.1055 160.681 25.5874C160.91 26.0705 160.94 26.7209 161.277 27.1406C161.608 27.5596 163.358 26.3431 163.779 26.6825C164.193 27.0135 163.966 27.776 164.454 28.017C164.928 28.2509 165.128 28.7165 165.66 28.8481C166.194 28.9811 166.595 28.4682 167.119 28.4817C167.664 28.4966 167.82 27.9314 168.339 27.8301C168.869 27.7263 169.133 27.9742 169.622 27.7598C170.113 27.5427 170.864 28.2115 171.296 27.8936C171.725 27.5723 172.729 27.8805 173.079 27.4688C173.423 27.0621 174.862 27.1016 175.108 26.6186C175.349 26.1487 173.981 24.8795 174.115 24.3491C174.246 23.8152 172.69 23.2921 172.697 22.7654C172.705 22.2226 173.061 22.0071 172.944 21.4895C172.825 20.9623 175.085 19.6244 174.854 19.1416C174.62 18.6574 173.519 18.4983 173.186 18.0798C172.855 17.6589 171.713 18.0978 171.289 17.757C170.879 17.4232 171.365 15.5996 170.877 15.3568C170.405 15.1262 169.11 17.198 168.576 17.065C168.042 16.9339 167.838 15.4488 167.314 15.4354C166.77 15.4223 165.97 14.2488 165.447 14.3509C164.917 14.4547 164.631 15.8611 164.143 16.0774C163.649 16.295 164.284 18.0794 163.85 18.3977C163.423 18.7186 163.028 18.5552 162.679 18.9669C162.334 19.3717 160.101 18.4651 159.853 18.9486C159.613 19.4123 160.408 20.3869 160.275 20.9212Z" fill="#54BA3C"/>
<path d="M191.779 116.188C191.844 116.731 192.377 117.078 192.557 117.572C192.744 118.082 193.362 118.161 193.655 118.606C193.953 119.058 193.409 120.042 193.798 120.414C194.183 120.786 194.441 121.382 194.904 121.659C195.362 121.934 196.57 120.177 197.086 120.348C197.59 120.513 197.645 121.308 198.188 121.359C198.713 121.413 199.064 121.779 199.609 121.714C200.156 121.651 200.35 121.029 200.846 120.857C201.36 120.679 201.305 120.096 201.757 119.816C202.216 119.53 202.551 119.674 202.932 119.3C203.317 118.924 204.257 119.286 204.548 118.833C204.835 118.385 205.885 118.318 206.066 117.809C206.248 117.31 207.607 116.84 207.667 116.298C207.726 115.773 206.003 115.069 205.938 114.524C205.875 113.979 204.234 114.035 204.056 113.541C203.87 113.03 204.128 112.702 203.838 112.259C203.541 111.806 205.188 109.761 204.801 109.389C204.413 109.018 203.329 109.257 202.867 108.982C202.412 108.706 201.492 109.516 200.978 109.348C200.476 109.18 200.29 107.302 199.749 107.248C199.227 107.196 198.743 109.59 198.196 109.656C197.65 109.719 196.937 108.401 196.44 108.573C195.927 108.751 194.764 107.932 194.314 108.212C193.853 108.497 194.079 109.917 193.699 110.288C193.314 110.667 194.537 112.114 194.243 112.563C193.956 113.013 193.528 113.003 193.347 113.508C193.165 114.011 190.757 113.947 190.695 114.484C190.627 115.008 191.716 115.643 191.779 116.188Z" fill="#54BA3C"/>
<path d="M154.731 109.458C154.489 109.874 154.534 110.31 154.362 110.731C154.185 111.163 154.397 111.44 154.294 111.866C154.19 112.292 153.483 112.804 153.457 113.209C153.429 113.612 153.237 114.131 153.289 114.496C153.337 114.856 154.7 114.034 154.824 114.34C154.947 114.639 154.578 115.227 154.771 115.46C154.958 115.685 154.921 116.072 155.173 116.223C155.425 116.372 155.813 115.996 156.098 116.051C156.397 116.11 156.664 115.67 156.986 115.634C157.315 115.596 157.379 115.816 157.717 115.684C158.06 115.553 158.262 116.146 158.603 115.928C158.944 115.712 159.403 116.041 159.727 115.741C160.049 115.449 160.831 115.595 161.125 115.23C161.409 114.876 161.058 113.751 161.299 113.339C161.544 112.924 160.851 112.38 161.022 111.959C161.202 111.527 161.468 111.385 161.57 110.963C161.674 110.533 163.357 109.655 163.382 109.25C163.409 108.849 162.85 108.631 162.798 108.265C162.749 107.904 161.974 108.159 161.85 107.853C161.73 107.551 162.586 106.141 162.392 105.907C162.205 105.683 160.821 107.223 160.57 107.076C160.317 106.925 160.679 105.726 160.391 105.671C160.095 105.612 160.029 104.614 159.705 104.652C159.378 104.688 158.767 105.786 158.428 105.916C158.085 106.047 157.864 107.523 157.522 107.741C157.18 107.959 157.015 107.799 156.689 108.096C156.367 108.39 155.421 107.483 155.127 107.848C154.851 108.204 154.977 109.045 154.731 109.458Z" fill="#54BA3C"/>
<path d="M168.932 167.433C168.793 167.667 168.918 167.971 168.844 168.229C168.767 168.489 169.009 168.718 169 168.987C168.987 169.258 168.454 169.472 168.509 169.739C168.562 170.011 168.487 170.327 168.604 170.585C168.715 170.841 169.769 170.537 169.937 170.768C170.103 170.995 169.885 171.324 170.102 171.521C170.308 171.707 170.35 171.966 170.603 172.116C170.857 172.266 171.129 172.083 171.394 172.173C171.671 172.268 171.824 172.021 172.104 172.056C172.388 172.09 172.486 172.254 172.764 172.228C173.045 172.206 173.335 172.648 173.598 172.563C173.86 172.476 174.328 172.787 174.561 172.646C174.79 172.508 175.515 172.757 175.705 172.564C175.89 172.376 175.367 171.548 175.506 171.312C175.647 171.079 174.927 170.573 175 170.322C175.077 170.063 175.287 170.016 175.298 169.748C175.309 169.476 176.638 169.198 176.584 168.926C176.531 168.656 175.993 168.404 175.881 168.147C175.767 167.888 175.126 167.918 174.958 167.687C174.794 167.457 175.287 166.659 175.071 166.464C174.862 166.276 173.923 167.062 173.671 166.914C173.419 166.763 173.515 166.015 173.247 165.924C172.973 165.83 172.726 165.137 172.447 165.102C172.164 165.066 171.826 165.695 171.552 165.723C171.27 165.748 171.354 166.708 171.091 166.794C170.828 166.877 170.651 166.734 170.418 166.875C170.189 167.015 169.176 166.219 168.984 166.411C168.798 166.601 169.072 167.196 168.932 167.433Z" fill="#54BA3C"/>
<path d="M216.578 128.508C216.44 128.744 216.564 129.05 216.49 129.304C216.413 129.565 216.655 129.795 216.646 130.065C216.633 130.335 216.101 130.549 216.156 130.819C216.209 131.089 216.134 131.405 216.25 131.663C216.362 131.92 217.416 131.614 217.584 131.845C217.749 132.073 217.532 132.404 217.748 132.598C217.955 132.785 217.997 133.045 218.249 133.194C218.504 133.344 218.775 133.161 219.041 133.251C219.316 133.348 219.471 133.099 219.75 133.134C220.035 133.169 220.133 133.334 220.411 133.307C220.691 133.284 220.981 133.726 221.244 133.64C221.505 133.555 221.974 133.865 222.208 133.726C222.437 133.586 223.162 133.835 223.353 133.641C223.538 133.453 223.016 132.625 223.154 132.389C223.295 132.157 222.574 131.651 222.646 131.399C222.724 131.141 222.935 131.093 222.945 130.825C222.957 130.553 224.286 130.275 224.233 130.005C224.18 129.733 223.642 129.481 223.53 129.224C223.416 128.967 222.777 128.995 222.607 128.764C222.443 128.534 222.935 127.734 222.719 127.542C222.51 127.353 221.574 128.139 221.32 127.991C221.067 127.84 221.162 127.093 220.896 127.003C220.622 126.907 220.375 126.216 220.094 126.179C219.81 126.143 219.474 126.772 219.199 126.8C218.918 126.823 219.003 127.787 218.739 127.871C218.476 127.954 218.299 127.813 218.066 127.952C217.839 128.091 216.825 127.296 216.633 127.488C216.444 127.677 216.717 128.274 216.578 128.508Z" fill="#54BA3C"/>
<path d="M304.426 150.976C304.289 151.21 304.412 151.518 304.338 151.772C304.262 152.034 304.503 152.263 304.494 152.531C304.481 152.801 303.949 153.017 304.003 153.285C304.056 153.555 303.981 153.871 304.098 154.131C304.21 154.386 305.263 154.08 305.431 154.311C305.597 154.539 305.379 154.87 305.596 155.064C305.804 155.252 305.845 155.511 306.097 155.66C306.351 155.81 306.623 155.627 306.888 155.717C307.163 155.814 307.318 155.565 307.596 155.6C307.881 155.636 307.979 155.8 308.257 155.773C308.537 155.75 308.827 156.192 309.09 156.107C309.353 156.021 309.82 156.331 310.055 156.192C310.284 156.052 311.01 156.301 311.201 156.107C311.386 155.919 310.863 155.091 310.999 154.853C311.141 154.623 310.419 154.117 310.492 153.864C310.569 153.605 310.778 153.558 310.79 153.29C310.8 153.018 312.129 152.74 312.077 152.47C312.023 152.198 311.485 151.946 311.373 151.689C311.259 151.432 310.62 151.46 310.45 151.229C310.286 150.999 310.778 150.199 310.563 150.008C310.354 149.818 309.415 150.606 309.163 150.456C308.91 150.305 309.007 149.559 308.74 149.468C308.467 149.371 308.218 148.681 307.939 148.646C307.655 148.608 307.32 149.238 307.044 149.265C306.763 149.288 306.848 150.252 306.583 150.336C306.321 150.419 306.143 150.278 305.909 150.417C305.68 150.557 304.668 149.761 304.476 149.953C304.295 150.146 304.565 150.744 304.426 150.976Z" fill="#54BA3C"/>
</g>
</svg>
