<svg width="372" height="330" viewBox="0 0 372 330" fill="none" xmlns="http://www.w3.org/2000/svg">
<path opacity="0.25" d="M349.904 87.306C353.656 91.058 356.212 95.394 357.494 100.197C361.492 115.145 352.816 127.782 346.485 137.009C345.584 138.32 343.45 141.427 342.391 143.301C342.171 155.45 336.962 164.194 333.443 170.099C332.209 172.169 330.936 174.304 330.521 175.583L329.449 178.927C326.269 188.941 323.522 197.596 311.696 206.442C310.66 207.719 308.602 211.228 307.463 213.165C301.331 223.607 291.077 241.074 270.84 238.192C264.259 237.257 258.21 234.073 252.867 228.73C248.546 224.41 245.291 219.303 242.417 214.795C241.065 212.673 239.291 209.894 238.133 208.487C234.222 206.889 229.393 206.029 224.305 205.123C222.474 204.797 220.621 204.466 218.767 204.093C217.85 205.82 216.77 207.707 215.483 209.709C209.347 219.248 199.028 222.192 190.739 224.557C189.989 224.772 188.595 225.17 187.266 225.583C186.364 227.922 185.414 230.191 184.484 232.415C182.792 236.445 180.879 241.014 180.494 243.459C178.913 253.524 176.95 258.137 175.371 261.842C174.422 264.07 173.989 265.085 173.406 268.99C173.177 270.527 173.408 271.255 174.328 273.786C175.659 277.455 177.885 283.592 175.776 291.084C173.557 298.953 167.735 304.64 158.471 307.989C141.08 314.289 125.749 310.978 112.91 298.139C111.978 297.207 111.039 296.206 110.095 295.121C109.988 294.997 109.777 294.786 109.774 294.783C108.788 293.797 107.047 292.354 105.364 290.957C102.712 288.757 99.413 286.018 96.138 282.744C91.775 278.381 88.329 273.945 85.608 269.183C78.617 256.949 83.849 244.136 87.668 234.779C87.972 234.038 88.574 232.557 89.147 231.06C88.547 230.569 87.903 230.054 87.243 229.529C84.939 227.691 82.334 225.612 79.808 223.086C75.92 219.198 73.139 215.153 71.302 210.708C67.448 201.359 68.668 192.247 69.558 185.596C69.798 183.807 70.147 181.188 70.132 179.979C69.446 178.438 67.692 176.054 66.128 173.926C62.7218 169.295 58.0625 162.956 55.959 154.719C53.5563 145.307 55.2177 136.909 56.4312 130.776C56.5643 130.113 56.716 129.335 56.8605 128.558C55.0846 127.403 52.9166 126.116 51.2467 125.122C45.9606 121.979 40.4971 118.731 36.1998 114.434C29.2209 107.455 27.9272 100.223 28.0689 95.382C28.5626 78.549 43.3219 69.797 52.1382 64.566C53.1943 63.94 55.2864 62.698 56.6859 61.776C62.6889 49.371 68.685 44.603 82.651 40.47C96.091 36.495 104.802 37.326 117.115 40.396C127.274 42.927 135.89 46.117 145.742 51.009C147.216 51.081 150.286 50.79 152.203 50.607C159.275 49.937 168.957 49.022 178.083 53.528C185.035 56.962 190.185 62.032 194.323 66.108C195.547 67.314 197.43 69.169 198.612 70.133C206.827 71.199 211.521 71.233 214.183 70.973C214.45 69.091 214.68 67.112 214.792 66.168C216.07 55.173 217.819 40.139 232.034 34.009C242.317 29.576 258.844 25.078 270.538 25.058C277.48 25.048 283.964 27.857 289.29 33.183C294.218 38.112 297.419 44.475 300.238 50.091C301.097 51.796 302.546 54.68 303.492 56.209C304.304 56.654 305.247 57.134 306.22 57.623C310.317 59.691 315.932 62.527 321.128 67.723C322.97 69.565 324.602 71.53 326.065 73.673C327.49 74.357 329.516 75.233 330.663 75.73C336.699 78.343 344.185 81.582 349.899 87.296L349.907 87.304L349.904 87.306Z" fill="#44A1CC"/>
<path d="M241.821 203.491L242.783 204.659C243.188 205.15 243.116 205.874 242.627 206.278C242.136 206.683 241.4 206.605 241.008 206.122L240.414 205.402L239.546 205.046C235.273 203.3 230.27 202.41 224.974 201.467C223.159 201.143 221.338 200.818 219.51 200.451L216.79 199.903L215.491 202.35C214.495 204.227 213.47 205.979 212.36 207.701C206.979 216.064 197.812 218.677 189.723 220.983C188.632 221.297 187.372 221.659 186.165 222.033L184.447 222.567L183.8 224.247C182.933 226.496 182.02 228.683 181.121 230.826C178.873 236.185 177.249 240.185 176.828 242.878C175.316 252.496 173.53 256.686 171.954 260.382C170.867 262.944 170.357 264.251 169.733 268.439C169.354 270.967 169.909 272.498 170.832 275.038C172.093 278.514 173.985 283.734 172.202 290.074C170.3 296.812 165.397 301.529 157.212 304.491C141.068 310.338 127.436 307.399 115.543 295.506C114.669 294.631 113.79 293.693 112.901 292.675C112.74 292.488 112.423 292.169 112.403 292.149C111.299 291.044 109.496 289.547 107.751 288.1C105.161 285.954 101.936 283.281 98.769 280.114C94.64 275.986 91.394 271.806 88.838 267.335C82.746 256.676 87.384 245.318 91.107 236.191C91.472 235.291 92.062 233.846 92.621 232.385C92.849 231.791 93.513 231.496 94.105 231.722C94.699 231.95 94.995 232.615 94.766 233.208C94.2 234.684 93.604 236.15 93.238 237.051C89.699 245.727 85.297 256.511 90.833 266.196C93.284 270.488 96.412 274.509 100.393 278.49C103.484 281.581 106.662 284.215 109.217 286.332C111.001 287.813 112.847 289.344 114.029 290.526C114.039 290.536 114.443 290.945 114.637 291.174C115.484 292.144 116.327 293.044 117.166 293.883C128.363 305.081 141.205 307.845 156.425 302.333C163.863 299.64 168.298 295.429 169.985 289.454C171.568 283.827 169.828 279.028 168.676 275.85C167.694 273.145 166.99 271.208 167.455 268.101C168.121 263.646 168.696 262.161 169.833 259.483C171.357 255.91 173.083 251.861 174.553 242.526C175.015 239.568 176.613 235.623 178.998 229.939C179.888 227.816 180.792 225.652 181.651 223.42L182.698 220.701L185.48 219.836C186.706 219.457 187.981 219.089 189.002 218.796C196.786 216.575 205.511 214.087 210.422 206.454C211.498 204.785 212.49 203.089 213.457 201.269L215.562 197.307L219.961 198.194C221.768 198.559 223.576 198.881 225.372 199.2C230.792 200.164 235.911 201.076 240.411 202.915L241.821 203.491Z" fill="#B3D9EB"/>
<path d="M347.275 89.931L347.28 89.937C350.566 93.222 352.797 96.999 353.907 101.157C357.465 114.448 349.685 125.783 343.434 134.893C341.97 137.021 340.171 139.681 339.16 141.471L338.697 142.291L338.68 143.235C338.476 154.401 333.726 162.374 330.259 168.193C328.854 170.549 327.53 172.771 326.992 174.434L325.914 177.79C322.803 187.589 320.346 195.332 309.476 203.466L309.109 203.742L308.818 204.098C307.721 205.445 305.986 208.353 304.302 211.216C298.263 221.499 289.135 237.041 271.371 234.511C265.601 233.693 260.263 230.862 255.502 226.101C255.053 225.652 255.053 224.925 255.502 224.476C255.952 224.026 256.68 224.028 257.128 224.476C261.528 228.876 266.429 231.488 271.695 232.238C287.933 234.549 296.589 219.808 302.32 210.053C304.12 206.99 305.835 204.12 307.034 202.649L307.503 202.074L308.097 201.629C318.376 193.937 320.737 186.504 323.725 177.094L324.804 173.734C325.422 171.82 326.812 169.491 328.28 167.024C331.618 161.422 336.186 153.752 336.379 143.198L336.408 141.673L337.159 140.343C338.215 138.477 340.051 135.763 341.532 133.606C347.524 124.876 354.971 114.023 351.688 101.757C350.682 97.992 348.651 94.564 345.655 91.568C345.207 91.12 345.204 90.387 345.652 89.94C346.098 89.484 346.825 89.482 347.275 89.931Z" fill="#B3D9EB"/>
<path d="M286.659 35.814C291.169 40.324 294.22 46.397 296.913 51.752C298.12 54.155 299.375 56.623 300.329 58.167L300.843 58.999L301.703 59.47C302.548 59.937 303.53 60.433 304.543 60.945C308.65 63.02 313.729 65.586 318.5 70.357C320.19 72.047 321.659 73.817 322.993 75.771L323.555 76.597L324.458 77.034C325.022 77.311 325.27 77.997 324.995 78.569C324.719 79.14 324.032 79.38 323.46 79.106L322 78.404L321.091 77.069C319.839 75.233 318.46 73.571 316.873 71.984C312.364 67.475 307.465 65 303.533 63.011C302.467 62.472 301.459 61.962 300.591 61.483L299.204 60.72L298.373 59.374C297.371 57.751 296.087 55.234 294.863 52.792C292.245 47.585 289.283 41.689 285.033 37.439C280.862 33.268 275.853 31.067 270.547 31.079C259.775 31.096 243.891 35.449 234.417 39.536C223.394 44.288 221.933 56.848 220.76 66.939C220.643 67.95 220.409 69.934 220.137 71.823L219.471 76.503L214.766 76.961C210.863 77.343 205.168 77.054 197.835 76.101L196.131 75.879L194.805 74.793C193.51 73.735 191.838 72.107 190.098 70.392C186.266 66.62 181.499 61.925 175.415 58.92C167.819 55.171 159.475 55.962 152.768 56.596C149.92 56.868 147.213 57.103 145.444 57.017L143.973 56.848L143.061 56.394C133.612 51.705 125.416 48.666 115.656 46.233C115.037 46.08 114.665 45.456 114.818 44.839C114.971 44.225 115.596 43.849 116.21 44.002C126.141 46.478 134.477 49.567 144.083 54.337L144.778 54.683L145.553 54.722C147.17 54.802 149.786 54.573 152.547 54.309C159.543 53.647 168.248 52.821 176.428 56.859C182.844 60.03 187.758 64.867 191.705 68.754C193.339 70.365 195.034 72.019 196.253 73.012L197.073 73.684L198.125 73.82C205.285 74.75 210.806 75.036 214.535 74.672L217.442 74.388L217.855 71.498C218.12 69.631 218.352 67.671 218.468 66.679C219.71 55.992 221.257 42.703 233.499 37.421C243.184 33.245 259.455 28.796 270.537 28.776C276.474 28.769 282.047 31.202 286.659 35.814Z" fill="#B3D9EB"/>
<path d="M61.886 63.084C62.2223 63.42 62.3268 63.946 62.1078 64.399L61.3851 65.892L60.0014 66.803C58.526 67.775 56.3252 69.086 55.2076 69.751C46.955 74.644 34.4853 82.042 34.0861 95.563C33.9788 99.219 34.9976 104.723 40.4597 110.185C44.2132 113.939 49.3877 117.018 54.3948 119.996C56.2794 121.114 58.393 122.377 60.1488 123.521L63.519 125.711L62.7818 129.665C62.633 130.47 62.4756 131.277 62.3368 131.956C61.1762 137.836 59.731 145.152 61.7959 153.238C63.609 160.343 67.7 165.905 70.986 170.376C72.804 172.85 74.686 175.404 75.635 177.538L76.139 178.9L76.154 179.903C76.176 181.439 75.883 183.753 75.528 186.4C74.682 192.706 73.626 200.554 76.867 208.414C78.397 212.113 80.754 215.524 84.066 218.836C86.345 221.114 88.807 223.079 90.98 224.814C91.761 225.437 92.385 225.935 92.966 226.411C93.445 226.81 93.531 227.537 93.127 228.029C92.725 228.52 92.003 228.593 91.509 228.191C90.934 227.721 90.318 227.229 89.687 226.724C87.326 224.841 84.808 222.832 82.439 220.463C78.908 216.932 76.389 213.277 74.741 209.293C71.263 200.862 72.362 192.673 73.245 186.095C73.589 183.542 73.871 181.314 73.853 179.938L73.842 179.173L73.531 178.474C72.684 176.568 70.88 174.116 69.135 171.742C65.728 167.107 61.4896 161.343 59.5664 153.808C57.3741 145.216 58.8752 137.619 60.0801 131.514C60.2203 130.83 60.3749 130.035 60.5209 129.245L60.9759 126.803L58.8952 125.45C57.1752 124.331 55.0845 123.081 53.26 121.998C48.0927 118.923 42.7894 115.769 38.8327 111.812C32.791 105.771 31.6691 99.606 31.7893 95.496C32.2244 80.708 45.3509 72.925 54.0341 67.773C55.1303 67.124 57.2911 65.839 58.7364 64.886L59.5936 64.323L60.0386 63.4C60.3162 62.831 61.0031 62.59 61.5755 62.868C61.6928 62.919 61.7973 62.995 61.886 63.084Z" fill="#B3D9EB"/>
<path d="M341.297 95.906C343.521 98.13 345.015 100.631 345.739 103.341C348.292 112.877 342.003 122.04 336.452 130.124C334.091 133.564 330.137 139.327 330.207 141.346C330.559 151.165 326.364 158.211 322.991 163.874C321.342 166.638 319.785 169.249 318.95 171.819C318.552 173.044 318.187 174.187 317.848 175.256C314.853 184.688 313.044 190.38 303.977 197.017C301.969 198.487 299.312 203.013 296.97 207.007C291.509 216.305 284.717 227.876 272.555 226.144C268.583 225.58 264.954 223.611 261.471 220.128C258.091 216.748 255.338 212.429 252.675 208.252C250.525 204.883 248.307 201.4 246.262 199.355C245.405 198.498 244.846 198.168 244.591 198.044C239 195.381 232.613 194.244 226.434 193.145C221.978 192.352 217.77 191.604 213.885 190.309C213.159 190.067 212.632 189.935 212.268 189.862C211.752 190.721 211.051 192.203 210.459 193.451C209.205 196.101 207.644 199.403 205.247 203.127C201.592 208.808 194.376 210.871 187.395 212.862C184.169 213.783 178.825 215.308 177.54 216.61C176.341 220.359 174.771 224.096 173.256 227.715C171.109 232.835 169.08 237.674 168.468 241.578C167.118 250.151 165.553 253.835 164.169 257.082C163.056 259.692 162.18 261.758 161.366 267.197C160.67 271.848 161.795 274.948 162.884 277.945C163.924 280.812 165.105 284.064 164.057 287.791C162.41 293.625 156.538 295.751 154.327 296.551C149.146 298.429 135.38 303.411 121.508 289.539C120.764 288.795 120.014 287.994 119.26 287.128C118.988 286.813 118.688 286.499 118.371 286.182C116.995 284.806 115.115 283.246 113.125 281.595C110.537 279.447 107.599 277.01 104.736 274.146C101.147 270.557 98.345 266.963 96.165 263.149C92.118 256.066 95.577 247.584 98.927 239.383C100.338 235.926 102.964 229.491 102.469 227.605C102.027 226.719 101.208 225.651 100.012 224.455C98.551 222.994 96.741 221.55 94.823 220.022C92.672 218.306 90.45 216.533 88.405 214.488C85.672 211.755 83.754 209.002 82.544 206.068C79.935 199.745 80.826 193.089 81.614 187.216C82.172 183.043 82.701 179.105 81.824 176.514C80.712 173.235 78.388 170.073 75.925 166.723C72.803 162.476 69.264 157.663 67.747 151.719C66.024 144.973 67.269 138.685 68.367 133.14C69.094 129.477 69.778 126.017 69.389 123.261C69.389 123.269 69.381 123.265 69.371 123.255C69.304 123.188 69.036 122.771 68.374 122.109C66.024 119.759 61.6697 117.17 57.4598 114.669C52.603 111.781 48.0166 109.052 44.8012 105.837C41.6645 102.7 40.1233 99.305 40.2292 95.747C40.5254 85.608 50.4035 79.749 58.3427 75.041C61.2963 73.286 65.758 70.642 66.605 69.299C71.561 58.274 74.669 55.529 86.104 52.142C97.053 48.903 103.343 49.507 114.169 52.208C123.718 54.587 131.796 57.617 141.183 62.339C143.757 63.634 148.634 63.173 153.351 62.727C159.593 62.137 166.668 61.468 172.692 64.441C177.892 67.011 182.089 71.145 185.793 74.792C189.194 78.142 192.713 81.609 195.26 81.964C202.04 82.905 217.924 85.118 224.322 80.139C225.582 78.691 226.423 71.45 226.877 67.562C227.964 58.206 229.092 48.533 236.849 45.189C245.766 41.344 260.608 37.248 270.555 37.232C274.244 37.227 277.65 38.761 280.683 41.794C284.225 45.336 286.84 50.538 289.368 55.568C291.244 59.292 293.363 63.515 295.132 65.284C295.367 65.519 295.503 65.609 295.526 65.626C297.091 66.654 298.858 67.548 300.732 68.494C304.468 70.381 308.705 72.518 312.522 76.334C314.375 78.187 315.933 80.229 317.284 82.576C318.496 83.734 322.57 85.498 325.844 86.915C331.179 89.216 337.223 91.832 341.297 95.906Z" fill="#D9D29E"/>
<path d="M154.149 266.112C151.906 281.114 163.582 285.433 151.847 289.685C145.519 291.977 135.694 294.865 124.773 282.329C119.642 276.441 108.787 270.505 102.511 259.521C97.969 251.576 113.237 233.047 109.084 224.521C105.018 216.167 92.867 211.921 89.298 203.278C85.703 194.569 91.702 182.898 88.744 174.168C85.673 165.104 77.067 158.696 74.825 149.908C72.411 140.448 77.892 130.926 76.611 122.152C75.153 112.183 47.2799 104.518 47.5317 95.958C47.8423 85.39 69.845 79.872 73.208 72.405C77.296 63.326 78.776 61.923 88.183 59.139C97.815 56.289 102.848 56.903 112.41 59.287C121.523 61.56 128.998 64.376 137.908 68.858C146.69 73.275 161.017 66.81 169.468 70.986C178.886 75.638 185.435 87.963 194.264 89.191C203.852 90.525 220.145 92.642 228.814 85.9C236.183 80.166 232.13 55.175 239.75 51.888C248.419 48.15 262.272 44.542 270.576 44.527C279.496 44.514 283.91 66.73 291.529 71.727C298.166 76.08 305.966 77.533 310.968 86.214C314.857 92.969 336.114 95.595 338.692 105.227C341.737 116.614 322.56 131.721 322.916 141.605C323.347 153.656 315.009 160.357 312.012 169.555C308.263 181.084 307.681 185.263 299.673 191.122C291.197 197.325 285.4 220.595 273.593 218.916C262.742 217.372 257.023 195.867 247.736 191.448C237.06 186.367 224.8 186.245 216.204 183.379C205.289 179.738 206.651 187.469 199.118 199.174C194.476 206.389 173.346 205.688 170.672 214.149C167.881 222.984 162.515 232.503 161.266 240.441C158.909 255.399 156.106 253.042 154.149 266.112Z" fill="#9CA856"/>
<path d="M330.97 106.231C331.426 106.687 331.599 107.001 331.631 107.112C332.446 110.155 327.613 117.198 324.411 121.859C319.762 128.634 315.368 135.035 315.614 141.867C315.813 147.386 313.326 151.562 310.445 156.397C308.462 159.731 306.407 163.174 305.066 167.297C304.655 168.561 304.282 169.735 303.934 170.836C301.218 179.382 300.574 181.414 295.357 185.232C290.912 188.486 287.738 193.889 284.378 199.613C281.828 203.955 277.081 212.038 274.616 211.688C273.917 211.588 272.916 210.918 271.797 209.799C269.546 207.548 267.228 203.913 264.988 200.4C262.418 196.368 259.763 192.202 256.592 189.031L256.589 189.028C254.729 187.168 252.856 185.804 250.867 184.857C243.499 181.352 235.794 179.978 228.996 178.766C225.08 178.071 221.38 177.413 218.505 176.453C204.55 171.799 200.165 181.069 197.265 187.204C196.134 189.59 194.855 192.295 192.972 195.223C191.93 196.379 186.585 197.906 183.39 198.818C175.386 201.103 166.312 203.692 163.702 211.948C162.691 215.152 161.215 218.665 159.793 222.065C157.404 227.765 154.935 233.658 154.046 239.309C152.98 246.093 151.891 248.65 150.74 251.358C149.465 254.356 148.017 257.75 146.927 265.031C145.687 273.322 147.85 279.308 149.153 282.896C143.454 284.94 138.525 285.899 131.837 279.211C131.32 278.694 130.799 278.136 130.276 277.532C129.788 276.976 129.263 276.416 128.7 275.854C126.844 273.998 124.711 272.227 122.452 270.353C119.994 268.312 117.45 266.2 115.066 263.816C112.47 261.22 110.471 258.692 108.958 256.089C108.681 254.137 111.032 248.369 112.451 244.897C115.741 236.836 119.141 228.499 115.648 221.326C114.439 218.843 112.703 216.486 110.343 214.126C108.303 212.086 106.082 210.314 103.934 208.601C102.014 207.07 100.2 205.623 98.737 204.159C97.389 202.811 96.51 201.612 96.048 200.492C94.933 197.794 95.498 193.597 96.092 189.154C96.815 183.763 97.633 177.653 95.66 171.828C93.821 166.403 90.567 161.978 87.694 158.071C85.132 154.588 82.712 151.299 81.897 148.102C80.994 144.56 81.819 140.389 82.694 135.971C83.63 131.237 84.6 126.343 83.831 121.096C83.352 117.798 81.67 114.751 78.7 111.78C75.058 108.138 69.906 105.073 64.922 102.112C61.0528 99.811 57.0517 97.433 55.1284 95.51C55.1084 95.49 55.0912 95.473 55.0726 95.454C56.412 93.162 62.8687 89.332 65.797 87.595C71.814 84.022 77.499 80.649 79.863 75.406C83.077 68.265 83.077 68.265 90.255 66.141C98.422 63.725 102.129 64.25 110.641 66.37C119.195 68.503 126.144 71.113 134.623 75.379C140.951 78.561 148.273 77.87 154.73 77.26C159.037 76.851 163.921 76.389 166.231 77.531C169.323 79.061 172.489 82.177 175.554 85.194C180.648 90.211 185.918 95.401 193.254 96.423C203.308 97.822 222.025 100.427 233.291 91.662C239.322 86.974 240.369 77.962 241.385 69.247C241.784 65.814 242.438 60.226 243.377 58.28C251.624 54.855 263.461 51.996 270.061 51.836C270.141 51.905 270.241 51.993 270.364 52.116C272.239 53.991 274.411 58.31 276.326 62.122C278.811 67.063 281.377 72.17 284.812 75.605C285.679 76.472 286.593 77.223 287.52 77.833C289.773 79.31 292.002 80.437 294.154 81.522C297.311 83.116 300.039 84.493 302.201 86.655C303.137 87.591 303.935 88.638 304.637 89.86C305.228 90.883 305.989 91.871 306.902 92.784C310.144 96.026 314.955 98.107 320.051 100.312C324.181 102.098 328.866 104.127 330.97 106.231Z" fill="#3F8000"/>
<path d="M298.646 116.884C294.754 123.553 291.354 131.546 291.275 140.958C290.82 141.797 290.107 142.993 289.544 143.94C287.243 147.804 284.109 153.064 281.929 159.766C281.492 161.108 281.098 162.343 280.733 163.503C280.41 164.516 280.065 165.608 279.761 166.524C277.614 168.223 275.696 170.066 273.966 171.985C273.913 171.932 273.859 171.878 273.806 171.825C269.949 167.968 265.866 165.042 261.327 162.884C250.997 157.968 240.753 156.144 233.27 154.811C230.793 154.369 227.414 153.77 226.217 153.37C215.983 149.958 186.149 150.311 160.215 171.958C152.289 178.573 140.544 197.547 139.507 200.035C139.392 199.789 140.381 204.421 125.613 199.098C115.893 195.593 125.632 197.156 121.332 192.856C118.853 190.377 122.595 192.371 120.446 190.642C121.323 183.858 122.202 174.322 118.716 164.024C115.665 155.026 110.838 148.459 107.311 143.664C106.996 143.238 110.345 149.09 109.981 148.592C110.083 148.064 106.864 142.27 106.957 141.794C108.107 135.994 109.286 126.959 107.913 117.576C106.676 109.106 96.423 104.139 96.086 94.75C96.003 92.449 97.989 89.993 100.222 88.954C100.995 88.597 102.59 89.445 104.759 89.986C111.528 91.672 116.834 93.672 123.686 97.118C136.269 103.447 148.754 102.27 157.014 101.488C157.128 101.477 157.251 101.465 157.376 101.453C157.765 101.833 158.136 102.198 158.469 102.526C164.891 108.851 174.582 118.396 189.896 120.528C202.546 122.288 224.977 154.987 244.357 139.909C252.796 133.348 260.756 95.657 262.95 87.39C264.337 89.26 265.875 91.088 267.604 92.817C269.643 94.856 271.851 96.66 274.168 98.181C277.596 100.428 280.7 101.995 283.194 103.253C283.707 103.51 284.313 103.819 284.846 104.094C286.244 106.191 287.868 108.167 289.695 109.994C292.509 112.805 295.57 115.036 298.646 116.884Z" fill="#1D732D"/>
<path d="M295.073 100.238C295.073 100.238 285.631 71.103 261.336 67.171C237.042 63.237 269.744 76.332 272.517 78.135C279.665 82.787 295.073 100.238 295.073 100.238Z" fill="#528221"/>
<path d="M121.506 223.182C121.908 222.78 122.568 222.844 123.032 222.555C123.51 222.258 124.068 222.595 124.592 222.421C125.12 222.242 125.314 221.094 125.867 221.04C126.42 220.987 127.013 220.666 127.567 220.736C128.115 220.807 127.974 223.016 128.501 223.208C129.019 223.397 129.574 222.79 130.051 223.095C130.51 223.388 131.031 223.317 131.435 223.72C131.838 224.124 131.596 224.752 131.89 225.211C132.194 225.688 131.777 226.128 131.963 226.647C132.154 227.173 132.515 227.27 132.585 227.818C132.657 228.374 133.655 228.686 133.601 229.238C133.55 229.793 134.358 230.519 134.182 231.05C134.006 231.572 134.809 232.83 134.511 233.308C134.225 233.774 132.365 233.236 131.963 233.638C131.56 234.04 130.265 232.943 129.799 233.229C129.32 233.525 129.318 233.959 128.796 234.132C128.268 234.311 128.292 237.037 127.735 237.087C127.184 237.14 126.458 236.25 125.902 236.178C125.353 236.107 125.127 234.859 124.599 234.666C124.082 234.478 122.723 235.889 122.248 235.586C121.787 235.291 122.932 233.03 122.529 232.628C122.126 232.224 120.698 232.837 120.403 232.376C120.1 231.901 118.629 231.821 118.441 231.304C118.248 230.776 119.343 229.765 119.273 229.217C119.2 228.663 121.127 228.269 121.183 227.718C121.233 227.162 120.88 226.9 121.057 226.37C121.232 225.847 119.23 224.348 119.526 223.869C119.815 223.402 121.104 223.584 121.506 223.182Z" fill="#26541B"/>
<path d="M101.604 139.787C101.975 140.015 102.043 140.516 102.341 140.813C102.647 141.117 102.494 141.59 102.719 141.949C102.946 142.314 103.838 142.253 103.975 142.656C104.114 143.058 104.457 143.442 104.502 143.867C104.55 144.29 102.876 144.577 102.827 145.003C102.779 145.421 103.331 145.73 103.187 146.135C103.052 146.533 103.195 146.908 102.969 147.28C102.739 147.65 102.228 147.586 101.936 147.884C101.637 148.197 101.232 147.961 100.88 148.193C100.522 148.43 100.514 148.719 100.117 148.87C99.716 149.021 99.664 149.821 99.241 149.88C98.819 149.939 98.421 150.671 97.995 150.634C97.574 150.597 96.78 151.42 96.368 151.279C95.969 151.149 96.037 149.667 95.667 149.439C95.296 149.212 95.884 148.048 95.589 147.753C95.279 147.449 94.96 147.524 94.737 147.164C94.508 146.8 92.48 147.303 92.344 146.901C92.207 146.497 92.74 145.794 92.696 145.369C92.652 144.947 93.542 144.555 93.592 144.127C93.64 143.709 92.345 142.947 92.489 142.54C92.624 142.144 94.516 142.596 94.744 142.226C94.973 141.853 94.262 140.899 94.552 140.594C94.851 140.284 94.649 139.172 95.001 138.94C95.361 138.704 96.309 139.341 96.707 139.192C97.108 139.04 97.74 140.402 98.165 140.347C98.587 140.285 98.719 139.976 99.146 140.013C99.566 140.048 100.328 138.29 100.738 138.426C101.14 138.565 101.235 139.561 101.604 139.787Z" fill="#26541B"/>
<path d="M174.36 191.055C174.136 191.43 173.637 191.508 173.348 191.812C173.05 192.124 172.571 191.979 172.216 192.211C171.855 192.443 171.933 193.333 171.533 193.477C171.134 193.625 170.755 193.975 170.33 194.031C169.909 194.086 169.592 192.417 169.164 192.378C168.744 192.337 168.45 192.895 168.039 192.759C167.638 192.627 167.265 192.78 166.89 192.56C166.511 192.335 166.571 191.823 166.267 191.54C165.948 191.244 166.177 190.837 165.937 190.488C165.694 190.133 165.406 190.129 165.25 189.735C165.091 189.339 164.293 189.302 164.223 188.88C164.157 188.459 163.417 188.074 163.445 187.648C163.477 187.227 162.64 186.447 162.77 186.033C162.892 185.631 164.376 185.676 164.597 185.299C164.818 184.924 165.993 185.492 166.28 185.191C166.579 184.877 166.498 184.555 166.851 184.328C167.21 184.094 166.672 182.074 167.072 181.929C167.472 181.783 168.186 182.309 168.609 182.253C169.031 182.203 169.437 183.084 169.866 183.127C170.283 183.166 171.023 181.859 171.435 181.994C171.833 182.122 171.416 184.021 171.791 184.242C172.167 184.464 173.109 183.734 173.418 184.02C173.733 184.312 174.84 184.092 175.079 184.439C175.323 184.794 174.705 185.756 174.861 186.149C175.021 186.547 173.664 187.203 173.731 187.628C173.8 188.051 174.111 188.176 174.082 188.602C174.056 189.026 175.826 189.751 175.696 190.165C175.573 190.565 174.58 190.68 174.36 191.055Z" fill="#A27F00"/>
<path d="M288.741 183.462C288.517 183.837 288.018 183.916 287.729 184.219C287.431 184.531 286.952 184.387 286.597 184.618C286.238 184.849 286.314 185.74 285.914 185.885C285.515 186.032 285.136 186.383 284.712 186.437C284.29 186.493 283.974 184.823 283.546 184.784C283.127 184.743 282.832 185.301 282.421 185.165C282.021 185.033 281.647 185.186 281.272 184.966C280.893 184.741 280.955 184.228 280.65 183.946C280.331 183.65 280.56 183.243 280.319 182.894C280.076 182.539 279.788 182.535 279.632 182.141C279.473 181.745 278.675 181.708 278.605 181.286C278.539 180.865 277.799 180.48 277.828 180.053C277.859 179.633 277.022 178.853 277.152 178.439C277.274 178.037 278.758 178.082 278.98 177.705C279.202 177.329 280.375 177.898 280.663 177.596C280.962 177.283 280.88 176.961 281.234 176.734C281.593 176.5 281.055 174.48 281.454 174.335C281.855 174.189 282.569 174.714 282.991 174.659C283.413 174.608 283.819 175.49 284.249 175.533C284.665 175.572 285.405 174.265 285.817 174.4C286.212 174.528 285.798 176.427 286.173 176.648C286.55 176.869 287.49 176.141 287.799 176.427C288.114 176.719 289.221 176.499 289.46 176.847C289.704 177.201 289.085 178.163 289.241 178.557C289.402 178.954 288.045 179.61 288.112 180.035C288.182 180.457 288.492 180.583 288.463 181.009C288.437 181.433 290.207 182.158 290.079 182.571C289.955 182.974 288.961 183.087 288.741 183.462Z" fill="#A27F00"/>
<path d="M124.597 107.897C124.374 108.272 123.873 108.349 123.582 108.654C123.285 108.966 122.807 108.823 122.45 109.053C122.091 109.283 122.169 110.176 121.768 110.319C121.369 110.467 120.989 110.817 120.563 110.872C120.142 110.926 119.825 109.258 119.397 109.219C118.977 109.177 118.683 109.735 118.271 109.601C117.87 109.469 117.496 109.622 117.121 109.402C116.744 109.179 116.802 108.665 116.499 108.382C116.18 108.086 116.409 107.679 116.17 107.331C115.927 106.977 115.638 106.971 115.482 106.577C115.323 106.181 114.523 106.145 114.454 105.722C114.388 105.301 113.648 104.916 113.677 104.489C113.709 104.069 112.871 103.289 113.002 102.875C113.125 102.475 114.609 102.516 114.83 102.14C115.051 101.765 116.226 102.333 116.513 102.031C116.812 101.718 116.731 101.399 117.089 101.17C117.446 100.935 116.908 98.914 117.306 98.771C117.708 98.627 118.419 99.149 118.844 99.096C119.265 99.045 119.673 99.927 120.101 99.969C120.519 100.009 121.257 98.701 121.669 98.836C122.067 98.964 121.651 100.863 122.025 101.084C122.402 101.305 123.343 100.576 123.651 100.863C123.967 101.157 125.073 100.935 125.312 101.283C125.556 101.637 124.938 102.599 125.094 102.993C125.254 103.39 123.899 104.047 123.964 104.471C124.033 104.894 124.344 105.019 124.315 105.445C124.289 105.869 126.059 106.594 125.932 107.008C125.81 107.407 124.816 107.52 124.597 107.897Z" fill="#A27F00"/>
<path d="M150.569 263.079C150.346 263.454 149.846 263.533 149.556 263.835C149.258 264.147 148.78 264.004 148.424 264.234C148.063 264.466 148.142 265.357 147.741 265.5C147.342 265.648 146.964 266 146.538 266.051C146.117 266.106 145.799 264.437 145.373 264.397C144.954 264.356 144.657 264.915 144.247 264.779C143.846 264.648 143.473 264.801 143.098 264.58C142.72 264.357 142.78 263.845 142.475 263.56C142.157 263.262 142.385 262.857 142.146 262.51C141.903 262.155 141.614 262.149 141.458 261.756C141.3 261.361 140.5 261.322 140.433 260.9C140.364 260.479 139.626 260.096 139.655 259.669C139.685 259.247 138.849 258.469 138.979 258.055C139.101 257.653 140.585 257.694 140.807 257.318C141.027 256.943 142.202 257.511 142.489 257.209C142.789 256.896 142.707 256.574 143.063 256.349C143.422 256.113 142.883 254.094 143.284 253.951C143.684 253.805 144.396 254.327 144.821 254.274C145.241 254.223 145.65 255.104 146.077 255.147C146.495 255.187 147.235 253.881 147.647 254.015C148.042 254.144 147.628 256.043 148.002 256.262C148.379 256.485 149.32 255.754 149.627 256.042C149.943 256.335 151.05 256.113 151.289 256.461C151.533 256.817 150.914 257.777 151.071 258.169C151.231 258.567 149.876 259.224 149.943 259.649C150.011 260.071 150.321 260.196 150.291 260.624C150.265 261.047 152.037 261.774 151.908 262.186C151.782 262.593 150.788 262.703 150.569 263.079Z" fill="#A27F00"/>
<path d="M192.068 135.013C191.476 135.051 191.002 134.548 190.44 134.455C189.859 134.361 189.656 133.714 189.12 133.491C188.584 133.263 187.642 134.036 187.173 133.695C186.699 133.359 186.015 133.205 185.627 132.768C185.244 132.339 186.875 130.699 186.59 130.188C186.316 129.687 185.46 129.782 185.297 129.218C185.135 128.667 184.676 128.362 184.638 127.775C184.597 127.179 185.221 126.852 185.305 126.29C185.393 125.705 186.028 125.648 186.233 125.111C186.446 124.566 186.228 124.237 186.55 123.76C186.874 123.276 186.303 122.351 186.725 121.948C187.147 121.552 187.007 120.424 187.512 120.128C188.01 119.839 188.242 118.302 188.807 118.129C189.352 117.959 190.445 119.659 191.038 119.622C191.627 119.579 191.892 121.332 192.455 121.428C193.038 121.522 193.335 121.183 193.861 121.406C194.402 121.629 196.258 119.473 196.728 119.811C197.198 120.15 197.158 121.355 197.546 121.791C197.927 122.223 197.247 123.358 197.529 123.875C197.806 124.375 199.843 124.199 200.007 124.767C200.168 125.311 197.713 126.306 197.755 126.897C197.795 127.489 199.339 127.989 199.252 128.554C199.163 129.132 200.265 130.211 200.057 130.742C199.844 131.287 198.292 131.331 197.968 131.812C197.645 132.299 195.866 131.279 195.441 131.681C195.016 132.08 195.116 132.529 194.611 132.82C194.117 133.116 194.663 135.665 194.099 135.836C193.548 136.001 192.661 134.973 192.068 135.013Z" fill="#A27F00"/>
<path d="M266.247 137.66C266.031 137.106 266.367 136.504 266.284 135.94C266.2 135.358 266.752 134.968 266.802 134.392C266.857 133.814 265.838 133.147 266.021 132.597C266.197 132.043 266.138 131.344 266.438 130.841C266.731 130.348 268.79 131.405 269.189 130.977C269.584 130.562 269.235 129.778 269.722 129.452C270.2 129.131 270.35 128.603 270.899 128.386C271.453 128.167 271.958 128.663 272.518 128.573C273.1 128.48 273.345 129.066 273.92 129.1C274.506 129.139 274.752 128.832 275.305 128.994C275.864 129.157 276.575 128.331 277.086 128.613C277.591 128.892 278.622 128.422 279.058 128.811C279.483 129.199 281.019 128.953 281.354 129.439C281.683 129.906 280.391 131.464 280.609 132.016C280.826 132.566 279.235 133.35 279.315 133.914C279.401 134.498 279.816 134.678 279.76 135.249C279.711 135.83 282.329 136.947 282.148 137.497C281.968 138.046 280.809 138.373 280.509 138.874C280.212 139.367 278.924 139.067 278.518 139.49C278.127 139.907 278.91 141.794 278.418 142.123C277.95 142.44 276.26 140.403 275.708 140.621C275.157 140.837 275.145 142.46 274.578 142.548C274 142.64 273.306 144.015 272.734 143.978C272.153 143.941 271.639 142.474 271.087 142.311C270.526 142.148 270.958 140.144 270.446 139.861C269.936 139.58 269.541 139.809 269.109 139.417C268.677 139.037 266.416 140.327 266.078 139.841C265.752 139.372 266.463 138.214 266.247 137.66Z" fill="#A27F00"/>
<path d="M233.305 164.179C233.404 163.888 233.739 163.763 233.896 163.511C234.058 163.252 234.408 163.282 234.62 163.073C234.838 162.861 234.656 162.256 234.912 162.097C235.168 161.938 235.378 161.642 235.665 161.545C235.948 161.447 236.406 162.555 236.709 162.52C237.006 162.49 237.129 162.058 237.433 162.094C237.727 162.127 237.963 161.968 238.255 162.068C238.547 162.166 238.58 162.528 238.833 162.684C239.093 162.841 238.995 163.157 239.212 163.363C239.431 163.574 239.627 163.535 239.793 163.784C239.959 164.036 240.521 163.951 240.626 164.231C240.73 164.512 241.3 164.673 241.34 164.973C241.38 165.268 242.07 165.689 242.043 165.994C242.013 166.287 240.979 166.47 240.881 166.763C240.782 167.054 239.889 166.831 239.732 167.08C239.571 167.34 239.671 167.549 239.461 167.759C239.248 167.973 239.908 169.29 239.654 169.449C239.397 169.607 238.829 169.348 238.542 169.445C238.258 169.541 237.848 168.989 237.546 169.021C237.252 169.053 236.927 170.065 236.625 170.029C236.332 169.996 236.346 168.622 236.053 168.523C235.762 168.425 235.214 169.064 234.961 168.911C234.699 168.752 233.966 169.064 233.751 168.858C233.533 168.648 233.824 167.898 233.658 167.646C233.491 167.396 234.334 166.742 234.227 166.46C234.118 166.177 233.886 166.137 233.844 165.835C233.803 165.538 232.472 165.289 232.504 164.983C232.534 164.69 233.203 164.469 233.305 164.179Z" fill="#26541B"/>
<path d="M150.047 94.659C150.146 94.368 150.481 94.242 150.637 93.992C150.799 93.733 151.149 93.763 151.362 93.553C151.577 93.341 151.397 92.737 151.653 92.578C151.909 92.419 152.119 92.12 152.407 92.024C152.689 91.925 153.147 93.033 153.45 93.002C153.746 92.972 153.87 92.539 154.176 92.577C154.468 92.608 154.705 92.451 154.997 92.551C155.289 92.648 155.32 93.012 155.575 93.166C155.837 93.325 155.738 93.638 155.953 93.844C156.172 94.055 156.371 94.016 156.537 94.265C156.703 94.517 157.265 94.433 157.37 94.712C157.474 94.994 158.044 95.154 158.085 95.453C158.125 95.748 158.815 96.168 158.786 96.472C158.758 96.766 157.725 96.95 157.626 97.243C157.526 97.532 156.634 97.31 156.475 97.561C156.315 97.821 156.415 98.03 156.203 98.242C155.99 98.455 156.65 99.77 156.397 99.932C156.139 100.089 155.572 99.829 155.285 99.925C155.001 100.022 154.592 99.47 154.29 99.503C153.994 99.535 153.669 100.544 153.367 100.511C153.072 100.477 153.088 99.105 152.796 99.005C152.504 98.907 151.958 99.545 151.704 99.392C151.442 99.234 150.708 99.547 150.492 99.339C150.273 99.129 150.565 98.379 150.401 98.129C150.233 97.878 151.075 97.226 150.967 96.944C150.859 96.661 150.625 96.619 150.585 96.319C150.544 96.022 149.213 95.771 149.245 95.467C149.275 95.171 149.946 94.949 150.047 94.659Z" fill="#26541B"/>
<path d="M294.071 95.669C294.169 95.379 294.504 95.253 294.66 95.002C294.822 94.746 295.174 94.775 295.386 94.566C295.6 94.354 295.42 93.747 295.675 93.59C295.931 93.431 296.143 93.134 296.43 93.038C296.712 92.939 297.17 94.047 297.472 94.014C297.77 93.982 297.893 93.553 298.198 93.589C298.491 93.622 298.73 93.463 299.019 93.563C299.312 93.662 299.344 94.025 299.597 94.178C299.859 94.337 299.76 94.65 299.976 94.858C300.195 95.068 300.393 95.028 300.559 95.277C300.726 95.531 301.287 95.445 301.392 95.724C301.497 96.007 302.067 96.167 302.107 96.465C302.146 96.761 302.837 97.18 302.81 97.485C302.781 97.78 301.748 97.963 301.648 98.255C301.549 98.546 300.657 98.324 300.497 98.573C300.338 98.832 300.44 99.042 300.228 99.254C300.015 99.467 300.673 100.784 300.42 100.943C300.162 101.1 299.596 100.839 299.309 100.937C299.025 101.035 298.617 100.482 298.315 100.515C298.02 100.546 297.695 101.555 297.392 101.523C297.097 101.489 297.113 100.114 296.821 100.017C296.529 99.916 295.982 100.558 295.728 100.403C295.467 100.246 294.733 100.559 294.517 100.351C294.298 100.141 294.59 99.391 294.425 99.138C294.258 98.888 295.101 98.236 294.992 97.953C294.885 97.671 294.652 97.63 294.61 97.331C294.569 97.032 293.238 96.783 293.269 96.479C293.299 96.183 293.97 95.961 294.071 95.669Z" fill="#26541B"/>
<path d="M284.663 134.295C284.762 134.004 285.097 133.878 285.254 133.626C285.416 133.367 285.766 133.397 285.978 133.189C286.194 132.975 286.014 132.371 286.27 132.213C286.526 132.054 286.735 131.756 287.024 131.659C287.305 131.561 287.764 132.668 288.067 132.636C288.363 132.606 288.487 132.174 288.791 132.21C289.083 132.241 289.321 132.084 289.613 132.184C289.905 132.281 289.938 132.643 290.191 132.799C290.451 132.957 290.354 133.272 290.569 133.478C290.788 133.688 290.985 133.651 291.151 133.9C291.318 134.153 291.879 134.067 291.984 134.346C292.088 134.628 292.658 134.788 292.699 135.087C292.739 135.382 293.429 135.803 293.401 136.106C293.372 136.401 292.339 136.584 292.241 136.876C292.141 137.165 291.25 136.943 291.091 137.194C290.931 137.454 291.032 137.662 290.82 137.874C290.607 138.087 291.267 139.405 291.014 139.564C290.756 139.721 290.188 139.462 289.9 139.558C289.617 139.655 289.208 139.103 288.906 139.136C288.611 139.167 288.285 140.177 287.984 140.143C287.689 140.109 287.705 138.737 287.412 138.638C287.121 138.539 286.573 139.179 286.32 139.026C286.058 138.867 285.325 139.179 285.109 138.971C284.89 138.761 285.182 138.011 285.018 137.761C284.85 137.51 285.692 136.858 285.584 136.576C285.476 136.292 285.242 136.251 285.202 135.95C285.161 135.654 283.829 135.404 283.862 135.099C283.892 134.806 284.563 134.584 284.663 134.295Z" fill="#26541B"/>
<path d="M114.539 252.492C114.638 252.201 114.973 252.075 115.13 251.823C115.292 251.564 115.643 251.594 115.855 251.385C116.071 251.172 115.89 250.568 116.146 250.409C116.403 250.251 116.613 249.954 116.899 249.857C117.182 249.76 117.64 250.867 117.944 250.833C118.241 250.802 118.363 250.371 118.668 250.407C118.96 250.438 119.197 250.281 119.489 250.381C119.781 250.478 119.814 250.84 120.067 250.996C120.328 251.154 120.229 251.47 120.445 251.674C120.664 251.885 120.863 251.846 121.028 252.097C121.194 252.348 121.756 252.264 121.86 252.543C121.965 252.825 122.534 252.985 122.574 253.286C122.615 253.581 123.304 254.001 123.276 254.305C123.247 254.599 122.214 254.783 122.115 255.076C122.015 255.365 121.123 255.143 120.966 255.392C120.806 255.653 120.907 255.86 120.696 256.072C120.482 256.285 121.141 257.602 120.889 257.762C120.631 257.919 120.063 257.66 119.778 257.756C119.494 257.852 119.084 257.3 118.782 257.333C118.488 257.364 118.163 258.376 117.861 258.34C117.566 258.306 117.582 256.933 117.288 256.835C116.998 256.736 116.45 257.376 116.197 257.222C115.935 257.064 115.201 257.377 114.985 257.17C114.767 256.961 115.057 256.209 114.893 255.959C114.727 255.707 115.568 255.054 115.461 254.773C115.352 254.489 115.12 254.449 115.08 254.149C115.039 253.852 113.707 253.602 113.74 253.297C113.768 253.002 114.438 252.782 114.539 252.492Z" fill="#26541B"/>
<path d="M77.517 90.812C77.616 90.522 77.951 90.396 78.107 90.145C78.268 89.886 78.619 89.916 78.832 89.709C79.048 89.496 78.867 88.89 79.123 88.731C79.379 88.573 79.591 88.278 79.877 88.178C80.159 88.082 80.618 89.188 80.92 89.155C81.216 89.125 81.342 88.696 81.644 88.729C81.938 88.761 82.174 88.603 82.464 88.701C82.759 88.802 82.79 89.165 83.044 89.318C83.306 89.477 83.207 89.79 83.421 89.996C83.64 90.207 83.838 90.17 84.005 90.42C84.173 90.673 84.732 90.586 84.837 90.865C84.944 91.15 85.512 91.309 85.552 91.606C85.592 91.901 86.282 92.322 86.253 92.625C86.226 92.921 85.194 93.106 85.094 93.395C84.996 93.686 84.104 93.464 83.945 93.714C83.782 93.972 83.887 94.185 83.672 94.394C83.459 94.607 84.121 95.925 83.864 96.082C83.607 96.241 83.041 95.981 82.755 96.078C82.473 96.177 82.063 95.625 81.76 95.656C81.461 95.686 81.14 96.699 80.836 96.663C80.544 96.632 80.558 95.258 80.268 95.159C79.971 95.058 79.428 95.699 79.173 95.544C78.912 95.387 78.178 95.697 77.965 95.493C77.746 95.282 78.034 94.528 77.871 94.279C77.702 94.028 78.546 93.378 78.439 93.096C78.331 92.814 78.097 92.771 78.057 92.471C78.015 92.174 76.686 91.924 76.714 91.618C76.744 91.324 77.42 91.107 77.517 90.812Z" fill="#D9AE00"/>
<path d="M211.081 165.55C211.181 165.261 211.515 165.133 211.672 164.881C211.834 164.625 212.184 164.653 212.396 164.444C212.611 164.232 212.429 163.627 212.687 163.466C212.941 163.309 213.155 163.013 213.441 162.912C213.724 162.815 214.182 163.923 214.484 163.89C214.782 163.858 214.906 163.43 215.208 163.463C215.501 163.496 215.738 163.337 216.028 163.436C216.323 163.536 216.356 163.898 216.608 164.053C216.868 164.21 216.771 164.525 216.985 164.731C217.204 164.942 217.403 164.903 217.571 165.153C217.737 165.405 218.296 165.318 218.402 165.598C218.511 165.882 219.077 166.042 219.118 166.34C219.158 166.634 219.847 167.055 219.817 167.357C219.79 167.653 218.758 167.838 218.657 168.128C218.558 168.419 217.667 168.197 217.508 168.448C217.346 168.704 217.45 168.917 217.236 169.126C217.023 169.339 217.684 170.658 217.428 170.814C217.171 170.973 216.603 170.714 216.319 170.81C216.037 170.909 215.627 170.356 215.324 170.388C215.026 170.417 214.704 171.431 214.4 171.395C214.108 171.364 214.122 169.99 213.831 169.891C213.537 169.788 212.991 170.431 212.737 170.276C212.475 170.117 211.741 170.431 211.528 170.226C211.309 170.016 211.596 169.262 211.433 169.013C211.264 168.761 212.109 168.111 212.001 167.829C211.894 167.547 211.659 167.504 211.618 167.205C211.576 166.909 210.247 166.659 210.275 166.353C210.31 166.063 210.984 165.845 211.081 165.55Z" fill="#D9AE00"/>
<path d="M275.246 174.74C275.345 174.449 275.68 174.323 275.836 174.073C275.998 173.814 276.348 173.844 276.562 173.634C276.776 173.422 276.596 172.818 276.852 172.659C277.108 172.5 277.32 172.205 277.606 172.105C277.888 172.006 278.346 173.114 278.649 173.083C278.946 173.053 279.07 172.622 279.373 172.656C279.665 172.688 279.903 172.53 280.192 172.628C280.487 172.728 280.518 173.091 280.773 173.246C281.033 173.403 280.936 173.718 281.149 173.923C281.368 174.133 281.569 174.096 281.735 174.348C281.899 174.598 282.46 174.512 282.566 174.793C282.673 175.075 283.24 175.235 283.282 175.534C283.322 175.829 284.011 176.249 283.981 176.551C283.953 176.849 282.922 177.032 282.822 177.324C282.722 177.613 281.83 177.391 281.673 177.643C281.509 177.899 281.613 178.113 281.398 178.321C281.185 178.535 281.849 179.854 281.59 180.01C281.335 180.17 280.769 179.91 280.481 180.006C280.198 180.103 279.79 179.552 279.487 179.584C279.189 179.615 278.868 180.628 278.562 180.591C278.272 180.561 278.286 179.187 277.994 179.087C277.698 178.985 277.154 179.627 276.901 179.473C276.637 179.313 275.906 179.627 275.692 179.42C275.473 179.21 275.76 178.456 275.597 178.207C275.428 177.955 276.271 177.304 276.165 177.024C276.056 176.74 275.822 176.697 275.782 176.397C275.742 176.102 274.411 175.85 274.441 175.545C274.474 175.252 275.148 175.033 275.246 174.74Z" fill="#D9AE00"/>
<path d="M265.781 123.963C265.88 123.672 266.215 123.547 266.371 123.296C266.534 123.039 266.885 123.069 267.096 122.86C267.313 122.646 267.131 122.041 267.387 121.882C267.643 121.723 267.855 121.429 268.142 121.33C268.423 121.233 268.882 122.339 269.184 122.306C269.48 122.276 269.606 121.847 269.91 121.881C270.203 121.914 270.441 121.756 270.73 121.854C271.025 121.954 271.056 122.317 271.309 122.47C271.571 122.629 271.472 122.943 271.687 123.149C271.906 123.359 272.103 123.322 272.272 123.574C272.438 123.826 272.998 123.738 273.102 124.017C273.21 124.302 273.778 124.461 273.818 124.759C273.858 125.053 274.548 125.474 274.519 125.777C274.492 126.074 273.46 126.258 273.36 126.547C273.261 126.838 272.37 126.616 272.211 126.866C272.048 127.124 272.152 127.337 271.937 127.546C271.724 127.759 272.387 129.077 272.129 129.235C271.873 129.394 271.306 129.133 271.019 129.232C270.737 129.331 270.329 128.777 270.026 128.808C269.728 128.84 269.406 129.851 269.101 129.816C268.809 129.784 268.824 128.41 268.533 128.312C268.237 128.21 267.693 128.851 267.438 128.697C267.178 128.539 266.445 128.851 266.231 128.645C266.012 128.435 266.299 127.681 266.136 127.432C265.967 127.18 266.812 126.53 266.704 126.248C266.597 125.966 266.362 125.923 266.322 125.623C266.281 125.327 264.951 125.076 264.981 124.771C265.01 124.477 265.683 124.256 265.781 123.963Z" fill="#D9AE00"/>
<path d="M138.871 230.735C138.54 230.9 138.151 230.725 137.806 230.804C137.447 230.885 137.175 230.565 136.814 230.562C136.455 230.56 136.098 231.227 135.746 231.147C135.395 231.066 134.964 231.139 134.638 230.978C134.316 230.825 134.863 229.494 134.575 229.267C134.299 229.045 133.831 229.304 133.602 229.018C133.382 228.74 133.047 228.674 132.881 228.345C132.718 228.013 132.997 227.677 132.912 227.332C132.823 226.977 133.173 226.791 133.165 226.435C133.154 226.071 132.954 225.937 133.021 225.583C133.094 225.227 132.546 224.828 132.695 224.502C132.841 224.17 132.494 223.557 132.715 223.268C132.932 222.982 132.695 222.043 132.981 221.811C133.256 221.585 134.285 222.299 134.615 222.135C134.946 221.973 135.518 222.917 135.861 222.84C136.218 222.759 136.309 222.493 136.666 222.491C137.028 222.493 137.579 220.814 137.932 220.895C138.281 220.978 138.545 221.677 138.869 221.836C139.193 221.993 139.071 222.807 139.356 223.035C139.635 223.259 140.764 222.674 140.994 222.962C141.213 223.238 140.04 224.389 140.206 224.721C140.372 225.053 141.374 224.97 141.459 225.313C141.547 225.669 142.437 226.024 142.445 226.385C142.451 226.748 141.571 227.139 141.501 227.492C141.429 227.847 140.162 227.687 140.016 228.016C139.868 228.347 140.03 228.583 139.812 228.872C139.596 229.157 140.515 230.496 140.232 230.728C139.963 230.954 139.204 230.57 138.871 230.735Z" fill="#D9AE00"/>
<path d="M152.453 109.482C151.971 109.258 151.815 108.661 151.416 108.345C151.001 108.016 151.117 107.422 150.796 107.013C150.473 106.606 149.4 106.807 149.175 106.339C148.952 105.869 148.478 105.444 148.369 104.938C148.252 104.434 150.24 103.852 150.24 103.322C150.241 102.814 149.527 102.518 149.643 102.004C149.756 101.505 149.528 101.071 149.75 100.583C149.978 100.104 150.607 100.115 150.918 99.707C151.24 99.291 151.762 99.516 152.157 99.189C152.556 98.85 152.531 98.501 152.989 98.261C153.452 98.02 153.409 97.044 153.91 96.918C154.415 96.782 154.793 95.841 155.315 95.828C155.833 95.814 156.678 94.706 157.196 94.818C157.696 94.921 157.822 96.724 158.303 96.947C158.784 97.173 158.237 98.667 158.635 98.982C159.05 99.314 159.429 99.175 159.753 99.576C160.078 99.986 162.463 99.095 162.691 99.566C162.914 100.035 162.36 100.958 162.476 101.469C162.59 101.975 161.564 102.569 161.564 103.096C161.563 103.613 163.239 104.355 163.123 104.875C163.01 105.368 160.657 105.082 160.433 105.57C160.208 106.052 161.202 107.11 160.892 107.518C160.571 107.936 160.969 109.258 160.576 109.591C160.172 109.929 158.939 109.285 158.475 109.523C158.01 109.764 157.048 108.193 156.546 108.323C156.041 108.456 155.922 108.853 155.401 108.864C154.886 108.879 154.206 111.118 153.688 111.006C153.189 110.908 152.937 109.709 152.453 109.482Z" fill="#D9AE00"/>
<path d="M90.072 111.211C90.474 110.809 91.129 110.872 91.594 110.585C92.074 110.288 92.629 110.623 93.153 110.449C93.684 110.273 93.874 109.121 94.431 109.071C94.983 109.016 95.577 108.694 96.131 108.767C96.679 108.837 96.537 111.046 97.064 111.237C97.579 111.426 98.135 110.818 98.611 111.121C99.073 111.418 99.594 111.346 99.994 111.747C100.398 112.15 100.157 112.78 100.452 113.241C100.756 113.716 100.335 114.156 100.524 114.674C100.715 115.201 101.079 115.301 101.149 115.849C101.222 116.403 102.219 116.714 102.167 117.267C102.112 117.82 102.922 118.547 102.745 119.076C102.57 119.6 103.373 120.858 103.075 121.336C102.788 121.801 100.93 121.266 100.528 121.668C100.126 122.07 98.828 120.969 98.364 121.258C97.886 121.556 97.885 121.987 97.36 122.163C96.83 122.34 96.852 125.063 96.299 125.118C95.746 125.168 95.017 124.276 94.463 124.206C93.913 124.136 93.688 122.887 93.16 122.694C92.645 122.508 91.284 123.917 90.809 123.614C90.348 123.319 91.494 121.06 91.089 120.655C90.687 120.252 89.26 120.866 88.966 120.406C88.662 119.931 87.191 119.85 87.001 119.331C86.809 118.804 87.905 117.794 87.837 117.247C87.764 116.694 89.691 116.3 89.743 115.745C89.797 115.193 89.442 114.929 89.62 114.4C89.794 113.876 87.792 112.378 88.09 111.9C88.376 111.43 89.668 111.615 90.072 111.211Z" fill="#54BA3C"/>
<path d="M249.657 64.135C250.06 63.733 250.715 63.796 251.181 63.507C251.661 63.211 252.215 63.544 252.738 63.37C253.271 63.195 253.461 62.043 254.016 61.992C254.569 61.937 255.163 61.618 255.716 61.688C256.266 61.76 256.123 63.966 256.649 64.158C257.167 64.347 257.721 63.739 258.199 64.042C258.66 64.337 259.181 64.265 259.583 64.668C259.985 65.07 259.745 65.702 260.039 66.16C260.343 66.635 259.923 67.074 260.111 67.594C260.303 68.121 260.666 68.221 260.738 68.77C260.808 69.324 261.805 69.634 261.752 70.188C261.698 70.741 262.509 71.469 262.33 71.997C262.156 72.521 262.959 73.779 262.661 74.257C262.373 74.725 260.516 74.189 260.114 74.591C259.712 74.994 258.412 73.892 257.95 74.182C257.472 74.48 257.469 74.912 256.947 75.085C256.416 75.261 256.439 77.986 255.887 78.04C255.33 78.09 254.604 77.199 254.049 77.127C253.501 77.057 253.275 75.809 252.746 75.615C252.23 75.429 250.87 76.838 250.394 76.535C249.937 76.24 251.08 73.98 250.676 73.577C250.273 73.173 248.848 73.786 248.553 73.328C248.249 72.853 246.777 72.771 246.588 72.253C246.395 71.725 247.492 70.716 247.422 70.168C247.351 69.616 249.277 69.221 249.328 68.669C249.383 68.116 249.026 67.851 249.204 67.322C249.378 66.798 247.377 65.3 247.676 64.821C247.963 64.356 249.255 64.537 249.657 64.135Z" fill="#54BA3C"/>
<path d="M305.263 115.143C305.634 115.44 305.645 115.989 305.927 116.348C306.218 116.719 305.993 117.21 306.186 117.626C306.382 118.051 307.355 118.103 307.45 118.561C307.546 119.011 307.866 119.475 307.859 119.943C307.851 120.404 306.006 120.491 305.897 120.946C305.79 121.394 306.344 121.796 306.139 122.221C305.936 122.63 306.043 123.055 305.747 123.429C305.449 123.798 304.904 123.659 304.551 123.947C304.184 124.245 303.778 123.938 303.366 124.142C302.945 124.348 302.896 124.66 302.447 124.768C301.993 124.879 301.83 125.734 301.364 125.746C300.902 125.75 300.374 126.493 299.919 126.393C299.468 126.297 298.499 127.079 298.073 126.876C297.66 126.684 297.929 125.09 297.559 124.794C297.19 124.499 297.981 123.319 297.699 122.96C297.407 122.59 297.047 122.628 296.855 122.21C296.656 121.788 294.399 122.061 294.3 121.604C294.209 121.149 294.879 120.463 294.887 119.996C294.894 119.534 295.909 119.232 296.022 118.772C296.129 118.33 294.833 117.331 295.042 116.908C295.242 116.499 297.224 117.238 297.523 116.868C297.819 116.494 297.177 115.368 297.532 115.082C297.898 114.784 297.829 113.554 298.241 113.35C298.662 113.142 299.602 113.959 300.05 113.848C300.502 113.74 301.008 115.301 301.474 115.292C301.936 115.285 302.122 114.965 302.58 115.065C303.031 115.161 304.088 113.359 304.512 113.562C304.926 113.755 304.893 114.847 305.263 115.143Z" fill="#54BA3C"/>
<path d="M100.991 66.95C101.532 67.133 101.762 67.75 102.226 68.042C102.704 68.34 102.649 68.987 103.037 69.38C103.428 69.779 104.548 69.443 104.837 69.918C105.131 70.389 105.682 70.78 105.859 71.309C106.039 71.833 103.997 72.679 104.057 73.237C104.115 73.783 104.907 74.012 104.845 74.573C104.783 75.118 105.078 75.553 104.895 76.091C104.711 76.632 104.039 76.695 103.757 77.16C103.465 77.644 102.884 77.464 102.505 77.86C102.117 78.265 102.186 78.634 101.725 78.941C101.26 79.248 101.423 80.279 100.904 80.477C100.383 80.672 100.089 81.721 99.534 81.795C98.986 81.868 98.215 83.146 97.655 83.091C97.11 83.038 96.768 81.133 96.23 80.953C95.69 80.768 96.105 79.117 95.642 78.828C95.164 78.53 94.776 78.72 94.39 78.328C93.996 77.929 91.562 79.152 91.27 78.68C90.978 78.205 91.456 77.155 91.277 76.63C91.096 76.104 92.119 75.353 92.059 74.792C91.997 74.247 90.132 73.65 90.194 73.088C90.257 72.547 92.791 72.577 92.974 72.036C93.159 71.497 91.977 70.486 92.259 70.021C92.552 69.539 91.976 68.184 92.358 67.785C92.745 67.38 94.134 67.918 94.596 67.613C95.062 67.304 96.264 68.858 96.785 68.657C97.305 68.464 97.383 68.028 97.939 67.953C98.485 67.879 98.945 65.422 99.505 65.476C100.045 65.526 100.45 66.767 100.991 66.95Z" fill="#54BA3C"/>
<path d="M166.503 147.831C166.941 148.192 166.945 148.852 167.275 149.285C167.616 149.735 167.338 150.318 167.563 150.824C167.791 151.337 168.954 151.413 169.061 151.961C169.17 152.505 169.546 153.065 169.528 153.624C169.512 154.178 167.301 154.248 167.161 154.795C167.024 155.327 167.686 155.821 167.427 156.323C167.18 156.811 167.303 157.323 166.941 157.762C166.579 158.205 165.928 158.026 165.5 158.362C165.056 158.711 164.578 158.336 164.08 158.574C163.573 158.814 163.512 159.188 162.971 159.311C162.427 159.437 162.217 160.46 161.659 160.46C161.106 160.46 160.46 161.338 159.914 161.211C159.376 161.091 158.204 162.014 157.698 161.762C157.207 161.52 157.558 159.621 157.118 159.259C156.678 158.899 157.646 157.498 157.314 157.066C156.972 156.618 156.542 156.659 156.317 156.157C156.088 155.645 153.381 155.937 153.272 155.39C153.166 154.843 153.982 154.03 154 153.474C154.014 152.921 155.237 152.572 155.378 152.03C155.513 151.498 153.977 150.283 154.233 149.78C154.481 149.295 156.842 150.214 157.206 149.773C157.566 149.332 156.815 147.972 157.244 147.634C157.686 147.286 157.623 145.812 158.12 145.576C158.627 145.333 159.74 146.326 160.276 146.201C160.823 146.078 161.401 147.956 161.958 147.952C162.512 147.953 162.742 147.574 163.284 147.698C163.825 147.821 165.119 145.683 165.623 145.93C166.118 146.164 166.062 147.471 166.503 147.831Z" fill="#54BA3C"/>
<path d="M181.38 111.712C181.879 111.733 182.234 112.017 182.698 112.103C183.174 112.19 183.297 112.531 183.727 112.679C184.158 112.827 185 112.496 185.368 112.701C185.736 112.903 186.297 113.026 186.586 113.275C186.874 113.519 185.392 114.248 185.59 114.528C185.782 114.803 186.501 114.81 186.597 115.109C186.689 115.398 187.048 115.583 187.038 115.888C187.027 116.191 186.481 116.318 186.37 116.599C186.254 116.892 185.72 116.879 185.508 117.14C185.291 117.406 185.447 117.585 185.142 117.807C184.836 118.033 185.241 118.541 184.859 118.717C184.479 118.893 184.51 119.478 184.066 119.593C183.631 119.71 183.32 120.475 182.837 120.527C182.369 120.577 181.583 119.64 181.088 119.62C180.589 119.601 180.503 118.691 180.039 118.605C179.561 118.519 179.288 118.672 178.863 118.525C178.429 118.375 176.719 119.352 176.351 119.147C175.986 118.946 176.11 118.336 175.819 118.086C175.531 117.841 176.188 117.307 175.991 117.027C175.795 116.753 174.083 116.711 173.989 116.41C173.897 116.121 176.017 115.776 176.029 115.474C176.039 115.169 174.79 114.813 174.903 114.531C175.018 114.239 174.183 113.622 174.398 113.362C174.613 113.096 175.914 113.177 176.217 112.954C176.523 112.728 177.936 113.362 178.318 113.186C178.7 113.01 178.652 112.777 179.095 112.658C179.531 112.542 179.269 111.207 179.753 111.155C180.218 111.114 180.882 111.695 181.38 111.712Z" fill="#54BA3C"/>
<path d="M224.036 156.594C224.318 156.604 224.514 156.883 224.78 156.963C225.051 157.041 225.115 157.381 225.355 157.524C225.599 157.664 226.084 157.319 226.287 157.516C226.495 157.715 226.812 157.827 226.973 158.073C227.133 158.314 226.277 159.063 226.384 159.34C226.49 159.611 226.9 159.606 226.95 159.905C226.997 160.19 227.199 160.371 227.189 160.676C227.177 160.982 226.865 161.117 226.795 161.399C226.723 161.694 226.422 161.689 226.296 161.953C226.165 162.22 226.254 162.398 226.075 162.625C225.899 162.858 226.122 163.359 225.901 163.541C225.677 163.721 225.687 164.304 225.434 164.428C225.185 164.551 224.996 165.324 224.722 165.381C224.454 165.437 224.023 164.517 223.74 164.505C223.458 164.498 223.419 163.587 223.159 163.509C222.89 163.432 222.731 163.588 222.491 163.448C222.247 163.305 221.26 164.309 221.052 164.111C220.846 163.913 220.928 163.302 220.766 163.06C220.605 162.815 220.989 162.273 220.882 161.997C220.773 161.725 219.8 161.708 219.752 161.41C219.704 161.123 220.917 160.743 220.928 160.44C220.938 160.135 220.231 159.8 220.301 159.516C220.373 159.224 219.906 158.62 220.032 158.356C220.16 158.089 220.898 158.146 221.075 157.923C221.256 157.691 222.047 158.302 222.269 158.12C222.489 157.937 222.463 157.703 222.717 157.578C222.967 157.456 222.84 156.127 223.115 156.067C223.385 156.011 223.751 156.584 224.036 156.594Z" fill="#54BA3C"/>
<path d="M163.364 176.38C163.648 176.391 163.845 176.672 164.108 176.749C164.379 176.828 164.445 177.168 164.685 177.311C164.928 177.451 165.413 177.107 165.618 177.306C165.824 177.503 166.142 177.615 166.302 177.861C166.464 178.103 165.607 178.851 165.714 179.127C165.82 179.399 166.231 179.395 166.279 179.692C166.326 179.977 166.53 180.16 166.518 180.464C166.507 180.77 166.195 180.905 166.125 181.186C166.056 181.481 165.751 181.477 165.625 181.74C165.496 182.009 165.585 182.187 165.406 182.414C165.229 182.646 165.452 183.147 165.23 183.329C165.01 183.509 165.017 184.091 164.765 184.217C164.515 184.339 164.326 185.112 164.05 185.17C163.782 185.226 163.351 184.306 163.068 184.294C162.786 184.287 162.749 183.374 162.488 183.297C162.219 183.22 162.059 183.377 161.82 183.236C161.575 183.094 160.588 184.098 160.382 183.901C160.175 183.702 160.256 183.091 160.094 182.849C159.934 182.606 160.316 182.064 160.21 181.786C160.102 181.514 159.127 181.495 159.08 181.199C159.033 180.912 160.243 180.534 160.256 180.229C160.266 179.924 159.561 179.588 159.631 179.306C159.701 179.013 159.236 178.41 159.362 178.144C159.489 177.876 160.226 177.935 160.405 177.711C160.582 177.479 161.377 178.093 161.597 177.909C161.817 177.726 161.793 177.493 162.045 177.367C162.294 177.247 162.168 175.916 162.443 175.856C162.713 175.797 163.082 176.37 163.364 176.38Z" fill="#54BA3C"/>
<path d="M133.769 265.654C134.05 265.665 134.25 265.945 134.513 266.023C134.785 266.103 134.849 266.442 135.088 266.584C135.332 266.724 135.818 266.38 136.021 266.578C136.227 266.775 136.545 266.887 136.707 267.135C136.867 267.375 136.01 268.123 136.117 268.4C136.223 268.671 136.634 268.667 136.683 268.965C136.73 269.252 136.933 269.433 136.922 269.736C136.91 270.042 136.598 270.177 136.528 270.459C136.459 270.754 136.155 270.749 136.03 271.011C135.901 271.28 135.99 271.458 135.811 271.685C135.634 271.917 135.857 272.418 135.635 272.6C135.413 272.781 135.422 273.362 135.169 273.49C134.918 273.611 134.729 274.384 134.453 274.443C134.185 274.499 133.755 273.578 133.471 273.564C133.191 273.558 133.154 272.645 132.892 272.567C132.623 272.489 132.464 272.645 132.224 272.505C131.98 272.362 130.993 273.367 130.787 273.169C130.579 272.97 130.661 272.359 130.499 272.117C130.339 271.874 130.721 271.332 130.615 271.054C130.506 270.782 129.532 270.764 129.486 270.469C129.437 270.18 130.651 269.802 130.661 269.497C130.671 269.192 129.965 268.859 130.036 268.574C130.104 268.282 129.641 267.678 129.767 267.415C129.892 267.146 130.631 267.206 130.808 266.98C130.986 266.748 131.78 267.362 132.002 267.178C132.221 266.996 132.198 266.761 132.45 266.635C132.7 266.514 132.573 265.184 132.847 265.124C133.118 265.074 133.489 265.645 133.769 265.654Z" fill="#54BA3C"/>
</svg>
