<svg width="190" height="148" viewBox="0 0 190 148" fill="none" xmlns="http://www.w3.org/2000/svg">
<g style="mix-blend-mode:soft-light">
<path d="M38.3045 32.2114C31.1668 39.3491 17.4366 56.5735 17.4366 56.5735C12.5481 61.7559 14.9045 59.3638 9.97656 65.2559C4.78355 71.4649 0.522794 74.5106 2.48925 83.5563C8.35815 110.553 21.9184 138.72 52.7665 143.54C74.2924 146.903 96.0121 145.436 117.603 144.316C131.659 143.587 145.201 147.217 158.951 143.151C189.456 134.132 194.272 94.0236 180.692 69.1914C171.049 51.5575 152.735 39.6074 140.218 23.9612C135.368 17.8984 130.634 9.61958 124.106 5.13152C114.008 -1.81106 99.3664 4.65008 88.873 6.78154C68.3281 10.9547 52.9998 17.5161 38.3045 32.2114Z" fill="#D9D29E" stroke="#467084" stroke-width="3" stroke-linecap="round"/>
<path d="M43.2031 38.2948C36.6751 44.5072 24.1178 59.4986 24.1178 59.4986C19.647 64.0091 21.8021 61.9272 17.2951 67.0554C12.5458 72.4595 8.64899 75.1104 10.4475 82.9834C15.815 106.48 28.2169 130.995 56.4297 135.19C76.1166 138.118 95.9808 136.841 115.727 135.866C128.583 135.232 140.968 138.391 153.543 134.853C181.442 127.003 185.847 92.0937 173.427 70.4807C164.607 55.1328 147.858 44.732 136.41 31.1142C131.974 25.8373 127.645 18.6318 121.675 14.7255C112.439 8.683 99.0486 14.3065 89.4516 16.1617C70.6618 19.7938 56.643 25.5046 43.2031 38.2948Z" fill="#B0CE65"/>
<path d="M45.8594 41.7705C39.7922 47.3865 28.1213 60.9388 28.1213 60.9388C23.9661 65.0162 25.969 63.1342 21.7802 67.7701C17.3661 72.6554 13.7444 75.0518 15.4159 82.169C20.4045 103.41 31.931 125.572 58.1523 129.364C76.4496 132.011 94.9116 130.856 113.264 129.975C125.212 129.402 136.723 132.257 148.41 129.059C174.34 121.963 178.434 90.4047 166.891 70.8666C158.694 56.9921 143.127 47.5897 132.487 35.2792C128.364 30.509 124.341 23.9951 118.792 20.4639C110.208 15.0014 97.7628 20.0851 88.8433 21.7621C71.3798 25.0456 58.3505 30.2082 45.8594 41.7705Z" fill="#3F8000"/>
<path d="M56.3023 51.9511C51.6766 56.2186 42.7786 66.5168 42.7786 66.5168C39.6106 69.6152 47.2595 70.3629 45.3522 79.8614C41.9868 83.5737 41.5014 87.3712 42.7758 92.7795C46.5792 108.92 52.8088 100.916 72.8002 103.798C86.7503 105.809 93.7003 119.646 107.692 118.977C116.802 118.541 116.877 96.7297 125.788 94.2993C145.557 88.9069 147.931 79.8904 139.13 65.0437C132.88 54.5007 130.46 56.373 122.348 47.0185C119.205 43.3936 116.137 38.4438 111.907 35.7605C105.362 31.6097 96.3748 45.7442 89.5745 47.0186C76.2602 49.5137 65.8257 43.165 56.3023 51.9511Z" fill="#1D732D"/>
<path d="M137.857 87.933C137.857 87.933 138.576 55.0501 115.327 42.4778C92.0793 29.9044 120.617 54.7395 122.792 57.5479C128.398 64.7914 137.857 87.933 137.857 87.933Z" fill="#528221"/>
<path d="M61.9843 119.577C61.7446 119.98 61.2082 120.064 60.8978 120.39C60.5782 120.725 60.0634 120.57 59.6822 120.819C59.2965 121.066 59.3779 122.024 58.9492 122.179C58.5204 122.337 58.1132 122.714 57.6583 122.772C57.2049 122.832 56.8653 121.039 56.4058 120.997C55.9555 120.953 55.639 121.552 55.1979 121.406C54.7676 121.265 54.3665 121.429 53.9639 121.192C53.5566 120.951 53.6227 120.399 53.2954 120.097C52.9527 119.779 53.1985 119.342 52.9404 118.967C52.6791 118.586 52.3702 118.581 52.2027 118.159C52.0322 117.733 51.1746 117.693 51.0993 117.24C51.0286 116.788 50.2341 116.375 50.2648 115.917C50.2986 115.465 49.3996 114.627 49.5395 114.183C49.6701 113.751 51.2637 113.799 51.5019 113.395C51.7401 112.991 53.0003 113.602 53.3092 113.278C53.6304 112.941 53.5428 112.596 53.9224 112.351C54.3081 112.101 53.7303 109.931 54.159 109.776C54.5893 109.619 55.3562 110.183 55.8095 110.123C56.2629 110.069 56.6993 111.016 57.1604 111.062C57.6076 111.103 58.4021 109.7 58.8447 109.845C59.2688 109.983 58.8247 112.022 59.2273 112.259C59.6315 112.497 60.6412 111.715 60.9731 112.022C61.3112 112.336 62.5007 112.099 62.7573 112.473C63.0186 112.854 62.3547 113.887 62.5222 114.309C62.6943 114.736 61.2374 115.44 61.3097 115.897C61.385 116.35 61.7169 116.485 61.6862 116.943C61.6585 117.398 63.5595 118.177 63.4212 118.62C63.289 119.053 62.221 119.175 61.9843 119.577Z" fill="#A27F00"/>
<path d="M37.8286 70.3891C37.5965 69.7944 37.9576 69.1474 37.8685 68.5419C37.7778 67.9165 38.371 67.4985 38.4248 66.8791C38.4832 66.2583 37.389 65.5421 37.5857 64.952C37.7747 64.3573 37.7117 63.6058 38.0329 63.0664C38.348 62.5362 40.5594 63.6719 40.9882 63.2124C41.4123 62.7667 41.0373 61.9245 41.5598 61.5741C42.0731 61.2299 42.2345 60.6628 42.8246 60.4293C43.4193 60.1941 43.9618 60.7274 44.5627 60.6306C45.1882 60.5307 45.451 61.1593 46.0688 61.1961C46.6973 61.2376 46.9616 60.9087 47.5564 61.0824C48.1557 61.2576 48.9195 60.3709 49.4681 60.6736C50.0106 60.9733 51.1186 60.4677 51.5858 60.8857C52.0422 61.3022 53.6927 61.0379 54.0523 61.5604C54.4058 62.0613 53.0181 63.7349 53.2517 64.3281C53.4852 64.9182 51.7763 65.7603 51.8624 66.3658C51.9546 66.9928 52.4003 67.1865 52.3404 67.7997C52.2881 68.4236 55.0989 69.6238 54.9052 70.2139C54.7116 70.8041 53.4668 71.1544 53.1441 71.6923C52.826 72.2225 51.4429 71.8998 51.0064 72.3547C50.5869 72.8019 51.4275 74.8289 50.8988 75.1823C50.3963 75.5219 48.5814 73.3352 47.9882 73.5687C47.3965 73.8008 47.3842 75.5435 46.7757 75.6388C46.1548 75.7371 45.4095 77.214 44.7948 77.174C44.1708 77.1341 43.6191 75.5588 43.0259 75.3836C42.4235 75.2084 42.8876 73.057 42.3374 72.7527C41.7904 72.4515 41.3662 72.6974 40.9021 72.2763C40.438 71.8675 38.0099 73.2537 37.6472 72.7312C37.2968 72.2271 38.0606 70.9839 37.8286 70.3891Z" fill="#A27F00"/>
<path d="M138.453 82.9445C138.656 82.6848 139.04 82.6754 139.287 82.4765C139.541 82.2739 139.888 82.4273 140.177 82.2903C140.469 82.1513 140.501 81.4723 140.815 81.4026C141.131 81.3321 141.451 81.1051 141.776 81.1095C142.097 81.1089 142.17 82.394 142.488 82.4673C142.801 82.5405 143.077 82.1486 143.374 82.2926C143.66 82.4296 143.958 82.353 144.216 82.5568C144.479 82.7605 144.382 83.1403 144.585 83.385C144.794 83.6387 144.583 83.9216 144.729 84.2083C144.877 84.499 145.091 84.5282 145.172 84.8394C145.252 85.1554 145.851 85.2665 145.859 85.5864C145.866 85.9111 146.387 86.2749 146.322 86.5909C146.257 86.905 146.81 87.5744 146.674 87.8739C146.541 88.1627 145.429 87.9834 145.224 88.2441C145.021 88.5038 144.195 87.9639 143.945 88.1598C143.692 88.3663 143.721 88.6155 143.431 88.7555C143.14 88.8964 143.342 90.4641 143.029 90.5357C142.712 90.6043 142.23 90.1399 141.905 90.1375C141.581 90.137 141.364 89.4313 141.046 89.358C140.736 89.2858 140.05 90.1941 139.753 90.055C139.466 89.916 139.968 88.5269 139.707 88.3251C139.446 88.1204 138.665 88.5774 138.461 88.3306C138.253 88.079 137.398 88.1374 137.252 87.8506C137.104 87.5599 137.665 86.9026 137.588 86.5876C137.506 86.2745 138.591 85.912 138.581 85.5862C138.572 85.2624 138.35 85.138 138.414 84.82C138.477 84.502 137.215 83.7793 137.355 83.4827C137.49 83.1929 138.249 83.2051 138.453 82.9445Z" fill="#26541B"/>
<path d="M47.4892 110.21C47.5953 109.898 47.9549 109.763 48.1224 109.494C48.2961 109.216 48.6726 109.248 48.9015 109.022C49.1321 108.794 48.9384 108.146 49.2135 107.975C49.4886 107.805 49.7161 107.488 50.0234 107.381C50.3262 107.275 50.8179 108.464 51.1437 108.43C51.4618 108.398 51.5956 107.935 51.9213 107.972C52.2349 108.006 52.4899 107.837 52.8004 107.942C53.1169 108.049 53.1507 108.439 53.4243 108.605C53.704 108.774 53.5995 109.113 53.8285 109.332C54.0636 109.558 54.2787 109.518 54.457 109.789C54.6337 110.058 55.2362 109.966 55.3499 110.267C55.4651 110.569 56.0737 110.742 56.1183 111.063C56.1613 111.379 56.902 111.831 56.8697 112.155C56.839 112.475 55.7325 112.672 55.625 112.985C55.5174 113.296 54.56 113.058 54.3909 113.328C54.2142 113.603 54.3264 113.832 54.0959 114.056C53.8669 114.285 54.58 115.702 54.3018 115.87C54.0283 116.042 53.4197 115.762 53.1108 115.865C52.8065 115.97 52.3685 115.378 52.0427 115.412C51.7231 115.446 51.3788 116.534 51.05 116.494C50.738 116.461 50.7534 114.986 50.4399 114.879C50.1217 114.769 49.5378 115.458 49.2658 115.293C48.983 115.121 48.1977 115.458 47.9672 115.237C47.7321 115.011 48.041 114.201 47.8658 113.933C47.6844 113.663 48.5896 112.964 48.4759 112.663C48.3591 112.358 48.107 112.312 48.064 111.989C48.021 111.673 46.5918 111.402 46.624 111.075C46.6594 110.76 47.3832 110.525 47.4892 110.21Z" fill="#D9AE00"/>
<path d="M119.412 93.0008C119.962 92.7351 120.605 93.0305 121.18 92.9021C121.771 92.7711 122.215 93.3049 122.807 93.3129C123.409 93.324 124.009 92.223 124.59 92.3669C125.17 92.507 125.885 92.3932 126.422 92.66C126.954 92.9267 126.029 95.1139 126.495 95.4944C126.954 95.869 127.73 95.4479 128.108 95.9245C128.471 96.3862 129.024 96.4977 129.29 97.0476C129.556 97.5974 129.089 98.1539 129.226 98.7225C129.365 99.3115 128.785 99.6089 128.792 100.202C128.8 100.804 129.133 101.034 129.012 101.616C128.887 102.203 129.789 102.87 129.539 103.413C129.289 103.954 129.855 104.979 129.487 105.452C129.124 105.921 129.494 107.48 129.023 107.86C128.566 108.233 126.872 107.034 126.322 107.299C125.772 107.565 124.844 105.989 124.272 106.12C123.682 106.253 123.527 106.69 122.936 106.681C122.335 106.672 121.396 109.443 120.817 109.303C120.234 109.157 119.814 107.997 119.276 107.728C118.745 107.463 118.956 106.118 118.488 105.734C118.031 105.363 116.153 106.311 115.779 105.836C115.418 105.375 117.376 103.488 117.11 102.936C116.843 102.384 115.181 102.502 115.044 101.933C114.904 101.344 113.44 100.741 113.431 100.149C113.422 99.5452 114.891 98.9099 115.014 98.3293C115.137 97.7439 117.23 98.0239 117.477 97.4819C117.727 96.941 117.459 96.5466 117.826 96.0723C118.189 95.6029 116.688 93.3761 117.16 92.9956C117.616 92.6256 118.863 93.2665 119.412 93.0008Z" fill="#54BA3C"/>
<path d="M79.7329 46.2084C80.1309 46.5265 80.1432 47.1166 80.4459 47.5023C80.7579 47.9004 80.5166 48.4275 80.7241 48.8747C80.9346 49.3311 81.9796 49.3865 82.0811 49.8782C82.184 50.3623 82.5282 50.8602 82.5206 51.3627C82.5113 51.8576 80.5304 51.9513 80.4136 52.44C80.2984 52.921 80.8931 53.3529 80.6734 53.8093C80.4551 54.2488 80.5704 54.7052 80.2523 55.1063C79.9326 55.5028 79.3471 55.3538 78.9675 55.6627C78.5741 55.9823 78.1377 55.6534 77.6951 55.8716C77.2433 56.0929 77.191 56.428 76.7085 56.5448C76.2213 56.6631 76.0461 57.5821 75.5451 57.5944C75.0487 57.599 74.4817 58.3966 73.993 58.289C73.5089 58.186 72.4685 59.0267 72.0106 58.8085C71.568 58.6025 71.8569 56.8905 71.4588 56.5724C71.0623 56.2559 71.9122 54.988 71.6094 54.6023C71.2959 54.2058 70.9087 54.2458 70.7028 53.797C70.4891 53.3437 68.0656 53.6372 67.9596 53.147C67.8612 52.6583 68.5805 51.9206 68.5897 51.4196C68.5974 50.9233 69.6869 50.599 69.8083 50.1057C69.9236 49.6308 68.5313 48.5581 68.7556 48.1032C68.9708 47.6637 71.0992 48.4582 71.4204 48.0602C71.7385 47.6591 71.0485 46.4497 71.4297 46.1423C71.8231 45.8227 71.7493 44.501 72.1919 44.2828C72.6437 44.0584 73.6533 44.9359 74.1344 44.8176C74.62 44.7008 75.1625 46.3774 75.6635 46.3682C76.1599 46.3605 76.3596 46.0163 76.8514 46.1239C77.3355 46.2268 78.4712 44.292 78.9261 44.5103C79.3702 44.7177 79.3348 45.8903 79.7329 46.2084Z" fill="#54BA3C"/>
</g>
</svg>
