<svg width="241" height="246" viewBox="0 0 241 246" fill="none" xmlns="http://www.w3.org/2000/svg">
<g style="mix-blend-mode:soft-light">
<path opacity="0.25" d="M106.054 245.156C104.835 245.156 103.603 245.061 102.396 244.872C96.85 244.002 91.4493 242.109 87.1092 240.588C85.9247 240.173 84.7837 239.771 83.7122 239.423C72.3088 235.722 68.0512 225.903 65.7953 219.539C62.7222 218.29 58.9797 216.586 55.2068 213.841C49.9691 210.029 46.8503 205.484 44.7857 202.479C44.2967 201.768 43.6229 200.788 43.3556 200.486C39.1024 196.235 36.8617 191.673 35.373 188.374C30.972 186.498 23.9499 182.927 19.6815 175.145C19.3294 174.725 18.7122 174.049 18.3514 173.652C15.6587 170.696 11.6576 166.31 9.3234 159.875C8.97784 159.34 8.42147 158.54 8.1498 158.149C5.60048 154.474 1.74933 148.921 0.564864 141.393C-0.280563 136.007 0.0106653 130.733 0.245385 126.492C0.330145 124.91 0.414903 123.474 0.414903 122.228C0.414903 115.497 2.57737 109.766 4.00742 105.976C4.18781 105.5 4.42688 104.859 4.62465 104.311C4.54858 103.785 4.45948 103.22 4.40732 102.892C3.70099 98.4216 2.63171 91.6603 5.02238 84.2971C7.20658 77.5685 11.4055 72.7132 14.1851 69.4988C14.6329 68.9816 15.3979 68.0949 15.7869 67.5994C16.1411 66.8996 16.4976 66.1823 16.8562 65.4564C18.8795 61.3771 21.3963 56.3046 24.7475 51.6993C30.0679 44.3903 37.5224 42.041 43.6295 41.2825C45.0856 37.0923 47.6023 32.4522 52.225 28.725C52.5749 28.2664 52.9639 27.71 53.2725 27.2797C55.9045 23.6111 59.8751 18.0778 66.8689 14.507C73.0194 11.3665 79.2069 10.8384 83.3015 10.4907C84.0665 10.4255 85.2684 10.3212 85.8421 10.2364C88.4392 9.43661 91.1755 9.03239 93.9747 9.03239C96.6392 9.03239 99.0886 9.40184 101.245 9.89519C105.565 5.22252 112.092 0 121.783 0C131.006 0 137.207 4.66181 141.458 9.57572C144.205 8.57599 147.328 7.87833 150.833 7.87833C153.463 7.87833 156.054 8.28692 158.531 9.08888L159.351 9.35403C164.536 11.034 170.406 12.9379 176.031 15.8088C182.199 18.958 186.215 23.6002 188.871 26.6712C189.343 27.2167 190.084 28.0708 190.462 28.4598C197.128 33.4628 199.814 40.0241 201.407 44.3186C204.745 46.2051 210.05 49.3086 214.227 55.0484C217.114 59.0125 218.589 63.0832 219.437 66.5431C226.42 68.6773 235.787 72.8741 239.405 84.0167C243.111 95.4289 237.58 104.863 234.433 110.064C234.722 113.874 234.713 117.432 234.707 120.666L234.705 122.246C234.705 129.153 232.351 134.508 230.445 138.154C231.975 142.716 233.727 149.745 231.125 157.756C228.815 164.871 224.383 169.598 221.738 172.421C221.376 172.808 220.982 173.213 220.665 173.578C218.446 177.796 216.049 181.265 213.817 184.346C213.519 189.491 212.815 198.599 205.482 205.932C200.575 210.837 193.9 213.432 186.181 213.432C183.786 213.432 181.577 213.197 179.717 212.971C177.333 214.228 175.168 215.11 173.312 215.869C172.273 216.292 171.374 216.66 170.611 217.023C170.285 217.286 169.931 217.609 169.544 217.948C167.733 219.533 164.978 221.947 161.185 224.003C158.229 228.73 152.231 237.958 140.375 239.821C139.093 240.021 137.802 240.121 136.526 240.121C131.832 240.121 127.803 238.83 124.46 237.128C120.092 241.314 114.154 245.156 106.054 245.156Z" fill="#44A1CC"/>
<path d="M106.052 235.317C105.341 235.317 104.624 235.261 103.922 235.15C99.2578 234.418 94.5308 232.762 90.3624 231.301C89.1062 230.86 87.8913 230.434 86.7503 230.065C78.9133 227.522 76.3618 220.054 74.497 214.601C74.221 213.799 73.895 212.843 73.5951 212.056C72.8975 211.765 72.1672 211.478 71.4153 211.185C68.2313 209.939 64.6236 208.525 60.9963 205.886C57.1234 203.067 54.7784 199.655 52.8941 196.912C51.9574 195.552 51.1489 194.376 50.3948 193.618C46.9348 190.156 45.2788 186.437 43.9465 183.449C43.4792 182.399 43.075 181.491 42.6686 180.771C42.0927 180.499 41.2863 180.173 40.6865 179.93C36.9006 178.387 31.1825 176.062 28.079 169.983C27.7791 169.396 26.4838 167.972 25.6253 167.031C23.0912 164.252 19.9485 160.803 18.3381 155.843C18.1577 155.317 16.8081 153.374 16.2322 152.544C13.9523 149.258 11.1161 145.17 10.2837 139.869C9.59915 135.516 9.84689 131.013 10.0664 127.04C10.162 125.256 10.2511 123.636 10.2511 122.232C10.2511 117.297 11.892 112.948 13.2091 109.451C13.7959 107.895 14.4435 106.176 14.5848 105.27L16.6147 105.587C16.4408 106.702 15.7823 108.445 15.1477 110.133C13.8741 113.513 12.3049 117.668 12.3049 122.23C12.3049 123.667 12.2158 125.323 12.1202 127.079C11.9029 131.019 11.6616 135.407 12.3115 139.547C13.0721 144.383 15.7584 148.256 17.9187 151.368C19.0597 153.013 20.0268 154.437 20.2832 155.187C21.7633 159.742 24.7408 163.011 27.1336 165.636C28.4658 167.101 29.5112 168.274 29.9046 169.046C32.6626 174.442 37.9524 176.598 41.4537 178.022C42.2035 178.326 43.2532 178.756 43.8596 179.065L44.1204 179.198L44.2703 179.45C44.7919 180.313 45.2614 181.369 45.8069 182.59C47.0761 185.442 48.6496 188.969 51.84 192.162C52.7289 193.05 53.5874 194.298 54.5806 195.743C56.3758 198.358 58.61 201.609 62.196 204.221C65.6103 206.706 69.0876 208.068 72.1564 209.268C73.0713 209.626 73.9559 209.974 74.7883 210.328L75.1795 210.496L75.3381 210.889C75.688 211.761 76.101 212.958 76.4117 213.867C78.1591 218.976 80.5194 225.881 87.3784 228.109C88.5324 228.482 89.7625 228.915 91.0339 229.36C95.1198 230.793 99.7533 232.414 104.233 233.118C104.83 233.211 105.439 233.259 106.043 233.259C112.837 233.259 117.364 227.628 121.002 223.101L122.602 224.388C118.7 229.258 113.83 235.317 106.052 235.317Z" fill="#B3D9EB"/>
<path d="M136.531 230.276V228.222C137.201 228.222 137.874 228.17 138.537 228.068C145.292 227.007 148.906 221.22 151.297 217.39C151.771 216.632 152.425 215.584 152.903 214.923L153.077 214.684L153.351 214.574C157.067 213.07 159.638 210.816 161.703 209.008C162.885 207.973 163.894 207.089 164.793 206.632C166.086 205.972 167.399 205.437 168.788 204.867C171.224 203.874 173.941 202.766 176.801 200.912L177.083 200.727L177.42 200.747C178.24 200.797 179.307 200.929 180.348 201.06C182.141 201.284 184.16 201.534 186.185 201.534C190.747 201.534 194.411 200.182 197.076 197.517C201.405 193.188 201.744 187.207 201.97 183.252C202.02 182.369 202.096 181.035 202.216 180.261L202.255 180.015L202.916 179.109C205.487 175.597 208.136 171.978 210.466 167.414C210.842 166.682 211.781 165.654 213.065 164.285C215.288 161.914 218.329 158.669 219.82 154.077C221.593 148.613 219.759 143.512 218.544 140.135C218.246 139.302 217.84 138.166 217.675 137.503L217.594 137.183L217.716 136.877C217.973 136.223 218.496 135.251 219.055 134.23C220.644 131.322 222.819 127.338 222.819 122.224L222.821 120.631C222.83 116.519 222.841 112.27 222.258 107.783L222.217 107.47L222.358 107.189C222.784 106.342 223.549 105.077 224.101 104.17C226.672 99.9259 230.189 94.1188 228.1 87.6835C225.747 80.4376 218.099 78.4208 212.515 76.9494C211.676 76.7299 210.603 76.4452 209.688 76.1735L209.079 75.9932L208.968 75.3673C208.873 74.8174 208.782 74.2371 208.703 73.7307L210.735 73.4199C210.781 73.722 210.831 74.0502 210.885 74.3827C211.62 74.5914 212.398 74.7957 213.037 74.963C219.081 76.5561 227.355 78.7381 230.054 87.0489C232.434 94.3774 228.635 100.65 225.86 105.229C225.388 106.005 224.753 107.048 224.334 107.837C224.892 112.338 224.884 116.552 224.875 120.633L224.873 122.224C224.873 127.862 222.552 132.111 220.857 135.214C220.541 135.795 220.044 136.705 219.757 137.327C219.939 137.944 220.244 138.787 220.47 139.415C221.787 143.077 223.767 148.576 221.774 154.709C220.142 159.736 216.921 163.174 214.567 165.684C213.769 166.536 212.567 167.814 212.296 168.347C209.892 173.056 207.193 176.742 204.585 180.307L204.215 180.811C204.126 181.524 204.068 182.589 204.024 183.362C203.781 187.631 203.413 194.081 198.53 198.965C195.466 202.029 191.314 203.583 186.188 203.583C184.036 203.583 181.95 203.322 180.109 203.094C179.237 202.985 178.357 202.875 177.627 202.816C174.715 204.663 172.004 205.767 169.603 206.747C168.216 207.315 166.943 207.832 165.726 208.456C165.054 208.797 164.089 209.642 163.068 210.538C161.036 212.315 158.291 214.721 154.403 216.356C153.97 216.982 153.438 217.836 153.038 218.473C150.449 222.619 146.537 228.887 138.855 230.093C138.087 230.215 137.305 230.276 136.531 230.276Z" fill="#B3D9EB"/>
<path d="M16.3423 87.9726L14.3906 87.338C15.9598 82.5023 19.1067 78.862 21.6343 75.9389C22.621 74.8 23.9598 73.2504 24.3162 72.5506C24.7661 71.6683 25.2203 70.7554 25.6789 69.8274C27.6327 65.8893 29.8452 61.4254 32.7075 57.4938C37.5909 50.7847 45.6692 50.7695 51.0156 50.7564H51.4459C52.1914 46.3141 53.3911 40.0136 59.0504 35.893C59.4177 35.5996 60.7152 33.7936 61.2694 33.0199C63.5971 29.7772 66.4811 25.7566 71.3515 23.2703C75.7829 21.0078 80.4186 20.6123 84.1437 20.295C85.7194 20.1581 87.6428 19.9951 88.4839 19.7212C90.2226 19.1562 92.0721 18.8693 93.9824 18.8693C97.7749 18.8693 101.094 19.982 103.76 20.8753C104.025 20.9644 104.321 21.0622 104.627 21.1622C104.919 20.8101 105.206 20.4537 105.458 20.1407C109.002 15.7397 113.758 9.83691 121.79 9.83691C130.503 9.83691 135.074 16.8872 138.403 22.1597C141.744 20.0538 145.821 17.7152 150.841 17.7152C152.439 17.7152 154.01 17.9608 155.507 18.4455L156.327 18.7106C161.16 20.2776 166.637 22.0532 171.564 24.5678C176.021 26.8432 179.025 30.3162 181.437 33.1046C182.483 34.3108 183.648 35.6561 184.334 36.156C189.255 39.7355 191.107 44.7841 192.458 48.4679C192.741 49.2395 193.18 50.4283 193.456 50.989C194.062 51.465 195.216 52.1148 196.244 52.6951L195.236 54.4837C193.98 53.7752 192.682 53.045 191.969 52.4256L191.752 52.1604C191.428 51.5953 191.013 50.4913 190.544 49.2155C189.268 45.7382 187.542 41.0286 183.126 37.8142C182.248 37.1753 181.109 35.8604 179.903 34.4695C177.588 31.7941 174.73 28.4906 170.629 26.3977C165.848 23.9571 160.454 22.2075 155.694 20.6645L154.875 20.3993C153.582 19.9799 152.223 19.7669 150.841 19.7669C145.977 19.7669 141.909 22.3575 138.64 24.4395L137.775 24.9894L136.862 23.5615C133.72 18.5824 129.493 11.8864 121.79 11.8864C114.74 11.8864 110.341 17.3458 107.129 21.3338C106.668 21.9076 106.199 22.4879 105.755 23.0117L105.314 23.5311L104.664 23.3268C104.132 23.1594 103.571 22.9725 103.113 22.8204C100.583 21.9728 97.4402 20.9187 93.9824 20.9187C92.2894 20.9187 90.6507 21.1708 89.1185 21.6685C88.0557 22.0141 86.1715 22.1749 84.348 22.3314C80.7729 22.6357 76.3589 23.0117 72.286 25.0916C67.8611 27.3496 65.1358 31.1486 62.9472 34.1978C61.8345 35.7474 60.8717 37.0579 60.2936 37.5187C55.1058 41.2959 54.0931 47.3595 53.4237 51.3693L53.1846 52.7842L51.02 52.8016C46.0865 52.8102 38.6363 52.8276 34.3657 58.6913C31.6056 62.4816 29.4322 66.863 27.5175 70.7294C27.0546 71.6639 26.5982 72.5854 26.144 73.4743C25.7093 74.3262 24.5988 75.6368 23.1926 77.2624C20.7802 80.0638 17.7832 83.5303 16.3423 87.9726Z" fill="#B3D9EB"/>
<path d="M219.001 122.208C219.001 127.531 214.355 131.643 213.553 136.739C212.731 141.973 217.906 147.962 216.307 152.892C214.679 157.91 209.367 160.944 207 165.577C204.61 170.259 201.845 173.851 198.772 178.072C195.686 182.312 198.324 191.264 194.625 194.963C190.926 198.662 180.088 193.431 175.85 196.517C171.631 199.588 167.611 200.418 162.929 202.811C158.296 205.175 155.792 209.529 150.776 211.159C145.847 212.758 143.309 223.721 138.077 224.542C132.979 225.344 127.193 215.575 121.871 215.575C116.548 215.575 109.922 230.693 104.825 229.891C99.592 229.069 93.4197 226.548 88.4906 224.948C83.4724 223.318 83.0225 209.924 78.389 207.557C73.7076 205.167 68.8024 204.137 64.5818 201.066C60.3416 197.98 58.4834 192.996 54.7844 189.295C51.0854 185.596 50.4225 180.589 47.3364 176.348C44.2654 172.13 35.7547 171.982 33.364 167.301C30.9994 162.667 25.4074 159.096 23.7774 154.08C22.1779 149.151 16.5185 144.248 15.697 139.017C14.895 133.921 15.8078 127.529 15.8078 122.208C15.8078 116.888 19.4482 111.211 20.2501 106.115C21.0716 100.882 17.9899 93.9051 19.5894 88.976C21.2173 83.9578 27.0048 79.7089 29.3716 75.0754C31.7623 70.394 34.1986 64.9585 37.2695 60.7401C40.3556 56.4999 52.6915 60.4271 56.3905 56.7281C60.0895 53.0291 58.2769 43.5968 62.5149 40.5107C66.7334 37.4398 69.2523 30.5264 73.9336 28.1357C78.5672 25.7711 85.3002 26.7339 90.3184 25.1039C95.2475 23.5043 101.665 28.5465 106.897 27.725C111.993 26.923 116.546 15.2305 121.869 15.2305C127.191 15.2305 131.323 29.6071 136.419 30.4069C141.653 31.2284 148.927 22.1569 153.856 23.7564C158.874 25.3843 164.466 27.1447 169.102 29.5114C173.783 31.9021 176.8 37.7201 181.018 40.791C185.258 43.8772 185.308 51.3665 189.007 55.0655C192.706 58.7645 198.522 60.0359 201.608 64.2739C204.679 68.4924 203.61 74.6624 206.001 79.3438C208.365 83.9773 223.433 83.6579 225.063 88.6761C226.662 93.6052 217.482 101.694 218.304 106.926C219.11 112.026 219.001 116.886 219.001 122.208Z" fill="#D9D29E"/>
<path d="M104.486 223.197C101.461 222.552 97.9118 221.307 94.7301 220.194C93.55 219.779 92.4024 219.377 91.3049 219.011C90.6768 217.96 89.8379 215.51 89.3141 213.978C87.7298 209.345 85.9324 204.092 81.3532 201.753C79.2625 200.686 77.2521 199.899 75.3092 199.139C72.6403 198.093 70.3344 197.191 68.4197 195.796C66.8853 194.679 65.6422 192.868 64.2013 190.773C62.8842 188.857 61.3912 186.683 59.3939 184.688C58.1529 183.445 57.3705 181.691 56.3816 179.472C55.4297 177.333 54.3474 174.908 52.6065 172.515C50.0637 169.023 46.1604 167.432 43.0221 166.154C41.729 165.628 39.5644 164.746 39.0841 164.202C37.7257 161.509 35.6241 159.201 33.7681 157.167C32.1381 155.378 30.4537 153.529 29.98 152.071C28.9694 148.961 27.1351 146.316 25.3638 143.76C23.9576 141.732 22.3624 139.433 22.1407 138.009C21.7213 135.336 21.9147 131.763 22.106 128.31C22.2168 126.295 22.332 124.211 22.332 122.211C22.332 120.353 23.3209 117.736 24.275 115.204C25.2443 112.631 26.2483 109.973 26.6939 107.13C27.2263 103.738 26.683 100.289 26.2005 97.2462C25.8441 94.9968 25.4029 92.1953 25.7941 90.9913C26.3027 89.4243 28.1152 87.3292 29.8669 85.3015C31.7925 83.076 33.7855 80.7723 35.1807 78.0404C35.6893 77.0428 36.2022 76.0105 36.7216 74.9651C38.4038 71.5725 40.1403 68.0735 42.0485 65.2786C43.1982 65.0569 45.541 65.0525 47.0211 65.0504C51.8459 65.0417 57.314 65.0287 61.0043 61.3383C64.2426 58.1001 64.9989 53.5643 65.6096 49.9196C65.8334 48.5765 66.1986 46.3793 66.5941 45.6077C69.226 43.6191 71.1472 40.9416 72.849 38.5705C74.2073 36.6797 75.746 34.5368 76.9022 33.9456C78.3649 33.198 81.0316 32.9698 83.607 32.7503C86.4649 32.5069 89.4206 32.2548 92.3351 31.3094C93.4522 31.3116 95.2995 31.9309 96.9295 32.4786C99.5375 33.3523 102.491 34.3412 105.684 34.3412C106.444 34.3412 107.192 34.2847 107.911 34.1717C112.834 33.3979 116.137 29.2969 119.052 25.6783C119.734 24.8307 120.701 23.631 121.536 22.7334C122.357 23.8483 123.309 25.3588 123.977 26.4129C126.954 31.129 130.034 36.0081 135.411 36.8535C135.971 36.9405 136.541 36.9861 137.117 36.9861C141.394 36.9861 145.143 34.5976 148.453 32.4895C149.631 31.7397 151.515 30.54 152.495 30.1749L152.723 30.2488C157.4 31.7636 162.236 33.3306 166.139 35.3257C167.648 36.0951 169.362 38.0771 171.023 39.994C172.766 42.0087 174.741 44.2929 177.184 46.0707C177.854 46.5575 178.729 48.9481 179.31 50.5303C180.414 53.5404 181.666 56.9504 184.402 59.6844C186.679 61.9643 189.285 63.4334 191.587 64.7309C193.669 65.9045 195.466 66.9173 196.342 68.1213C197.085 69.1428 197.401 71.1966 197.733 73.3699C198.157 76.13 198.635 79.2575 200.2 82.3197C202.669 87.1553 208.287 88.6354 213.722 90.0676C214.974 90.398 216.774 90.8717 218.112 91.3368C217.558 92.417 216.758 93.7362 216.198 94.662C213.809 98.6045 211.103 103.071 211.868 107.948C212.503 111.986 212.494 115.926 212.483 120.49L212.479 122.209C212.479 123.459 211.514 125.228 210.491 127.099C209.158 129.54 207.648 132.304 207.111 135.727C206.463 139.848 207.826 143.634 208.919 146.676C209.397 148.004 210.197 150.23 210.088 150.932C209.647 152.279 208.152 153.877 206.565 155.565C204.738 157.517 202.664 159.729 201.191 162.613C199.317 166.286 197.116 169.292 194.569 172.772L193.499 174.234C190.907 177.796 190.661 182.078 190.446 185.853C190.381 187.009 190.281 188.761 190.066 189.828C190.048 189.83 190.033 189.83 190.016 189.83C188.881 189.83 187.412 189.645 185.856 189.452C183.969 189.217 182.018 188.974 180.064 188.974C176.747 188.974 174.113 189.717 172.012 191.247C170.012 192.701 168.017 193.516 165.489 194.546C163.836 195.22 161.964 195.985 159.965 197.004C157.209 198.41 155.17 200.195 153.373 201.77C151.658 203.27 150.304 204.457 148.764 204.957C144.154 206.454 141.561 210.607 139.273 214.271C138.666 215.243 137.762 216.69 137.047 217.601C136.119 216.956 134.872 215.893 134.033 215.176C130.668 212.307 126.854 209.055 121.875 209.055C116.14 209.055 112.182 213.978 108.355 218.74C107.266 220.089 105.579 222.187 104.486 223.197Z" fill="#9CA856"/>
<path d="M99.5658 210.37C97.6511 204.771 94.7432 196.386 86.2954 192.072C83.7266 190.762 81.362 189.836 79.2777 189.019C77.4956 188.321 75.8178 187.665 74.9702 187.115C74.5638 186.665 73.7575 185.492 73.1598 184.618C71.7037 182.497 69.9085 179.886 67.3548 177.281C67.1006 176.824 66.6485 175.809 66.3095 175.049C65.2554 172.682 63.8101 169.439 61.3934 166.118C57.0337 160.124 50.831 157.599 47.1233 156.091C47.0407 156.056 46.9298 156.01 46.8038 155.96C45.1282 153.496 43.2721 151.461 41.8008 149.847C41.2379 149.229 40.4403 148.351 40.0056 147.808C38.4821 143.605 36.1719 140.275 34.2941 137.565C33.8573 136.937 33.2074 136 32.7836 135.324C32.6989 133.612 32.8401 131.045 32.9575 128.907C33.0683 126.859 33.1835 124.771 33.1966 122.63C33.3856 121.837 34.0376 120.109 34.4397 119.044C35.5525 116.097 36.8086 112.763 37.428 108.819C38.2257 103.731 37.4802 99.0037 36.9347 95.5503C36.8695 95.146 36.7826 94.5875 36.7021 94.0355C37.1672 93.4748 37.6954 92.864 38.0866 92.412C40.2143 89.9518 42.8635 86.8896 44.8587 82.9863C45.389 81.9452 45.9193 80.8781 46.4561 79.7958C47.1037 78.4875 47.7601 77.1661 48.4121 75.9142C54.2475 75.8664 62.3366 75.3774 68.6893 69.0226C74.3856 63.3285 75.6005 56.0587 76.3264 51.7164C76.3394 51.6381 76.3546 51.5446 76.372 51.436C78.6214 49.1627 80.3231 46.7894 81.6749 44.9073C81.9075 44.5835 82.2074 44.1662 82.503 43.7641C83.1963 43.6902 83.9613 43.6272 84.5307 43.5772C86.8757 43.3773 89.6402 43.1404 92.5894 42.4862C92.9067 42.5883 93.2219 42.6948 93.4718 42.7796C96.5384 43.8054 100.722 45.2072 105.686 45.2072C107.005 45.2072 108.32 45.1072 109.594 44.9073C114.012 44.2118 117.541 42.2884 120.408 39.9912C123.599 43.5294 127.832 46.6612 133.724 47.587C134.839 47.7609 135.982 47.85 137.117 47.85C144.204 47.85 149.852 44.4683 153.721 42.0146C156.268 42.8796 158.687 43.7772 160.671 44.7378C161.223 45.2724 162.195 46.3939 162.805 47.1002C164.309 48.841 166.257 51.0926 168.713 53.2029C168.863 53.5985 169.01 53.9983 169.108 54.2657C170.375 57.7213 172.29 62.9373 176.719 67.3622C180.047 70.6917 183.63 72.7129 186.247 74.1886C186.458 74.3081 186.69 74.4385 186.923 74.5711C186.947 74.7254 186.971 74.8732 186.99 75.0101C187.484 78.2267 188.16 82.6298 190.52 87.2525C193.332 92.7597 197.877 95.8611 202.419 97.8149C201.165 101.273 200.441 105.237 201.13 109.623C201.632 112.817 201.623 116.188 201.615 120.457V120.661C201.406 121.059 201.152 121.524 200.954 121.885C199.37 124.788 197.205 128.752 196.375 134.038C195.445 139.965 196.838 145.009 198.107 148.697C196.075 150.879 193.504 153.77 191.513 157.666C190.037 160.561 188.173 163.106 185.812 166.331L184.728 167.818C182.248 171.224 181.02 174.816 180.375 178.102C180.273 178.1 180.168 178.1 180.064 178.1C174.444 178.1 169.582 179.565 165.616 182.455C164.727 183.103 163.616 183.568 161.388 184.477C159.63 185.194 157.442 186.085 155.025 187.317C151.063 189.34 148.259 191.796 146.212 193.589C145.74 194.002 145.125 194.541 144.747 194.839C140.314 196.432 137.093 199.16 134.641 202.011C131.216 199.894 127.008 198.182 121.873 198.182C111.663 198.182 105.193 205.382 100.798 210.791C100.385 210.654 99.9744 210.513 99.5658 210.37Z" fill="#3F8000"/>
<path d="M85.5986 155.43C86.192 152.612 86.4897 149.078 84.5489 145.661C83.7991 144.342 83.0276 143.251 82.3452 142.288C82.0931 141.932 81.8496 141.588 81.6345 141.269C81.252 140.702 80.9629 139.843 80.9477 139.393C80.939 139.124 80.9325 138.833 80.9282 138.583C80.9108 137.77 80.8912 136.848 80.7999 135.831C80.6913 134.636 80.5261 133.388 80.5804 133.034C80.613 132.819 80.65 132.591 80.6826 132.393C80.9042 131.046 81.2063 129.203 81.1042 127.044C80.9195 123.148 78.9243 120.244 77.729 118.508C77.7138 118.486 77.6964 118.462 77.679 118.431C77.6508 118.39 77.6182 117.425 77.4899 116.284C77.4052 115.528 77.2943 114.832 77.1965 114.224C77.1639 114.015 77.1226 113.763 77.0879 113.518C77.0314 113.126 77.2335 111.862 77.3595 110.668C77.5117 109.197 77.4791 107.832 77.4486 106.652C77.4421 106.45 77.4378 106.196 77.4334 105.941C77.4269 105.548 77.8246 104.585 78.368 103.822C78.6961 103.362 79.046 102.888 79.3655 102.458C79.6893 102.018 80.0175 101.575 80.3435 101.123C80.876 100.382 81.6236 99.4735 82.067 99.141C82.3473 98.928 82.6429 98.715 82.8711 98.5498C84.2121 97.574 85.729 96.4743 87.1417 94.9182C88.963 92.9122 90.0018 90.6172 90.7603 88.9415C90.8081 88.8372 90.8646 88.7112 90.9277 88.5743C91.0189 88.3721 91.3363 88.1352 91.634 88.0483C91.8296 87.9918 92.0165 87.9396 92.1751 87.894C93.8225 87.4267 95.8742 86.8486 97.878 85.7076C98.4126 85.4034 98.9538 85.0882 99.5036 84.7666C99.8318 84.5753 100.164 84.3819 100.492 84.1906C101.04 83.8755 102.294 84.1689 103.344 84.7514C105.735 86.0749 108.782 87.2072 112.394 86.4596C116.545 85.6055 119.181 82.7584 120.757 81.0588C120.772 81.0436 120.787 81.0241 120.804 81.0045C120.833 80.9741 121.811 80.7524 122.952 80.3808C123.738 80.1243 124.451 79.8505 125.075 79.6114C125.177 79.5723 125.297 79.5267 125.421 79.4789C125.612 79.405 125.984 79.4571 126.242 79.5962C126.414 79.6875 126.577 79.7766 126.714 79.8527C127.292 80.1635 127.924 80.5068 128.611 80.8437C129.672 81.3653 130.639 81.7869 130.721 81.8913C130.776 81.9608 130.828 82.026 130.874 82.0847C131.925 83.4234 133.36 85.2491 135.54 86.6835C136.12 87.066 136.726 87.4006 137.346 87.6832C138.708 88.3004 140.058 88.596 141.353 88.6829C142.551 88.7633 143.648 89.6196 144 90.7672C144.55 92.5602 145.513 94.3271 147.18 95.8397C147.619 96.2396 148.095 96.609 148.595 96.9372C150.864 98.4281 153.315 98.9128 155.413 99.0801C156.608 99.1758 158.131 99.8625 158.764 100.743C159.399 101.625 159.927 102.747 159.992 103.205C160.035 103.499 160.074 103.801 160.105 104.035C160.194 104.7 160.294 105.472 160.448 106.306C160.666 107.487 160.909 108.554 160.872 108.715C160.846 108.825 160.824 108.928 160.805 109.006C160.364 110.892 159.696 113.739 160.363 116.967C160.863 119.392 161.854 121.318 162.578 122.724C162.609 122.783 162.639 122.843 162.672 122.906C162.724 123.006 162.743 123.135 162.715 123.193C162.698 123.23 162.682 123.267 162.665 123.3C161.952 124.856 160.974 126.988 160.676 129.705C160.418 132.058 160.929 134.116 161.778 135.901C162.296 136.985 162.054 138.357 161.213 139.213C160.303 140.143 159.485 141.256 158.87 142.61C158.412 143.625 157.832 144.609 157.14 145.694C156.495 146.704 155.806 147.626 155.61 147.745C155.478 147.828 155.354 147.893 155.247 147.95C153.711 148.769 151.614 149.884 149.721 151.968C148.28 153.555 147.428 155.272 146.867 156.832C146.463 157.962 145.289 159.125 144.146 159.49C143.079 159.829 141.921 160.286 140.749 160.953C139.263 161.798 137.706 162.378 135.735 163.113L134.829 163.454C133.568 163.928 132.49 164.565 131.562 165.276C130.608 166.004 129.911 166.697 129.872 166.673C129.85 166.658 129.826 166.643 129.804 166.627C127.333 165.002 124.773 164.239 122.191 164.363C121.613 164.391 120.989 164.274 119.748 164.028C118.768 163.835 117.547 163.593 116.13 163.437C113.802 163.18 111.859 163.45 110.44 163.646C110.286 163.667 110.109 163.691 109.94 163.713C109.662 163.75 108.488 163.522 107.291 163.459C106.513 163.419 105.761 163.456 105.041 163.554C103.852 163.711 102.527 163.107 101.866 162.105C101.031 160.833 99.9231 159.623 98.4104 158.627C94.7571 156.224 90.8125 156.634 87.5872 157.467C86.4245 157.767 85.4052 157.954 85.2879 157.804C85.1835 157.667 85.3509 156.604 85.5986 155.43Z" fill="#C7F0FF"/>
<path d="M119.665 126.64L119.664 126.641L119.665 126.641L119.665 126.64L119.665 126.64Z" fill="#8CB2BF"/>
<path d="M119.68 126.641L131.598 153.573C132.528 153.227 133.387 153.068 134.067 152.953C134.111 152.949 134.156 152.94 134.204 152.931C134.248 152.842 134.291 152.755 134.328 152.677C134.81 151.693 135.469 150.341 136.534 149.098C137.953 147.439 139.6 146.746 140.691 146.283C140.776 146.246 140.902 146.194 141.028 146.14C141.706 145.22 142.426 144.495 142.98 143.932C143.206 143.703 143.565 143.343 143.736 143.134C144.051 142.386 144.349 141.471 144.64 140.511C144.045 139.316 143.297 137.662 143.043 135.666L119.68 126.641Z" fill="#ADCBCD"/>
<path d="M119.68 126.638L144.736 115.55C144.699 115.078 144.673 114.624 144.651 114.211C144.64 113.996 144.625 113.705 144.608 113.442C144.484 113.326 144.356 113.209 144.254 113.118C143.673 112.594 142.943 111.936 142.248 111.066C142.215 111.06 142.185 111.051 142.161 111.049C140.807 110.745 138.536 110.24 136.795 108.043C134.85 105.594 134.756 102.516 134.784 100.3C134.395 100.043 133.987 99.7888 133.582 99.5323C133.248 99.3215 132.915 99.1129 132.594 98.9064C131.963 98.4978 131.411 98.024 130.914 97.5459L119.68 126.638Z" fill="#8BA7B5"/>
<path d="M143.045 135.666C142.984 135.181 142.926 134.692 142.934 134.166C142.943 133.734 142.98 133.301 143.041 132.88C143.373 130.645 144.386 129.057 145.516 127.866C144.819 126.764 144.241 125.41 144.054 123.728C144.001 123.241 143.978 122.743 143.988 122.241C144.025 120.357 144.495 118.775 144.838 117.616C144.864 117.523 144.901 117.401 144.934 117.284C144.836 116.679 144.777 116.101 144.734 115.554L119.68 126.644L143.045 135.666Z" fill="#8CB2BF"/>
<path d="M119.681 126.639L119.68 126.638L119.681 126.639Z" fill="#8CB2BF"/>
<path d="M119.68 126.641L108.828 154.724C109.674 155.394 110.386 156.12 110.912 156.737C112.077 156.278 113.666 155.778 115.515 156.168C117.165 156.515 118.391 157.361 119.288 157.978C119.399 158.056 119.543 158.156 119.667 158.239H119.732C121.066 158.267 122.125 158.291 123.129 158.119C124.507 157.884 125.743 158.182 126.817 158.68C127.462 156.965 128.466 155.257 130.212 154.222C130.69 153.938 131.153 153.74 131.602 153.573L119.68 126.641Z" fill="#A9C4CF"/>
<path d="M97.1328 136.618C97.1632 136.664 97.1958 136.709 97.2241 136.753C97.7696 137.542 98.5194 138.622 99.1258 140.139C99.4931 141.065 99.7582 141.902 99.969 142.575C100.239 143.427 100.375 143.851 100.571 144.192C101.447 145.718 101.871 147.574 101.829 149.708C101.829 149.747 101.827 149.789 101.827 149.828C102.853 150.093 103.968 150.58 105.018 151.542L105.474 151.962C106.469 152.879 107.25 153.601 108.147 154.181C108.406 154.348 108.595 154.544 108.823 154.726L119.675 126.643L97.1328 136.618Z" fill="#8BA7B5"/>
<path d="M119.674 126.638L95.4871 117.293C94.3874 118.101 93.229 118.569 92.3075 118.932C92.2597 119.086 92.2119 119.24 92.1641 119.397C93.8267 121.098 96.0348 123.6 95.9609 127.479C95.9239 129.429 95.3567 131.018 94.6699 132.306C95.5458 133.256 96.3782 134.493 96.8432 136.19C96.915 136.303 97.0258 136.466 97.1323 136.618L119.674 126.638Z" fill="#7FA2AD"/>
<path d="M130.92 97.5458C130.466 97.109 130.055 96.6678 129.697 96.2766C129.56 96.1266 129.371 95.9224 129.199 95.7398C129.025 95.768 128.851 95.7985 128.723 95.8202C127.636 96.0071 126.152 96.2614 124.563 95.9289C123.333 95.6681 122.299 95.1704 121.384 94.7335C121.053 94.5727 120.517 94.3163 120.269 94.2402C119.599 94.2228 118.947 94.1663 118.306 94.112C117.637 94.0555 116.835 93.9837 116.296 94.0077C116.083 94.1641 115.785 94.4075 115.585 94.5684C114.722 95.266 113.664 96.1245 112.336 96.6787C112.162 96.8395 111.882 97.1394 111.684 97.3481C111.167 97.8979 110.517 98.5891 109.735 99.2128C109.717 99.2584 109.702 99.2997 109.691 99.3323C109.456 99.9908 109.135 100.865 108.672 101.769L119.68 126.64L130.92 97.5458Z" fill="#8CB2BF"/>
<path d="M119.679 126.638L108.671 101.767C108.154 102.782 107.456 103.836 106.446 104.692C105.39 105.592 104.364 106.12 103.614 106.507C103.373 106.633 103.051 106.798 102.908 106.891C102.073 107.845 101.241 108.513 100.567 109.054C100.289 109.275 99.9149 109.575 99.7715 109.728C99.5954 110.045 99.3759 110.679 99.1456 111.353C98.8739 112.14 98.5675 113.033 98.1371 114.002C97.4612 115.526 96.5006 116.554 95.4922 117.297L119.679 126.638Z" fill="#7899A3"/>
<path d="M117.087 56.7736C117.087 57.2822 116.633 57.656 116.52 58.132C116.405 58.6231 115.842 58.7601 115.62 59.2012C115.397 59.6489 116.003 60.4966 115.686 60.8791C115.37 61.2616 115.199 61.8397 114.803 62.1439C114.412 62.446 113.108 60.9617 112.654 61.1746C112.208 61.3811 112.241 62.1178 111.75 62.2243C111.274 62.3286 110.989 62.7025 110.48 62.7025C109.972 62.7025 109.726 62.1526 109.25 62.0483C108.757 61.9396 108.744 61.3963 108.298 61.1877C107.844 60.9747 107.553 61.142 107.162 60.8399C106.766 60.5357 105.94 60.9681 105.625 60.5856C105.308 60.2031 104.339 60.2553 104.117 59.8098C103.897 59.3686 102.596 59.0817 102.483 58.5905C102.37 58.1146 103.882 57.28 103.882 56.7714C103.882 56.2629 105.395 56.139 105.508 55.663C105.623 55.1719 105.351 54.898 105.571 54.459C105.793 54.0113 104.058 52.3053 104.373 51.9228C104.691 51.5402 105.712 51.6446 106.108 51.3381C106.499 51.036 107.431 51.6815 107.886 51.4707C108.331 51.2621 108.298 49.5147 108.79 49.406C109.266 49.3017 109.972 51.4511 110.478 51.4511C110.987 51.4511 111.502 50.1623 111.978 50.2667C112.471 50.3753 113.449 49.4973 113.895 49.7059C114.349 49.9168 114.295 51.2468 114.686 51.5489C115.081 51.8532 114.112 53.318 114.429 53.7005C114.747 54.083 115.136 54.0244 115.357 54.4721C115.579 54.9133 117.787 54.5959 117.902 55.0849C118.018 55.5652 117.087 56.2651 117.087 56.7736Z" fill="#26541B"/>
<path d="M150.134 96.6656C150.134 97.0068 149.828 97.2568 149.754 97.5741C149.676 97.9022 149.3 97.9957 149.152 98.2913C149.002 98.5912 149.408 99.1584 149.198 99.4171C148.987 99.6735 148.872 100.06 148.604 100.265C148.344 100.467 147.47 99.4714 147.163 99.6148C146.863 99.7539 146.887 100.245 146.557 100.319C146.238 100.391 146.048 100.641 145.707 100.641C145.366 100.641 145.201 100.273 144.884 100.202C144.553 100.13 144.545 99.7648 144.245 99.6257C143.94 99.4844 143.745 99.5953 143.484 99.3932C143.219 99.1889 142.665 99.4801 142.454 99.2236C142.241 98.9672 141.593 99.002 141.443 98.7042C141.295 98.4086 140.424 98.2152 140.348 97.887C140.272 97.5697 141.287 97.009 141.287 96.6678C141.287 96.3266 142.302 96.244 142.378 95.9245C142.454 95.5964 142.273 95.4116 142.419 95.116C142.567 94.8161 141.404 93.6729 141.617 93.4165C141.83 93.16 142.515 93.2296 142.78 93.0253C143.043 92.8232 143.667 93.2557 143.973 93.1144C144.271 92.9753 144.249 91.8017 144.579 91.73C144.899 91.6604 145.37 93.1013 145.712 93.1013C146.053 93.1013 146.396 92.2386 146.716 92.3081C147.046 92.382 147.702 91.793 148 91.9321C148.304 92.0734 148.27 92.9644 148.53 93.1665C148.796 93.3708 148.146 94.351 148.359 94.6096C148.57 94.8661 148.83 94.827 148.98 95.1269C149.128 95.4225 150.608 95.2095 150.686 95.5377C150.758 95.855 150.134 96.3244 150.134 96.6656Z" fill="#26541B"/>
<path d="M100.109 76.4838C100.109 76.825 99.8023 77.0749 99.7284 77.3922C99.6502 77.7204 99.2742 77.8138 99.1264 78.1094C98.9764 78.4093 99.3828 78.9766 99.172 79.2352C98.9612 79.4917 98.846 79.8785 98.5787 80.0828C98.3179 80.2849 97.4442 79.2895 97.1378 79.433C96.8379 79.5721 96.8618 80.0632 96.5314 80.1371C96.2119 80.2089 96.0229 80.4588 95.6817 80.4588C95.3404 80.4588 95.1753 80.0915 94.858 80.0198C94.5276 79.9481 94.5189 79.5829 94.2212 79.4438C93.9169 79.3026 93.7213 79.4134 93.4605 79.2113C93.1954 79.007 92.6412 79.2982 92.4303 79.0418C92.2174 78.7853 91.5697 78.8201 91.4197 78.5224C91.272 78.2268 90.4005 78.0333 90.3244 77.7052C90.2483 77.3879 91.2633 76.8272 91.2633 76.486C91.2633 76.1447 92.2782 76.0621 92.3521 75.7427C92.4282 75.4145 92.2478 75.2297 92.3956 74.9363C92.5434 74.6364 91.3806 73.4933 91.5936 73.2368C91.8066 72.9803 92.4912 73.0499 92.7564 72.8456C93.0193 72.6435 93.6431 73.076 93.9495 72.9347C94.2472 72.7956 94.2255 71.622 94.5559 71.5503C94.8753 71.4807 95.347 72.9217 95.6882 72.9217C96.0294 72.9217 96.3728 72.0589 96.6923 72.1284C97.0226 72.2023 97.679 71.6133 97.9767 71.7524C98.281 71.8937 98.2462 72.7848 98.507 72.9869C98.77 73.1912 98.1223 74.1714 98.3353 74.43C98.5461 74.6864 98.8069 74.6473 98.9569 74.9472C99.1047 75.2428 100.585 75.0298 100.663 75.358C100.732 75.6731 100.109 76.1426 100.109 76.4838Z" fill="#D9AE00"/>
<path d="M88.8396 61.1752C88.4615 61.2664 88.1007 60.9926 87.7247 60.9948C87.34 60.9969 87.1358 60.6014 86.7685 60.5145C86.3968 60.4275 85.8709 61.0295 85.5297 60.8622C85.1863 60.6948 84.7255 60.6709 84.43 60.4297C84.1344 60.1928 85.0102 58.9562 84.769 58.6562C84.5364 58.3607 83.9931 58.515 83.8258 58.1673C83.6628 57.8304 83.3324 57.6848 83.2411 57.3066C83.1499 56.9263 83.5172 56.6459 83.5106 56.2721C83.5019 55.8853 83.9062 55.7788 83.9822 55.4093C84.0605 55.0333 83.8844 54.8464 84.0388 54.5008C84.1952 54.1509 83.7236 53.6141 83.954 53.3098C84.1822 53.0056 83.9714 52.2927 84.2648 52.0471C84.5538 51.8037 84.5364 50.7823 84.882 50.6106C85.2167 50.441 86.1078 51.4212 86.4881 51.3299C86.8663 51.2387 87.2292 52.3449 87.603 52.3449C87.9899 52.3427 88.1464 52.0928 88.5115 52.1775C88.8853 52.2623 89.8481 50.6649 90.1893 50.8322C90.5305 50.9996 90.637 51.782 90.9347 52.0211C91.2303 52.2601 90.9152 53.0686 91.1521 53.3707C91.3846 53.6663 92.6843 53.3294 92.8538 53.6771C93.0168 54.014 91.5389 54.9225 91.6302 55.3006C91.7193 55.6809 92.7734 55.8353 92.7799 56.2091C92.7886 56.5938 93.6166 57.1675 93.5406 57.537C93.4623 57.913 92.4626 58.1107 92.3061 58.4541C92.1496 58.804 90.8869 58.3411 90.6565 58.6454C90.4262 58.9518 90.5392 59.23 90.2458 59.4756C89.9567 59.719 90.587 61.3099 90.2436 61.4838C89.9046 61.6555 89.2178 61.0861 88.8396 61.1752Z" fill="#26541B"/>
<path d="M88.8396 185.705C88.4615 185.796 88.1007 185.522 87.7247 185.524C87.34 185.526 87.1357 185.131 86.7685 185.044C86.3968 184.959 85.8709 185.559 85.5297 185.392C85.1863 185.224 84.7255 185.2 84.43 184.959C84.1344 184.722 85.0102 183.486 84.769 183.186C84.5364 182.89 83.9931 183.045 83.8258 182.697C83.6628 182.36 83.3324 182.214 83.2411 181.836C83.1499 181.456 83.5172 181.175 83.5106 180.802C83.5041 180.415 83.9062 180.308 83.9822 179.939C84.0605 179.563 83.8844 179.376 84.0388 179.03C84.1952 178.68 83.7236 178.144 83.954 177.839C84.1822 177.535 83.9714 176.822 84.2648 176.575C84.5538 176.331 84.5364 175.312 84.882 175.138C85.2167 174.968 86.1078 175.946 86.4881 175.857C86.8663 175.768 87.2292 176.872 87.603 176.872C87.9899 176.87 88.1442 176.62 88.5115 176.705C88.8853 176.79 89.8481 175.192 90.1893 175.36C90.5305 175.527 90.637 176.309 90.9347 176.548C91.2303 176.788 90.9152 177.596 91.1521 177.898C91.3846 178.194 92.6843 177.857 92.8538 178.205C93.0168 178.541 91.5367 179.45 91.628 179.828C91.7193 180.208 92.7712 180.363 92.7777 180.736C92.7864 181.121 93.6145 181.695 93.5384 182.064C93.4602 182.44 92.4604 182.638 92.3039 182.981C92.1475 183.331 90.8848 182.868 90.6544 183.173C90.4262 183.479 90.537 183.757 90.2458 184.003C89.9567 184.246 90.587 185.837 90.2436 186.011C89.9068 186.185 89.2178 185.616 88.8396 185.705Z" fill="#A27F00"/>
<path d="M75.1588 124.336C75.1131 123.949 75.4261 123.623 75.4674 123.252C75.5108 122.869 75.9259 122.711 76.0542 122.356C76.1824 121.998 75.6456 121.404 75.852 121.085C76.0563 120.763 76.1346 120.309 76.4084 120.042C76.6779 119.774 77.8059 120.787 78.1319 120.583C78.4513 120.385 78.3622 119.829 78.7252 119.703C79.0773 119.579 79.2598 119.268 79.6467 119.222C80.0335 119.177 80.2726 119.572 80.6421 119.609C81.0268 119.646 81.0876 120.059 81.444 120.176C81.8091 120.296 82.0156 120.144 82.3416 120.337C82.6698 120.533 83.2588 120.126 83.5326 120.389C83.8086 120.652 84.541 120.522 84.754 120.842C84.9627 121.157 85.9776 121.257 86.1102 121.62C86.2406 121.972 85.1626 122.745 85.2104 123.132C85.2561 123.519 84.1172 123.752 84.0738 124.123C84.0303 124.508 84.2628 124.69 84.1346 125.045C84.0064 125.408 85.4821 126.547 85.2778 126.866C85.0713 127.188 84.2824 127.201 84.0107 127.468C83.7391 127.733 82.9719 127.327 82.6437 127.529C82.3242 127.727 82.5068 129.057 82.1438 129.183C81.7918 129.307 81.0594 127.733 80.6725 127.779C80.2857 127.824 80.0118 128.852 79.638 128.818C79.2555 128.781 78.5883 129.537 78.2297 129.42C77.8646 129.3 77.7841 128.283 77.4603 128.09C77.1321 127.894 77.7363 126.692 77.4603 126.427C77.1821 126.164 76.8931 126.242 76.6844 125.925C76.4758 125.61 74.8241 126.053 74.6893 125.69C74.5589 125.34 75.2044 124.723 75.1588 124.336Z" fill="#A27F00"/>
<path d="M157.25 48.6524C157.155 48.2743 157.42 47.9092 157.411 47.5354C157.403 47.1507 157.794 46.9399 157.872 46.5682C157.952 46.1944 157.34 45.6815 157.503 45.3381C157.663 44.9926 157.681 44.5318 157.916 44.2297C158.146 43.9298 159.4 44.7817 159.695 44.5383C159.987 44.2993 159.822 43.7603 160.165 43.5864C160.5 43.4169 160.639 43.0844 161.015 42.9866C161.393 42.8888 161.682 43.2495 162.054 43.2365C162.44 43.2235 162.553 43.6234 162.925 43.6929C163.303 43.7646 163.486 43.5842 163.836 43.7342C164.188 43.8842 164.716 43.4039 165.024 43.6277C165.333 43.8516 166.042 43.6277 166.294 43.9146C166.541 44.1993 167.561 44.1645 167.739 44.5057C167.915 44.8361 166.952 45.7467 167.05 46.1249C167.148 46.5008 166.048 46.8834 166.055 47.2572C166.063 47.644 166.318 47.7962 166.239 48.1635C166.161 48.5373 167.776 49.474 167.615 49.8174C167.454 50.1629 166.674 50.2824 166.439 50.5845C166.207 50.8845 165.39 50.5824 165.092 50.8258C164.803 51.0648 165.161 52.358 164.818 52.5319C164.486 52.7014 163.549 51.2387 163.173 51.3365C162.795 51.4343 162.66 52.4884 162.286 52.5036C161.901 52.5166 161.341 53.3577 160.971 53.2882C160.593 53.2186 160.38 52.2211 160.03 52.0711C159.678 51.9211 160.117 50.6497 159.808 50.4259C159.498 50.202 159.222 50.3194 158.972 50.0303C158.722 49.7456 157.144 50.4063 156.964 50.0651C156.79 49.7283 157.346 49.0306 157.25 48.6524Z" fill="#A27F00"/>
<path d="M112.471 76.8773C112.358 76.5056 112.608 76.1297 112.582 75.7537C112.556 75.369 112.938 75.1408 113.001 74.767C113.062 74.391 112.43 73.902 112.575 73.5521C112.719 73.2 112.717 72.7392 112.938 72.4263C113.156 72.1155 114.444 72.9131 114.729 72.6545C115.01 72.4024 114.823 71.8721 115.157 71.683C115.483 71.4983 115.607 71.1592 115.979 71.0462C116.353 70.9332 116.657 71.2788 117.026 71.2505C117.413 71.2179 117.544 71.6135 117.917 71.6656C118.298 71.7178 118.474 71.5331 118.826 71.6656C119.184 71.8004 119.691 71.2962 120.008 71.5048C120.325 71.7156 121.025 71.4592 121.288 71.7352C121.549 72.009 122.566 71.9264 122.76 72.2611C122.951 72.5828 122.029 73.5369 122.142 73.9085C122.255 74.2801 121.175 74.7126 121.199 75.0843C121.225 75.4711 121.486 75.6102 121.423 75.9819C121.362 76.36 123.016 77.2207 122.87 77.5706C122.725 77.9227 121.951 78.077 121.732 78.3899C121.512 78.6985 120.684 78.4356 120.399 78.692C120.119 78.9441 120.536 80.2199 120.199 80.4089C119.876 80.5937 118.874 79.1745 118.502 79.2897C118.128 79.4049 118.039 80.4655 117.667 80.4937C117.283 80.5263 116.761 81.3891 116.39 81.337C116.009 81.2826 115.748 80.2959 115.396 80.1634C115.038 80.0286 115.418 78.7398 115.101 78.529C114.781 78.3182 114.51 78.4486 114.247 78.1726C113.984 77.8988 112.438 78.629 112.243 78.2965C112.058 77.9726 112.584 77.2511 112.471 76.8773Z" fill="#A27F00"/>
<path d="M185.307 109.741C185.194 109.369 185.444 108.993 185.418 108.617C185.392 108.233 185.775 108.004 185.838 107.63C185.899 107.255 185.266 106.768 185.412 106.416C185.555 106.064 185.553 105.603 185.775 105.29C185.992 104.979 187.281 105.777 187.566 105.516C187.846 105.264 187.657 104.733 187.994 104.544C188.32 104.36 188.444 104.021 188.815 103.908C189.189 103.795 189.493 104.14 189.863 104.112C190.25 104.079 190.38 104.475 190.754 104.527C191.134 104.579 191.31 104.392 191.662 104.527C192.021 104.662 192.527 104.157 192.845 104.366C193.162 104.577 193.862 104.32 194.125 104.597C194.385 104.87 195.403 104.788 195.596 105.122C195.787 105.444 194.866 106.398 194.979 106.77C195.092 107.141 194.012 107.574 194.036 107.946C194.062 108.332 194.322 108.472 194.259 108.843C194.199 109.221 195.853 110.082 195.707 110.432C195.561 110.784 194.788 110.938 194.566 111.251C194.346 111.56 193.518 111.297 193.234 111.553C192.953 111.805 193.371 113.081 193.034 113.27C192.708 113.455 191.708 112.036 191.336 112.151C190.963 112.266 190.876 113.327 190.502 113.355C190.117 113.388 189.595 114.25 189.224 114.198C188.844 114.144 188.585 113.157 188.231 113.025C187.872 112.89 188.252 111.601 187.935 111.39C187.616 111.18 187.344 111.31 187.081 111.034C186.818 110.76 185.273 111.49 185.077 111.158C184.897 110.836 185.423 110.112 185.307 109.741Z" fill="#A27F00"/>
<path d="M65.3501 99.6626C64.9676 99.9973 64.3873 99.8995 63.9548 100.13C63.5093 100.365 63.0355 100.034 62.5573 100.158C62.0748 100.284 61.8336 101.297 61.3381 101.312C60.8404 101.327 60.2949 101.577 59.8037 101.479C59.3191 101.386 59.5777 99.4257 59.1191 99.2235C58.6714 99.0236 58.1368 99.5343 57.7325 99.2344C57.3392 98.9454 56.8719 98.9758 56.5372 98.5933C56.2025 98.2108 56.4546 97.6631 56.2199 97.2371C55.9765 96.7938 56.3764 96.4265 56.2395 95.9549C56.1004 95.4724 55.7852 95.3637 55.7548 94.8704C55.7244 94.3727 54.8529 94.0358 54.9355 93.5468C55.0159 93.0556 54.3378 92.3623 54.5269 91.8994C54.7138 91.443 54.0726 90.2738 54.3682 89.8652C54.6529 89.4674 56.2764 90.0564 56.6589 89.7217C57.0414 89.387 58.1303 90.4433 58.5627 90.2151C59.0083 89.9782 59.0344 89.5935 59.5103 89.4696C59.9928 89.3414 60.1362 86.9138 60.6318 86.8986C61.1273 86.8855 61.7228 87.7223 62.2118 87.8201C62.6986 87.9157 62.8246 89.0436 63.2832 89.2458C63.7331 89.4435 65.0284 88.2678 65.4327 88.5677C65.8239 88.8567 64.6698 90.8041 65.0045 91.1866C65.3392 91.5712 66.6497 91.1105 66.8844 91.5365C67.1279 91.9798 68.4318 92.1385 68.5688 92.6101C68.7079 93.0926 67.6712 93.925 67.7016 94.4183C67.732 94.916 65.9912 95.1507 65.913 95.6419C65.8325 96.1309 66.1325 96.3873 65.9434 96.8481C65.7565 97.3045 67.4495 98.7585 67.1583 99.1692C66.8736 99.5691 65.7326 99.3279 65.3501 99.6626Z" fill="#26541B"/>
<path d="M34.7009 127.073C34.8226 127.319 34.69 127.61 34.7487 127.868C34.8095 128.134 34.5705 128.336 34.5683 128.603C34.5661 128.872 35.0638 129.142 35.0008 129.403C34.9399 129.664 34.9921 129.985 34.8726 130.229C34.7552 130.468 33.7663 130.059 33.5968 130.272C33.4295 130.479 33.6207 130.828 33.4078 131C33.2013 131.165 33.1535 131.413 32.9057 131.535C32.6579 131.659 32.408 131.448 32.1516 131.511C31.8864 131.576 31.7495 131.315 31.4843 131.322C31.2127 131.326 31.1127 131.476 30.8497 131.424C30.5846 131.37 30.2868 131.778 30.0413 131.667C29.7957 131.557 29.3371 131.813 29.1219 131.65C28.909 131.489 28.2091 131.659 28.0353 131.45C27.8658 131.246 28.4026 130.479 28.2809 130.231C28.1591 129.985 28.8655 129.561 28.8068 129.305C28.7459 129.04 28.5482 128.972 28.5504 128.705C28.5504 128.436 27.3007 128.021 27.3615 127.76C27.4246 127.497 27.9462 127.303 28.0657 127.062C28.1831 126.821 28.7916 126.912 28.9611 126.701C29.1284 126.495 28.6938 125.652 28.9068 125.482C29.1132 125.317 29.9695 126.195 30.2173 126.071C30.4651 125.949 30.4064 125.2 30.6628 125.137C30.928 125.071 31.1931 124.411 31.4604 124.406C31.7321 124.4 32.0233 125.058 32.2841 125.113C32.5493 125.165 32.4276 126.108 32.6732 126.219C32.9187 126.33 33.0948 126.208 33.3078 126.371C33.5208 126.532 34.5183 125.849 34.6922 126.06C34.866 126.262 34.5792 126.825 34.7009 127.073Z" fill="#26541B"/>
<path d="M179.41 80.361C179.531 80.6066 179.399 80.8978 179.46 81.1564C179.52 81.4216 179.281 81.6237 179.279 81.8911C179.277 82.1606 179.773 82.43 179.712 82.6908C179.651 82.9516 179.705 83.2733 179.584 83.5167C179.466 83.7558 178.477 83.3472 178.308 83.5602C178.14 83.7666 178.332 84.1165 178.119 84.2882C177.912 84.4534 177.864 84.7012 177.617 84.8229C177.369 84.9468 177.119 84.736 176.863 84.799C176.597 84.8642 176.463 84.6034 176.195 84.6099C175.924 84.6164 175.824 84.7642 175.561 84.712C175.296 84.6577 174.998 85.0663 174.752 84.9554C174.507 84.8446 174.048 85.1011 173.833 84.9381C173.62 84.7772 172.92 84.9468 172.746 84.7381C172.577 84.5338 173.114 83.7666 172.992 83.5189C172.87 83.2733 173.574 82.8495 173.518 82.593C173.457 82.3279 173.259 82.2605 173.261 81.9932C173.261 81.7237 172.012 81.3086 172.072 81.0478C172.135 80.7848 172.657 80.5914 172.777 80.3502C172.894 80.1089 173.5 80.2002 173.672 79.9894C173.839 79.7829 173.403 78.9397 173.618 78.7701C173.824 78.605 174.68 79.483 174.928 79.3591C175.176 79.2374 175.117 78.4876 175.376 78.4246C175.641 78.3594 175.906 77.6987 176.174 77.6944C176.445 77.69 176.736 78.3464 176.997 78.4007C177.262 78.4528 177.141 79.3982 177.386 79.5069C177.632 79.6178 177.808 79.496 178.021 79.659C178.234 79.8199 179.231 79.1375 179.405 79.3483C179.573 79.5504 179.286 80.1133 179.41 80.361Z" fill="#D9AE00"/>
<path d="M56.4721 95.2028C56.5938 95.4484 56.4613 95.7397 56.5199 95.9983C56.5808 96.2634 56.3417 96.4655 56.3396 96.7329C56.3374 97.0024 56.8351 97.2718 56.7721 97.5326C56.7112 97.7934 56.7655 98.1151 56.6438 98.3585C56.5265 98.5976 55.5376 98.189 55.3681 98.402C55.2007 98.6085 55.392 98.9583 55.179 99.13C54.9725 99.2952 54.9247 99.543 54.677 99.6647C54.4292 99.7886 54.1793 99.5777 53.9228 99.6408C53.6577 99.706 53.5207 99.4452 53.2556 99.4517C52.9839 99.4582 52.884 99.606 52.621 99.5539C52.3558 99.4995 52.0581 99.9081 51.8125 99.7973C51.5669 99.6864 51.1083 99.9429 50.8932 99.7799C50.6802 99.619 49.9804 99.7886 49.8087 99.5799C49.6392 99.3756 50.176 98.6084 50.0543 98.3607C49.9326 98.1151 50.6367 97.6913 50.5802 97.4348C50.5194 97.1697 50.3216 97.1023 50.3238 96.835C50.3238 96.5655 49.0741 96.1504 49.135 95.8896C49.198 95.6266 49.7196 95.4332 49.8391 95.192C49.9565 94.9507 50.5628 95.042 50.7345 94.8312C50.9019 94.6247 50.465 93.7815 50.6802 93.6119C50.8867 93.4468 51.743 94.3248 51.9907 94.2009C52.2385 94.0792 52.1798 93.3294 52.4384 93.2664C52.7036 93.2012 52.9687 92.5405 53.236 92.5362C53.5077 92.5318 53.7989 93.1881 54.0597 93.2425C54.3227 93.2946 54.2032 94.24 54.4488 94.3487C54.6944 94.4596 54.8704 94.3379 55.0834 94.5009C55.2964 94.6617 56.2939 93.9793 56.4678 94.1901C56.6351 94.3922 56.3483 94.9551 56.4721 95.2028Z" fill="#D9AE00"/>
<path d="M140.56 197.186C140.682 197.432 140.549 197.723 140.608 197.982C140.669 198.247 140.43 198.449 140.428 198.716C140.426 198.986 140.923 199.255 140.86 199.516C140.799 199.777 140.854 200.099 140.732 200.342C140.615 200.581 139.626 200.172 139.456 200.385C139.289 200.592 139.48 200.942 139.267 201.113C139.061 201.279 139.013 201.526 138.765 201.648C138.517 201.772 138.267 201.561 138.011 201.624C137.746 201.689 137.609 201.429 137.344 201.435C137.072 201.439 136.972 201.589 136.709 201.537C136.444 201.483 136.146 201.892 135.901 201.781C135.655 201.67 135.196 201.926 134.981 201.763C134.768 201.602 134.069 201.772 133.895 201.563C133.725 201.359 134.262 200.592 134.14 200.344C134.019 200.098 134.725 199.675 134.666 199.418C134.605 199.153 134.408 199.086 134.41 198.818C134.41 198.549 133.16 198.134 133.221 197.873C133.284 197.61 133.806 197.417 133.925 197.175C134.042 196.934 134.649 197.025 134.82 196.815C134.988 196.608 134.553 195.765 134.766 195.595C134.973 195.43 135.829 196.308 136.077 196.184C136.324 196.063 136.266 195.313 136.524 195.25C136.79 195.185 137.055 194.524 137.322 194.52C137.594 194.515 137.885 195.172 138.146 195.226C138.411 195.278 138.289 196.221 138.535 196.332C138.78 196.443 138.956 196.321 139.169 196.484C139.382 196.645 140.38 195.963 140.554 196.173C140.723 196.376 140.439 196.938 140.56 197.186Z" fill="#26541B"/>
<path d="M95.6852 155.028C95.807 155.274 95.6744 155.565 95.733 155.824C95.7939 156.089 95.5548 156.291 95.5527 156.558C95.5505 156.828 96.0482 157.097 95.9852 157.358C95.9243 157.619 95.9765 157.94 95.8569 158.184C95.7396 158.423 94.7507 158.014 94.5812 158.227C94.4138 158.434 94.6051 158.784 94.3921 158.955C94.1856 159.12 94.1378 159.368 93.8901 159.49C93.6423 159.614 93.3924 159.403 93.1359 159.466C92.8708 159.531 92.7339 159.27 92.4687 159.277C92.197 159.281 92.0971 159.431 91.8341 159.379C91.5689 159.325 91.2712 159.733 91.0256 159.622C90.78 159.512 90.3215 159.768 90.1063 159.605C89.8933 159.444 89.1935 159.614 89.0196 159.405C88.8501 159.201 89.3869 158.434 89.2652 158.186C89.1435 157.94 89.8498 157.517 89.7912 157.26C89.7303 156.995 89.5325 156.928 89.5347 156.66C89.5347 156.391 88.285 155.976 88.3459 155.715C88.4089 155.452 88.9305 155.258 89.0501 155.017C89.1674 154.776 89.7738 154.867 89.9455 154.656C90.1128 154.45 89.676 153.607 89.8911 153.437C90.0976 153.272 90.9539 154.15 91.2017 154.026C91.4494 153.904 91.3907 153.155 91.6472 153.092C91.9123 153.026 92.1775 152.366 92.4448 152.361C92.7165 152.355 93.0077 153.013 93.2685 153.068C93.5336 153.12 93.4119 154.065 93.6575 154.174C93.9031 154.285 94.0792 154.163 94.2943 154.326C94.5073 154.487 95.5049 153.804 95.6787 154.015C95.8482 154.215 95.5635 154.78 95.6852 155.028Z" fill="#26541B"/>
<path d="M187.246 98.1391C187.509 98.5737 187.314 99.1301 187.466 99.593C187.622 100.071 187.212 100.484 187.253 100.973C187.294 101.471 188.251 101.882 188.179 102.373C188.109 102.864 188.261 103.446 188.081 103.914C187.905 104.374 186.019 103.783 185.74 104.198C185.466 104.607 185.877 105.22 185.512 105.568C185.16 105.904 185.11 106.372 184.675 106.635C184.241 106.898 183.745 106.556 183.282 106.713C182.804 106.876 182.513 106.419 182.024 106.472C181.526 106.526 181.363 106.819 180.872 106.763C180.377 106.709 179.894 107.506 179.427 107.343C178.957 107.178 178.155 107.728 177.734 107.463C177.316 107.2 176.056 107.63 175.704 107.269C175.36 106.922 176.219 105.422 175.956 104.987C175.693 104.555 176.921 103.661 176.771 103.196C176.615 102.718 176.241 102.625 176.202 102.134C176.158 101.636 173.791 101.077 173.861 100.586C173.933 100.095 174.861 99.6539 175.041 99.1888C175.217 98.7259 176.349 98.7954 176.63 98.3781C176.904 97.9695 175.967 96.4917 176.332 96.1439C176.684 95.8071 178.403 97.2806 178.838 97.0154C179.275 96.7503 179.044 95.3833 179.505 95.2246C179.983 95.0616 180.363 93.8032 180.852 93.7489C181.35 93.6946 181.996 94.8595 182.485 94.9138C182.978 94.9703 182.913 96.7242 183.382 96.8872C183.852 97.0502 184.154 96.7981 184.575 97.0654C184.993 97.3262 186.718 95.9092 187.07 96.2678C187.416 96.6221 186.981 97.7044 187.246 98.1391Z" fill="#26541B"/>
<path d="M65.3501 145.233C64.9676 145.567 64.3873 145.47 63.9548 145.7C63.5093 145.935 63.0355 145.604 62.5573 145.728C62.0748 145.854 61.8336 146.867 61.3381 146.882C60.8404 146.897 60.2949 147.147 59.8037 147.05C59.3191 146.954 59.5777 144.996 59.1191 144.794C58.6714 144.594 58.1368 145.104 57.7325 144.805C57.3392 144.515 56.8719 144.546 56.5372 144.163C56.2025 143.781 56.4546 143.233 56.2199 142.807C55.9765 142.364 56.3764 141.997 56.2395 141.525C56.1004 141.042 55.7852 140.934 55.7548 140.44C55.7244 139.943 54.8529 139.606 54.9355 139.117C55.0159 138.626 54.3378 137.932 54.5269 137.47C54.7138 137.013 54.0726 135.844 54.3682 135.435C54.6529 135.038 56.2764 135.627 56.6589 135.292C57.0414 134.957 58.1303 136.013 58.5627 135.787C59.0083 135.55 59.0344 135.166 59.5103 135.042C59.9928 134.914 60.1362 132.486 60.6318 132.471C61.1273 132.458 61.7228 133.295 62.2118 133.392C62.6986 133.488 62.8246 134.616 63.2832 134.818C63.7331 135.016 65.0284 133.84 65.4327 134.14C65.8239 134.429 64.6698 136.376 65.0045 136.759C65.3392 137.144 66.6497 136.683 66.8844 137.109C67.1279 137.552 68.4318 137.711 68.5688 138.182C68.7079 138.665 67.6712 139.497 67.7016 139.991C67.732 140.488 65.9912 140.723 65.913 141.214C65.8325 141.705 66.1325 141.96 65.9434 142.42C65.7565 142.877 67.4495 144.331 67.1583 144.741C66.8736 145.139 65.7326 144.898 65.3501 145.233Z" fill="#26541B"/>
<path d="M65.3501 141.127C64.9676 141.462 64.3873 141.364 63.9548 141.595C63.5093 141.829 63.0355 141.499 62.5573 141.623C62.0748 141.749 61.8336 142.762 61.3381 142.777C60.8404 142.792 60.2949 143.042 59.8037 142.944C59.3191 142.851 59.5777 140.891 59.1191 140.688C58.6714 140.488 58.1368 140.999 57.7325 140.699C57.3392 140.41 56.8719 140.441 56.5372 140.058C56.2025 139.676 56.4546 139.128 56.2199 138.702C55.9765 138.259 56.3764 137.891 56.2395 137.42C56.1004 136.937 55.7852 136.829 55.7548 136.335C55.7244 135.838 54.8529 135.501 54.9355 135.012C55.0159 134.52 54.3378 133.827 54.5269 133.364C54.7138 132.908 54.0726 131.741 54.3682 131.33C54.6529 130.932 56.2764 131.521 56.6589 131.187C57.0414 130.852 58.1303 131.908 58.5627 131.68C59.0083 131.443 59.0344 131.058 59.5103 130.934C59.9928 130.806 60.1362 128.379 60.6318 128.363C61.1273 128.35 61.7228 129.187 62.2118 129.285C62.6986 129.381 62.8246 130.509 63.2832 130.711C63.7331 130.908 65.0284 129.733 65.4327 130.033C65.8239 130.322 64.6698 132.269 65.0045 132.651C65.3392 133.036 66.6497 132.575 66.8844 133.001C67.1279 133.445 68.4318 133.603 68.5688 134.075C68.7079 134.557 67.6712 135.39 67.7016 135.883C67.732 136.381 65.9912 136.616 65.913 137.107C65.8325 137.596 66.1325 137.852 65.9434 138.313C65.7565 138.769 67.4495 140.223 67.1583 140.634C66.8736 141.034 65.7326 140.793 65.3501 141.127Z" fill="#D9AE00"/>
<path d="M160.573 116.793C160.227 116.652 160.104 116.237 159.81 116.026C159.51 115.809 159.573 115.387 159.336 115.115C159.095 114.837 158.35 115.011 158.178 114.687C158.006 114.366 157.663 114.085 157.567 113.731C157.472 113.381 158.847 112.914 158.832 112.547C158.817 112.184 158.308 112.001 158.371 111.636C158.434 111.282 158.261 110.984 158.404 110.638C158.547 110.293 158.991 110.28 159.195 109.989C159.408 109.684 159.78 109.828 160.047 109.582C160.319 109.334 160.288 109.091 160.603 108.911C160.921 108.728 160.86 108.046 161.21 107.939C161.557 107.833 161.797 107.159 162.162 107.133C162.525 107.109 163.083 106.305 163.448 106.366C163.803 106.422 163.944 107.685 164.289 107.828C164.635 107.972 164.292 109.034 164.585 109.245C164.885 109.46 165.148 109.354 165.385 109.628C165.626 109.904 167.273 109.206 167.445 109.53C167.617 109.852 167.256 110.519 167.354 110.873C167.449 111.225 166.747 111.675 166.763 112.042C166.78 112.405 167.975 112.873 167.91 113.24C167.847 113.592 166.187 113.466 166.045 113.809C165.902 114.155 166.632 114.868 166.426 115.163C166.213 115.467 166.534 116.378 166.267 116.624C165.995 116.874 165.107 116.461 164.791 116.641C164.474 116.821 163.75 115.752 163.403 115.861C163.053 115.967 162.983 116.248 162.618 116.274C162.255 116.3 161.849 117.889 161.486 117.83C161.132 117.767 160.919 116.937 160.573 116.793Z" fill="#D9AE00"/>
<path d="M67.7037 174.091C67.6146 174.454 67.2234 174.638 67.0604 174.96C66.8909 175.288 66.4671 175.29 66.2324 175.564C65.9955 175.845 66.278 176.557 65.9846 176.775C65.6912 176.994 65.4674 177.375 65.1305 177.522C64.798 177.67 64.1308 176.381 63.7678 176.451C63.4114 176.52 63.3071 177.051 62.9376 177.042C62.579 177.033 62.3117 177.251 61.9466 177.162C61.5836 177.07 61.5054 176.636 61.1837 176.477C60.8512 176.312 60.936 175.923 60.6534 175.697C60.3687 175.464 60.1318 175.534 59.9058 175.249C59.6776 174.962 59.0104 175.125 58.8539 174.797C58.6953 174.469 57.9933 174.336 57.9129 173.975C57.8346 173.621 56.9566 173.189 56.961 172.819C56.9653 172.458 58.1911 172.13 58.2802 171.767C58.3693 171.404 59.4711 171.583 59.6363 171.261C59.8037 170.933 59.6602 170.689 59.8928 170.413C60.1297 170.133 59.1908 168.61 59.4842 168.392C59.7776 168.175 60.4883 168.429 60.8251 168.281C61.1577 168.134 61.7097 168.759 62.0705 168.69C62.4269 168.618 62.7094 167.366 63.0811 167.375C63.4375 167.384 63.5635 169.044 63.9265 169.133C64.2916 169.225 64.8849 168.394 65.2066 168.551C65.5391 168.716 66.3932 168.262 66.6736 168.488C66.9605 168.72 66.6888 169.659 66.9148 169.944C67.1409 170.231 66.1933 171.107 66.3519 171.435C66.5106 171.763 66.7996 171.791 66.88 172.15C66.9605 172.504 68.5926 172.665 68.5883 173.034C68.5818 173.391 67.7928 173.728 67.7037 174.091Z" fill="#D9AE00"/>
<path d="M183.478 158.803C183.85 158.775 184.15 159.088 184.504 159.146C184.871 159.205 185.004 159.609 185.336 159.746C185.675 159.885 186.266 159.396 186.562 159.607C186.862 159.818 187.292 159.913 187.538 160.187C187.781 160.457 186.764 161.493 186.942 161.815C187.118 162.132 187.657 162.067 187.762 162.422C187.864 162.765 188.153 162.954 188.181 163.328C188.209 163.702 187.818 163.91 187.768 164.264C187.714 164.632 187.318 164.671 187.19 165.01C187.057 165.353 187.197 165.555 186.997 165.86C186.794 166.166 187.157 166.749 186.892 166.999C186.629 167.253 186.721 167.959 186.405 168.148C186.092 168.333 185.953 169.302 185.601 169.413C185.258 169.522 184.562 168.459 184.193 168.485C183.821 168.511 183.647 167.409 183.291 167.353C182.926 167.296 182.741 167.509 182.407 167.372C182.065 167.233 180.909 168.598 180.611 168.387C180.314 168.176 180.335 167.42 180.09 167.146C179.846 166.877 180.27 166.157 180.092 165.836C179.912 165.521 178.636 165.64 178.527 165.284C178.425 164.943 179.964 164.308 179.935 163.936C179.907 163.562 178.936 163.254 178.986 162.9C179.038 162.532 178.342 161.861 178.468 161.524C178.601 161.178 179.577 161.146 179.779 160.844C179.981 160.537 181.107 161.167 181.37 160.915C181.635 160.663 181.57 160.381 181.885 160.192C182.196 160.005 181.844 158.405 182.196 158.292C182.541 158.186 183.104 158.831 183.478 158.803Z" fill="#D9AE00"/>
<path d="M88.1101 102.218C87.9405 101.934 88.0709 101.575 87.9775 101.273C87.8797 100.96 88.147 100.697 88.1253 100.378C88.1014 100.056 87.4841 99.7821 87.5341 99.4626C87.5841 99.1453 87.4885 98.765 87.6102 98.4651C87.7275 98.1673 88.9468 98.565 89.1294 98.2955C89.3097 98.0326 89.0468 97.6327 89.2858 97.4088C89.5184 97.1937 89.551 96.8916 89.8357 96.722C90.1204 96.5525 90.4377 96.7807 90.7398 96.6808C91.0528 96.5786 91.2375 96.8764 91.5548 96.8459C91.8764 96.8133 91.9851 96.6242 92.3024 96.6655C92.6241 96.7047 92.9436 96.1896 93.2456 96.2983C93.5499 96.4069 94.0715 96.057 94.3432 96.2331C94.6127 96.4069 95.432 96.1374 95.658 96.3721C95.8776 96.6003 95.3103 97.5675 95.4777 97.8522C95.645 98.1347 94.843 98.7063 94.9365 99.0084C95.0343 99.3214 95.2777 99.3822 95.3016 99.7017C95.3255 100.023 96.8577 100.402 96.8077 100.721C96.7599 101.038 96.1536 101.319 96.034 101.621C95.9167 101.918 95.1821 101.866 94.9974 102.134C94.817 102.397 95.4146 103.362 95.1756 103.585C94.9452 103.801 93.8411 102.833 93.5564 103.001C93.2717 103.17 93.4108 104.059 93.1109 104.159C92.8001 104.261 92.5437 105.074 92.2263 105.107C91.9025 105.139 91.4939 104.379 91.1766 104.34C90.855 104.298 90.9115 103.162 90.6094 103.053C90.3051 102.944 90.1074 103.105 89.8357 102.929C89.5662 102.757 88.4361 103.664 88.21 103.429C87.9905 103.201 88.2796 102.501 88.1101 102.218Z" fill="#D9AE00"/>
<path d="M119.453 170.458C119.17 170.628 118.809 170.498 118.507 170.593C118.194 170.691 117.929 170.424 117.612 170.448C117.29 170.471 117.019 171.089 116.699 171.041C116.382 170.993 116.001 171.089 115.699 170.967C115.402 170.852 115.797 169.63 115.525 169.448C115.262 169.267 114.863 169.53 114.639 169.291C114.424 169.061 114.121 169.026 113.952 168.741C113.782 168.457 114.008 168.139 113.911 167.84C113.809 167.527 114.104 167.342 114.074 167.022C114.041 166.701 113.852 166.592 113.891 166.275C113.93 165.953 113.415 165.636 113.524 165.334C113.632 165.029 113.28 164.508 113.456 164.236C113.63 163.967 113.356 163.147 113.593 162.919C113.822 162.7 114.789 163.265 115.073 163.097C115.356 162.928 115.93 163.732 116.23 163.636C116.543 163.539 116.603 163.295 116.923 163.271C117.245 163.247 117.621 161.713 117.94 161.763C118.257 161.813 118.54 162.417 118.84 162.534C119.14 162.652 119.088 163.386 119.355 163.569C119.62 163.749 120.583 163.15 120.807 163.391C121.022 163.621 120.057 164.727 120.226 165.012C120.396 165.295 121.285 165.155 121.385 165.455C121.487 165.766 122.302 166.02 122.335 166.338C122.367 166.662 121.606 167.07 121.569 167.39C121.528 167.711 120.392 167.657 120.285 167.961C120.176 168.266 120.337 168.463 120.161 168.735C119.989 169.004 120.898 170.132 120.663 170.358C120.437 170.578 119.735 170.291 119.453 170.458Z" fill="#D9AE00"/>
<path d="M141.442 198.164C141.174 197.971 141.151 197.591 140.944 197.352C140.729 197.104 140.87 196.754 140.722 196.471C140.575 196.184 139.899 196.18 139.818 195.867C139.738 195.556 139.501 195.246 139.492 194.92C139.481 194.6 140.759 194.481 140.82 194.161C140.881 193.85 140.481 193.585 140.614 193.285C140.742 192.996 140.653 192.705 140.846 192.435C141.04 192.168 141.422 192.249 141.659 192.04C141.905 191.823 142.194 192.023 142.472 191.868C142.754 191.71 142.778 191.494 143.087 191.403C143.398 191.312 143.487 190.714 143.806 190.695C144.128 190.673 144.469 190.145 144.789 190.197C145.106 190.249 145.749 189.675 146.051 189.801C146.345 189.925 146.206 191.036 146.473 191.229C146.738 191.423 146.23 192.266 146.434 192.505C146.647 192.753 146.895 192.716 147.042 192.998C147.192 193.283 148.748 193.024 148.829 193.337C148.909 193.648 148.466 194.146 148.475 194.468C148.486 194.789 147.792 195.03 147.729 195.35C147.668 195.665 148.599 196.313 148.466 196.613C148.34 196.902 146.942 196.452 146.747 196.719C146.553 196.986 147.034 197.747 146.797 197.958C146.553 198.175 146.64 199.023 146.36 199.179C146.075 199.338 145.399 198.801 145.091 198.892C144.78 198.984 144.38 197.917 144.058 197.938C143.737 197.958 143.617 198.184 143.3 198.132C142.985 198.082 142.307 199.362 142.007 199.234C141.722 199.116 141.709 198.358 141.442 198.164Z" fill="#D9AE00"/>
<path d="M66.5734 63.1026C66.6777 62.7897 67.0342 62.6549 67.2037 62.3854C67.3776 62.1072 67.7514 62.1377 67.9796 61.9138C68.2099 61.6856 68.0122 61.0401 68.286 60.8706C68.5598 60.7011 68.7859 60.3816 69.0923 60.2773C69.3944 60.1708 69.8878 61.3553 70.2116 61.3183C70.5289 61.2835 70.6593 60.825 70.9853 60.8619C71.3004 60.8967 71.5504 60.7272 71.8655 60.8315C72.1785 60.938 72.2132 61.327 72.4849 61.49C72.7652 61.6595 72.6609 61.9942 72.8891 62.2159C73.1239 62.4397 73.3368 62.3963 73.5172 62.6636C73.6954 62.9331 74.2931 62.8396 74.4083 63.1396C74.5257 63.4417 75.132 63.609 75.1755 63.9307C75.2211 64.248 75.96 64.6935 75.9274 65.0195C75.897 65.3346 74.7951 65.5346 74.6908 65.8475C74.5865 66.1583 73.6281 65.9236 73.4607 66.1909C73.2869 66.4691 73.3977 66.693 73.1717 66.919C72.9435 67.1472 73.6541 68.5555 73.3803 68.7272C73.1065 68.8967 72.5001 68.6207 72.1958 68.725C71.8916 68.8294 71.4547 68.2404 71.1309 68.2752C70.8136 68.3099 70.4702 69.3922 70.1442 69.3553C69.8313 69.3205 69.8443 67.8535 69.5313 67.747C69.2184 67.6427 68.6337 68.3273 68.3621 68.1643C68.0817 67.9948 67.2971 68.3317 67.0646 68.11C66.8299 67.884 67.1407 67.0798 66.9624 66.8125C66.7842 66.543 67.6818 65.8432 67.5666 65.5433C67.4514 65.2412 67.2015 65.1955 67.1559 64.8761C67.1102 64.5587 65.6867 64.2936 65.7193 63.9698C65.7476 63.6525 66.4669 63.4156 66.5734 63.1026Z" fill="#D9AE00"/>
<path d="M158.597 70.0724C158.597 70.581 158.143 70.9548 158.03 71.4308C157.915 71.922 157.352 72.0611 157.13 72.5001C156.909 72.9478 157.513 73.7954 157.196 74.1779C156.88 74.5604 156.709 75.1385 156.313 75.4427C155.922 75.7448 154.618 74.2604 154.164 74.4734C153.718 74.6799 153.751 75.4167 153.258 75.5232C152.782 75.6275 152.497 76.0013 151.988 76.0013C151.48 76.0013 151.234 75.4515 150.758 75.3471C150.265 75.2385 150.252 74.6951 149.806 74.4865C149.352 74.2735 149.061 74.4409 148.67 74.1388C148.274 73.8345 147.448 74.2691 147.133 73.8845C146.818 73.502 145.846 73.5541 145.625 73.1086C145.405 72.6674 144.103 72.3805 143.99 71.8894C143.877 71.4134 145.39 70.5788 145.39 70.0703C145.39 69.5617 146.903 69.4378 147.016 68.9619C147.131 68.4707 146.859 68.1969 147.079 67.7578C147.3 67.3101 145.566 65.6041 145.881 65.2216C146.199 64.8391 147.22 64.9434 147.616 64.6369C148.007 64.3348 148.939 64.9803 149.393 64.7695C149.839 64.5609 149.804 62.8135 150.297 62.7048C150.773 62.6005 151.478 64.7499 151.986 64.7499C152.495 64.7499 153.01 63.4612 153.486 63.5655C153.979 63.6741 154.957 62.7961 155.403 63.0048C155.857 63.2156 155.802 64.5456 156.194 64.8477C156.589 65.152 155.62 66.6168 155.937 66.9994C156.255 67.3819 156.644 67.3232 156.865 67.7709C157.087 68.2121 159.295 67.8948 159.41 68.3838C159.53 68.8641 158.597 69.5639 158.597 70.0724Z" fill="#54BA3C"/>
<path d="M104.379 183.377C104.053 183.679 103.649 183.725 103.301 183.964C102.945 184.21 102.651 184.073 102.288 184.249C101.921 184.427 101.6 185.168 101.237 185.272C100.878 185.377 100.445 185.653 100.104 185.679C99.7674 185.705 100.243 184.312 99.9434 184.26C99.6479 184.208 99.1893 184.657 98.9394 184.529C98.7003 184.405 98.3547 184.516 98.1722 184.316C97.9853 184.116 98.2504 183.692 98.1439 183.445C98.0331 183.186 98.3765 182.858 98.3482 182.56C98.32 182.256 98.107 182.241 98.1591 181.908C98.2091 181.571 97.631 181.506 97.7614 181.154C97.8918 180.802 97.505 180.454 97.7092 180.1C97.9114 179.75 97.6223 179.07 97.894 178.735C98.1591 178.409 99.2458 178.505 99.5696 178.203C99.8956 177.898 100.528 178.42 100.874 178.181C101.23 177.933 101.306 177.664 101.669 177.49C102.036 177.312 102.499 175.614 102.86 175.51C103.219 175.408 103.527 175.871 103.866 175.842C104.203 175.816 104.127 176.566 104.427 176.62C104.723 176.67 105.831 175.616 106.081 175.747C106.322 175.873 105.201 177.427 105.385 177.627C105.57 177.827 106.585 177.262 106.692 177.512C106.802 177.768 107.722 177.631 107.75 177.929C107.78 178.233 106.909 179.002 106.857 179.335C106.807 179.672 105.514 180.163 105.383 180.515C105.253 180.867 105.431 180.985 105.227 181.339C105.025 181.686 106.033 182.365 105.761 182.701C105.494 183.023 104.705 183.075 104.379 183.377Z" fill="#54BA3C"/>
<path d="M188.642 85.2746C188.42 85.4789 188.092 85.4507 187.847 85.5984C187.59 85.7506 187.325 85.5854 187.053 85.6767C186.78 85.768 186.632 86.3483 186.349 86.3787C186.069 86.4091 185.756 86.5743 185.48 86.5417C185.206 86.5091 185.376 85.4007 185.117 85.3072C184.865 85.2159 184.558 85.5246 184.33 85.3746C184.113 85.2312 183.846 85.2681 183.661 85.0681C183.476 84.8682 183.624 84.5509 183.498 84.3227C183.365 84.0858 183.596 83.862 183.524 83.6033C183.452 83.3404 183.274 83.2925 183.261 83.0187C183.25 82.7405 182.761 82.5927 182.811 82.3124C182.861 82.0342 182.485 81.6734 182.598 81.4061C182.709 81.1409 182.361 80.5172 182.533 80.2738C182.698 80.0391 183.611 80.2933 183.833 80.0912C184.052 79.8848 184.658 80.4303 184.906 80.2825C185.16 80.1282 185.18 79.913 185.452 79.8217C185.726 79.7304 185.836 78.3612 186.117 78.3286C186.397 78.2982 186.725 78.7416 187.001 78.7742C187.275 78.8068 187.334 79.4327 187.59 79.5261C187.842 79.6152 188.588 78.8981 188.814 79.048C189.033 79.1915 188.357 80.3346 188.542 80.5346C188.727 80.7345 189.475 80.4172 189.603 80.6454C189.735 80.8823 190.472 80.9127 190.544 81.1714C190.618 81.4343 190.022 81.9494 190.033 82.2233C190.044 82.4993 189.057 82.7101 189.005 82.9883C188.953 83.2665 189.12 83.3969 189.007 83.6642C188.896 83.9272 189.84 84.6661 189.668 84.9095C189.505 85.1529 188.862 85.0703 188.642 85.2746Z" fill="#54BA3C"/>
<path d="M137.295 161.129C137.111 161.301 136.809 161.249 136.593 161.366C136.372 161.488 136.117 161.314 135.876 161.375C135.633 161.44 135.544 161.964 135.287 161.968C135.033 161.975 134.761 162.103 134.505 162.051C134.253 162.001 134.318 160.986 134.077 160.879C133.84 160.775 133.583 161.036 133.364 160.879C133.153 160.729 132.912 160.742 132.727 160.545C132.542 160.345 132.653 160.062 132.518 159.84C132.377 159.61 132.571 159.421 132.484 159.175C132.397 158.925 132.229 158.867 132.197 158.613C132.162 158.354 131.706 158.178 131.729 157.924C131.753 157.669 131.382 157.306 131.462 157.069C131.543 156.835 131.175 156.226 131.312 156.018C131.445 155.813 132.301 156.122 132.486 155.952C132.67 155.778 133.268 156.331 133.481 156.215C133.701 156.094 133.703 155.896 133.942 155.833C134.185 155.77 134.174 154.511 134.431 154.505C134.685 154.501 135.02 154.937 135.276 154.987C135.528 155.04 135.633 155.624 135.874 155.731C136.113 155.833 136.737 155.231 136.956 155.387C137.167 155.539 136.641 156.544 136.826 156.741C137.013 156.941 137.669 156.707 137.804 156.928C137.943 157.156 138.621 157.243 138.708 157.491C138.797 157.741 138.293 158.169 138.323 158.423C138.358 158.682 137.469 158.797 137.445 159.052C137.421 159.306 137.582 159.438 137.502 159.677C137.421 159.912 138.341 160.673 138.206 160.884C138.073 161.086 137.478 160.958 137.295 161.129Z" fill="#54BA3C"/>
<path d="M174.316 137.594C173.938 137.685 173.577 137.412 173.201 137.414C172.817 137.416 172.612 137.02 172.245 136.933C171.873 136.846 171.347 137.449 171.006 137.281C170.663 137.114 170.202 137.09 169.907 136.849C169.611 136.612 170.487 135.375 170.246 135.075C170.013 134.78 169.47 134.934 169.302 134.586C169.139 134.249 168.809 134.104 168.718 133.726C168.626 133.345 168.994 133.065 168.987 132.693C168.979 132.306 169.383 132.2 169.459 131.83C169.537 131.454 169.359 131.268 169.515 130.922C169.672 130.572 169.2 130.035 169.431 129.731C169.659 129.427 169.448 128.714 169.741 128.466C170.03 128.223 170.013 127.203 170.359 127.03C170.693 126.86 171.584 127.838 171.965 127.749C172.345 127.66 172.706 128.764 173.08 128.764C173.466 128.762 173.621 128.512 173.988 128.597C174.362 128.681 175.325 127.084 175.666 127.251C176.007 127.419 176.114 128.201 176.411 128.44C176.707 128.679 176.392 129.488 176.629 129.79C176.861 130.085 178.161 129.748 178.33 130.096C178.493 130.433 177.015 131.341 177.107 131.72C177.196 132.1 178.25 132.254 178.256 132.628C178.263 133.013 179.093 133.586 179.017 133.956C178.939 134.332 177.939 134.53 177.783 134.873C177.626 135.223 176.364 134.76 176.133 135.064C175.905 135.371 176.016 135.649 175.725 135.895C175.435 136.138 176.066 137.729 175.722 137.903C175.383 138.072 174.697 137.503 174.316 137.594Z" fill="#A27F00"/>
<path d="M176.157 170.259C175.79 170.244 175.533 169.904 175.194 169.809C174.842 169.711 174.759 169.3 174.446 169.129C174.131 168.955 173.501 169.366 173.234 169.126C172.966 168.887 172.553 168.746 172.347 168.451C172.14 168.159 173.249 167.262 173.11 166.927C172.973 166.599 172.443 166.601 172.38 166.242C172.317 165.895 172.056 165.68 172.071 165.312C172.086 164.945 172.488 164.784 172.58 164.445C172.673 164.091 173.064 164.097 173.227 163.782C173.395 163.461 173.282 163.245 173.512 162.972C173.744 162.696 173.455 162.087 173.74 161.87C174.027 161.652 174.016 160.953 174.344 160.803C174.668 160.657 174.914 159.727 175.272 159.657C175.62 159.59 176.179 160.705 176.544 160.72C176.911 160.735 176.954 161.833 177.296 161.926C177.646 162.022 177.852 161.835 178.163 162.009C178.478 162.183 179.762 160.979 180.03 161.22C180.297 161.459 180.193 162.196 180.399 162.487C180.606 162.778 180.112 163.43 180.251 163.767C180.388 164.095 181.651 164.123 181.716 164.48C181.777 164.828 180.204 165.273 180.188 165.64C180.173 166.01 181.09 166.418 180.999 166.76C180.908 167.112 181.512 167.844 181.349 168.159C181.184 168.481 180.225 168.405 179.997 168.677C179.765 168.953 178.737 168.211 178.452 168.429C178.165 168.646 178.198 168.929 177.867 169.076C177.543 169.222 177.706 170.828 177.35 170.896C177.002 170.967 176.524 170.274 176.157 170.259Z" fill="#54BA3C"/>
<path d="M160.447 155.028C160.568 155.274 160.436 155.565 160.497 155.824C160.557 156.089 160.318 156.291 160.316 156.558C160.314 156.828 160.812 157.097 160.749 157.358C160.688 157.619 160.742 157.94 160.62 158.184C160.503 158.423 159.514 158.014 159.345 158.227C159.177 158.434 159.369 158.784 159.156 158.955C158.949 159.12 158.901 159.368 158.654 159.49C158.406 159.614 158.156 159.403 157.899 159.466C157.634 159.531 157.497 159.27 157.232 159.277C156.96 159.281 156.861 159.431 156.598 159.379C156.332 159.325 156.035 159.733 155.789 159.622C155.543 159.512 155.085 159.768 154.87 159.605C154.657 159.444 153.957 159.614 153.785 159.405C153.616 159.201 154.153 158.434 154.031 158.186C153.909 157.94 154.615 157.517 154.557 157.26C154.496 156.995 154.298 156.928 154.3 156.66C154.3 156.391 153.051 155.976 153.112 155.715C153.175 155.452 153.696 155.258 153.816 155.017C153.933 154.776 154.539 154.867 154.711 154.656C154.878 154.45 154.442 153.607 154.657 153.437C154.863 153.272 155.72 154.15 155.967 154.026C156.215 153.904 156.156 153.155 156.415 153.092C156.68 153.026 156.945 152.366 157.213 152.361C157.484 152.355 157.776 153.013 158.036 153.068C158.301 153.12 158.18 154.065 158.425 154.174C158.671 154.285 158.847 154.163 159.06 154.326C159.273 154.487 160.271 153.804 160.444 154.015C160.612 154.215 160.325 154.78 160.447 155.028Z" fill="#26541B"/>
</g>
</svg>
