<svg width="187" height="246" viewBox="0 0 187 246" fill="none" xmlns="http://www.w3.org/2000/svg">
<g id="Group">
<path id="Vector" opacity="0.25" d="M52.0541 245.156C50.8349 245.156 49.6026 245.061 48.3964 244.872C42.85 244.002 37.4493 242.109 33.1092 240.588C31.9247 240.173 30.7837 239.771 29.7122 239.423C18.3088 235.722 14.0512 225.903 11.7953 219.539C8.7222 218.29 4.97972 216.586 1.20681 213.841C-4.03092 210.029 -7.14965 205.484 -9.21432 202.479C-9.70332 201.768 -10.3771 200.788 -10.6444 200.486C-14.8976 196.235 -17.1383 191.673 -18.627 188.374C-23.028 186.498 -30.0501 182.927 -34.3185 175.145C-34.6706 174.725 -35.2878 174.049 -35.6486 173.652C-38.3413 170.696 -42.3424 166.31 -44.6766 159.875C-45.0222 159.34 -45.5785 158.54 -45.8502 158.149C-48.3995 154.474 -52.2507 148.921 -53.4351 141.393C-54.2806 136.007 -53.9893 130.733 -53.7546 126.492C-53.6699 124.91 -53.5851 123.474 -53.5851 122.228C-53.5851 115.497 -51.4226 109.766 -49.9926 105.976C-49.8122 105.5 -49.5731 104.859 -49.3753 104.311C-49.4514 103.785 -49.5405 103.22 -49.5927 102.892C-50.299 98.4216 -51.3683 91.6603 -48.9776 84.2971C-46.7934 77.5685 -42.5945 72.7132 -39.8149 69.4988C-39.3671 68.9816 -38.6021 68.0949 -38.2131 67.5994C-37.8589 66.8996 -37.5024 66.1823 -37.1438 65.4564C-35.1205 61.3771 -32.6037 56.3046 -29.2525 51.6993C-23.9321 44.3903 -16.4776 42.041 -10.3705 41.2825C-8.91441 37.0923 -6.39769 32.4522 -1.77501 28.725C-1.4251 28.2664 -1.03607 27.71 -0.727455 27.2797C1.90445 23.6111 5.87513 18.0778 12.8689 14.507C19.0194 11.3665 25.2069 10.8384 29.3015 10.4907C30.0665 10.4255 31.2684 10.3212 31.8421 10.2364C34.4392 9.43661 37.1755 9.03239 39.9747 9.03239C42.6392 9.03239 45.0886 9.40184 47.2445 9.89519C51.5651 5.22252 58.0916 0 67.7825 0C77.0061 0 83.2067 4.66181 87.4577 9.57572C90.2048 8.57599 93.3279 7.87833 96.8335 7.87833C99.4632 7.87833 102.054 8.28692 104.531 9.08888L105.351 9.35403C110.536 11.034 116.406 12.9379 122.031 15.8088C128.199 18.958 132.215 23.6002 134.871 26.6712C135.343 27.2167 136.084 28.0708 136.462 28.4598C143.128 33.4628 145.814 40.0241 147.407 44.3186C150.745 46.2051 156.05 49.3086 160.227 55.0484C163.114 59.0125 164.589 63.0832 165.437 66.5431C172.42 68.6773 181.787 72.8741 185.405 84.0167C189.111 95.4289 183.58 104.863 180.433 110.064C180.722 113.874 180.713 117.432 180.707 120.666L180.705 122.246C180.705 129.153 178.351 134.508 176.445 138.154C177.975 142.716 179.727 149.745 177.125 157.756C174.815 164.871 170.383 169.598 167.738 172.421C167.376 172.808 166.982 173.213 166.665 173.578C164.446 177.796 162.049 181.265 159.817 184.346C159.519 189.491 158.815 198.599 151.482 205.932C146.575 210.837 139.9 213.432 132.181 213.432C129.786 213.432 127.577 213.197 125.717 212.971C123.333 214.228 121.168 215.11 119.312 215.869C118.273 216.292 117.374 216.66 116.611 217.023C116.285 217.286 115.931 217.609 115.544 217.948C113.733 219.533 110.978 221.947 107.185 224.003C104.229 228.73 98.2309 237.958 86.3754 239.821C85.0931 240.021 83.8022 240.121 82.5264 240.121C77.832 240.121 73.8027 238.83 70.4601 237.128C66.0917 241.314 60.1541 245.156 52.0541 245.156Z" fill="#44A1CC"/>
<g id="Group_2">
<path id="Vector_2" d="M52.0517 235.317C51.341 235.317 50.6238 235.261 49.9218 235.15C45.2578 234.418 40.5308 232.762 36.3624 231.301C35.1062 230.86 33.8913 230.434 32.7503 230.065C24.9133 227.522 22.3618 220.054 20.497 214.601C20.221 213.799 19.895 212.843 19.5951 212.056C18.8975 211.765 18.1672 211.478 17.4153 211.185C14.2313 209.939 10.6236 208.525 6.9963 205.886C3.12342 203.067 0.778385 199.655 -1.10589 196.912C-2.0426 195.552 -2.85109 194.376 -3.60523 193.618C-7.06518 190.156 -8.72124 186.437 -10.0535 183.449C-10.5208 182.399 -10.925 181.491 -11.3314 180.771C-11.9073 180.499 -12.7137 180.173 -13.3135 179.93C-17.0994 178.387 -22.8175 176.062 -25.921 169.983C-26.2209 169.396 -27.5162 167.972 -28.3747 167.031C-30.9088 164.252 -34.0515 160.803 -35.6619 155.843C-35.8423 155.317 -37.1919 153.374 -37.7678 152.544C-40.0477 149.258 -42.8839 145.17 -43.7163 139.869C-44.4009 135.516 -44.1531 131.013 -43.9336 127.04C-43.838 125.256 -43.7489 123.636 -43.7489 122.232C-43.7489 117.297 -42.108 112.948 -40.7909 109.451C-40.2041 107.895 -39.5565 106.176 -39.4152 105.27L-37.3853 105.587C-37.5592 106.702 -38.2177 108.445 -38.8523 110.133C-40.1259 113.513 -41.6951 117.668 -41.6951 122.23C-41.6951 123.667 -41.7842 125.323 -41.8798 127.079C-42.0971 131.019 -42.3384 135.407 -41.6885 139.547C-40.9279 144.383 -38.2416 148.256 -36.0813 151.368C-34.9403 153.013 -33.9732 154.437 -33.7168 155.187C-32.2367 159.742 -29.2592 163.011 -26.8664 165.636C-25.5342 167.101 -24.4888 168.274 -24.0954 169.046C-21.3374 174.442 -16.0476 176.598 -12.5463 178.022C-11.7965 178.326 -10.7468 178.756 -10.1404 179.065L-9.87963 179.198L-9.72967 179.45C-9.20807 180.313 -8.73864 181.369 -8.19314 182.59C-6.92391 185.442 -5.35041 188.969 -2.15996 192.162C-1.27107 193.05 -0.412598 194.298 0.580616 195.743C2.37579 198.358 4.60997 201.609 8.19597 204.221C11.6103 206.706 15.0876 208.068 18.1564 209.268C19.0713 209.626 19.9559 209.974 20.7883 210.328L21.1795 210.496L21.3381 210.889C21.688 211.761 22.101 212.958 22.4117 213.867C24.1591 218.976 26.5194 225.881 33.3784 228.109C34.5324 228.482 35.7625 228.915 37.0339 229.36C41.1198 230.793 45.7533 232.414 50.2326 233.118C50.8303 233.211 51.4388 233.259 52.043 233.259C58.8368 233.259 63.3639 227.628 67.002 223.101L68.6016 224.388C64.7005 229.258 59.83 235.317 52.0517 235.317Z" fill="#B3D9EB"/>
</g>
<g id="Group_3">
<path id="Vector_3" d="M82.5312 230.276V228.222C83.2006 228.222 83.8744 228.17 84.5372 228.068C91.2919 227.007 94.9062 221.22 97.2969 217.39C97.7707 216.632 98.4248 215.584 98.903 214.923L99.0768 214.684L99.3507 214.574C103.067 213.07 105.638 210.816 107.703 209.008C108.885 207.973 109.894 207.089 110.793 206.632C112.086 205.972 113.399 205.437 114.788 204.867C117.224 203.874 119.941 202.766 122.801 200.912L123.083 200.727L123.42 200.747C124.24 200.797 125.307 200.929 126.348 201.06C128.141 201.284 130.16 201.534 132.185 201.534C136.747 201.534 140.411 200.182 143.076 197.517C147.405 193.188 147.744 187.207 147.97 183.252C148.02 182.369 148.096 181.035 148.216 180.261L148.255 180.015L148.916 179.109C151.487 175.597 154.136 171.978 156.466 167.414C156.842 166.682 157.781 165.654 159.065 164.285C161.288 161.914 164.329 158.669 165.82 154.077C167.593 148.613 165.759 143.512 164.544 140.135C164.246 139.302 163.84 138.166 163.675 137.503L163.594 137.183L163.716 136.877C163.973 136.223 164.496 135.251 165.055 134.23C166.644 131.322 168.819 127.338 168.819 122.224L168.821 120.631C168.83 116.519 168.841 112.27 168.258 107.783L168.217 107.47L168.358 107.189C168.784 106.342 169.549 105.077 170.101 104.17C172.672 99.9259 176.189 94.1188 174.1 87.6835C171.747 80.4376 164.099 78.4208 158.515 76.9494C157.676 76.7299 156.603 76.4452 155.688 76.1735L155.079 75.9932L154.968 75.3673C154.873 74.8174 154.782 74.2371 154.703 73.7307L156.735 73.4199C156.781 73.722 156.831 74.0502 156.885 74.3827C157.62 74.5914 158.398 74.7957 159.037 74.963C165.081 76.5561 173.355 78.7381 176.054 87.0489C178.434 94.3774 174.635 100.65 171.86 105.229C171.388 106.005 170.753 107.048 170.334 107.837C170.892 112.338 170.884 116.552 170.875 120.633L170.873 122.224C170.873 127.862 168.552 132.111 166.857 135.214C166.541 135.795 166.044 136.705 165.757 137.327C165.939 137.944 166.244 138.787 166.47 139.415C167.787 143.077 169.767 148.576 167.774 154.709C166.142 159.736 162.921 163.174 160.567 165.684C159.769 166.536 158.567 167.814 158.296 168.347C155.892 173.056 153.193 176.742 150.585 180.307L150.215 180.811C150.126 181.524 150.068 182.589 150.024 183.362C149.781 187.631 149.413 194.081 144.53 198.965C141.466 202.029 137.314 203.583 132.188 203.583C130.036 203.583 127.95 203.322 126.109 203.094C125.237 202.985 124.357 202.875 123.627 202.816C120.715 204.663 118.004 205.767 115.603 206.747C114.216 207.315 112.943 207.832 111.726 208.456C111.054 208.797 110.089 209.642 109.068 210.538C107.036 212.315 104.291 214.721 100.403 216.356C99.9701 216.982 99.4376 217.836 99.0377 218.473C96.4493 222.619 92.5373 228.887 84.8545 230.093C84.0874 230.215 83.305 230.276 82.5312 230.276Z" fill="#B3D9EB"/>
</g>
<g id="Group_4">
<path id="Vector_4" d="M-37.6577 87.9726L-39.6094 87.338C-38.0402 82.5023 -34.8933 78.862 -32.3657 75.9389C-31.379 74.8 -30.0402 73.2504 -29.6838 72.5506C-29.2339 71.6683 -28.7797 70.7554 -28.3211 69.8274C-26.3673 65.8893 -24.1548 61.4254 -21.2925 57.4938C-16.4091 50.7847 -8.33077 50.7695 -2.98437 50.7564H-2.55405C-1.8086 46.3141 -0.608921 40.0136 5.05044 35.893C5.41773 35.5996 6.71522 33.7936 7.26942 33.0199C9.59706 29.7772 12.4811 25.7566 17.3515 23.2703C21.7829 21.0078 26.4186 20.6123 30.1437 20.295C31.7194 20.1581 33.6428 19.9951 34.4839 19.7212C36.2226 19.1562 38.0721 18.8693 39.9824 18.8693C43.7749 18.8693 47.0936 19.982 49.7602 20.8753C50.0254 20.9644 50.321 21.0622 50.6274 21.1622C50.9186 20.8101 51.2055 20.4537 51.4576 20.1407C55.0023 15.7397 59.7576 9.83691 67.7902 9.83691C76.5031 9.83691 81.0736 16.8872 84.4032 22.1597C87.7436 20.0538 91.8208 17.7152 96.8412 17.7152C98.4386 17.7152 100.01 17.9608 101.507 18.4455L102.327 18.7106C107.16 20.2776 112.637 22.0532 117.564 24.5678C122.021 26.8432 125.025 30.3162 127.437 33.1046C128.483 34.3108 129.648 35.6561 130.334 36.156C135.255 39.7355 137.107 44.7841 138.458 48.4679C138.741 49.2395 139.18 50.4283 139.456 50.989C140.062 51.465 141.216 52.1148 142.244 52.6951L141.236 54.4837C139.98 53.7752 138.682 53.045 137.969 52.4256L137.752 52.1604C137.428 51.5953 137.013 50.4913 136.544 49.2155C135.268 45.7382 133.542 41.0286 129.126 37.8142C128.248 37.1753 127.109 35.8604 125.903 34.4695C123.588 31.7941 120.73 28.4906 116.629 26.3977C111.848 23.9571 106.454 22.2075 101.694 20.6645L100.875 20.3993C99.5817 19.9799 98.2234 19.7669 96.8412 19.7669C91.9772 19.7669 87.9088 22.3575 84.6401 24.4395L83.7751 24.9894L82.8623 23.5615C79.7197 18.5824 75.4925 11.8864 67.7902 11.8864C60.7399 11.8864 56.3411 17.3458 53.1289 21.3338C52.6682 21.9076 52.1987 22.4879 51.7554 23.0117L51.3142 23.5311L50.6644 23.3268C50.1319 23.1594 49.5712 22.9725 49.1126 22.8204C46.5828 21.9728 43.4402 20.9187 39.9824 20.9187C38.2894 20.9187 36.6507 21.1708 35.1185 21.6685C34.0557 22.0141 32.1715 22.1749 30.348 22.3314C26.7729 22.6357 22.3589 23.0117 18.286 25.0916C13.8611 27.3496 11.1358 31.1486 8.94722 34.1978C7.83448 35.7474 6.87169 37.0579 6.29358 37.5187C1.10583 41.2959 0.0930748 47.3595 -0.576313 51.3693L-0.81538 52.7842L-2.98003 52.8016C-7.91349 52.8102 -15.3637 52.8276 -19.6343 58.6913C-22.3944 62.4816 -24.5678 66.863 -26.4825 70.7294C-26.9454 71.6639 -27.4018 72.5854 -27.856 73.4743C-28.2907 74.3262 -29.4012 75.6368 -30.8074 77.2624C-33.2198 80.0638 -36.2168 83.5303 -37.6577 87.9726Z" fill="#B3D9EB"/>
</g>
<path id="Vector_5" d="M165.001 122.208C165.001 127.531 160.355 131.643 159.553 136.739C158.731 141.973 163.906 147.962 162.307 152.892C160.679 157.91 155.367 160.944 153 165.577C150.61 170.259 147.845 173.851 144.772 178.072C141.686 182.312 144.324 191.264 140.625 194.963C136.926 198.662 126.088 193.431 121.85 196.517C117.631 199.588 113.611 200.418 108.929 202.811C104.296 205.175 101.792 209.529 96.7762 211.159C91.847 212.758 89.3086 223.721 84.0774 224.542C78.9787 225.344 73.1933 215.575 67.8708 215.575C62.5483 215.575 55.9219 230.693 50.8254 229.891C45.592 229.069 39.4197 226.548 34.4906 224.948C29.4724 223.318 29.0225 209.924 24.389 207.557C19.7076 205.167 14.8024 204.137 10.5818 201.066C6.34159 197.98 4.4834 192.996 0.784386 189.295C-2.91463 185.596 -3.5775 180.589 -6.66363 176.348C-9.73455 172.13 -18.2453 171.982 -20.636 167.301C-23.0006 162.667 -28.5926 159.096 -30.2226 154.08C-31.8221 149.151 -37.4815 144.248 -38.303 139.017C-39.105 133.921 -38.1922 127.529 -38.1922 122.208C-38.1922 116.888 -34.5518 111.211 -33.7499 106.115C-32.9284 100.882 -36.0101 93.9051 -34.4106 88.976C-32.7827 83.9578 -26.9952 79.7089 -24.6284 75.0754C-22.2377 70.394 -19.8014 64.9585 -16.7305 60.7401C-13.6444 56.4999 -1.30854 60.4271 2.39048 56.7281C6.08949 53.0291 4.27693 43.5968 8.51493 40.5107C12.7334 37.4398 15.2523 30.5264 19.9336 28.1357C24.5672 25.7711 31.3002 26.7339 36.3184 25.1039C41.2475 23.5043 47.6654 28.5465 52.8966 27.725C57.993 26.923 62.5462 15.2305 67.8687 15.2305C73.1912 15.2305 77.3227 29.6071 82.4191 30.4069C87.6525 31.2284 94.9267 22.1569 99.8558 23.7564C104.874 25.3843 110.466 27.1447 115.102 29.5114C119.783 31.9021 122.8 37.7201 127.018 40.791C131.258 43.8772 131.308 51.3665 135.007 55.0655C138.706 58.7645 144.522 60.0359 147.608 64.2739C150.679 68.4924 149.61 74.6624 152.001 79.3438C154.365 83.9773 169.433 83.6579 171.063 88.6761C172.662 93.6052 163.482 101.694 164.304 106.926C165.11 112.026 165.001 116.886 165.001 122.208Z" fill="#D9D29E"/>
<path id="Vector_6" d="M50.4862 223.197C47.4609 222.552 43.9118 221.307 40.7301 220.194C39.55 219.779 38.4024 219.377 37.3049 219.011C36.6768 217.96 35.8379 215.51 35.3141 213.978C33.7298 209.345 31.9324 204.092 27.3532 201.753C25.2625 200.686 23.2521 199.899 21.3092 199.139C18.6403 198.093 16.3344 197.191 14.4197 195.796C12.8853 194.679 11.6422 192.868 10.2013 190.773C8.88423 188.857 7.39115 186.683 5.39386 184.688C4.15289 183.445 3.37048 181.691 2.38161 179.472C1.4297 177.333 0.347374 174.908 -1.39347 172.515C-3.93626 169.023 -7.83958 167.432 -10.9779 166.154C-12.271 165.628 -14.4356 164.746 -14.9159 164.202C-16.2743 161.509 -18.3759 159.201 -20.2319 157.167C-21.8619 155.378 -23.5463 153.529 -24.02 152.071C-25.0306 148.961 -26.8649 146.316 -28.6362 143.76C-30.0424 141.732 -31.6376 139.433 -31.8593 138.009C-32.2787 135.336 -32.0853 131.763 -31.894 128.31C-31.7832 126.295 -31.668 124.211 -31.668 122.211C-31.668 120.353 -30.6791 117.736 -29.725 115.204C-28.7557 112.631 -27.7517 109.973 -27.3061 107.13C-26.7737 103.738 -27.317 100.289 -27.7995 97.2462C-28.1559 94.9968 -28.5971 92.1953 -28.2059 90.9913C-27.6973 89.4243 -25.8848 87.3292 -24.1331 85.3015C-22.2075 83.076 -20.2145 80.7723 -18.8193 78.0404C-18.3107 77.0428 -17.7978 76.0105 -17.2784 74.9651C-15.5962 71.5725 -13.8597 68.0735 -11.9515 65.2786C-10.8018 65.0569 -8.45897 65.0525 -6.97893 65.0504C-2.15413 65.0417 3.31397 65.0287 7.00429 61.3383C10.2426 58.1001 10.9989 53.5643 11.6096 49.9196C11.8334 48.5765 12.1986 46.3793 12.5941 45.6077C15.226 43.6191 17.1472 40.9416 18.849 38.5705C20.2073 36.6797 21.746 34.5368 22.9022 33.9456C24.3649 33.198 27.0316 32.9698 29.607 32.7503C32.4649 32.5069 35.4206 32.2548 38.3351 31.3094C39.4522 31.3116 41.2995 31.9309 42.9295 32.4786C45.5375 33.3523 48.4911 34.3412 51.6837 34.3412C52.4443 34.3412 53.192 34.2847 53.9113 34.1717C58.8339 33.3979 62.1374 29.2969 65.0519 25.6783C65.7343 24.8307 66.7014 23.631 67.536 22.7334C68.3575 23.8483 69.3094 25.3588 69.9766 26.4129C72.9541 31.129 76.0337 36.0081 81.4105 36.8535C81.9713 36.9405 82.5407 36.9861 83.1166 36.9861C87.3937 36.9861 91.1427 34.5976 94.4527 32.4895C95.6307 31.7397 97.5149 30.54 98.4951 30.1749L98.7233 30.2488C103.4 31.7636 108.236 33.3306 112.139 35.3257C113.648 36.0951 115.362 38.0771 117.023 39.994C118.766 42.0087 120.741 44.2929 123.184 46.0707C123.854 46.5575 124.729 48.9481 125.31 50.5303C126.414 53.5404 127.666 56.9504 130.402 59.6844C132.679 61.9643 135.285 63.4334 137.587 64.7309C139.669 65.9045 141.466 66.9173 142.342 68.1213C143.085 69.1428 143.401 71.1966 143.733 73.3699C144.157 76.13 144.635 79.2575 146.2 82.3197C148.669 87.1553 154.287 88.6354 159.722 90.0676C160.974 90.398 162.774 90.8717 164.112 91.3368C163.558 92.417 162.758 93.7362 162.198 94.662C159.809 98.6045 157.103 103.071 157.868 107.948C158.503 111.986 158.494 115.926 158.483 120.49L158.479 122.209C158.479 123.459 157.514 125.228 156.491 127.099C155.158 129.54 153.648 132.304 153.111 135.727C152.463 139.848 153.826 143.634 154.919 146.676C155.397 148.004 156.197 150.23 156.088 150.932C155.647 152.279 154.152 153.877 152.565 155.565C150.738 157.517 148.664 159.729 147.191 162.613C145.317 166.286 143.116 169.292 140.569 172.772L139.499 174.234C136.907 177.796 136.661 182.078 136.446 185.853C136.381 187.009 136.281 188.761 136.066 189.828C136.048 189.83 136.033 189.83 136.016 189.83C134.881 189.83 133.412 189.645 131.856 189.452C129.969 189.217 128.018 188.974 126.064 188.974C122.747 188.974 120.113 189.717 118.012 191.247C116.012 192.701 114.017 193.516 111.489 194.546C109.836 195.22 107.964 195.985 105.965 197.004C103.209 198.41 101.17 200.195 99.3731 201.77C97.6584 203.27 96.3044 204.457 94.7635 204.957C90.1539 206.454 87.5611 210.607 85.2726 214.271C84.6662 215.243 83.7621 216.69 83.0471 217.601C82.119 216.956 80.8715 215.893 80.0326 215.176C76.6683 212.307 72.8541 209.055 67.875 209.055C62.1396 209.055 58.182 213.978 54.3547 218.74C53.2659 220.089 51.5794 222.187 50.4862 223.197Z" fill="#9CA856"/>
<path id="Vector_7" d="M45.5658 210.37C43.6511 204.771 40.7432 196.386 32.2954 192.072C29.7266 190.762 27.362 189.836 25.2777 189.019C23.4956 188.321 21.8178 187.665 20.9702 187.115C20.5638 186.665 19.7575 185.492 19.1598 184.618C17.7037 182.497 15.9085 179.886 13.3548 177.281C13.1006 176.824 12.6485 175.809 12.3095 175.049C11.2554 172.682 9.81014 169.439 7.39339 166.118C3.03368 160.124 -3.16902 157.599 -6.87672 156.091C-6.95931 156.056 -7.07016 156.01 -7.19621 155.96C-8.87185 153.496 -10.7279 151.461 -12.1992 149.847C-12.7621 149.229 -13.5597 148.351 -13.9944 147.808C-15.5179 143.605 -17.8281 140.275 -19.7059 137.565C-20.1427 136.937 -20.7926 136 -21.2164 135.324C-21.3011 133.612 -21.1599 131.045 -21.0425 128.907C-20.9317 126.859 -20.8165 124.771 -20.8034 122.63C-20.6144 121.837 -19.9624 120.109 -19.5603 119.044C-18.4475 116.097 -17.1914 112.763 -16.572 108.819C-15.7743 103.731 -16.5198 99.0037 -17.0653 95.5503C-17.1305 95.146 -17.2174 94.5875 -17.2979 94.0355C-16.8328 93.4748 -16.3046 92.864 -15.9134 92.412C-13.7857 89.9518 -11.1365 86.8896 -9.14133 82.9863C-8.61104 81.9452 -8.08075 80.8781 -7.54393 79.7958C-6.89628 78.4875 -6.23993 77.1661 -5.58793 75.9142C0.247471 75.8664 8.33661 75.3774 14.6893 69.0226C20.3856 63.3285 21.6005 56.0587 22.3264 51.7164C22.3394 51.6381 22.3546 51.5446 22.372 51.436C24.6214 49.1627 26.3231 46.7894 27.6749 44.9073C27.9075 44.5835 28.2074 44.1662 28.503 43.7641C29.1963 43.6902 29.9613 43.6272 30.5307 43.5772C32.8757 43.3773 35.6402 43.1404 38.5894 42.4862C38.9067 42.5883 39.2219 42.6948 39.4718 42.7796C42.5384 43.8054 46.722 45.2072 51.6859 45.2072C53.0051 45.2072 54.32 45.1072 55.5936 44.9073C60.012 44.2118 63.5415 42.2884 66.4081 39.9912C69.5985 43.5294 73.8322 46.6612 79.7241 47.587C80.839 47.7609 81.9822 47.85 83.1167 47.85C90.2039 47.85 95.8524 44.4683 99.7209 42.0146C102.268 42.8796 104.687 43.7772 106.671 44.7378C107.223 45.2724 108.195 46.3939 108.805 47.1002C110.309 48.841 112.257 51.0926 114.713 53.2029C114.863 53.5985 115.01 53.9983 115.108 54.2657C116.375 57.7213 118.29 62.9373 122.719 67.3622C126.047 70.6917 129.63 72.7129 132.247 74.1886C132.458 74.3081 132.69 74.4385 132.923 74.5711C132.947 74.7254 132.971 74.8732 132.99 75.0101C133.484 78.2267 134.16 82.6298 136.52 87.2525C139.332 92.7597 143.877 95.8611 148.419 97.8149C147.165 101.273 146.441 105.237 147.13 109.623C147.632 112.817 147.623 116.188 147.615 120.457V120.661C147.406 121.059 147.152 121.524 146.954 121.885C145.37 124.788 143.205 128.752 142.375 134.038C141.445 139.965 142.838 145.009 144.107 148.697C142.075 150.879 139.504 153.77 137.513 157.666C136.037 160.561 134.173 163.106 131.812 166.331L130.728 167.818C128.248 171.224 127.02 174.816 126.375 178.102C126.273 178.1 126.168 178.1 126.064 178.1C120.444 178.1 115.582 179.565 111.616 182.455C110.727 183.103 109.616 183.568 107.388 184.477C105.63 185.194 103.442 186.085 101.025 187.317C97.063 189.34 94.2593 191.796 92.2121 193.589C91.7405 194.002 91.1254 194.541 90.7472 194.839C86.3136 196.432 83.0928 199.16 80.6412 202.011C77.2161 199.894 73.0085 198.182 67.8729 198.182C57.6626 198.182 51.1926 205.382 46.7981 210.791C46.3852 210.654 45.9744 210.513 45.5658 210.37Z" fill="#3F8000"/>
<path id="Vector_8" d="M31.5986 155.43C32.192 152.612 32.4897 149.078 30.5489 145.661C29.7991 144.342 29.0276 143.251 28.3452 142.288C28.0931 141.932 27.8496 141.588 27.6345 141.269C27.252 140.702 26.9629 139.843 26.9477 139.393C26.939 139.124 26.9325 138.833 26.9282 138.583C26.9108 137.77 26.8912 136.848 26.7999 135.831C26.6913 134.636 26.5261 133.388 26.5804 133.034C26.613 132.819 26.65 132.591 26.6826 132.393C26.9042 131.046 27.2063 129.203 27.1042 127.044C26.9195 123.148 24.9243 120.244 23.729 118.508C23.7138 118.486 23.6964 118.462 23.679 118.431C23.6508 118.39 23.6182 117.425 23.4899 116.284C23.4052 115.528 23.2943 114.832 23.1965 114.224C23.1639 114.015 23.1226 113.763 23.0879 113.518C23.0314 113.126 23.2335 111.862 23.3595 110.668C23.5117 109.197 23.4791 107.832 23.4486 106.652C23.4421 106.45 23.4378 106.196 23.4334 105.941C23.4269 105.548 23.8246 104.585 24.368 103.822C24.6961 103.362 25.046 102.888 25.3655 102.458C25.6893 102.018 26.0175 101.575 26.3435 101.123C26.876 100.382 27.6236 99.4735 28.067 99.141C28.3473 98.928 28.6429 98.715 28.8711 98.5498C30.2121 97.574 31.729 96.4743 33.1417 94.9182C34.963 92.9122 36.0018 90.6172 36.7603 88.9415C36.8081 88.8372 36.8646 88.7112 36.9277 88.5743C37.0189 88.3721 37.3363 88.1352 37.634 88.0483C37.8296 87.9918 38.0165 87.9396 38.1751 87.894C39.8225 87.4267 41.8742 86.8486 43.878 85.7076C44.4126 85.4034 44.9538 85.0882 45.5036 84.7666C45.8318 84.5753 46.1643 84.3819 46.4925 84.1906C47.0402 83.8755 48.2942 84.1689 49.3439 84.7514C51.7346 86.0749 54.7816 87.2072 58.3937 86.4596C62.5447 85.6055 65.181 82.7584 66.7567 81.0588C66.7719 81.0436 66.7871 81.0241 66.8045 81.0045C66.8327 80.9741 67.8107 80.7524 68.9517 80.3808C69.7385 80.1243 70.4513 79.8505 71.0751 79.6114C71.1772 79.5723 71.2968 79.5267 71.4206 79.4789C71.6119 79.405 71.9835 79.4571 72.2421 79.5962C72.4138 79.6875 72.5768 79.7766 72.7138 79.8527C73.2919 80.1635 73.9243 80.5068 74.6111 80.8437C75.6717 81.3653 76.6388 81.7869 76.7214 81.8913C76.7757 81.9608 76.8279 82.026 76.8735 82.0847C77.9254 83.4234 79.3598 85.2491 81.5397 86.6835C82.1199 87.066 82.7263 87.4006 83.3457 87.6832C84.7084 88.3004 86.058 88.596 87.3533 88.6829C88.5508 88.7633 89.6484 89.6196 90.0005 90.7672C90.5503 92.5602 91.5131 94.3271 93.18 95.8397C93.619 96.2396 94.095 96.609 94.5949 96.9372C96.8638 98.4281 99.3154 98.9128 101.413 99.0801C102.608 99.1758 104.131 99.8625 104.764 100.743C105.399 101.625 105.927 102.747 105.992 103.205C106.035 103.499 106.074 103.801 106.105 104.035C106.194 104.7 106.294 105.472 106.448 106.306C106.666 107.487 106.909 108.554 106.872 108.715C106.846 108.825 106.824 108.928 106.805 109.006C106.364 110.892 105.696 113.739 106.363 116.967C106.863 119.392 107.854 121.318 108.578 122.724C108.609 122.783 108.639 122.843 108.672 122.906C108.724 123.006 108.743 123.135 108.715 123.193C108.698 123.23 108.682 123.267 108.665 123.3C107.952 124.856 106.974 126.988 106.676 129.705C106.418 132.058 106.929 134.116 107.778 135.901C108.296 136.985 108.054 138.357 107.213 139.213C106.303 140.143 105.485 141.256 104.87 142.61C104.412 143.625 103.832 144.609 103.14 145.694C102.495 146.704 101.806 147.626 101.61 147.745C101.478 147.828 101.354 147.893 101.247 147.95C99.7109 148.769 97.6136 149.884 95.7207 151.968C94.2798 153.555 93.4278 155.272 92.8671 156.832C92.4628 157.962 91.2892 159.125 90.1461 159.49C89.079 159.829 87.9206 160.286 86.7492 160.953C85.2626 161.798 83.7065 162.378 81.7353 163.113L80.829 163.454C79.5685 163.928 78.4905 164.565 77.5625 165.276C76.6084 166.004 75.9107 166.697 75.8716 166.673C75.8499 166.658 75.826 166.643 75.8042 166.627C73.3332 165.002 70.773 164.239 68.1911 164.363C67.613 164.391 66.9892 164.274 65.7482 164.028C64.7681 163.835 63.5466 163.593 62.1296 163.437C59.802 163.18 57.859 163.45 56.4398 163.646C56.2855 163.667 56.1095 163.691 55.94 163.713C55.6618 163.75 54.4882 163.522 53.2907 163.459C52.5126 163.419 51.7607 163.456 51.0413 163.554C49.8525 163.711 48.5267 163.107 47.8661 162.105C47.0315 160.833 45.9231 159.623 44.4104 158.627C40.7571 156.224 36.8125 156.634 33.5872 157.467C32.4245 157.767 31.4052 157.954 31.2879 157.804C31.1835 157.667 31.3509 156.604 31.5986 155.43Z" fill="#C7F0FF"/>
<path id="Vector_9" d="M65.6645 126.64L65.6641 126.641L65.665 126.641L65.6654 126.64L65.6645 126.64Z" fill="#8CB2BF"/>
<path id="Vector_10" d="M65.6797 126.641L77.5982 153.573C78.5284 153.227 79.3869 153.068 80.0671 152.953C80.1106 152.949 80.1563 152.94 80.2041 152.931C80.2475 152.842 80.291 152.755 80.3279 152.677C80.8104 151.693 81.4689 150.341 82.5339 149.098C83.9531 147.439 85.6005 146.746 86.6915 146.283C86.7762 146.246 86.9023 146.194 87.0283 146.14C87.7064 145.22 88.4258 144.495 88.98 143.932C89.206 143.703 89.5646 143.343 89.7363 143.134C90.0514 142.386 90.3492 141.471 90.6404 140.511C90.0449 139.316 89.2973 137.662 89.043 135.666L65.6797 126.641Z" fill="#ADCBCD"/>
<path id="Vector_11" d="M65.6797 126.638L90.736 115.55C90.6991 115.078 90.673 114.624 90.6513 114.211C90.6404 113.996 90.6252 113.705 90.6078 113.442C90.4839 113.326 90.3557 113.209 90.2536 113.118C89.6733 112.594 88.943 111.936 88.2476 111.066C88.215 111.06 88.1845 111.051 88.1606 111.049C86.8066 110.745 84.5355 110.24 82.7947 108.043C80.8496 105.594 80.7561 102.516 80.7843 100.3C80.3953 100.043 79.9867 99.7888 79.5825 99.5323C79.2478 99.3215 78.9153 99.1129 78.5936 98.9064C77.9634 98.4978 77.4113 98.024 76.9136 97.5459L65.6797 126.638Z" fill="#8BA7B5"/>
<path id="Vector_12" d="M89.0452 135.666C88.9843 135.181 88.9257 134.692 88.9343 134.166C88.943 133.734 88.98 133.301 89.0408 132.88C89.3734 130.645 90.3861 129.057 91.5163 127.866C90.8186 126.764 90.2405 125.41 90.0536 123.728C90.0015 123.241 89.9776 122.743 89.9884 122.241C90.0254 120.357 90.4948 118.775 90.8382 117.616C90.8643 117.523 90.9012 117.401 90.9338 117.284C90.836 116.679 90.7773 116.101 90.7339 115.554L65.6797 126.644L89.0452 135.666Z" fill="#8CB2BF"/>
<path id="Vector_13" d="M65.6807 126.639L65.6797 126.638L65.6807 126.639Z" fill="#8CB2BF"/>
<path id="Vector_14" d="M65.6796 126.641L54.8281 154.724C55.6736 155.394 56.3864 156.12 56.9124 156.737C58.0773 156.278 59.666 155.778 61.5155 156.168C63.165 156.515 64.3908 157.361 65.2884 157.978C65.3992 158.056 65.5427 158.156 65.6665 158.239H65.7317C67.0662 158.267 68.1246 158.291 69.1287 158.119C70.5066 157.884 71.7432 158.182 72.8168 158.68C73.4623 156.965 74.4664 155.257 76.2116 154.222C76.6897 153.938 77.1526 153.74 77.6025 153.573L65.6796 126.641Z" fill="#A9C4CF"/>
<path id="Vector_15" d="M43.1328 136.618C43.1632 136.664 43.1958 136.709 43.2241 136.753C43.7696 137.542 44.5194 138.622 45.1258 140.139C45.4931 141.065 45.7582 141.902 45.969 142.575C46.2385 143.427 46.3754 143.851 46.571 144.192C47.4469 145.718 47.8707 147.574 47.8294 149.708C47.8294 149.747 47.8272 149.789 47.8272 149.828C48.853 150.093 49.9679 150.58 51.0177 151.542L51.4741 151.962C52.4694 152.879 53.2497 153.601 54.1473 154.181C54.4059 154.348 54.595 154.544 54.8232 154.726L65.6746 126.643L43.1328 136.618Z" fill="#8BA7B5"/>
<path id="Vector_16" d="M65.6741 126.638L41.4871 117.293C40.3874 118.101 39.229 118.569 38.3075 118.932C38.2597 119.086 38.2119 119.24 38.1641 119.397C39.8267 121.098 42.0348 123.6 41.9609 127.479C41.9239 129.429 41.3567 131.018 40.6699 132.306C41.5458 133.256 42.3782 134.493 42.8432 136.19C42.915 136.303 43.0258 136.466 43.1323 136.618L65.6741 126.638Z" fill="#7FA2AD"/>
<path id="Vector_17" d="M76.9203 97.5458C76.4661 97.109 76.0553 96.6678 75.6967 96.2766C75.5598 96.1266 75.3707 95.9224 75.199 95.7398C75.0251 95.768 74.8513 95.7985 74.723 95.8202C73.6364 96.0071 72.152 96.2614 70.5633 95.9289C69.3332 95.6681 68.2987 95.1704 67.3837 94.7335C67.0534 94.5727 66.5165 94.3163 66.2688 94.2402C65.5994 94.2228 64.9474 94.1663 64.3063 94.112C63.6369 94.0555 62.8349 93.9837 62.2959 94.0077C62.0829 94.1641 61.7852 94.4075 61.5852 94.5684C60.7224 95.266 59.664 96.1245 58.3361 96.6787C58.1622 96.8395 57.8819 97.1394 57.6841 97.3481C57.1669 97.8979 56.517 98.5891 55.7346 99.2128C55.7172 99.2584 55.702 99.2997 55.6912 99.3323C55.4565 99.9908 55.1348 100.865 54.6719 101.769L65.6798 126.64L76.9203 97.5458Z" fill="#8CB2BF"/>
<path id="Vector_18" d="M65.6792 126.638L54.6713 101.767C54.154 102.782 53.4564 103.836 52.4458 104.692C51.3896 105.592 50.3637 106.12 49.6139 106.507C49.3727 106.633 49.051 106.798 48.9076 106.891C48.073 107.845 47.2407 108.513 46.5669 109.054C46.2887 109.275 45.9149 109.575 45.7715 109.728C45.5954 110.045 45.3759 110.679 45.1456 111.353C44.8739 112.14 44.5675 113.033 44.1371 114.002C43.4612 115.526 42.5006 116.554 41.4922 117.297L65.6792 126.638Z" fill="#7899A3"/>
<path id="Vector_19" d="M63.0874 56.7736C63.0874 57.2822 62.6332 57.656 62.5202 58.132C62.405 58.6231 61.8421 58.7601 61.6204 59.2012C61.3965 59.6489 62.0029 60.4966 61.6856 60.8791C61.3705 61.2616 61.1988 61.8397 60.8032 62.1439C60.412 62.446 59.108 60.9617 58.6538 61.1746C58.2083 61.3811 58.2409 62.1178 57.7497 62.2243C57.2737 62.3286 56.989 62.7025 56.4805 62.7025C55.9719 62.7025 55.7263 62.1526 55.2504 62.0483C54.757 61.9396 54.744 61.3963 54.2984 61.1877C53.8442 60.9747 53.553 61.142 53.1618 60.8399C52.7662 60.5357 51.9404 60.9681 51.6252 60.5856C51.3079 60.2031 50.3386 60.2553 50.1169 59.8098C49.8974 59.3686 48.5956 59.0817 48.4826 58.5905C48.3696 58.1146 49.8822 57.28 49.8822 56.7714C49.8822 56.2629 51.3949 56.139 51.5079 55.663C51.6231 55.1719 51.3514 54.898 51.5709 54.459C51.7926 54.0113 50.0583 52.3053 50.3734 51.9228C50.6907 51.5402 51.7122 51.6446 52.1077 51.3381C52.4989 51.036 53.4313 51.6815 53.8855 51.4707C54.331 51.2621 54.2984 49.5147 54.7896 49.406C55.2656 49.3017 55.9719 51.4511 56.4783 51.4511C56.9868 51.4511 57.5019 50.1623 57.9779 50.2667C58.4712 50.3753 59.4492 49.4973 59.8948 49.7059C60.349 49.9168 60.2947 51.2468 60.6859 51.5489C61.0814 51.8532 60.1121 53.318 60.4294 53.7005C60.7467 54.083 61.1357 54.0244 61.3574 54.4721C61.5791 54.9133 63.7872 54.5959 63.9024 55.0849C64.0176 55.5652 63.0874 56.2651 63.0874 56.7736Z" fill="#26541B"/>
<path id="Vector_20" d="M96.1343 96.6656C96.1343 97.0068 95.8279 97.2568 95.754 97.5741C95.6758 97.9022 95.2998 97.9957 95.152 98.2913C95.002 98.5912 95.4084 99.1584 95.1976 99.4171C94.9868 99.6735 94.8716 100.06 94.6043 100.265C94.3435 100.467 93.4699 99.4714 93.1634 99.6148C92.8635 99.7539 92.8874 100.245 92.557 100.319C92.2376 100.391 92.0485 100.641 91.7073 100.641C91.3661 100.641 91.2009 100.273 90.8836 100.202C90.5532 100.13 90.5445 99.7648 90.2446 99.6257C89.9404 99.4844 89.7447 99.5953 89.4839 99.3932C89.2188 99.1889 88.6646 99.4801 88.4538 99.2236C88.2408 98.9672 87.5932 99.002 87.4432 98.7042C87.2954 98.4086 86.4239 98.2152 86.3478 97.887C86.2718 97.5697 87.2867 97.009 87.2867 96.6678C87.2867 96.3266 88.3017 96.244 88.3777 95.9245C88.4538 95.5964 88.2734 95.4116 88.419 95.116C88.5668 94.8161 87.4041 93.6729 87.617 93.4165C87.83 93.16 88.5146 93.2296 88.7798 93.0253C89.0428 92.8232 89.6665 93.2557 89.973 93.1144C90.2707 92.9753 90.249 91.8017 90.5793 91.73C90.8988 91.6604 91.3704 93.1013 91.7116 93.1013C92.0528 93.1013 92.3962 92.2386 92.7157 92.3081C93.046 92.382 93.7024 91.793 94.0001 91.9321C94.3044 92.0734 94.2696 92.9644 94.5304 93.1665C94.7956 93.3708 94.1457 94.351 94.3587 94.6096C94.5695 94.8661 94.8304 94.827 94.9803 95.1269C95.1281 95.4225 96.6081 95.2095 96.6864 95.5377C96.7581 95.855 96.1343 96.3244 96.1343 96.6656Z" fill="#26541B"/>
<path id="Vector_21" d="M46.1087 76.4838C46.1087 76.825 45.8023 77.0749 45.7284 77.3922C45.6502 77.7204 45.2742 77.8138 45.1264 78.1094C44.9764 78.4093 45.3828 78.9766 45.172 79.2352C44.9612 79.4917 44.846 79.8785 44.5787 80.0828C44.3179 80.2849 43.4442 79.2895 43.1378 79.433C42.8379 79.5721 42.8618 80.0632 42.5314 80.1371C42.2119 80.2089 42.0229 80.4588 41.6817 80.4588C41.3404 80.4588 41.1753 80.0915 40.858 80.0198C40.5276 79.9481 40.5189 79.5829 40.2212 79.4438C39.9169 79.3026 39.7213 79.4134 39.4605 79.2113C39.1954 79.007 38.6412 79.2982 38.4303 79.0418C38.2174 78.7853 37.5697 78.8201 37.4197 78.5224C37.272 78.2268 36.4005 78.0333 36.3244 77.7052C36.2483 77.3879 37.2633 76.8272 37.2633 76.486C37.2633 76.1447 38.2782 76.0621 38.3521 75.7427C38.4282 75.4145 38.2478 75.2297 38.3956 74.9363C38.5434 74.6364 37.3806 73.4933 37.5936 73.2368C37.8066 72.9803 38.4912 73.0499 38.7564 72.8456C39.0193 72.6435 39.6431 73.076 39.9495 72.9347C40.2472 72.7956 40.2255 71.622 40.5559 71.5503C40.8753 71.4807 41.347 72.9217 41.6882 72.9217C42.0294 72.9217 42.3728 72.0589 42.6923 72.1284C43.0226 72.2023 43.679 71.6133 43.9767 71.7524C44.281 71.8937 44.2462 72.7848 44.507 72.9869C44.77 73.1912 44.1223 74.1714 44.3353 74.43C44.5461 74.6864 44.8069 74.6473 44.9569 74.9472C45.1047 75.2428 46.5847 75.0298 46.6629 75.358C46.7325 75.6731 46.1087 76.1426 46.1087 76.4838Z" fill="#D9AE00"/>
<path id="Vector_22" d="M34.8396 61.1752C34.4615 61.2664 34.1007 60.9926 33.7247 60.9948C33.34 60.9969 33.1358 60.6014 32.7685 60.5145C32.3968 60.4275 31.8709 61.0295 31.5297 60.8622C31.1863 60.6948 30.7255 60.6709 30.43 60.4297C30.1344 60.1928 31.0102 58.9562 30.769 58.6562C30.5364 58.3607 29.9931 58.515 29.8258 58.1673C29.6628 57.8304 29.3324 57.6848 29.2411 57.3066C29.1499 56.9263 29.5172 56.6459 29.5106 56.2721C29.5019 55.8853 29.9062 55.7788 29.9822 55.4093C30.0605 55.0333 29.8844 54.8464 30.0388 54.5008C30.1952 54.1509 29.7236 53.6141 29.954 53.3098C30.1822 53.0056 29.9714 52.2927 30.2648 52.0471C30.5538 51.8037 30.5364 50.7823 30.882 50.6106C31.2167 50.441 32.1078 51.4212 32.4881 51.3299C32.8663 51.2387 33.2292 52.3449 33.603 52.3449C33.9899 52.3427 34.1464 52.0928 34.5115 52.1775C34.8853 52.2623 35.8481 50.6649 36.1893 50.8322C36.5305 50.9996 36.637 51.782 36.9347 52.0211C37.2303 52.2601 36.9152 53.0686 37.1521 53.3707C37.3846 53.6663 38.6843 53.3294 38.8538 53.6771C39.0168 54.014 37.5389 54.9225 37.6302 55.3006C37.7193 55.6809 38.7734 55.8353 38.7799 56.2091C38.7886 56.5938 39.6166 57.1675 39.5406 57.537C39.4623 57.913 38.4626 58.1107 38.3061 58.4541C38.1496 58.804 36.8869 58.3411 36.6565 58.6454C36.4262 58.9518 36.5392 59.23 36.2458 59.4756C35.9567 59.719 36.587 61.3099 36.2436 61.4838C35.9046 61.6555 35.2178 61.0861 34.8396 61.1752Z" fill="#26541B"/>
<path id="Vector_23" d="M34.8396 185.705C34.4615 185.796 34.1007 185.522 33.7247 185.524C33.34 185.526 33.1357 185.131 32.7685 185.044C32.3968 184.959 31.8709 185.559 31.5297 185.392C31.1863 185.224 30.7255 185.2 30.43 184.959C30.1344 184.722 31.0102 183.486 30.769 183.186C30.5364 182.89 29.9931 183.045 29.8258 182.697C29.6628 182.36 29.3324 182.214 29.2411 181.836C29.1499 181.456 29.5172 181.175 29.5106 180.802C29.5041 180.415 29.9062 180.308 29.9822 179.939C30.0605 179.563 29.8844 179.376 30.0388 179.03C30.1952 178.68 29.7236 178.144 29.954 177.839C30.1822 177.535 29.9714 176.822 30.2648 176.575C30.5538 176.331 30.5364 175.312 30.882 175.138C31.2167 174.968 32.1078 175.946 32.4881 175.857C32.8663 175.768 33.2292 176.872 33.603 176.872C33.9899 176.87 34.1442 176.62 34.5115 176.705C34.8853 176.79 35.8481 175.192 36.1893 175.36C36.5305 175.527 36.637 176.309 36.9347 176.548C37.2303 176.788 36.9152 177.596 37.1521 177.898C37.3846 178.194 38.6843 177.857 38.8538 178.205C39.0168 178.541 37.5367 179.45 37.628 179.828C37.7193 180.208 38.7712 180.363 38.7777 180.736C38.7864 181.121 39.6145 181.695 39.5384 182.064C39.4602 182.44 38.4604 182.638 38.3039 182.981C38.1475 183.331 36.8848 182.868 36.6544 183.173C36.4262 183.479 36.537 183.757 36.2458 184.003C35.9567 184.246 36.587 185.837 36.2436 186.011C35.9068 186.185 35.2178 185.616 34.8396 185.705Z" fill="#A27F00"/>
<path id="Vector_24" d="M21.1588 124.336C21.1131 123.949 21.4261 123.623 21.4674 123.252C21.5108 122.869 21.9259 122.711 22.0542 122.356C22.1824 121.998 21.6456 121.404 21.852 121.085C22.0563 120.763 22.1346 120.309 22.4084 120.042C22.6779 119.774 23.8059 120.787 24.1319 120.583C24.4513 120.385 24.3622 119.829 24.7252 119.703C25.0773 119.579 25.2598 119.268 25.6467 119.222C26.0335 119.177 26.2726 119.572 26.6421 119.609C27.0268 119.646 27.0876 120.059 27.444 120.176C27.8091 120.296 28.0156 120.144 28.3416 120.337C28.6698 120.533 29.2588 120.126 29.5326 120.389C29.8086 120.652 30.541 120.522 30.754 120.842C30.9627 121.157 31.9776 121.257 32.1102 121.62C32.2406 121.972 31.1626 122.745 31.2104 123.132C31.2561 123.519 30.1172 123.752 30.0738 124.123C30.0303 124.508 30.2628 124.69 30.1346 125.045C30.0064 125.408 31.4821 126.547 31.2778 126.866C31.0713 127.188 30.2824 127.201 30.0107 127.468C29.7391 127.733 28.9719 127.327 28.6437 127.529C28.3242 127.727 28.5068 129.057 28.1438 129.183C27.7918 129.307 27.0594 127.733 26.6725 127.779C26.2857 127.824 26.0118 128.852 25.638 128.818C25.2555 128.781 24.5883 129.537 24.2297 129.42C23.8646 129.3 23.7841 128.283 23.4603 128.09C23.1321 127.894 23.7363 126.692 23.4603 126.427C23.1821 126.164 22.8931 126.242 22.6844 125.925C22.4758 125.61 20.8241 126.053 20.6893 125.69C20.5589 125.34 21.2044 124.723 21.1588 124.336Z" fill="#A27F00"/>
<path id="Vector_25" d="M103.25 48.6524C103.155 48.2743 103.42 47.9092 103.411 47.5354C103.403 47.1507 103.794 46.9399 103.872 46.5682C103.952 46.1944 103.34 45.6815 103.503 45.3381C103.663 44.9926 103.681 44.5318 103.916 44.2297C104.146 43.9298 105.4 44.7817 105.695 44.5383C105.987 44.2993 105.822 43.7603 106.165 43.5864C106.5 43.4169 106.639 43.0844 107.015 42.9866C107.393 42.8888 107.682 43.2495 108.054 43.2365C108.44 43.2235 108.553 43.6234 108.925 43.6929C109.303 43.7646 109.486 43.5842 109.836 43.7342C110.188 43.8842 110.716 43.4039 111.024 43.6277C111.333 43.8516 112.042 43.6277 112.294 43.9146C112.541 44.1993 113.561 44.1645 113.739 44.5057C113.915 44.8361 112.952 45.7467 113.05 46.1249C113.148 46.5008 112.048 46.8834 112.055 47.2572C112.063 47.644 112.318 47.7962 112.239 48.1635C112.161 48.5373 113.776 49.474 113.615 49.8174C113.454 50.1629 112.674 50.2824 112.439 50.5845C112.207 50.8845 111.39 50.5824 111.092 50.8258C110.803 51.0648 111.161 52.358 110.818 52.5319C110.486 52.7014 109.549 51.2387 109.173 51.3365C108.795 51.4343 108.66 52.4884 108.286 52.5036C107.901 52.5166 107.341 53.3577 106.971 53.2882C106.593 53.2186 106.38 52.2211 106.03 52.0711C105.678 51.9211 106.117 50.6497 105.808 50.4259C105.498 50.202 105.222 50.3194 104.972 50.0303C104.722 49.7456 103.144 50.4063 102.964 50.0651C102.79 49.7283 103.346 49.0306 103.25 48.6524Z" fill="#A27F00"/>
<path id="Vector_26" d="M58.4711 76.8773C58.358 76.5056 58.608 76.1297 58.5819 75.7537C58.5558 75.369 58.9383 75.1408 59.0013 74.767C59.0622 74.391 58.4298 73.902 58.5754 73.5521C58.7188 73.2 58.7166 72.7392 58.9383 72.4263C59.1556 72.1155 60.4444 72.9131 60.7291 72.6545C61.0095 72.4024 60.8226 71.8721 61.1573 71.683C61.4833 71.4983 61.6072 71.1592 61.9788 71.0462C62.3526 70.9332 62.6569 71.2788 63.0264 71.2505C63.4132 71.2179 63.5436 71.6135 63.9174 71.6656C64.2977 71.7178 64.4738 71.5331 64.8259 71.6656C65.1845 71.8004 65.6909 71.2962 66.0082 71.5048C66.3255 71.7156 67.0253 71.4592 67.2883 71.7352C67.5491 72.009 68.5662 71.9264 68.7596 72.2611C68.9509 72.5828 68.0294 73.5369 68.1424 73.9085C68.2554 74.2801 67.1752 74.7126 67.1992 75.0843C67.2252 75.4711 67.486 75.6102 67.423 75.9819C67.3621 76.36 69.0161 77.2207 68.8704 77.5706C68.7248 77.9227 67.9511 78.077 67.7316 78.3899C67.5121 78.6985 66.6841 78.4356 66.3994 78.692C66.119 78.9441 66.5363 80.2199 66.1994 80.4089C65.8756 80.5937 64.8737 79.1745 64.5021 79.2897C64.1282 79.4049 64.0391 80.4655 63.6675 80.4937C63.2828 80.5263 62.7612 81.3891 62.3896 81.337C62.0092 81.2826 61.7484 80.2959 61.3964 80.1634C61.0378 80.0286 61.4181 78.7398 61.1008 78.529C60.7813 78.3182 60.5096 78.4486 60.2467 78.1726C59.9837 77.8988 58.4384 78.629 58.2428 78.2965C58.0581 77.9726 58.5841 77.2511 58.4711 76.8773Z" fill="#A27F00"/>
<path id="Vector_27" d="M131.307 109.741C131.194 109.369 131.444 108.993 131.418 108.617C131.392 108.233 131.775 108.004 131.838 107.63C131.899 107.255 131.266 106.768 131.412 106.416C131.555 106.064 131.553 105.603 131.775 105.29C131.992 104.979 133.281 105.777 133.566 105.516C133.846 105.264 133.657 104.733 133.994 104.544C134.32 104.36 134.444 104.021 134.815 103.908C135.189 103.795 135.493 104.14 135.863 104.112C136.25 104.079 136.38 104.475 136.754 104.527C137.134 104.579 137.31 104.392 137.662 104.527C138.021 104.662 138.527 104.157 138.845 104.366C139.162 104.577 139.862 104.32 140.125 104.597C140.385 104.87 141.403 104.788 141.596 105.122C141.787 105.444 140.866 106.398 140.979 106.77C141.092 107.141 140.012 107.574 140.036 107.946C140.062 108.332 140.322 108.472 140.259 108.843C140.199 109.221 141.853 110.082 141.707 110.432C141.561 110.784 140.788 110.938 140.566 111.251C140.346 111.56 139.518 111.297 139.234 111.553C138.953 111.805 139.371 113.081 139.034 113.27C138.708 113.455 137.708 112.036 137.336 112.151C136.963 112.266 136.876 113.327 136.502 113.355C136.117 113.388 135.595 114.25 135.224 114.198C134.844 114.144 134.585 113.157 134.231 113.025C133.872 112.89 134.252 111.601 133.935 111.39C133.616 111.18 133.344 111.31 133.081 111.034C132.818 110.76 131.273 111.49 131.077 111.158C130.897 110.836 131.423 110.112 131.307 109.741Z" fill="#A27F00"/>
<path id="Vector_28" d="M11.3501 99.6626C10.9676 99.9973 10.3873 99.8995 9.95479 100.13C9.50926 100.365 9.03546 100.034 8.55733 100.158C8.07485 100.284 7.83361 101.297 7.33809 101.312C6.8404 101.327 6.29489 101.577 5.80372 101.479C5.31906 101.386 5.57769 99.4257 5.11911 99.2235C4.67141 99.0236 4.13677 99.5343 3.73253 99.2344C3.33915 98.9454 2.8719 98.9758 2.5372 98.5933C2.20251 98.2108 2.45461 97.6631 2.21989 97.2371C1.97647 96.7938 2.37637 96.4265 2.23945 95.9549C2.10036 95.4724 1.78523 95.3637 1.7548 94.8704C1.72437 94.3727 0.85287 94.0358 0.935456 93.5468C1.01587 93.0556 0.337782 92.3623 0.526862 91.8994C0.713768 91.443 0.0726393 90.2738 0.368213 89.8652C0.652919 89.4674 2.2764 90.0564 2.65891 89.7217C3.04141 89.387 4.13025 90.4433 4.56275 90.2151C5.00828 89.9782 5.03435 89.5935 5.51031 89.4696C5.99279 89.3414 6.13625 86.9138 6.63177 86.8986C7.12729 86.8855 7.72277 87.7223 8.21178 87.8201C8.6986 87.9157 8.82465 89.0436 9.28322 89.2458C9.7331 89.4435 11.0284 88.2678 11.4327 88.5677C11.8239 88.8567 10.6698 90.8041 11.0045 91.1866C11.3392 91.5712 12.6497 91.1105 12.8844 91.5365C13.1279 91.9798 14.4318 92.1385 14.5688 92.6101C14.7079 93.0926 13.6712 93.925 13.7016 94.4183C13.732 94.916 11.9912 95.1507 11.913 95.6419C11.8325 96.1309 12.1325 96.3873 11.9434 96.8481C11.7565 97.3045 13.4495 98.7585 13.1583 99.1692C12.8736 99.5691 11.7326 99.3279 11.3501 99.6626Z" fill="#26541B"/>
<path id="Vector_29" d="M125.41 80.361C125.531 80.6066 125.399 80.8978 125.46 81.1564C125.52 81.4216 125.281 81.6237 125.279 81.8911C125.277 82.1606 125.773 82.43 125.712 82.6908C125.651 82.9516 125.705 83.2733 125.584 83.5167C125.466 83.7558 124.477 83.3472 124.308 83.5602C124.14 83.7666 124.332 84.1165 124.119 84.2882C123.912 84.4534 123.864 84.7012 123.617 84.8229C123.369 84.9468 123.119 84.736 122.863 84.799C122.597 84.8642 122.463 84.6034 122.195 84.6099C121.924 84.6164 121.824 84.7642 121.561 84.712C121.296 84.6577 120.998 85.0663 120.752 84.9554C120.507 84.8446 120.048 85.1011 119.833 84.9381C119.62 84.7772 118.92 84.9468 118.746 84.7381C118.577 84.5338 119.114 83.7666 118.992 83.5189C118.87 83.2733 119.574 82.8495 119.518 82.593C119.457 82.3279 119.259 82.2605 119.261 81.9932C119.261 81.7237 118.012 81.3086 118.072 81.0478C118.135 80.7848 118.657 80.5914 118.777 80.3502C118.894 80.1089 119.5 80.2002 119.672 79.9894C119.839 79.7829 119.403 78.9397 119.618 78.7701C119.824 78.605 120.68 79.483 120.928 79.3591C121.176 79.2374 121.117 78.4876 121.376 78.4246C121.641 78.3594 121.906 77.6987 122.174 77.6944C122.445 77.69 122.736 78.3464 122.997 78.4007C123.262 78.4528 123.141 79.3982 123.386 79.5069C123.632 79.6178 123.808 79.496 124.021 79.659C124.234 79.8199 125.231 79.1375 125.405 79.3483C125.573 79.5504 125.286 80.1133 125.41 80.361Z" fill="#D9AE00"/>
<path id="Vector_30" d="M2.47214 95.2028C2.59384 95.4484 2.46126 95.7397 2.51994 95.9983C2.58079 96.2634 2.34173 96.4655 2.33955 96.7329C2.33738 97.0024 2.83508 97.2718 2.77206 97.5326C2.71121 97.7934 2.76553 98.1151 2.64382 98.3585C2.52646 98.5976 1.5376 98.189 1.36808 98.402C1.20073 98.6085 1.39199 98.9583 1.179 99.13C0.972535 99.2952 0.924715 99.543 0.676955 99.6647C0.429195 99.7886 0.179262 99.5777 -0.0771918 99.6408C-0.342339 99.706 -0.479257 99.4452 -0.744403 99.4517C-1.01607 99.4582 -1.11604 99.606 -1.37902 99.5539C-1.64416 99.4995 -1.94191 99.9081 -2.1875 99.7973C-2.43309 99.6864 -2.89165 99.9429 -3.10681 99.7799C-3.3198 99.619 -4.01961 99.7886 -4.19131 99.5799C-4.36083 99.3756 -3.82402 98.6084 -3.94572 98.3607C-4.06743 98.1151 -3.36326 97.6913 -3.41977 97.4348C-3.48062 97.1697 -3.6784 97.1023 -3.67623 96.835C-3.67623 96.5655 -4.92589 96.1504 -4.86504 95.8896C-4.80201 95.6266 -4.28041 95.4332 -4.16088 95.192C-4.04352 94.9507 -3.43715 95.042 -3.26546 94.8312C-3.09811 94.6247 -3.53496 93.7815 -3.3198 93.6119C-3.11333 93.4468 -2.25705 94.3248 -2.00928 94.2009C-1.76152 94.0792 -1.8202 93.3294 -1.56158 93.2664C-1.29643 93.2012 -1.03127 92.5405 -0.763953 92.5362C-0.492286 92.5318 -0.201064 93.1881 0.0597358 93.2425C0.322709 93.2946 0.203178 94.24 0.448764 94.3487C0.694351 94.4596 0.870391 94.3379 1.08338 94.5009C1.29636 94.6617 2.29393 93.9793 2.46779 94.1901C2.63514 94.3922 2.34826 94.9551 2.47214 95.2028Z" fill="#D9AE00"/>
<path id="Vector_31" d="M86.5602 197.186C86.682 197.432 86.5494 197.723 86.6081 197.982C86.6689 198.247 86.4299 198.449 86.4277 198.716C86.4255 198.986 86.9232 199.255 86.8602 199.516C86.7993 199.777 86.8537 200.099 86.7319 200.342C86.6146 200.581 85.6257 200.172 85.4562 200.385C85.2889 200.592 85.4801 200.942 85.2671 201.113C85.0607 201.279 85.0128 201.526 84.7651 201.648C84.5173 201.772 84.2674 201.561 84.0109 201.624C83.7458 201.689 83.6089 201.429 83.3437 201.435C83.0721 201.439 82.9721 201.589 82.7091 201.537C82.444 201.483 82.1462 201.892 81.9006 201.781C81.655 201.67 81.1965 201.926 80.9813 201.763C80.7683 201.602 80.0685 201.772 79.8946 201.563C79.7251 201.359 80.2619 200.592 80.1402 200.344C80.0185 200.098 80.7249 199.675 80.6662 199.418C80.6053 199.153 80.4076 199.086 80.4097 198.818C80.4097 198.549 79.16 198.134 79.2209 197.873C79.2839 197.61 79.8055 197.417 79.9251 197.175C80.0424 196.934 80.6488 197.025 80.8205 196.815C80.9878 196.608 80.5532 195.765 80.7661 195.595C80.9726 195.43 81.8289 196.308 82.0767 196.184C82.3244 196.063 82.2658 195.313 82.5244 195.25C82.7895 195.185 83.0547 194.524 83.322 194.52C83.5937 194.515 83.8849 195.172 84.1457 195.226C84.4108 195.278 84.2891 196.221 84.5347 196.332C84.7803 196.443 84.9563 196.321 85.1693 196.484C85.3823 196.645 86.3799 195.963 86.5537 196.173C86.7232 196.376 86.4385 196.938 86.5602 197.186Z" fill="#26541B"/>
<path id="Vector_32" d="M41.6852 155.028C41.807 155.274 41.6744 155.565 41.733 155.824C41.7939 156.089 41.5548 156.291 41.5527 156.558C41.5505 156.828 42.0482 157.097 41.9852 157.358C41.9243 157.619 41.9765 157.94 41.8569 158.184C41.7396 158.423 40.7507 158.014 40.5812 158.227C40.4138 158.434 40.6051 158.784 40.3921 158.955C40.1856 159.12 40.1378 159.368 39.8901 159.49C39.6423 159.614 39.3924 159.403 39.1359 159.466C38.8708 159.531 38.7339 159.27 38.4687 159.277C38.197 159.281 38.0971 159.431 37.8341 159.379C37.5689 159.325 37.2712 159.733 37.0256 159.622C36.78 159.512 36.3215 159.768 36.1063 159.605C35.8933 159.444 35.1935 159.614 35.0196 159.405C34.8501 159.201 35.3869 158.434 35.2652 158.186C35.1435 157.94 35.8498 157.517 35.7912 157.26C35.7303 156.995 35.5325 156.928 35.5347 156.66C35.5347 156.391 34.285 155.976 34.3459 155.715C34.4089 155.452 34.9305 155.258 35.0501 155.017C35.1674 154.776 35.7738 154.867 35.9455 154.656C36.1128 154.45 35.676 153.607 35.8911 153.437C36.0976 153.272 36.9539 154.15 37.2017 154.026C37.4494 153.904 37.3907 153.155 37.6472 153.092C37.9123 153.026 38.1775 152.366 38.4448 152.361C38.7165 152.355 39.0077 153.013 39.2685 153.068C39.5336 153.12 39.4119 154.065 39.6575 154.174C39.9031 154.285 40.0792 154.163 40.2943 154.326C40.5073 154.487 41.5049 153.804 41.6787 154.015C41.8482 154.215 41.5635 154.78 41.6852 155.028Z" fill="#26541B"/>
<path id="Vector_33" d="M133.246 98.1391C133.509 98.5737 133.314 99.1301 133.466 99.593C133.622 100.071 133.212 100.484 133.253 100.973C133.294 101.471 134.251 101.882 134.179 102.373C134.109 102.864 134.261 103.446 134.081 103.914C133.905 104.374 132.019 103.783 131.74 104.198C131.466 104.607 131.877 105.22 131.512 105.568C131.16 105.904 131.11 106.372 130.675 106.635C130.241 106.898 129.745 106.556 129.282 106.713C128.804 106.876 128.513 106.419 128.024 106.472C127.526 106.526 127.363 106.819 126.872 106.763C126.377 106.709 125.894 107.506 125.427 107.343C124.957 107.178 124.155 107.728 123.734 107.463C123.316 107.2 122.056 107.63 121.704 107.269C121.36 106.922 122.219 105.422 121.956 104.987C121.693 104.555 122.921 103.661 122.771 103.196C122.615 102.718 122.241 102.625 122.202 102.134C122.158 101.636 119.791 101.077 119.861 100.586C119.933 100.095 120.861 99.6539 121.041 99.1888C121.217 98.7259 122.349 98.7954 122.63 98.3781C122.904 97.9695 121.967 96.4917 122.332 96.1439C122.684 95.8071 124.403 97.2806 124.838 97.0154C125.275 96.7503 125.044 95.3833 125.505 95.2246C125.983 95.0616 126.363 93.8032 126.852 93.7489C127.35 93.6946 127.996 94.8595 128.485 94.9138C128.978 94.9703 128.913 96.7242 129.382 96.8872C129.852 97.0502 130.154 96.7981 130.575 97.0654C130.993 97.3262 132.718 95.9092 133.07 96.2678C133.416 96.6221 132.981 97.7044 133.246 98.1391Z" fill="#26541B"/>
<path id="Vector_34" d="M11.3501 145.233C10.9676 145.567 10.3873 145.47 9.95479 145.7C9.50926 145.935 9.03546 145.604 8.55733 145.728C8.07485 145.854 7.83361 146.867 7.33809 146.882C6.8404 146.897 6.29489 147.147 5.80372 147.05C5.31906 146.954 5.57769 144.996 5.11911 144.794C4.67141 144.594 4.13677 145.104 3.73253 144.805C3.33915 144.515 2.8719 144.546 2.5372 144.163C2.20251 143.781 2.45461 143.233 2.21989 142.807C1.97647 142.364 2.37637 141.997 2.23945 141.525C2.10036 141.042 1.78523 140.934 1.7548 140.44C1.72437 139.943 0.85287 139.606 0.935456 139.117C1.01587 138.626 0.337782 137.932 0.526862 137.47C0.713768 137.013 0.0726393 135.844 0.368213 135.435C0.652919 135.038 2.2764 135.627 2.65891 135.292C3.04141 134.957 4.13025 136.013 4.56275 135.787C5.00828 135.55 5.03435 135.166 5.51031 135.042C5.99279 134.914 6.13625 132.486 6.63177 132.471C7.12729 132.458 7.72277 133.295 8.21178 133.392C8.6986 133.488 8.82465 134.616 9.28322 134.818C9.7331 135.016 11.0284 133.84 11.4327 134.14C11.8239 134.429 10.6698 136.376 11.0045 136.759C11.3392 137.144 12.6497 136.683 12.8844 137.109C13.1279 137.552 14.4318 137.711 14.5688 138.182C14.7079 138.665 13.6712 139.497 13.7016 139.991C13.732 140.488 11.9912 140.723 11.913 141.214C11.8325 141.705 12.1325 141.96 11.9434 142.42C11.7565 142.877 13.4495 144.331 13.1583 144.741C12.8736 145.139 11.7326 144.898 11.3501 145.233Z" fill="#26541B"/>
<path id="Vector_35" d="M11.3501 141.127C10.9676 141.462 10.3873 141.364 9.95479 141.595C9.50926 141.829 9.03546 141.499 8.55733 141.623C8.07485 141.749 7.83361 142.762 7.33809 142.777C6.8404 142.792 6.29489 143.042 5.80372 142.944C5.31906 142.851 5.57769 140.891 5.11911 140.688C4.67141 140.488 4.13677 140.999 3.73253 140.699C3.33915 140.41 2.8719 140.441 2.5372 140.058C2.20251 139.676 2.45461 139.128 2.21989 138.702C1.97647 138.259 2.37637 137.891 2.23945 137.42C2.10036 136.937 1.78523 136.829 1.7548 136.335C1.72437 135.838 0.85287 135.501 0.935456 135.012C1.01587 134.52 0.337782 133.827 0.526862 133.364C0.713768 132.908 0.0726393 131.741 0.368213 131.33C0.652919 130.932 2.2764 131.521 2.65891 131.187C3.04141 130.852 4.13025 131.908 4.56275 131.68C5.00828 131.443 5.03435 131.058 5.51031 130.934C5.99279 130.806 6.13625 128.379 6.63177 128.363C7.12729 128.35 7.72277 129.187 8.21178 129.285C8.6986 129.381 8.82465 130.509 9.28322 130.711C9.7331 130.908 11.0284 129.733 11.4327 130.033C11.8239 130.322 10.6698 132.269 11.0045 132.651C11.3392 133.036 12.6497 132.575 12.8844 133.001C13.1279 133.445 14.4318 133.603 14.5688 134.075C14.7079 134.557 13.6712 135.39 13.7016 135.883C13.732 136.381 11.9912 136.616 11.913 137.107C11.8325 137.596 12.1325 137.852 11.9434 138.313C11.7565 138.769 13.4495 140.223 13.1583 140.634C12.8736 141.034 11.7326 140.793 11.3501 141.127Z" fill="#D9AE00"/>
<path id="Vector_36" d="M106.573 116.793C106.227 116.652 106.104 116.237 105.81 116.026C105.51 115.809 105.573 115.387 105.336 115.115C105.095 114.837 104.35 115.011 104.178 114.687C104.006 114.366 103.663 114.085 103.567 113.731C103.472 113.381 104.847 112.914 104.832 112.547C104.817 112.184 104.308 112.001 104.371 111.636C104.434 111.282 104.261 110.984 104.404 110.638C104.547 110.293 104.991 110.28 105.195 109.989C105.408 109.684 105.78 109.828 106.047 109.582C106.319 109.334 106.288 109.091 106.603 108.911C106.921 108.728 106.86 108.046 107.21 107.939C107.557 107.833 107.797 107.159 108.162 107.133C108.525 107.109 109.083 106.305 109.448 106.366C109.803 106.422 109.944 107.685 110.289 107.828C110.635 107.972 110.292 109.034 110.585 109.245C110.885 109.46 111.148 109.354 111.385 109.628C111.626 109.904 113.273 109.206 113.445 109.53C113.617 109.852 113.256 110.519 113.354 110.873C113.449 111.225 112.747 111.675 112.763 112.042C112.78 112.405 113.975 112.873 113.91 113.24C113.847 113.592 112.187 113.466 112.045 113.809C111.902 114.155 112.632 114.868 112.426 115.163C112.213 115.467 112.534 116.378 112.267 116.624C111.995 116.874 111.107 116.461 110.791 116.641C110.474 116.821 109.75 115.752 109.403 115.861C109.053 115.967 108.983 116.248 108.618 116.274C108.255 116.3 107.849 117.889 107.486 117.83C107.132 117.767 106.919 116.937 106.573 116.793Z" fill="#D9AE00"/>
<path id="Vector_37" d="M13.7037 174.091C13.6146 174.454 13.2234 174.638 13.0604 174.96C12.8909 175.288 12.4671 175.29 12.2324 175.564C11.9955 175.845 12.278 176.557 11.9846 176.775C11.6912 176.994 11.4674 177.375 11.1305 177.522C10.798 177.67 10.1308 176.381 9.76782 176.451C9.4114 176.52 9.30709 177.051 8.93762 177.042C8.57902 177.033 8.3117 177.251 7.94658 177.162C7.58363 177.07 7.50539 176.636 7.18374 176.477C6.85122 176.312 6.93597 175.923 6.65344 175.697C6.36873 175.464 6.13184 175.534 5.90581 175.249C5.67761 174.962 5.01041 175.125 4.85393 174.797C4.69528 174.469 3.99328 174.336 3.91286 173.975C3.83462 173.621 2.95661 173.189 2.96095 172.819C2.9653 172.458 4.19107 172.13 4.28017 171.767C4.36928 171.404 5.47114 171.583 5.63632 171.261C5.80366 170.933 5.66023 170.689 5.89278 170.413C6.12967 170.133 5.19078 168.61 5.48418 168.392C5.77758 168.175 6.48827 168.429 6.82514 168.281C7.15766 168.134 7.70968 168.759 8.07046 168.69C8.42688 168.618 8.70942 167.366 9.08106 167.375C9.43749 167.384 9.56354 169.044 9.92649 169.133C10.2916 169.225 10.8849 168.394 11.2066 168.551C11.5391 168.716 12.3932 168.262 12.6736 168.488C12.9605 168.72 12.6888 169.659 12.9148 169.944C13.1409 170.231 12.1933 171.107 12.3519 171.435C12.5106 171.763 12.7996 171.791 12.88 172.15C12.9605 172.504 14.5926 172.665 14.5883 173.034C14.5818 173.391 13.7928 173.728 13.7037 174.091Z" fill="#D9AE00"/>
<path id="Vector_38" d="M129.478 158.803C129.85 158.775 130.15 159.088 130.504 159.146C130.871 159.205 131.004 159.609 131.336 159.746C131.675 159.885 132.266 159.396 132.562 159.607C132.862 159.818 133.292 159.913 133.538 160.187C133.781 160.457 132.764 161.493 132.942 161.815C133.118 162.132 133.657 162.067 133.762 162.422C133.864 162.765 134.153 162.954 134.181 163.328C134.209 163.702 133.818 163.91 133.768 164.264C133.714 164.632 133.318 164.671 133.19 165.01C133.057 165.353 133.197 165.555 132.997 165.86C132.794 166.166 133.157 166.749 132.892 166.999C132.629 167.253 132.721 167.959 132.405 168.148C132.092 168.333 131.953 169.302 131.601 169.413C131.258 169.522 130.562 168.459 130.193 168.485C129.821 168.511 129.647 167.409 129.291 167.353C128.926 167.296 128.741 167.509 128.407 167.372C128.065 167.233 126.909 168.598 126.611 168.387C126.314 168.176 126.335 167.42 126.09 167.146C125.846 166.877 126.27 166.157 126.092 165.836C125.912 165.521 124.636 165.64 124.527 165.284C124.425 164.943 125.964 164.308 125.935 163.936C125.907 163.562 124.936 163.254 124.986 162.9C125.038 162.532 124.342 161.861 124.468 161.524C124.601 161.178 125.577 161.146 125.779 160.844C125.981 160.537 127.107 161.167 127.37 160.915C127.635 160.663 127.57 160.381 127.885 160.192C128.196 160.005 127.844 158.405 128.196 158.292C128.541 158.186 129.104 158.831 129.478 158.803Z" fill="#D9AE00"/>
<path id="Vector_39" d="M34.1101 102.218C33.9405 101.934 34.0709 101.575 33.9775 101.273C33.8797 100.96 34.147 100.697 34.1253 100.378C34.1014 100.056 33.4841 99.7821 33.5341 99.4626C33.5841 99.1453 33.4885 98.765 33.6102 98.4651C33.7275 98.1673 34.9468 98.565 35.1294 98.2955C35.3097 98.0326 35.0468 97.6327 35.2858 97.4088C35.5184 97.1937 35.551 96.8916 35.8357 96.722C36.1204 96.5525 36.4377 96.7807 36.7398 96.6808C37.0528 96.5786 37.2375 96.8764 37.5548 96.8459C37.8764 96.8133 37.9851 96.6242 38.3024 96.6655C38.6241 96.7047 38.9436 96.1896 39.2456 96.2983C39.5499 96.4069 40.0715 96.057 40.3432 96.2331C40.6127 96.4069 41.432 96.1374 41.658 96.3721C41.8776 96.6003 41.3103 97.5675 41.4777 97.8522C41.645 98.1347 40.843 98.7063 40.9365 99.0084C41.0343 99.3214 41.2777 99.3822 41.3016 99.7017C41.3255 100.023 42.8577 100.402 42.8077 100.721C42.7599 101.038 42.1536 101.319 42.034 101.621C41.9167 101.918 41.1821 101.866 40.9974 102.134C40.817 102.397 41.4146 103.362 41.1756 103.585C40.9452 103.801 39.8411 102.833 39.5564 103.001C39.2717 103.17 39.4108 104.059 39.1109 104.159C38.8001 104.261 38.5437 105.074 38.2263 105.107C37.9025 105.139 37.4939 104.379 37.1766 104.34C36.855 104.298 36.9115 103.162 36.6094 103.053C36.3051 102.944 36.1074 103.105 35.8357 102.929C35.5662 102.757 34.4361 103.664 34.21 103.429C33.9905 103.201 34.2796 102.501 34.1101 102.218Z" fill="#D9AE00"/>
<path id="Vector_40" d="M65.4527 170.458C65.1701 170.628 64.8094 170.498 64.5073 170.593C64.1943 170.691 63.9292 170.424 63.6119 170.448C63.2902 170.471 63.0185 171.089 62.6991 171.041C62.3818 170.993 62.0014 171.089 61.6993 170.967C61.4016 170.852 61.7971 169.63 61.5255 169.448C61.2625 169.267 60.8626 169.53 60.6387 169.291C60.4236 169.061 60.1215 169.026 59.952 168.741C59.7824 168.457 60.0085 168.139 59.9107 167.84C59.8085 167.527 60.1041 167.342 60.0737 167.022C60.0411 166.701 59.852 166.592 59.8911 166.275C59.9302 165.953 59.4152 165.636 59.5238 165.334C59.6325 165.029 59.2804 164.508 59.4565 164.236C59.6303 163.967 59.3565 163.147 59.5934 162.919C59.8216 162.7 60.7887 163.265 61.0734 163.097C61.3559 162.928 61.9297 163.732 62.2296 163.636C62.5426 163.539 62.6034 163.295 62.9229 163.271C63.2446 163.247 63.6206 161.713 63.94 161.763C64.2573 161.813 64.5399 162.417 64.8398 162.534C65.1397 162.652 65.0876 163.386 65.3549 163.569C65.62 163.749 66.5828 163.15 66.8067 163.391C67.0218 163.621 66.0569 164.727 66.2264 165.012C66.3959 165.295 67.2848 165.155 67.3848 165.455C67.4869 165.766 68.3019 166.02 68.3345 166.338C68.3671 166.662 67.6064 167.07 67.5695 167.39C67.5282 167.711 66.3916 167.657 66.2851 167.961C66.1764 168.266 66.3372 168.463 66.1612 168.735C65.9895 169.004 66.8979 170.132 66.6632 170.358C66.4372 170.578 65.7352 170.291 65.4527 170.458Z" fill="#D9AE00"/>
<path id="Vector_41" d="M87.4417 198.164C87.1744 197.971 87.1505 197.591 86.944 197.352C86.7289 197.104 86.8702 196.754 86.7224 196.471C86.5746 196.184 85.8987 196.18 85.8183 195.867C85.7378 195.556 85.5009 195.246 85.4923 194.92C85.4814 194.6 86.7593 194.481 86.8202 194.161C86.881 193.85 86.4811 193.585 86.6137 193.285C86.7419 192.996 86.6528 192.705 86.8462 192.435C87.0397 192.168 87.4222 192.249 87.6591 192.04C87.9047 191.823 88.1937 192.023 88.4719 191.868C88.7544 191.71 88.7783 191.494 89.0869 191.403C89.3977 191.312 89.4868 190.714 89.8063 190.695C90.128 190.673 90.4692 190.145 90.7887 190.197C91.106 190.249 91.7493 189.675 92.0514 189.801C92.3448 189.925 92.2057 191.036 92.473 191.229C92.7382 191.423 92.2296 192.266 92.4339 192.505C92.6469 192.753 92.8946 192.716 93.0424 192.998C93.1924 193.283 94.7485 193.024 94.8289 193.337C94.9093 193.648 94.4659 194.146 94.4746 194.468C94.4855 194.789 93.7922 195.03 93.7292 195.35C93.6683 195.665 94.5985 196.313 94.4659 196.613C94.3399 196.902 92.9424 196.452 92.7468 196.719C92.5534 196.986 93.0337 197.747 92.7968 197.958C92.5534 198.175 92.6403 199.023 92.36 199.179C92.0753 199.338 91.3994 198.801 91.0908 198.892C90.78 198.984 90.3801 197.917 90.0584 197.938C89.7368 197.958 89.6172 198.184 89.2999 198.132C88.9848 198.082 88.3067 199.362 88.0068 199.234C87.7221 199.116 87.7091 198.358 87.4417 198.164Z" fill="#D9AE00"/>
<path id="Vector_42" d="M12.5734 63.1026C12.6777 62.7897 13.0342 62.6549 13.2037 62.3854C13.3776 62.1072 13.7514 62.1377 13.9796 61.9138C14.2099 61.6856 14.0122 61.0401 14.286 60.8706C14.5598 60.7011 14.7859 60.3816 15.0923 60.2773C15.3944 60.1708 15.8878 61.3553 16.2116 61.3183C16.5289 61.2835 16.6593 60.825 16.9853 60.8619C17.3004 60.8967 17.5504 60.7272 17.8655 60.8315C18.1785 60.938 18.2132 61.327 18.4849 61.49C18.7652 61.6595 18.6609 61.9942 18.8891 62.2159C19.1239 62.4397 19.3368 62.3963 19.5172 62.6636C19.6954 62.9331 20.2931 62.8396 20.4083 63.1396C20.5257 63.4417 21.132 63.609 21.1755 63.9307C21.2211 64.248 21.96 64.6935 21.9274 65.0195C21.897 65.3346 20.7951 65.5346 20.6908 65.8475C20.5865 66.1583 19.6281 65.9236 19.4607 66.1909C19.2869 66.4691 19.3977 66.693 19.1717 66.919C18.9435 67.1472 19.6541 68.5555 19.3803 68.7272C19.1065 68.8967 18.5001 68.6207 18.1958 68.725C17.8916 68.8294 17.4547 68.2404 17.1309 68.2752C16.8136 68.3099 16.4702 69.3922 16.1442 69.3553C15.8313 69.3205 15.8443 67.8535 15.5313 67.747C15.2184 67.6427 14.6337 68.3273 14.3621 68.1643C14.0817 67.9948 13.2971 68.3317 13.0646 68.11C12.8299 67.884 13.1407 67.0798 12.9624 66.8125C12.7842 66.543 13.6818 65.8432 13.5666 65.5433C13.4514 65.2412 13.2015 65.1955 13.1559 64.8761C13.1102 64.5587 11.6867 64.2936 11.7193 63.9698C11.7476 63.6525 12.4669 63.4156 12.5734 63.1026Z" fill="#D9AE00"/>
<path id="Vector_43" d="M104.597 70.0724C104.597 70.581 104.143 70.9548 104.03 71.4308C103.915 71.922 103.352 72.0611 103.13 72.5001C102.909 72.9478 103.513 73.7954 103.196 74.1779C102.88 74.5604 102.709 75.1385 102.313 75.4427C101.922 75.7448 100.618 74.2604 100.164 74.4734C99.7182 74.6799 99.7509 75.4167 99.2575 75.5232C98.7816 75.6275 98.4969 76.0013 97.9883 76.0013C97.4797 76.0013 97.2341 75.4515 96.7582 75.3471C96.2648 75.2385 96.2518 74.6951 95.8062 74.4865C95.352 74.2735 95.0608 74.4409 94.6696 74.1388C94.274 73.8345 93.4482 74.2691 93.133 73.8845C92.8179 73.502 91.8464 73.5541 91.6248 73.1086C91.4052 72.6674 90.1034 72.3805 89.9904 71.8894C89.8774 71.4134 91.39 70.5788 91.39 70.0703C91.39 69.5617 92.9027 69.4378 93.0157 68.9619C93.1309 68.4707 92.8592 68.1969 93.0787 67.7578C93.3004 67.3101 91.5661 65.6041 91.8812 65.2216C92.1985 64.8391 93.22 64.9434 93.6155 64.6369C94.0067 64.3348 94.9391 64.9803 95.3933 64.7695C95.8389 64.5609 95.8041 62.8135 96.2974 62.7048C96.7734 62.6005 97.4775 64.7499 97.9861 64.7499C98.4947 64.7499 99.0097 63.4612 99.4857 63.5655C99.9791 63.6741 100.957 62.7961 101.403 63.0048C101.857 63.2156 101.802 64.5456 102.194 64.8477C102.589 65.152 101.62 66.6168 101.937 66.9994C102.255 67.3819 102.644 67.3232 102.865 67.7709C103.087 68.2121 105.295 67.8948 105.41 68.3838C105.53 68.8641 104.597 69.5639 104.597 70.0724Z" fill="#54BA3C"/>
<path id="Vector_44" d="M50.3792 183.377C50.0532 183.679 49.649 183.725 49.3012 183.964C48.9448 184.21 48.6514 184.073 48.2885 184.249C47.9212 184.427 47.5995 185.168 47.2366 185.272C46.878 185.377 46.4455 185.653 46.1043 185.679C45.7674 185.705 46.2434 184.312 45.9434 184.26C45.6479 184.208 45.1893 184.657 44.9394 184.529C44.7003 184.405 44.3547 184.516 44.1722 184.316C43.9853 184.116 44.2504 183.692 44.1439 183.445C44.0331 183.186 44.3765 182.858 44.3482 182.56C44.32 182.256 44.107 182.241 44.1591 181.908C44.2091 181.571 43.631 181.506 43.7614 181.154C43.8918 180.802 43.505 180.454 43.7092 180.1C43.9114 179.75 43.6223 179.07 43.894 178.735C44.1591 178.409 45.2458 178.505 45.5696 178.203C45.8956 177.898 46.5281 178.42 46.8736 178.181C47.2301 177.933 47.3061 177.664 47.6691 177.49C48.0364 177.312 48.4993 175.614 48.8601 175.51C49.2187 175.408 49.5273 175.871 49.8663 175.842C50.2032 175.816 50.1271 176.566 50.427 176.62C50.7226 176.67 51.831 175.616 52.0809 175.747C52.3222 175.873 51.2007 177.427 51.3855 177.627C51.5702 177.827 52.5851 177.262 52.6916 177.512C52.8025 177.768 53.7218 177.631 53.7501 177.929C53.7805 178.233 52.909 179.002 52.8568 179.335C52.8068 179.672 51.5137 180.163 51.3833 180.515C51.2529 180.867 51.4311 180.985 51.2268 181.339C51.0247 181.686 52.0331 182.365 51.7615 182.701C51.4941 183.023 50.7052 183.075 50.3792 183.377Z" fill="#54BA3C"/>
<path id="Vector_45" d="M134.642 85.2746C134.42 85.4789 134.092 85.4507 133.847 85.5984C133.59 85.7506 133.325 85.5854 133.053 85.6767C132.78 85.768 132.632 86.3483 132.349 86.3787C132.069 86.4091 131.756 86.5743 131.48 86.5417C131.206 86.5091 131.376 85.4007 131.117 85.3072C130.865 85.2159 130.558 85.5246 130.33 85.3746C130.113 85.2312 129.846 85.2681 129.661 85.0681C129.476 84.8682 129.624 84.5509 129.498 84.3227C129.365 84.0858 129.596 83.862 129.524 83.6033C129.452 83.3404 129.274 83.2925 129.261 83.0187C129.25 82.7405 128.761 82.5927 128.811 82.3124C128.861 82.0342 128.485 81.6734 128.598 81.4061C128.709 81.1409 128.361 80.5172 128.533 80.2738C128.698 80.0391 129.611 80.2933 129.833 80.0912C130.052 79.8848 130.658 80.4303 130.906 80.2825C131.16 80.1282 131.18 79.913 131.452 79.8217C131.726 79.7304 131.836 78.3612 132.117 78.3286C132.397 78.2982 132.725 78.7416 133.001 78.7742C133.275 78.8068 133.334 79.4327 133.59 79.5261C133.842 79.6152 134.588 78.8981 134.814 79.048C135.033 79.1915 134.357 80.3346 134.542 80.5346C134.727 80.7345 135.475 80.4172 135.603 80.6454C135.735 80.8823 136.472 80.9127 136.544 81.1714C136.618 81.4343 136.022 81.9494 136.033 82.2233C136.044 82.4993 135.057 82.7101 135.005 82.9883C134.953 83.2665 135.12 83.3969 135.007 83.6642C134.896 83.9272 135.84 84.6661 135.668 84.9095C135.505 85.1529 134.862 85.0703 134.642 85.2746Z" fill="#54BA3C"/>
<path id="Vector_46" d="M83.2953 161.129C83.1106 161.301 82.8085 161.249 82.5933 161.366C82.3717 161.488 82.1174 161.314 81.8761 161.375C81.6327 161.44 81.5436 161.964 81.2872 161.968C81.0329 161.975 80.7612 162.103 80.5048 162.051C80.2527 162.001 80.3179 160.986 80.0766 160.879C79.8397 160.775 79.5833 161.036 79.3638 160.879C79.153 160.729 78.9117 160.742 78.727 160.545C78.5423 160.345 78.6531 160.062 78.5183 159.84C78.3771 159.61 78.5705 159.421 78.4836 159.175C78.3966 158.925 78.2293 158.867 78.1967 158.613C78.1619 158.354 77.7055 158.178 77.7294 157.924C77.7533 157.669 77.3817 157.306 77.4621 157.069C77.5425 156.835 77.1752 156.226 77.3121 156.018C77.4447 155.813 78.301 156.122 78.4857 155.952C78.6705 155.778 79.2681 156.331 79.4811 156.215C79.7006 156.094 79.7028 155.896 79.9419 155.833C80.1853 155.77 80.1744 154.511 80.4309 154.505C80.6852 154.501 81.0198 154.937 81.2763 154.987C81.5284 155.04 81.6327 155.624 81.874 155.731C82.113 155.833 82.7368 155.231 82.9563 155.387C83.1671 155.539 82.6412 156.544 82.8259 156.741C83.0128 156.941 83.6691 156.707 83.8039 156.928C83.943 157.156 84.6211 157.243 84.708 157.491C84.7971 157.741 84.2929 158.169 84.3233 158.423C84.3581 158.682 83.4692 158.797 83.4453 159.052C83.4214 159.306 83.5822 159.438 83.5018 159.677C83.4214 159.912 84.3407 160.673 84.206 160.884C84.0734 161.086 83.4779 160.958 83.2953 161.129Z" fill="#54BA3C"/>
<path id="Vector_47" d="M120.316 137.594C119.938 137.685 119.577 137.412 119.201 137.414C118.817 137.416 118.612 137.02 118.245 136.933C117.873 136.846 117.347 137.449 117.006 137.281C116.663 137.114 116.202 137.09 115.907 136.849C115.611 136.612 116.487 135.375 116.246 135.075C116.013 134.78 115.47 134.934 115.302 134.586C115.139 134.249 114.809 134.104 114.718 133.726C114.626 133.345 114.994 133.065 114.987 132.693C114.979 132.306 115.383 132.2 115.459 131.83C115.537 131.454 115.359 131.268 115.515 130.922C115.672 130.572 115.2 130.035 115.431 129.731C115.659 129.427 115.448 128.714 115.741 128.466C116.03 128.223 116.013 127.203 116.359 127.03C116.693 126.86 117.584 127.838 117.965 127.749C118.345 127.66 118.706 128.764 119.08 128.764C119.466 128.762 119.621 128.512 119.988 128.597C120.362 128.681 121.325 127.084 121.666 127.251C122.007 127.419 122.114 128.201 122.411 128.44C122.707 128.679 122.392 129.488 122.629 129.79C122.861 130.085 124.161 129.748 124.33 130.096C124.493 130.433 123.015 131.341 123.107 131.72C123.196 132.1 124.25 132.254 124.256 132.628C124.263 133.013 125.093 133.586 125.017 133.956C124.939 134.332 123.939 134.53 123.783 134.873C123.626 135.223 122.364 134.76 122.133 135.064C121.905 135.371 122.016 135.649 121.725 135.895C121.435 136.138 122.066 137.729 121.722 137.903C121.383 138.072 120.697 137.503 120.316 137.594Z" fill="#A27F00"/>
<path id="Vector_48" d="M122.157 170.259C121.79 170.244 121.533 169.904 121.194 169.809C120.842 169.711 120.759 169.3 120.446 169.129C120.131 168.955 119.501 169.366 119.234 169.126C118.966 168.887 118.553 168.746 118.347 168.451C118.14 168.159 119.249 167.262 119.11 166.927C118.973 166.599 118.443 166.601 118.38 166.242C118.317 165.895 118.056 165.68 118.071 165.312C118.086 164.945 118.488 164.784 118.58 164.445C118.673 164.091 119.064 164.097 119.227 163.782C119.395 163.461 119.282 163.245 119.512 162.972C119.744 162.696 119.455 162.087 119.74 161.87C120.027 161.652 120.016 160.953 120.344 160.803C120.668 160.657 120.914 159.727 121.272 159.657C121.62 159.59 122.179 160.705 122.544 160.72C122.911 160.735 122.954 161.833 123.296 161.926C123.646 162.022 123.852 161.835 124.163 162.009C124.478 162.183 125.762 160.979 126.03 161.22C126.297 161.459 126.193 162.196 126.399 162.487C126.606 162.778 126.112 163.43 126.251 163.767C126.388 164.095 127.651 164.123 127.716 164.48C127.777 164.828 126.204 165.273 126.188 165.64C126.173 166.01 127.09 166.418 126.999 166.76C126.908 167.112 127.512 167.844 127.349 168.159C127.184 168.481 126.225 168.405 125.997 168.677C125.765 168.953 124.737 168.211 124.452 168.429C124.165 168.646 124.198 168.929 123.867 169.076C123.543 169.222 123.706 170.828 123.35 170.896C123.002 170.967 122.524 170.274 122.157 170.259Z" fill="#54BA3C"/>
<path id="Vector_49" d="M106.447 155.028C106.568 155.274 106.436 155.565 106.497 155.824C106.557 156.089 106.318 156.291 106.316 156.558C106.314 156.828 106.812 157.097 106.749 157.358C106.688 157.619 106.742 157.94 106.62 158.184C106.503 158.423 105.514 158.014 105.345 158.227C105.177 158.434 105.369 158.784 105.156 158.955C104.949 159.12 104.901 159.368 104.654 159.49C104.406 159.614 104.156 159.403 103.899 159.466C103.634 159.531 103.497 159.27 103.232 159.277C102.96 159.281 102.861 159.431 102.598 159.379C102.332 159.325 102.035 159.733 101.789 159.622C101.543 159.512 101.085 159.768 100.87 159.605C100.657 159.444 99.9569 159.614 99.7853 159.405C99.6157 159.201 100.153 158.434 100.031 158.186C99.9091 157.94 100.615 157.517 100.557 157.26C100.496 156.995 100.298 156.928 100.3 156.66C100.3 156.391 99.0507 155.976 99.1115 155.715C99.1746 155.452 99.6962 155.258 99.8157 155.017C99.9331 154.776 100.539 154.867 100.711 154.656C100.878 154.45 100.442 153.607 100.657 153.437C100.863 153.272 101.72 154.15 101.967 154.026C102.215 153.904 102.156 153.155 102.415 153.092C102.68 153.026 102.945 152.366 103.213 152.361C103.484 152.355 103.776 153.013 104.036 153.068C104.301 153.12 104.18 154.065 104.425 154.174C104.671 154.285 104.847 154.163 105.06 154.326C105.273 154.487 106.271 153.804 106.444 154.015C106.612 154.215 106.325 154.78 106.447 155.028Z" fill="#26541B"/>
</g>
</svg>
