<svg width="431" height="431" viewBox="0 0 431 431" fill="none" xmlns="http://www.w3.org/2000/svg">
<path opacity="0.25" d="M386.904 162.306C390.656 166.058 393.212 170.394 394.494 175.197C398.492 190.145 389.816 202.782 383.485 212.009C382.584 213.32 380.45 216.427 379.391 218.301C379.171 230.45 373.962 239.194 370.443 245.099C369.209 247.169 367.936 249.304 367.521 250.583L366.449 253.927C363.269 263.941 360.522 272.596 348.696 281.442C347.66 282.719 345.602 286.228 344.463 288.165C338.331 298.607 328.077 316.074 307.84 313.192C301.259 312.257 295.21 309.073 289.867 303.73C285.546 299.41 282.291 294.303 279.417 289.795C278.065 287.673 276.291 284.894 275.133 283.487C271.222 281.889 266.393 281.029 261.305 280.123C259.474 279.797 257.621 279.466 255.767 279.093C254.85 280.82 253.77 282.707 252.483 284.709C246.347 294.248 236.028 297.192 227.739 299.557C226.989 299.772 225.595 300.17 224.266 300.583C223.364 302.922 222.414 305.191 221.484 307.415C219.792 311.445 217.879 316.014 217.494 318.459C215.913 328.524 213.95 333.137 212.371 336.842C211.422 339.07 210.989 340.085 210.406 343.99C210.177 345.527 210.408 346.255 211.328 348.786C212.659 352.455 214.885 358.592 212.776 366.084C210.557 373.953 204.735 379.64 195.471 382.989C178.08 389.289 162.749 385.978 149.91 373.139C148.978 372.207 148.039 371.206 147.095 370.121C146.988 369.997 146.777 369.786 146.774 369.783C145.788 368.797 144.047 367.354 142.364 365.957C139.712 363.757 136.413 361.018 133.138 357.744C128.775 353.381 125.329 348.945 122.608 344.183C115.617 331.949 120.849 319.136 124.668 309.779C124.972 309.038 125.574 307.557 126.147 306.06C125.547 305.569 124.903 305.054 124.243 304.529C121.939 302.691 119.334 300.612 116.808 298.086C112.92 294.198 110.139 290.153 108.302 285.708C104.448 276.359 105.668 267.247 106.558 260.596C106.798 258.807 107.147 256.188 107.132 254.979C106.446 253.438 104.692 251.054 103.128 248.926C99.7218 244.295 95.0625 237.956 92.959 229.719C90.5563 220.307 92.2177 211.909 93.4312 205.776C93.5643 205.113 93.716 204.335 93.8605 203.558C92.0846 202.403 89.9166 201.116 88.2467 200.122C82.9606 196.979 77.4971 193.731 73.1998 189.434C66.2209 182.455 64.9272 175.223 65.0689 170.382C65.5626 153.549 80.3219 144.797 89.1382 139.566C90.1943 138.94 92.2864 137.698 93.6859 136.776C99.6889 124.371 105.685 119.603 119.651 115.47C133.091 111.495 141.802 112.326 154.115 115.396C164.274 117.927 172.89 121.117 182.742 126.009C184.216 126.081 187.286 125.79 189.203 125.607C196.275 124.937 205.957 124.022 215.083 128.528C222.035 131.962 227.185 137.032 231.323 141.108C232.547 142.314 234.43 144.169 235.612 145.133C243.827 146.199 248.521 146.233 251.183 145.973C251.45 144.091 251.68 142.112 251.792 141.168C253.07 130.173 254.819 115.139 269.034 109.009C279.317 104.576 295.844 100.078 307.538 100.058C314.48 100.048 320.964 102.857 326.29 108.183C331.218 113.112 334.419 119.475 337.238 125.091C338.097 126.796 339.546 129.68 340.492 131.209C341.304 131.654 342.247 132.134 343.22 132.623C347.317 134.691 352.932 137.527 358.128 142.723C359.97 144.565 361.602 146.53 363.065 148.673C364.49 149.357 366.516 150.233 367.663 150.73C373.699 153.343 381.185 156.582 386.899 162.296L386.907 162.304L386.904 162.306Z" fill="#44A1CC"/>
<path d="M278.821 278.491L279.783 279.659C280.188 280.15 280.116 280.874 279.627 281.278C279.136 281.683 278.4 281.605 278.008 281.122L277.414 280.402L276.546 280.046C272.273 278.3 267.27 277.41 261.974 276.467C260.159 276.143 258.338 275.818 256.51 275.451L253.79 274.903L252.491 277.35C251.495 279.227 250.47 280.979 249.36 282.701C243.979 291.064 234.812 293.677 226.723 295.983C225.632 296.297 224.372 296.659 223.165 297.033L221.447 297.567L220.8 299.247C219.933 301.496 219.02 303.683 218.121 305.826C215.873 311.185 214.249 315.185 213.828 317.878C212.316 327.496 210.53 331.686 208.954 335.382C207.867 337.944 207.357 339.251 206.733 343.439C206.354 345.967 206.909 347.498 207.832 350.038C209.093 353.514 210.985 358.734 209.202 365.074C207.3 371.812 202.397 376.529 194.212 379.491C178.068 385.338 164.436 382.399 152.543 370.506C151.669 369.631 150.79 368.693 149.901 367.675C149.74 367.488 149.423 367.169 149.403 367.149C148.299 366.044 146.496 364.547 144.751 363.1C142.161 360.954 138.936 358.281 135.769 355.114C131.64 350.986 128.394 346.806 125.838 342.335C119.746 331.676 124.384 320.318 128.107 311.191C128.472 310.291 129.062 308.846 129.621 307.385C129.849 306.791 130.513 306.496 131.105 306.722C131.699 306.95 131.995 307.615 131.766 308.208C131.2 309.684 130.604 311.15 130.238 312.051C126.699 320.727 122.297 331.511 127.833 341.196C130.284 345.488 133.412 349.509 137.393 353.49C140.484 356.581 143.662 359.215 146.217 361.332C148.001 362.813 149.847 364.344 151.029 365.526C151.039 365.536 151.443 365.945 151.637 366.174C152.484 367.144 153.327 368.044 154.166 368.883C165.363 380.081 178.205 382.845 193.425 377.333C200.863 374.64 205.298 370.429 206.985 364.454C208.568 358.827 206.828 354.028 205.676 350.85C204.694 348.145 203.99 346.208 204.455 343.101C205.121 338.646 205.696 337.161 206.833 334.483C208.357 330.91 210.083 326.861 211.553 317.526C212.015 314.568 213.613 310.623 215.998 304.939C216.888 302.816 217.792 300.652 218.651 298.42L219.698 295.701L222.48 294.836C223.706 294.457 224.981 294.089 226.002 293.796C233.786 291.575 242.511 289.087 247.422 281.454C248.498 279.785 249.49 278.089 250.457 276.269L252.562 272.307L256.961 273.194C258.768 273.559 260.576 273.881 262.372 274.2C267.792 275.164 272.911 276.076 277.411 277.915L278.821 278.491Z" fill="#B3D9EB"/>
<path d="M384.275 164.931L384.28 164.937C387.566 168.222 389.797 171.999 390.907 176.157C394.465 189.448 386.685 200.783 380.434 209.893C378.97 212.021 377.171 214.681 376.16 216.471L375.697 217.291L375.68 218.235C375.476 229.401 370.726 237.374 367.259 243.193C365.854 245.549 364.53 247.771 363.992 249.434L362.914 252.79C359.803 262.589 357.346 270.332 346.476 278.466L346.109 278.742L345.818 279.098C344.721 280.445 342.986 283.353 341.302 286.216C335.263 296.499 326.135 312.041 308.371 309.511C302.601 308.693 297.263 305.862 292.502 301.101C292.053 300.652 292.053 299.925 292.502 299.476C292.952 299.026 293.68 299.028 294.128 299.476C298.528 303.876 303.429 306.488 308.695 307.238C324.933 309.549 333.589 294.808 339.32 285.053C341.12 281.99 342.835 279.12 344.034 277.649L344.503 277.074L345.097 276.629C355.376 268.937 357.737 261.504 360.725 252.094L361.804 248.734C362.422 246.82 363.812 244.491 365.28 242.024C368.618 236.422 373.186 228.752 373.379 218.198L373.408 216.673L374.159 215.343C375.215 213.477 377.051 210.763 378.532 208.606C384.524 199.876 391.971 189.023 388.688 176.757C387.682 172.992 385.651 169.564 382.655 166.568C382.207 166.12 382.204 165.387 382.652 164.94C383.098 164.484 383.825 164.482 384.275 164.931Z" fill="#B3D9EB"/>
<path d="M323.659 110.814C328.169 115.324 331.22 121.397 333.913 126.752C335.12 129.155 336.375 131.623 337.329 133.167L337.843 133.999L338.703 134.47C339.548 134.937 340.53 135.433 341.543 135.945C345.65 138.02 350.729 140.586 355.5 145.357C357.19 147.047 358.659 148.817 359.993 150.771L360.555 151.597L361.458 152.034C362.022 152.311 362.27 152.997 361.995 153.569C361.719 154.14 361.032 154.38 360.46 154.106L359 153.404L358.091 152.069C356.839 150.233 355.46 148.571 353.873 146.984C349.364 142.475 344.465 140 340.533 138.011C339.467 137.472 338.459 136.962 337.591 136.483L336.204 135.72L335.373 134.374C334.371 132.751 333.087 130.234 331.863 127.792C329.245 122.585 326.283 116.689 322.033 112.439C317.862 108.268 312.853 106.067 307.547 106.079C296.775 106.096 280.891 110.449 271.417 114.536C260.394 119.288 258.933 131.848 257.76 141.939C257.643 142.95 257.409 144.934 257.137 146.823L256.471 151.503L251.766 151.961C247.863 152.343 242.168 152.054 234.835 151.101L233.131 150.879L231.805 149.793C230.51 148.735 228.838 147.107 227.098 145.392C223.266 141.62 218.499 136.925 212.415 133.92C204.819 130.171 196.475 130.962 189.768 131.596C186.92 131.868 184.213 132.103 182.444 132.017L180.973 131.848L180.061 131.394C170.612 126.705 162.416 123.666 152.656 121.233C152.037 121.08 151.665 120.456 151.818 119.839C151.971 119.225 152.596 118.849 153.21 119.002C163.141 121.478 171.477 124.567 181.083 129.337L181.778 129.683L182.553 129.722C184.17 129.802 186.786 129.573 189.547 129.309C196.543 128.647 205.248 127.821 213.428 131.859C219.844 135.03 224.758 139.867 228.705 143.754C230.339 145.365 232.034 147.019 233.253 148.012L234.073 148.684L235.125 148.82C242.285 149.75 247.806 150.036 251.535 149.672L254.442 149.388L254.855 146.498C255.12 144.631 255.352 142.671 255.468 141.679C256.71 130.992 258.257 117.703 270.499 112.421C280.184 108.245 296.455 103.796 307.537 103.776C313.474 103.769 319.047 106.202 323.659 110.814Z" fill="#B3D9EB"/>
<path d="M98.886 138.084C99.2223 138.42 99.3268 138.946 99.1078 139.399L98.3851 140.892L97.0014 141.803C95.526 142.775 93.3252 144.086 92.2076 144.751C83.955 149.644 71.4853 157.042 71.0861 170.563C70.9788 174.219 71.9976 179.723 77.4597 185.185C81.2132 188.939 86.3877 192.018 91.3948 194.996C93.2794 196.114 95.393 197.377 97.1488 198.521L100.519 200.711L99.7818 204.665C99.633 205.47 99.4756 206.277 99.3368 206.956C98.1762 212.836 96.731 220.152 98.7959 228.238C100.609 235.343 104.7 240.905 107.986 245.376C109.804 247.85 111.686 250.404 112.635 252.538L113.139 253.9L113.154 254.903C113.176 256.439 112.883 258.753 112.528 261.4C111.682 267.706 110.626 275.554 113.867 283.414C115.397 287.113 117.754 290.524 121.066 293.836C123.345 296.114 125.807 298.079 127.98 299.814C128.761 300.437 129.385 300.935 129.966 301.411C130.445 301.81 130.531 302.537 130.127 303.029C129.725 303.52 129.003 303.593 128.509 303.191C127.934 302.721 127.318 302.229 126.687 301.724C124.326 299.841 121.808 297.832 119.439 295.463C115.908 291.932 113.389 288.277 111.741 284.293C108.263 275.862 109.362 267.673 110.245 261.095C110.589 258.542 110.871 256.314 110.853 254.938L110.842 254.173L110.531 253.474C109.684 251.568 107.88 249.116 106.135 246.742C102.728 242.107 98.4896 236.343 96.5664 228.808C94.3741 220.216 95.8752 212.619 97.0801 206.514C97.2203 205.83 97.3749 205.035 97.5209 204.245L97.9759 201.803L95.8952 200.45C94.1752 199.331 92.0845 198.081 90.26 196.998C85.0927 193.923 79.7894 190.769 75.8327 186.812C69.791 180.771 68.6691 174.606 68.7893 170.496C69.2244 155.708 82.3509 147.925 91.0341 142.773C92.1303 142.124 94.2911 140.839 95.7364 139.886L96.5936 139.323L97.0386 138.4C97.3162 137.831 98.0031 137.59 98.5755 137.868C98.6928 137.919 98.7973 137.995 98.886 138.084Z" fill="#B3D9EB"/>
<path d="M378.297 170.906C380.521 173.13 382.015 175.631 382.739 178.341C385.292 187.877 379.003 197.04 373.452 205.124C371.091 208.564 367.137 214.327 367.207 216.346C367.559 226.165 363.364 233.211 359.991 238.874C358.342 241.638 356.785 244.249 355.95 246.819C355.552 248.044 355.187 249.187 354.848 250.256C351.853 259.688 350.044 265.38 340.977 272.017C338.969 273.487 336.312 278.013 333.97 282.007C328.509 291.305 321.717 302.876 309.555 301.144C305.583 300.58 301.954 298.611 298.471 295.128C295.091 291.748 292.338 287.429 289.675 283.252C287.525 279.883 285.307 276.4 283.262 274.355C282.405 273.498 281.846 273.168 281.591 273.044C276 270.381 269.613 269.244 263.434 268.145C258.978 267.352 254.77 266.604 250.885 265.309C250.159 265.067 249.632 264.935 249.268 264.862C248.752 265.721 248.051 267.203 247.459 268.451C246.205 271.101 244.644 274.403 242.247 278.127C238.592 283.808 231.376 285.871 224.395 287.862C221.169 288.783 215.825 290.308 214.54 291.61C213.341 295.359 211.771 299.096 210.256 302.715C208.109 307.835 206.08 312.674 205.468 316.578C204.118 325.151 202.553 328.835 201.169 332.082C200.056 334.692 199.18 336.758 198.366 342.197C197.67 346.848 198.795 349.948 199.884 352.945C200.924 355.812 202.105 359.064 201.057 362.791C199.41 368.625 193.538 370.751 191.327 371.551C186.146 373.429 172.38 378.411 158.508 364.539C157.764 363.795 157.014 362.994 156.26 362.128C155.988 361.813 155.688 361.499 155.371 361.182C153.995 359.806 152.115 358.246 150.125 356.595C147.537 354.447 144.599 352.01 141.736 349.146C138.147 345.557 135.345 341.963 133.165 338.149C129.118 331.066 132.577 322.584 135.927 314.383C137.338 310.926 139.964 304.491 139.469 302.605C139.027 301.719 138.208 300.651 137.012 299.455C135.551 297.994 133.741 296.55 131.823 295.022C129.672 293.306 127.45 291.533 125.405 289.488C122.672 286.755 120.754 284.002 119.544 281.068C116.935 274.745 117.826 268.089 118.614 262.216C119.172 258.043 119.701 254.105 118.824 251.514C117.712 248.235 115.388 245.073 112.925 241.723C109.803 237.476 106.264 232.663 104.747 226.719C103.024 219.973 104.269 213.685 105.367 208.14C106.094 204.477 106.778 201.017 106.389 198.261C106.389 198.269 106.381 198.265 106.371 198.255C106.304 198.188 106.036 197.771 105.374 197.109C103.024 194.759 98.6697 192.17 94.4598 189.669C89.603 186.781 85.0166 184.052 81.8012 180.837C78.6645 177.7 77.1233 174.305 77.2292 170.747C77.5254 160.608 87.4035 154.749 95.3427 150.041C98.2963 148.286 102.758 145.642 103.605 144.299C108.561 133.274 111.669 130.529 123.104 127.142C134.053 123.903 140.343 124.507 151.169 127.208C160.718 129.587 168.796 132.617 178.183 137.339C180.757 138.634 185.634 138.173 190.351 137.727C196.593 137.137 203.668 136.468 209.692 139.441C214.892 142.011 219.089 146.145 222.793 149.792C226.194 153.142 229.713 156.609 232.26 156.964C239.04 157.905 254.924 160.118 261.322 155.139C262.582 153.691 263.423 146.45 263.877 142.562C264.964 133.206 266.092 123.533 273.849 120.189C282.766 116.344 297.608 112.248 307.555 112.232C311.244 112.227 314.65 113.761 317.683 116.794C321.225 120.336 323.84 125.538 326.368 130.568C328.244 134.292 330.363 138.515 332.132 140.284C332.367 140.519 332.503 140.609 332.526 140.626C334.091 141.654 335.858 142.548 337.732 143.494C341.468 145.381 345.705 147.518 349.522 151.334C351.375 153.187 352.933 155.229 354.284 157.576C355.496 158.734 359.57 160.498 362.844 161.915C368.179 164.216 374.223 166.832 378.297 170.906Z" fill="#D9D29E"/>
<path d="M191.149 341.112C188.906 356.114 200.582 360.433 188.847 364.685C182.519 366.977 172.694 369.865 161.773 357.329C156.642 351.441 145.787 345.505 139.511 334.521C134.969 326.576 150.237 308.047 146.084 299.521C142.018 291.167 129.867 286.921 126.298 278.278C122.703 269.569 128.702 257.898 125.744 249.168C122.673 240.104 114.067 233.696 111.825 224.908C109.411 215.448 114.892 205.926 113.611 197.152C112.153 187.183 84.2799 179.518 84.5317 170.958C84.8423 160.39 106.845 154.872 110.208 147.405C114.296 138.326 115.776 136.923 125.183 134.139C134.815 131.289 139.848 131.903 149.41 134.287C158.523 136.56 165.998 139.376 174.908 143.858C183.69 148.275 198.017 141.81 206.468 145.986C215.886 150.638 222.435 162.963 231.264 164.191C240.852 165.525 257.145 167.642 265.814 160.9C273.183 155.166 269.13 130.175 276.75 126.888C285.419 123.15 299.272 119.542 307.576 119.527C316.496 119.514 320.91 141.73 328.529 146.727C335.166 151.08 342.966 152.533 347.968 161.214C351.857 167.969 373.114 170.595 375.692 180.227C378.737 191.614 359.56 206.721 359.916 216.605C360.347 228.656 352.009 235.357 349.012 244.555C345.263 256.084 344.681 260.263 336.673 266.122C328.197 272.325 322.4 295.595 310.593 293.916C299.742 292.372 294.023 270.867 284.736 266.448C274.06 261.367 261.8 261.245 253.204 258.379C242.289 254.738 243.651 262.469 236.118 274.174C231.476 281.389 210.346 280.688 207.672 289.149C204.881 297.984 199.515 307.503 198.266 315.441C195.909 330.399 193.106 328.042 191.149 341.112Z" fill="#9CA856"/>
<path d="M367.97 181.231C368.426 181.687 368.599 182.001 368.631 182.112C369.446 185.155 364.613 192.198 361.411 196.859C356.762 203.634 352.368 210.035 352.614 216.867C352.813 222.386 350.326 226.562 347.445 231.397C345.462 234.731 343.407 238.174 342.066 242.297C341.655 243.561 341.282 244.735 340.934 245.836C338.218 254.382 337.574 256.414 332.357 260.232C327.912 263.486 324.738 268.889 321.378 274.613C318.828 278.955 314.081 287.038 311.616 286.688C310.917 286.588 309.916 285.918 308.797 284.799C306.546 282.548 304.228 278.913 301.988 275.4C299.418 271.368 296.763 267.202 293.592 264.031L293.589 264.028C291.729 262.168 289.856 260.804 287.867 259.857C280.499 256.352 272.794 254.978 265.996 253.766C262.08 253.071 258.38 252.413 255.505 251.453C241.55 246.799 237.165 256.069 234.265 262.204C233.134 264.59 231.855 267.295 229.972 270.223C228.93 271.379 223.585 272.906 220.39 273.818C212.386 276.103 203.312 278.692 200.702 286.948C199.691 290.152 198.215 293.665 196.793 297.065C194.404 302.765 191.935 308.658 191.046 314.309C189.98 321.093 188.891 323.65 187.74 326.358C186.465 329.356 185.017 332.75 183.927 340.031C182.687 348.322 184.85 354.308 186.153 357.896C180.454 359.94 175.525 360.899 168.837 354.211C168.32 353.694 167.799 353.136 167.276 352.532C166.788 351.976 166.263 351.416 165.7 350.854C163.844 348.998 161.711 347.227 159.452 345.353C156.994 343.312 154.45 341.2 152.066 338.816C149.47 336.22 147.471 333.692 145.958 331.089C145.681 329.137 148.032 323.369 149.451 319.897C152.741 311.836 156.141 303.499 152.648 296.326C151.439 293.843 149.703 291.486 147.343 289.126C145.303 287.086 143.082 285.314 140.934 283.601C139.014 282.07 137.2 280.623 135.737 279.159C134.389 277.811 133.51 276.612 133.048 275.492C131.933 272.794 132.498 268.597 133.092 264.154C133.815 258.763 134.633 252.653 132.66 246.828C130.821 241.403 127.567 236.978 124.694 233.071C122.132 229.588 119.712 226.299 118.897 223.102C117.994 219.56 118.819 215.389 119.694 210.971C120.63 206.237 121.6 201.343 120.831 196.096C120.352 192.798 118.67 189.751 115.7 186.78C112.058 183.138 106.906 180.073 101.922 177.112C98.0528 174.811 94.0517 172.433 92.1284 170.51C92.1084 170.49 92.0912 170.473 92.0726 170.454C93.412 168.162 99.8687 164.332 102.797 162.595C108.814 159.022 114.499 155.649 116.863 150.406C120.077 143.265 120.077 143.265 127.255 141.141C135.422 138.725 139.129 139.25 147.641 141.37C156.195 143.503 163.144 146.113 171.623 150.379C177.951 153.561 185.273 152.87 191.73 152.26C196.037 151.851 200.921 151.389 203.231 152.531C206.323 154.061 209.489 157.177 212.554 160.194C217.648 165.211 222.918 170.401 230.254 171.423C240.308 172.822 259.025 175.427 270.291 166.662C276.322 161.974 277.369 152.962 278.385 144.247C278.784 140.814 279.438 135.226 280.377 133.28C288.624 129.855 300.461 126.996 307.061 126.836C307.141 126.905 307.241 126.993 307.364 127.116C309.239 128.991 311.411 133.31 313.326 137.122C315.811 142.063 318.377 147.17 321.812 150.605C322.679 151.472 323.593 152.223 324.52 152.833C326.773 154.31 329.002 155.437 331.154 156.522C334.311 158.116 337.039 159.493 339.201 161.655C340.137 162.591 340.935 163.638 341.637 164.86C342.228 165.883 342.989 166.871 343.902 167.784C347.144 171.026 351.955 173.107 357.051 175.312C361.181 177.098 365.866 179.127 367.97 181.231Z" fill="#3F8000"/>
<path d="M335.646 191.884C331.754 198.553 328.354 206.546 328.275 215.958C327.82 216.797 327.107 217.993 326.544 218.94C324.243 222.804 321.109 228.064 318.929 234.766C318.492 236.108 318.098 237.343 317.733 238.503C317.41 239.516 317.065 240.608 316.761 241.524C314.614 243.223 312.696 245.066 310.966 246.985C310.913 246.932 310.859 246.878 310.806 246.825C306.949 242.968 302.866 240.042 298.327 237.884C287.997 232.968 277.753 231.144 270.27 229.811C267.793 229.369 264.414 228.77 263.217 228.37C252.983 224.958 223.149 225.311 197.215 246.958C189.289 253.573 177.544 272.547 176.507 275.035C176.392 274.789 177.381 279.421 162.613 274.098C152.893 270.593 162.632 272.156 158.332 267.856C155.853 265.377 159.595 267.371 157.446 265.642C158.323 258.858 159.202 249.322 155.716 239.024C152.665 230.026 147.838 223.459 144.311 218.664C143.996 218.238 147.345 224.09 146.981 223.592C147.083 223.064 143.864 217.27 143.957 216.794C145.107 210.994 146.286 201.959 144.913 192.576C143.676 184.106 133.423 179.139 133.086 169.75C133.003 167.449 134.989 164.993 137.222 163.954C137.995 163.597 139.59 164.445 141.759 164.986C148.528 166.672 153.834 168.672 160.686 172.118C173.269 178.447 185.754 177.27 194.014 176.488C194.128 176.477 194.251 176.465 194.376 176.453C194.765 176.833 195.136 177.198 195.469 177.526C201.891 183.851 211.582 193.396 226.896 195.528C239.546 197.288 261.977 229.987 281.357 214.909C289.796 208.348 297.756 170.657 299.95 162.39C301.337 164.26 302.875 166.088 304.604 167.817C306.643 169.856 308.851 171.66 311.168 173.181C314.596 175.428 317.7 176.995 320.194 178.253C320.707 178.51 321.313 178.819 321.846 179.094C323.244 181.191 324.868 183.167 326.695 184.994C329.509 187.805 332.57 190.036 335.646 191.884Z" fill="#1D732D"/>
<path d="M332.073 175.238C332.073 175.238 322.631 146.103 298.336 142.171C274.042 138.237 306.744 151.332 309.517 153.135C316.665 157.787 332.073 175.238 332.073 175.238Z" fill="#528221"/>
<path d="M158.506 298.182C158.908 297.78 159.568 297.844 160.032 297.555C160.51 297.258 161.068 297.595 161.592 297.421C162.12 297.242 162.314 296.094 162.867 296.04C163.42 295.987 164.013 295.666 164.567 295.736C165.115 295.807 164.974 298.016 165.501 298.208C166.019 298.397 166.574 297.79 167.051 298.095C167.51 298.388 168.031 298.317 168.435 298.72C168.838 299.124 168.596 299.752 168.89 300.211C169.194 300.688 168.777 301.128 168.963 301.647C169.154 302.173 169.515 302.27 169.585 302.818C169.657 303.374 170.655 303.686 170.601 304.238C170.55 304.793 171.358 305.519 171.182 306.05C171.006 306.572 171.809 307.83 171.511 308.308C171.225 308.774 169.365 308.236 168.963 308.638C168.56 309.04 167.265 307.943 166.799 308.229C166.32 308.525 166.318 308.959 165.796 309.132C165.268 309.311 165.292 312.037 164.735 312.087C164.184 312.14 163.458 311.25 162.902 311.178C162.353 311.107 162.127 309.859 161.599 309.666C161.082 309.478 159.723 310.889 159.248 310.586C158.787 310.291 159.932 308.03 159.529 307.628C159.126 307.224 157.698 307.837 157.403 307.376C157.1 306.901 155.629 306.821 155.441 306.304C155.248 305.776 156.343 304.765 156.273 304.217C156.2 303.663 158.127 303.269 158.183 302.718C158.233 302.162 157.88 301.9 158.057 301.37C158.232 300.847 156.23 299.348 156.526 298.869C156.815 298.402 158.104 298.584 158.506 298.182Z" fill="#26541B"/>
<path d="M138.604 214.787C138.975 215.015 139.043 215.516 139.341 215.813C139.647 216.117 139.494 216.59 139.719 216.949C139.946 217.314 140.838 217.253 140.975 217.656C141.114 218.058 141.457 218.442 141.502 218.867C141.55 219.29 139.876 219.577 139.827 220.003C139.779 220.421 140.331 220.73 140.187 221.135C140.052 221.533 140.195 221.908 139.969 222.28C139.739 222.65 139.228 222.586 138.936 222.884C138.637 223.197 138.232 222.961 137.88 223.193C137.522 223.43 137.514 223.719 137.117 223.87C136.716 224.021 136.664 224.821 136.241 224.88C135.819 224.939 135.421 225.671 134.995 225.634C134.574 225.597 133.78 226.42 133.368 226.279C132.969 226.149 133.037 224.667 132.667 224.439C132.296 224.212 132.884 223.048 132.589 222.753C132.279 222.449 131.96 222.524 131.737 222.164C131.508 221.8 129.48 222.303 129.344 221.901C129.207 221.497 129.74 220.794 129.696 220.369C129.652 219.947 130.542 219.555 130.592 219.127C130.64 218.709 129.345 217.947 129.489 217.54C129.624 217.144 131.516 217.596 131.744 217.226C131.973 216.853 131.262 215.899 131.552 215.594C131.851 215.284 131.649 214.172 132.001 213.94C132.361 213.704 133.309 214.341 133.707 214.192C134.108 214.04 134.74 215.402 135.165 215.347C135.587 215.285 135.719 214.976 136.146 215.013C136.566 215.048 137.328 213.29 137.738 213.426C138.14 213.565 138.235 214.561 138.604 214.787Z" fill="#26541B"/>
<path d="M211.36 266.055C211.136 266.43 210.637 266.508 210.348 266.812C210.05 267.124 209.571 266.979 209.216 267.211C208.855 267.443 208.933 268.333 208.533 268.477C208.134 268.625 207.755 268.975 207.33 269.031C206.909 269.086 206.592 267.417 206.164 267.378C205.744 267.337 205.45 267.895 205.039 267.759C204.638 267.627 204.265 267.78 203.89 267.56C203.511 267.335 203.571 266.823 203.267 266.54C202.948 266.244 203.177 265.837 202.937 265.488C202.694 265.133 202.406 265.129 202.25 264.735C202.091 264.339 201.293 264.302 201.223 263.88C201.157 263.459 200.417 263.074 200.445 262.648C200.477 262.227 199.64 261.447 199.77 261.033C199.892 260.631 201.376 260.676 201.597 260.299C201.818 259.924 202.993 260.492 203.28 260.191C203.579 259.877 203.498 259.555 203.851 259.328C204.21 259.094 203.672 257.074 204.072 256.929C204.472 256.783 205.186 257.309 205.609 257.253C206.031 257.203 206.437 258.084 206.866 258.127C207.283 258.166 208.023 256.859 208.435 256.994C208.833 257.122 208.416 259.021 208.791 259.242C209.167 259.464 210.109 258.734 210.418 259.02C210.733 259.312 211.84 259.092 212.079 259.439C212.323 259.794 211.705 260.756 211.861 261.149C212.021 261.547 210.664 262.203 210.731 262.628C210.8 263.051 211.111 263.176 211.082 263.602C211.056 264.026 212.826 264.751 212.696 265.165C212.573 265.565 211.58 265.68 211.36 266.055Z" fill="#A27F00"/>
<path d="M325.741 258.462C325.517 258.837 325.018 258.916 324.729 259.219C324.431 259.531 323.952 259.387 323.597 259.618C323.238 259.849 323.314 260.74 322.914 260.885C322.515 261.032 322.136 261.383 321.712 261.437C321.29 261.493 320.974 259.823 320.546 259.784C320.127 259.743 319.832 260.301 319.421 260.165C319.021 260.033 318.647 260.186 318.272 259.966C317.893 259.741 317.955 259.228 317.65 258.946C317.331 258.65 317.56 258.243 317.319 257.894C317.076 257.539 316.788 257.535 316.632 257.141C316.473 256.745 315.675 256.708 315.605 256.286C315.539 255.865 314.799 255.48 314.828 255.053C314.859 254.633 314.022 253.853 314.152 253.439C314.274 253.037 315.758 253.082 315.98 252.705C316.202 252.329 317.375 252.898 317.663 252.596C317.962 252.283 317.88 251.961 318.234 251.734C318.593 251.5 318.055 249.48 318.454 249.335C318.855 249.189 319.569 249.714 319.991 249.659C320.413 249.608 320.819 250.49 321.249 250.533C321.665 250.572 322.405 249.265 322.817 249.4C323.212 249.528 322.798 251.427 323.173 251.648C323.55 251.869 324.49 251.141 324.799 251.427C325.114 251.719 326.221 251.499 326.46 251.847C326.704 252.201 326.085 253.163 326.241 253.557C326.402 253.954 325.045 254.61 325.112 255.035C325.182 255.457 325.492 255.583 325.463 256.009C325.437 256.433 327.207 257.158 327.079 257.571C326.955 257.974 325.961 258.087 325.741 258.462Z" fill="#A27F00"/>
<path d="M161.597 182.897C161.374 183.272 160.873 183.349 160.582 183.654C160.285 183.966 159.807 183.823 159.45 184.053C159.091 184.283 159.169 185.176 158.768 185.319C158.369 185.467 157.989 185.817 157.563 185.872C157.142 185.926 156.825 184.258 156.397 184.219C155.977 184.177 155.683 184.735 155.271 184.601C154.87 184.469 154.496 184.622 154.121 184.402C153.744 184.179 153.802 183.665 153.499 183.382C153.18 183.086 153.409 182.679 153.17 182.331C152.927 181.977 152.638 181.971 152.482 181.577C152.323 181.181 151.523 181.145 151.454 180.722C151.388 180.301 150.648 179.916 150.677 179.489C150.709 179.069 149.871 178.289 150.002 177.875C150.125 177.475 151.609 177.516 151.83 177.14C152.051 176.765 153.226 177.333 153.513 177.031C153.812 176.718 153.731 176.399 154.089 176.17C154.446 175.935 153.908 173.914 154.306 173.771C154.708 173.627 155.419 174.149 155.844 174.096C156.265 174.045 156.673 174.927 157.101 174.969C157.519 175.009 158.257 173.701 158.669 173.836C159.067 173.964 158.651 175.863 159.025 176.084C159.402 176.305 160.343 175.576 160.651 175.863C160.967 176.157 162.073 175.935 162.312 176.283C162.556 176.637 161.938 177.599 162.094 177.993C162.254 178.39 160.899 179.047 160.964 179.471C161.033 179.894 161.344 180.019 161.315 180.445C161.289 180.869 163.059 181.594 162.932 182.008C162.81 182.407 161.816 182.52 161.597 182.897Z" fill="#A27F00"/>
<path d="M187.569 338.079C187.346 338.454 186.846 338.533 186.556 338.835C186.258 339.147 185.78 339.004 185.424 339.234C185.063 339.466 185.142 340.357 184.741 340.5C184.342 340.648 183.964 341 183.538 341.051C183.117 341.106 182.799 339.437 182.373 339.397C181.954 339.356 181.657 339.915 181.247 339.779C180.846 339.648 180.473 339.801 180.098 339.58C179.72 339.357 179.78 338.845 179.475 338.56C179.157 338.262 179.385 337.857 179.146 337.51C178.903 337.155 178.614 337.149 178.458 336.756C178.3 336.361 177.5 336.322 177.433 335.9C177.364 335.479 176.626 335.096 176.655 334.669C176.685 334.247 175.849 333.469 175.979 333.055C176.101 332.653 177.585 332.694 177.807 332.318C178.027 331.943 179.202 332.511 179.489 332.209C179.789 331.896 179.707 331.574 180.063 331.349C180.422 331.113 179.883 329.094 180.284 328.951C180.684 328.805 181.396 329.327 181.821 329.274C182.241 329.223 182.65 330.104 183.077 330.147C183.495 330.187 184.235 328.881 184.647 329.015C185.042 329.144 184.628 331.043 185.002 331.262C185.379 331.485 186.32 330.754 186.627 331.042C186.943 331.335 188.05 331.113 188.289 331.461C188.533 331.817 187.914 332.777 188.071 333.169C188.231 333.567 186.876 334.224 186.943 334.649C187.011 335.071 187.321 335.196 187.291 335.624C187.265 336.047 189.037 336.774 188.908 337.186C188.782 337.593 187.788 337.703 187.569 338.079Z" fill="#A27F00"/>
<path d="M229.068 210.013C228.476 210.051 228.002 209.548 227.44 209.455C226.859 209.361 226.656 208.714 226.12 208.491C225.584 208.263 224.642 209.036 224.173 208.695C223.699 208.359 223.015 208.205 222.627 207.768C222.244 207.339 223.875 205.699 223.59 205.188C223.316 204.687 222.46 204.782 222.297 204.218C222.135 203.667 221.676 203.362 221.638 202.775C221.597 202.179 222.221 201.852 222.305 201.29C222.393 200.705 223.028 200.648 223.233 200.111C223.446 199.566 223.228 199.237 223.55 198.76C223.874 198.276 223.303 197.351 223.725 196.948C224.147 196.552 224.007 195.424 224.512 195.128C225.01 194.839 225.242 193.302 225.807 193.129C226.352 192.959 227.445 194.659 228.038 194.622C228.627 194.579 228.892 196.332 229.455 196.428C230.038 196.522 230.335 196.183 230.861 196.406C231.402 196.629 233.258 194.473 233.728 194.811C234.198 195.15 234.158 196.355 234.546 196.791C234.927 197.223 234.247 198.358 234.529 198.875C234.806 199.375 236.843 199.199 237.007 199.767C237.168 200.311 234.713 201.306 234.755 201.897C234.795 202.489 236.339 202.989 236.252 203.554C236.163 204.132 237.265 205.211 237.057 205.742C236.844 206.287 235.292 206.331 234.968 206.812C234.645 207.299 232.866 206.279 232.441 206.681C232.016 207.08 232.116 207.529 231.611 207.82C231.117 208.116 231.663 210.665 231.099 210.836C230.548 211.001 229.661 209.973 229.068 210.013Z" fill="#A27F00"/>
<path d="M303.247 212.66C303.031 212.106 303.367 211.504 303.284 210.94C303.2 210.358 303.752 209.968 303.802 209.392C303.857 208.814 302.838 208.147 303.021 207.597C303.197 207.043 303.138 206.344 303.438 205.841C303.731 205.348 305.79 206.405 306.189 205.977C306.584 205.562 306.235 204.778 306.722 204.452C307.2 204.131 307.35 203.603 307.899 203.386C308.453 203.167 308.958 203.663 309.518 203.573C310.1 203.48 310.345 204.066 310.92 204.1C311.506 204.139 311.752 203.832 312.305 203.994C312.864 204.157 313.575 203.331 314.086 203.613C314.591 203.892 315.622 203.422 316.058 203.811C316.483 204.199 318.019 203.953 318.354 204.439C318.683 204.906 317.391 206.464 317.609 207.016C317.826 207.566 316.235 208.35 316.315 208.914C316.401 209.498 316.816 209.678 316.76 210.249C316.711 210.83 319.329 211.947 319.148 212.497C318.968 213.046 317.809 213.373 317.509 213.874C317.212 214.367 315.924 214.067 315.518 214.49C315.127 214.907 315.91 216.794 315.418 217.123C314.95 217.44 313.26 215.403 312.708 215.621C312.157 215.837 312.145 217.46 311.578 217.548C311 217.64 310.306 219.015 309.734 218.978C309.153 218.941 308.639 217.474 308.087 217.311C307.526 217.148 307.958 215.144 307.446 214.861C306.936 214.58 306.541 214.809 306.109 214.417C305.677 214.037 303.416 215.327 303.078 214.841C302.752 214.372 303.463 213.214 303.247 212.66Z" fill="#A27F00"/>
<path d="M270.305 239.179C270.404 238.888 270.739 238.763 270.896 238.511C271.058 238.252 271.408 238.282 271.62 238.073C271.838 237.861 271.656 237.256 271.912 237.097C272.168 236.938 272.378 236.642 272.665 236.545C272.948 236.447 273.406 237.555 273.709 237.52C274.006 237.49 274.129 237.058 274.433 237.094C274.727 237.127 274.963 236.968 275.255 237.068C275.547 237.166 275.58 237.528 275.833 237.684C276.093 237.841 275.995 238.157 276.212 238.363C276.431 238.574 276.627 238.535 276.793 238.784C276.959 239.036 277.521 238.951 277.626 239.231C277.73 239.512 278.3 239.673 278.34 239.973C278.38 240.268 279.07 240.689 279.043 240.994C279.013 241.287 277.979 241.47 277.881 241.763C277.782 242.054 276.889 241.831 276.732 242.08C276.571 242.34 276.671 242.549 276.461 242.759C276.248 242.973 276.908 244.29 276.654 244.449C276.397 244.607 275.829 244.348 275.542 244.445C275.258 244.541 274.848 243.989 274.546 244.021C274.252 244.053 273.927 245.065 273.625 245.029C273.332 244.996 273.346 243.622 273.053 243.523C272.762 243.425 272.214 244.064 271.961 243.911C271.699 243.752 270.966 244.064 270.751 243.858C270.533 243.648 270.824 242.898 270.658 242.646C270.491 242.396 271.334 241.742 271.227 241.46C271.118 241.177 270.886 241.137 270.844 240.835C270.803 240.538 269.472 240.289 269.504 239.983C269.534 239.69 270.203 239.469 270.305 239.179Z" fill="#26541B"/>
<path d="M187.047 169.659C187.146 169.368 187.481 169.242 187.637 168.992C187.799 168.733 188.149 168.763 188.362 168.553C188.577 168.341 188.397 167.737 188.653 167.578C188.909 167.419 189.119 167.12 189.407 167.024C189.689 166.925 190.147 168.033 190.45 168.002C190.746 167.972 190.87 167.539 191.176 167.577C191.468 167.608 191.705 167.451 191.997 167.551C192.289 167.648 192.32 168.012 192.575 168.166C192.837 168.325 192.738 168.638 192.953 168.844C193.172 169.055 193.371 169.016 193.537 169.265C193.703 169.517 194.265 169.433 194.37 169.712C194.474 169.994 195.044 170.154 195.085 170.453C195.125 170.748 195.815 171.168 195.786 171.472C195.758 171.766 194.725 171.95 194.626 172.243C194.526 172.532 193.634 172.31 193.475 172.561C193.315 172.821 193.415 173.03 193.203 173.242C192.99 173.455 193.65 174.77 193.397 174.932C193.139 175.089 192.572 174.829 192.285 174.925C192.001 175.022 191.592 174.47 191.29 174.503C190.994 174.535 190.669 175.544 190.367 175.511C190.072 175.477 190.088 174.105 189.796 174.005C189.504 173.907 188.958 174.545 188.704 174.392C188.442 174.234 187.708 174.547 187.492 174.339C187.273 174.129 187.565 173.379 187.401 173.129C187.233 172.878 188.075 172.226 187.967 171.944C187.859 171.661 187.625 171.619 187.585 171.319C187.544 171.022 186.213 170.771 186.245 170.467C186.275 170.171 186.946 169.949 187.047 169.659Z" fill="#26541B"/>
<path d="M331.071 170.669C331.169 170.379 331.504 170.253 331.66 170.002C331.822 169.746 332.174 169.775 332.386 169.566C332.6 169.354 332.42 168.747 332.675 168.59C332.931 168.431 333.143 168.134 333.43 168.038C333.712 167.939 334.17 169.047 334.472 169.014C334.77 168.982 334.893 168.553 335.198 168.589C335.491 168.622 335.73 168.463 336.019 168.563C336.312 168.662 336.344 169.025 336.597 169.178C336.859 169.337 336.76 169.65 336.976 169.858C337.195 170.068 337.393 170.028 337.559 170.277C337.726 170.531 338.287 170.445 338.392 170.724C338.497 171.007 339.067 171.167 339.107 171.465C339.146 171.761 339.837 172.18 339.81 172.485C339.781 172.78 338.748 172.963 338.648 173.255C338.549 173.546 337.657 173.324 337.497 173.573C337.338 173.832 337.44 174.042 337.228 174.254C337.015 174.467 337.673 175.784 337.42 175.943C337.162 176.1 336.596 175.839 336.309 175.937C336.025 176.035 335.617 175.482 335.315 175.515C335.02 175.546 334.695 176.555 334.392 176.523C334.097 176.489 334.113 175.114 333.821 175.017C333.529 174.916 332.982 175.558 332.728 175.403C332.467 175.246 331.733 175.559 331.517 175.351C331.298 175.141 331.59 174.391 331.425 174.138C331.258 173.888 332.101 173.236 331.992 172.953C331.885 172.671 331.652 172.63 331.61 172.331C331.569 172.032 330.238 171.783 330.269 171.479C330.299 171.183 330.97 170.961 331.071 170.669Z" fill="#26541B"/>
<path d="M321.663 209.295C321.762 209.004 322.097 208.878 322.254 208.626C322.416 208.367 322.766 208.397 322.978 208.189C323.194 207.975 323.014 207.371 323.27 207.213C323.526 207.054 323.735 206.756 324.024 206.659C324.305 206.561 324.764 207.668 325.067 207.636C325.363 207.606 325.487 207.174 325.791 207.21C326.083 207.241 326.321 207.084 326.613 207.184C326.905 207.281 326.938 207.643 327.191 207.799C327.451 207.957 327.354 208.272 327.569 208.478C327.788 208.688 327.985 208.651 328.151 208.9C328.318 209.153 328.879 209.067 328.984 209.346C329.088 209.628 329.658 209.788 329.699 210.087C329.739 210.382 330.429 210.803 330.401 211.106C330.372 211.401 329.339 211.584 329.241 211.876C329.141 212.165 328.25 211.943 328.091 212.194C327.931 212.454 328.032 212.662 327.82 212.874C327.607 213.087 328.267 214.405 328.014 214.564C327.756 214.721 327.188 214.462 326.9 214.558C326.617 214.655 326.208 214.103 325.906 214.136C325.611 214.167 325.285 215.177 324.984 215.143C324.689 215.109 324.705 213.737 324.412 213.638C324.121 213.539 323.573 214.179 323.32 214.026C323.058 213.867 322.325 214.179 322.109 213.971C321.89 213.761 322.182 213.011 322.018 212.761C321.85 212.51 322.692 211.858 322.584 211.576C322.476 211.292 322.242 211.251 322.202 210.95C322.161 210.654 320.829 210.404 320.862 210.099C320.892 209.806 321.563 209.584 321.663 209.295Z" fill="#26541B"/>
<path d="M151.539 327.492C151.638 327.201 151.973 327.075 152.13 326.823C152.292 326.564 152.643 326.594 152.855 326.385C153.071 326.172 152.89 325.568 153.146 325.409C153.403 325.251 153.613 324.954 153.899 324.857C154.182 324.76 154.64 325.867 154.944 325.833C155.241 325.802 155.363 325.371 155.668 325.407C155.96 325.438 156.197 325.281 156.489 325.381C156.781 325.478 156.814 325.84 157.067 325.996C157.328 326.154 157.229 326.47 157.445 326.674C157.664 326.885 157.863 326.846 158.028 327.097C158.194 327.348 158.756 327.264 158.86 327.543C158.965 327.825 159.534 327.985 159.574 328.286C159.615 328.581 160.304 329.001 160.276 329.305C160.247 329.599 159.214 329.783 159.115 330.076C159.015 330.365 158.123 330.143 157.966 330.392C157.806 330.653 157.907 330.86 157.696 331.072C157.482 331.285 158.141 332.602 157.889 332.762C157.631 332.919 157.063 332.66 156.778 332.756C156.494 332.852 156.084 332.3 155.782 332.333C155.488 332.364 155.163 333.376 154.861 333.34C154.566 333.306 154.582 331.933 154.288 331.835C153.998 331.736 153.45 332.376 153.197 332.222C152.935 332.064 152.201 332.377 151.985 332.17C151.767 331.961 152.057 331.209 151.893 330.959C151.727 330.707 152.568 330.054 152.461 329.773C152.352 329.489 152.12 329.449 152.08 329.149C152.039 328.852 150.707 328.602 150.74 328.297C150.768 328.002 151.438 327.782 151.539 327.492Z" fill="#26541B"/>
<path d="M114.517 165.812C114.616 165.522 114.951 165.396 115.107 165.145C115.268 164.886 115.619 164.916 115.832 164.709C116.048 164.496 115.867 163.89 116.123 163.731C116.379 163.573 116.591 163.278 116.877 163.178C117.159 163.082 117.618 164.188 117.92 164.155C118.216 164.125 118.342 163.696 118.644 163.729C118.938 163.761 119.174 163.603 119.464 163.701C119.759 163.802 119.79 164.165 120.044 164.318C120.306 164.477 120.207 164.79 120.421 164.996C120.64 165.207 120.838 165.17 121.005 165.42C121.173 165.673 121.732 165.586 121.837 165.865C121.944 166.15 122.512 166.309 122.552 166.606C122.592 166.901 123.282 167.322 123.253 167.625C123.226 167.921 122.194 168.106 122.094 168.395C121.996 168.686 121.104 168.464 120.945 168.714C120.782 168.972 120.887 169.185 120.672 169.394C120.459 169.607 121.121 170.925 120.864 171.082C120.607 171.241 120.041 170.981 119.755 171.078C119.473 171.177 119.063 170.625 118.76 170.656C118.461 170.686 118.14 171.699 117.836 171.663C117.544 171.632 117.558 170.258 117.268 170.159C116.971 170.058 116.428 170.699 116.173 170.544C115.912 170.387 115.178 170.697 114.965 170.493C114.746 170.282 115.034 169.528 114.871 169.279C114.702 169.028 115.546 168.378 115.439 168.096C115.331 167.814 115.097 167.771 115.057 167.471C115.015 167.174 113.686 166.924 113.714 166.618C113.744 166.324 114.42 166.107 114.517 165.812Z" fill="#D9AE00"/>
<path d="M248.081 240.55C248.181 240.261 248.515 240.133 248.672 239.881C248.834 239.625 249.184 239.653 249.396 239.444C249.611 239.232 249.429 238.627 249.687 238.466C249.941 238.309 250.155 238.013 250.441 237.912C250.724 237.815 251.182 238.923 251.484 238.89C251.782 238.858 251.906 238.43 252.208 238.463C252.501 238.496 252.738 238.337 253.028 238.436C253.323 238.536 253.356 238.898 253.608 239.053C253.868 239.21 253.771 239.525 253.985 239.731C254.204 239.942 254.403 239.903 254.571 240.153C254.737 240.405 255.296 240.318 255.402 240.598C255.511 240.882 256.077 241.042 256.118 241.34C256.158 241.634 256.847 242.055 256.817 242.357C256.79 242.653 255.758 242.838 255.657 243.128C255.558 243.419 254.667 243.197 254.508 243.448C254.346 243.704 254.45 243.917 254.236 244.126C254.023 244.339 254.684 245.658 254.428 245.814C254.171 245.973 253.603 245.714 253.319 245.81C253.037 245.909 252.627 245.356 252.324 245.388C252.026 245.417 251.704 246.431 251.4 246.395C251.108 246.364 251.122 244.99 250.831 244.891C250.537 244.788 249.991 245.431 249.737 245.276C249.475 245.117 248.741 245.431 248.528 245.226C248.309 245.016 248.596 244.262 248.433 244.013C248.264 243.761 249.109 243.111 249.001 242.829C248.894 242.547 248.659 242.504 248.618 242.205C248.576 241.909 247.247 241.659 247.275 241.353C247.31 241.063 247.984 240.845 248.081 240.55Z" fill="#D9AE00"/>
<path d="M312.246 249.74C312.345 249.449 312.68 249.323 312.836 249.073C312.998 248.814 313.348 248.844 313.562 248.634C313.776 248.422 313.596 247.818 313.852 247.659C314.108 247.5 314.32 247.205 314.606 247.105C314.888 247.006 315.346 248.114 315.649 248.083C315.946 248.053 316.07 247.622 316.373 247.656C316.665 247.688 316.903 247.53 317.192 247.628C317.487 247.728 317.518 248.091 317.773 248.246C318.033 248.403 317.936 248.718 318.149 248.923C318.368 249.133 318.569 249.096 318.735 249.348C318.899 249.598 319.46 249.512 319.566 249.793C319.673 250.075 320.24 250.235 320.282 250.534C320.322 250.829 321.011 251.249 320.981 251.551C320.953 251.849 319.922 252.032 319.822 252.324C319.722 252.613 318.83 252.391 318.673 252.643C318.509 252.899 318.613 253.113 318.398 253.321C318.185 253.535 318.849 254.854 318.59 255.01C318.335 255.17 317.769 254.91 317.481 255.006C317.198 255.103 316.79 254.552 316.487 254.584C316.189 254.615 315.868 255.628 315.562 255.591C315.272 255.561 315.286 254.187 314.994 254.087C314.698 253.985 314.154 254.627 313.901 254.473C313.637 254.313 312.906 254.627 312.692 254.42C312.473 254.21 312.76 253.456 312.597 253.207C312.428 252.955 313.271 252.304 313.165 252.024C313.056 251.74 312.822 251.697 312.782 251.397C312.742 251.102 311.411 250.85 311.441 250.545C311.474 250.252 312.148 250.033 312.246 249.74Z" fill="#D9AE00"/>
<path d="M302.781 198.963C302.88 198.672 303.215 198.547 303.371 198.296C303.534 198.039 303.885 198.069 304.096 197.86C304.313 197.646 304.131 197.041 304.387 196.882C304.643 196.723 304.855 196.429 305.142 196.33C305.423 196.233 305.882 197.339 306.184 197.306C306.48 197.276 306.606 196.847 306.91 196.881C307.203 196.914 307.441 196.756 307.73 196.854C308.025 196.954 308.056 197.317 308.309 197.47C308.571 197.629 308.472 197.943 308.687 198.149C308.906 198.359 309.103 198.322 309.272 198.574C309.438 198.826 309.998 198.738 310.102 199.017C310.21 199.302 310.778 199.461 310.818 199.759C310.858 200.053 311.548 200.474 311.519 200.777C311.492 201.074 310.46 201.258 310.36 201.547C310.261 201.838 309.37 201.616 309.211 201.866C309.048 202.124 309.152 202.337 308.937 202.546C308.724 202.759 309.387 204.077 309.129 204.235C308.873 204.394 308.306 204.133 308.019 204.232C307.737 204.331 307.329 203.777 307.026 203.808C306.728 203.84 306.406 204.851 306.101 204.816C305.809 204.784 305.824 203.41 305.533 203.312C305.237 203.21 304.693 203.851 304.438 203.697C304.178 203.539 303.445 203.851 303.231 203.645C303.012 203.435 303.299 202.681 303.136 202.432C302.967 202.18 303.812 201.53 303.704 201.248C303.597 200.966 303.362 200.923 303.322 200.623C303.281 200.327 301.951 200.076 301.981 199.771C302.01 199.477 302.683 199.256 302.781 198.963Z" fill="#D9AE00"/>
<path d="M175.871 305.735C175.54 305.9 175.151 305.725 174.806 305.804C174.447 305.885 174.175 305.565 173.814 305.562C173.455 305.56 173.098 306.227 172.746 306.147C172.395 306.066 171.964 306.139 171.638 305.978C171.316 305.825 171.863 304.494 171.575 304.267C171.299 304.045 170.831 304.304 170.602 304.018C170.382 303.74 170.047 303.674 169.881 303.345C169.718 303.013 169.997 302.677 169.912 302.332C169.823 301.977 170.173 301.791 170.165 301.435C170.154 301.071 169.954 300.937 170.021 300.583C170.094 300.227 169.546 299.828 169.695 299.502C169.841 299.17 169.494 298.557 169.715 298.268C169.932 297.982 169.695 297.043 169.981 296.811C170.256 296.585 171.285 297.299 171.615 297.135C171.946 296.973 172.518 297.917 172.861 297.84C173.218 297.759 173.309 297.493 173.666 297.491C174.028 297.493 174.579 295.814 174.932 295.895C175.281 295.978 175.545 296.677 175.869 296.836C176.193 296.993 176.071 297.807 176.356 298.035C176.635 298.259 177.764 297.674 177.994 297.962C178.213 298.238 177.04 299.389 177.206 299.721C177.372 300.053 178.374 299.97 178.459 300.313C178.547 300.669 179.437 301.024 179.445 301.385C179.451 301.748 178.571 302.139 178.501 302.492C178.429 302.847 177.162 302.687 177.016 303.016C176.868 303.347 177.03 303.583 176.812 303.872C176.596 304.157 177.515 305.496 177.232 305.728C176.963 305.954 176.204 305.57 175.871 305.735Z" fill="#D9AE00"/>
<path d="M189.453 184.482C188.971 184.258 188.815 183.661 188.416 183.345C188.001 183.016 188.117 182.422 187.796 182.013C187.473 181.606 186.4 181.807 186.175 181.339C185.952 180.869 185.478 180.444 185.369 179.938C185.252 179.434 187.24 178.852 187.24 178.322C187.241 177.814 186.527 177.518 186.643 177.004C186.756 176.505 186.528 176.071 186.75 175.583C186.978 175.104 187.607 175.115 187.918 174.707C188.24 174.291 188.762 174.516 189.157 174.189C189.556 173.85 189.531 173.501 189.989 173.261C190.452 173.02 190.409 172.044 190.91 171.918C191.415 171.782 191.793 170.841 192.315 170.828C192.833 170.814 193.678 169.706 194.196 169.818C194.696 169.921 194.822 171.724 195.303 171.947C195.784 172.173 195.237 173.667 195.635 173.982C196.05 174.314 196.429 174.175 196.753 174.576C197.078 174.986 199.463 174.095 199.691 174.566C199.914 175.035 199.36 175.958 199.476 176.469C199.59 176.975 198.564 177.569 198.564 178.096C198.563 178.613 200.239 179.355 200.123 179.875C200.01 180.368 197.657 180.082 197.433 180.57C197.208 181.052 198.202 182.11 197.892 182.518C197.571 182.936 197.969 184.258 197.576 184.591C197.172 184.929 195.939 184.285 195.475 184.523C195.01 184.764 194.048 183.193 193.546 183.323C193.041 183.456 192.922 183.853 192.401 183.864C191.886 183.879 191.206 186.118 190.688 186.006C190.189 185.908 189.937 184.709 189.453 184.482Z" fill="#D9AE00"/>
<path d="M127.072 186.211C127.474 185.809 128.129 185.872 128.594 185.585C129.074 185.288 129.629 185.623 130.153 185.449C130.684 185.273 130.874 184.121 131.431 184.071C131.983 184.016 132.577 183.694 133.131 183.767C133.679 183.837 133.537 186.046 134.064 186.237C134.579 186.426 135.135 185.818 135.611 186.121C136.073 186.418 136.594 186.346 136.994 186.747C137.398 187.15 137.157 187.78 137.452 188.241C137.756 188.716 137.335 189.156 137.524 189.674C137.715 190.201 138.079 190.301 138.149 190.849C138.222 191.403 139.219 191.714 139.167 192.267C139.112 192.82 139.922 193.547 139.745 194.076C139.57 194.6 140.373 195.858 140.075 196.336C139.788 196.801 137.93 196.266 137.528 196.668C137.126 197.07 135.828 195.969 135.364 196.258C134.886 196.556 134.885 196.987 134.36 197.163C133.83 197.34 133.852 200.063 133.299 200.118C132.746 200.168 132.017 199.276 131.463 199.206C130.913 199.136 130.688 197.887 130.16 197.694C129.645 197.508 128.284 198.917 127.809 198.614C127.348 198.319 128.494 196.06 128.089 195.655C127.687 195.252 126.26 195.866 125.966 195.406C125.662 194.931 124.191 194.85 124.001 194.331C123.809 193.804 124.905 192.794 124.837 192.247C124.764 191.694 126.691 191.3 126.743 190.745C126.797 190.193 126.442 189.929 126.62 189.4C126.794 188.876 124.792 187.378 125.09 186.9C125.376 186.43 126.668 186.615 127.072 186.211Z" fill="#54BA3C"/>
<path d="M286.657 139.135C287.06 138.733 287.715 138.796 288.181 138.507C288.661 138.211 289.215 138.544 289.738 138.37C290.271 138.195 290.461 137.043 291.016 136.992C291.569 136.937 292.163 136.618 292.716 136.688C293.266 136.76 293.123 138.966 293.649 139.158C294.167 139.347 294.721 138.739 295.199 139.042C295.66 139.337 296.181 139.265 296.583 139.668C296.985 140.07 296.745 140.702 297.039 141.16C297.343 141.635 296.923 142.074 297.111 142.594C297.303 143.121 297.666 143.221 297.738 143.77C297.808 144.324 298.805 144.634 298.752 145.188C298.698 145.741 299.509 146.469 299.33 146.997C299.156 147.521 299.959 148.779 299.661 149.257C299.373 149.725 297.516 149.189 297.114 149.591C296.712 149.994 295.412 148.892 294.95 149.182C294.472 149.48 294.469 149.912 293.947 150.085C293.416 150.261 293.439 152.986 292.887 153.04C292.33 153.09 291.604 152.199 291.049 152.127C290.501 152.057 290.275 150.809 289.746 150.615C289.23 150.429 287.87 151.838 287.394 151.535C286.937 151.24 288.08 148.98 287.676 148.577C287.273 148.173 285.848 148.786 285.553 148.328C285.249 147.853 283.777 147.771 283.588 147.253C283.395 146.725 284.492 145.716 284.422 145.168C284.351 144.616 286.277 144.221 286.328 143.669C286.383 143.116 286.026 142.851 286.204 142.322C286.378 141.798 284.377 140.3 284.676 139.821C284.963 139.356 286.255 139.537 286.657 139.135Z" fill="#54BA3C"/>
<path d="M342.263 190.143C342.634 190.44 342.645 190.989 342.927 191.348C343.218 191.719 342.993 192.21 343.186 192.626C343.382 193.051 344.355 193.103 344.45 193.561C344.546 194.011 344.866 194.475 344.859 194.943C344.851 195.404 343.006 195.491 342.897 195.946C342.79 196.394 343.344 196.796 343.139 197.221C342.936 197.63 343.043 198.055 342.747 198.429C342.449 198.798 341.904 198.659 341.551 198.947C341.184 199.245 340.778 198.938 340.366 199.142C339.945 199.348 339.896 199.66 339.447 199.768C338.993 199.879 338.83 200.734 338.364 200.746C337.902 200.75 337.374 201.493 336.919 201.393C336.468 201.297 335.499 202.079 335.073 201.876C334.66 201.684 334.929 200.09 334.559 199.794C334.19 199.499 334.981 198.319 334.699 197.96C334.407 197.59 334.047 197.628 333.855 197.21C333.656 196.788 331.399 197.061 331.3 196.604C331.209 196.149 331.879 195.463 331.887 194.996C331.894 194.534 332.909 194.232 333.022 193.772C333.129 193.33 331.833 192.331 332.042 191.908C332.242 191.499 334.224 192.238 334.523 191.868C334.819 191.494 334.177 190.368 334.532 190.082C334.898 189.784 334.829 188.554 335.241 188.35C335.662 188.142 336.602 188.959 337.05 188.848C337.502 188.74 338.008 190.301 338.474 190.292C338.936 190.285 339.122 189.965 339.58 190.065C340.031 190.161 341.088 188.359 341.512 188.562C341.926 188.755 341.893 189.847 342.263 190.143Z" fill="#54BA3C"/>
<path d="M137.991 141.95C138.532 142.133 138.762 142.75 139.226 143.042C139.704 143.34 139.649 143.987 140.037 144.38C140.428 144.779 141.548 144.443 141.837 144.918C142.131 145.389 142.682 145.78 142.859 146.309C143.039 146.833 140.997 147.679 141.057 148.237C141.115 148.783 141.907 149.012 141.845 149.573C141.783 150.118 142.078 150.553 141.895 151.091C141.711 151.632 141.039 151.695 140.757 152.16C140.465 152.644 139.884 152.464 139.505 152.86C139.117 153.265 139.186 153.634 138.725 153.941C138.26 154.248 138.423 155.279 137.904 155.477C137.383 155.672 137.089 156.721 136.534 156.795C135.986 156.868 135.215 158.146 134.655 158.091C134.11 158.038 133.768 156.133 133.23 155.953C132.69 155.768 133.105 154.117 132.642 153.828C132.164 153.53 131.776 153.72 131.39 153.328C130.996 152.929 128.562 154.152 128.27 153.68C127.978 153.205 128.456 152.155 128.277 151.63C128.096 151.104 129.119 150.353 129.059 149.792C128.997 149.247 127.132 148.65 127.194 148.088C127.257 147.547 129.791 147.577 129.974 147.036C130.159 146.497 128.977 145.486 129.259 145.021C129.552 144.539 128.976 143.184 129.358 142.785C129.745 142.38 131.134 142.918 131.596 142.613C132.062 142.304 133.264 143.858 133.785 143.657C134.305 143.464 134.383 143.028 134.939 142.953C135.485 142.879 135.945 140.422 136.505 140.476C137.045 140.526 137.45 141.767 137.991 141.95Z" fill="#54BA3C"/>
<path d="M203.503 222.831C203.941 223.192 203.945 223.852 204.275 224.285C204.616 224.735 204.338 225.318 204.563 225.824C204.791 226.337 205.954 226.413 206.061 226.961C206.17 227.505 206.546 228.065 206.528 228.624C206.512 229.178 204.301 229.248 204.161 229.795C204.024 230.327 204.686 230.821 204.427 231.323C204.18 231.811 204.303 232.323 203.941 232.762C203.579 233.205 202.928 233.026 202.5 233.362C202.056 233.711 201.578 233.336 201.08 233.574C200.573 233.814 200.512 234.188 199.971 234.311C199.427 234.437 199.217 235.46 198.659 235.46C198.106 235.46 197.46 236.338 196.914 236.211C196.376 236.091 195.204 237.014 194.698 236.762C194.207 236.52 194.558 234.621 194.118 234.259C193.678 233.899 194.646 232.498 194.314 232.066C193.972 231.618 193.542 231.659 193.317 231.157C193.088 230.645 190.381 230.937 190.272 230.39C190.166 229.843 190.982 229.03 191 228.474C191.014 227.921 192.237 227.572 192.378 227.03C192.513 226.498 190.977 225.283 191.233 224.78C191.481 224.295 193.842 225.214 194.206 224.773C194.566 224.332 193.815 222.972 194.244 222.634C194.686 222.286 194.623 220.812 195.12 220.576C195.627 220.333 196.74 221.326 197.276 221.201C197.823 221.078 198.401 222.956 198.958 222.952C199.512 222.953 199.742 222.574 200.284 222.698C200.825 222.821 202.119 220.683 202.623 220.93C203.118 221.164 203.062 222.471 203.503 222.831Z" fill="#54BA3C"/>
<path d="M218.38 186.712C218.879 186.733 219.234 187.017 219.698 187.103C220.174 187.19 220.297 187.531 220.727 187.679C221.158 187.827 222 187.496 222.368 187.701C222.736 187.903 223.297 188.026 223.586 188.275C223.874 188.519 222.392 189.248 222.59 189.528C222.782 189.803 223.501 189.81 223.597 190.109C223.689 190.398 224.048 190.583 224.038 190.888C224.027 191.191 223.481 191.318 223.37 191.599C223.254 191.892 222.72 191.879 222.508 192.14C222.291 192.406 222.447 192.585 222.142 192.807C221.836 193.033 222.241 193.541 221.859 193.717C221.479 193.893 221.51 194.478 221.066 194.593C220.631 194.71 220.32 195.475 219.837 195.527C219.369 195.577 218.583 194.64 218.088 194.62C217.589 194.601 217.503 193.691 217.039 193.605C216.561 193.519 216.288 193.672 215.863 193.525C215.429 193.375 213.719 194.352 213.351 194.147C212.986 193.946 213.11 193.336 212.819 193.086C212.531 192.841 213.188 192.307 212.991 192.027C212.795 191.753 211.083 191.711 210.989 191.41C210.897 191.121 213.017 190.776 213.029 190.474C213.039 190.169 211.79 189.813 211.903 189.531C212.018 189.239 211.183 188.622 211.398 188.362C211.613 188.096 212.914 188.177 213.217 187.954C213.523 187.728 214.936 188.362 215.318 188.186C215.7 188.01 215.652 187.777 216.095 187.658C216.531 187.542 216.269 186.207 216.753 186.155C217.218 186.114 217.882 186.695 218.38 186.712Z" fill="#54BA3C"/>
<path d="M261.036 231.594C261.318 231.604 261.514 231.883 261.78 231.963C262.051 232.041 262.115 232.381 262.355 232.524C262.599 232.664 263.084 232.319 263.287 232.516C263.495 232.715 263.812 232.827 263.973 233.073C264.133 233.314 263.277 234.063 263.384 234.34C263.49 234.611 263.9 234.606 263.95 234.905C263.997 235.19 264.199 235.371 264.189 235.676C264.177 235.982 263.865 236.117 263.795 236.399C263.723 236.694 263.422 236.689 263.296 236.953C263.165 237.22 263.254 237.398 263.075 237.625C262.899 237.858 263.122 238.359 262.901 238.541C262.677 238.721 262.687 239.304 262.434 239.428C262.185 239.551 261.996 240.324 261.722 240.381C261.454 240.437 261.023 239.517 260.74 239.505C260.458 239.498 260.419 238.587 260.159 238.509C259.89 238.432 259.731 238.588 259.491 238.448C259.247 238.305 258.26 239.309 258.052 239.111C257.846 238.913 257.928 238.302 257.766 238.06C257.605 237.815 257.989 237.273 257.882 236.997C257.773 236.725 256.8 236.708 256.752 236.41C256.704 236.123 257.917 235.743 257.928 235.44C257.938 235.135 257.231 234.8 257.301 234.516C257.373 234.224 256.906 233.62 257.032 233.356C257.16 233.089 257.898 233.146 258.075 232.923C258.256 232.691 259.047 233.302 259.269 233.12C259.489 232.937 259.463 232.703 259.717 232.578C259.967 232.456 259.84 231.127 260.115 231.067C260.385 231.011 260.751 231.584 261.036 231.594Z" fill="#54BA3C"/>
<path d="M200.364 251.38C200.648 251.391 200.845 251.672 201.108 251.749C201.379 251.828 201.445 252.168 201.685 252.311C201.928 252.451 202.413 252.107 202.618 252.306C202.824 252.503 203.142 252.615 203.302 252.861C203.464 253.103 202.607 253.851 202.714 254.127C202.82 254.399 203.231 254.395 203.279 254.692C203.326 254.977 203.53 255.16 203.518 255.464C203.507 255.77 203.195 255.905 203.125 256.186C203.056 256.481 202.751 256.477 202.625 256.74C202.496 257.009 202.585 257.187 202.406 257.414C202.229 257.646 202.452 258.147 202.23 258.329C202.01 258.509 202.017 259.091 201.765 259.217C201.515 259.339 201.326 260.112 201.05 260.17C200.782 260.226 200.351 259.306 200.068 259.294C199.786 259.287 199.749 258.374 199.488 258.297C199.219 258.22 199.059 258.377 198.82 258.236C198.575 258.094 197.588 259.098 197.382 258.901C197.175 258.702 197.256 258.091 197.094 257.849C196.934 257.606 197.316 257.064 197.21 256.786C197.102 256.514 196.127 256.495 196.08 256.199C196.033 255.912 197.243 255.534 197.256 255.229C197.266 254.924 196.561 254.588 196.631 254.306C196.701 254.013 196.236 253.41 196.362 253.144C196.489 252.876 197.226 252.935 197.405 252.711C197.582 252.479 198.377 253.093 198.597 252.909C198.817 252.726 198.793 252.493 199.045 252.367C199.294 252.247 199.168 250.916 199.443 250.856C199.713 250.797 200.082 251.37 200.364 251.38Z" fill="#54BA3C"/>
<path d="M170.769 340.654C171.05 340.665 171.25 340.945 171.513 341.023C171.785 341.103 171.849 341.442 172.088 341.584C172.332 341.724 172.818 341.38 173.021 341.578C173.227 341.775 173.545 341.887 173.707 342.135C173.867 342.375 173.01 343.123 173.117 343.4C173.223 343.671 173.634 343.667 173.683 343.965C173.73 344.252 173.933 344.433 173.922 344.736C173.91 345.042 173.598 345.177 173.528 345.459C173.459 345.754 173.155 345.749 173.03 346.011C172.901 346.28 172.99 346.458 172.811 346.685C172.634 346.917 172.857 347.418 172.635 347.6C172.413 347.781 172.422 348.362 172.169 348.49C171.918 348.611 171.729 349.384 171.453 349.443C171.185 349.499 170.755 348.578 170.471 348.564C170.191 348.558 170.154 347.645 169.892 347.567C169.623 347.489 169.464 347.645 169.224 347.505C168.98 347.362 167.993 348.367 167.787 348.169C167.579 347.97 167.661 347.359 167.499 347.117C167.339 346.874 167.721 346.332 167.615 346.054C167.506 345.782 166.532 345.764 166.486 345.469C166.437 345.18 167.651 344.802 167.661 344.497C167.671 344.192 166.965 343.859 167.036 343.574C167.104 343.282 166.641 342.678 166.767 342.415C166.892 342.146 167.631 342.206 167.808 341.98C167.986 341.748 168.78 342.362 169.002 342.178C169.221 341.996 169.198 341.761 169.45 341.635C169.7 341.514 169.573 340.184 169.847 340.124C170.118 340.074 170.489 340.645 170.769 340.654Z" fill="#54BA3C"/>
</svg>
