<svg width="24" height="24" viewBox="0 0 24 24" fill="none" xmlns="http://www.w3.org/2000/svg">
<path d="M19.4967 12C19.4967 11.77 19.4867 11.55 19.4667 11.32L21.3267 9.91C21.7267 9.61 21.8367 9.05 21.5867 8.61L19.7167 5.38C19.5968 5.16818 19.4029 5.00814 19.1722 4.93062C18.9414 4.8531 18.6902 4.86356 18.4667 4.96L16.3167 5.87C15.9467 5.61 15.5567 5.38 15.1467 5.19L14.8567 2.88C14.7967 2.38 14.3667 2 13.8667 2H10.1367C9.62674 2 9.19674 2.38 9.13674 2.88L8.84674 5.19C8.43674 5.38 8.04674 5.61 7.67674 5.87L5.52674 4.96C5.06674 4.76 4.52674 4.94 4.27674 5.38L2.40674 8.62C2.15674 9.06 2.26674 9.61 2.66674 9.92L4.52674 11.33C4.48528 11.779 4.48528 12.231 4.52674 12.68L2.66674 14.09C2.26674 14.39 2.15674 14.95 2.40674 15.39L4.27674 18.62C4.52674 19.06 5.06674 19.24 5.52674 19.04L7.67674 18.13C8.04674 18.39 8.43674 18.62 8.84674 18.81L9.13674 21.12C9.19674 21.62 9.62674 22 10.1267 22H13.8567C14.3567 22 14.7867 21.62 14.8467 21.12L15.1367 18.81C15.5467 18.62 15.9367 18.39 16.3067 18.13L18.4567 19.04C18.9167 19.24 19.4567 19.06 19.7067 18.62L21.5767 15.39C21.8267 14.95 21.7167 14.4 21.3167 14.09L19.4567 12.68C19.4867 12.45 19.4967 12.23 19.4967 12ZM12.0367 15.5C10.1067 15.5 8.53674 13.93 8.53674 12C8.53674 10.07 10.1067 8.5 12.0367 8.5C13.9667 8.5 15.5367 10.07 15.5367 12C15.5367 13.93 13.9667 15.5 12.0367 15.5Z" fill="black"/>
</svg>
